<?xml version="1.0" encoding="utf-8"?>
<!-- Generator: Adobe Illustrator 22.1.0, SVG Export Plug-In . SVG Version: 6.00 Build 0)  -->
<svg version="1.1" xmlns="http://www.w3.org/2000/svg" xmlns:xlink="http://www.w3.org/1999/xlink" x="0px" y="0px"
	 viewBox="0 0 708 708" style="enable-background:new 0 0 708 708;" xml:space="preserve">
<style type="text/css">
	.st0{fill:#202B43;}
	.st1{fill:#182338;}
	.st2{fill:none;stroke:#202B43;stroke-width:1.6433;stroke-dasharray:1.64,1.64;}
	.st3{display:none;}
	.st4{display:inline;opacity:0.15;}
	.st5{fill:url(#SVGID_1_);}
	.st6{fill:url(#SVGID_2_);}
	.st7{fill:url(#SVGID_3_);}
	.st8{fill:url(#SVGID_4_);}
	.st9{display:inline;fill:url(#SVGID_5_);fill-opacity:0.15;}
	.st10{display:inline;fill:url(#SVGID_6_);fill-opacity:0.15;}
	.st11{display:inline;fill:url(#SVGID_7_);fill-opacity:0.15;}
	.st12{display:inline;fill:url(#SVGID_8_);fill-opacity:0.15;}
	.st13{display:inline;fill:url(#SVGID_9_);fill-opacity:0.15;}
	.st14{display:inline;fill:url(#SVGID_10_);fill-opacity:0.15;}
	.st15{display:inline;fill:url(#SVGID_11_);fill-opacity:0.15;}
	.st16{display:inline;fill:url(#SVGID_12_);fill-opacity:0.15;}
	.st17{display:inline;fill:url(#SVGID_13_);fill-opacity:0.15;}
	.st18{display:inline;fill:url(#SVGID_14_);fill-opacity:0.15;}
	.st19{display:inline;fill:url(#SVGID_15_);fill-opacity:0.15;}
	.st20{display:inline;fill:url(#SVGID_16_);fill-opacity:0.15;}
	.st21{display:inline;fill:url(#SVGID_17_);fill-opacity:0.15;}
	.st22{display:inline;fill:url(#SVGID_18_);fill-opacity:0.15;}
	.st23{display:inline;fill:url(#SVGID_19_);fill-opacity:0.15;}
	.st24{display:inline;fill:url(#SVGID_20_);fill-opacity:0.15;}
	.st25{display:inline;fill:url(#SVGID_21_);fill-opacity:0.15;}
	.st26{display:inline;opacity:0.75;}
	.st27{opacity:0.75;}
	.st28{fill:url(#SVGID_22_);}
	.st29{opacity:0.8;fill:url(#SVGID_23_);enable-background:new    ;}
	.st30{opacity:0.8;fill:url(#SVGID_24_);enable-background:new    ;}
	.st31{fill:url(#SVGID_25_);}
	.st32{fill:url(#SVGID_26_);}
	.st33{fill:url(#SVGID_27_);}
	.st34{fill:url(#SVGID_28_);}
	.st35{fill:url(#SVGID_29_);}
	.st36{fill:url(#SVGID_30_);}
	.st37{fill:#273552;}
	.st38{opacity:0.15;}
	.st39{fill:#070E1D;filter:url(#Adobe_OpacityMaskFilter);}
	.st40{fill:#070E1D;}
	.st41{mask:url(#mask0_1_);}
	.st42{fill:#4D5F83;}
	.st43{fill:#4D5F83;fill-opacity:0.15;stroke:#4D5F83;stroke-width:1.6433;stroke-miterlimit:16;}
	.st44{fill:#4D5F83;fill-opacity:0.15;stroke:#4D5F83;stroke-width:1.6433;stroke-miterlimit:2.3662;}
	.st45{opacity:0.25;}
	.st46{fill:#343F57;}
	.st47{opacity:0.5;fill:#273552;enable-background:new    ;}
	.st48{opacity:0.7;fill:#343F57;enable-background:new    ;}
	.st49{opacity:0.35;fill:#273552;enable-background:new    ;}
	.st50{fill:none;stroke:#FF5859;stroke-width:3;stroke-linecap:round;}
	.st51{fill:none;stroke:#24E8AD;stroke-width:3;stroke-linecap:round;}
	.st52{display:inline;fill:#FF5859;}
	.st53{display:inline;fill:#24E8AD;}
	.st54{display:inline;fill:#E5EBEF;}
	.st55{display:inline;fill:#7986A3;}
</style>
<g id="Map">
	<path class="st0" d="M587.3,178.7v41.4h-33.9V211h-40.5v-21.5H555v-10.8H587.3z"/>
	<path class="st0" d="M474.8,429.4h8.3v20.7h-6.6v38.1h-22.3v5h-17.4v-5.8h-22.3v-67h26.5v-5h9.9v5h24V429.4z"/>
	<path class="st0" d="M608,370.7v-46.3h-43.9v46.3H608z"/>
	<path class="st0" d="M548.4,324.3v1.7h-43v-11.6h-20.7v14.9H483v22.3h19.9l3.3-3.3h57.9v-24H548.4z"/>
	<path class="st0" d="M478.9,329.3h4.1v14.9h-4.1v18.2h-47.2v-3.3H421v-44.7h57.9V329.3z"/>
	<path class="st0" d="M622.9,378.9h48v43.9h-52.1l-62.9,39.7h-23.2v16.6H483v-49.7h0.8v-28.1h25.7v16.6h42.2l69.5-40.6L622.9,378.9z
		"/>
	<path class="st0" d="M398.6,113.3V29.7l13.2-14.9h7.4L434.6,2l14.1,5.4h8.3l6.2,6.2v5.8l6.6,6.6v26.1l5,5v22.3H445v33.9H398.6z"/>
	<rect x="445" y="79.4" class="st0" width="67.9" height="86.1"/>
	<path class="st0" d="M512.8,136.5h109.2v35.6h-22.3v-6.6h-86.9V136.5z"/>
	<path class="st0" d="M599.7,172.1v46.3h62.9v-19.9h-13.2v-9.9h-9.9v-16.6H599.7z"/>
	<path class="st0" d="M553.4,220.1h48v-9.9h48v8.3v7.4h22.3v101h-23.2v-2.5H548.4v-11.6h-22.3v-77h27.3V220.1z"/>
	<path class="st0" d="M621.2,324.3h27.3v54.6h-25.7l-1.7-1.7V324.3z"/>
	<rect x="431.7" y="362.4" class="st0" width="25.7" height="53"/>
	<path class="st0" d="M479.7,165.4h33.1v116.7h-17.4V297h-19v-9.1h-49.7v-35.6h53V165.4z"/>
	<path class="st0" d="M398.6,113.3V79.4h-80.3v56.3H250v28.1h132.9v-50.5H398.6z"/>
	<path class="st0" d="M234,135.6h21.5v93.5h33.9v42.2h-73.7v-62.1h-62.1V182H234V135.6z"/>
	<path class="st0" d="M222.4,277.2v-5.8h8.3v5.8h58.8v23.2h-73.7v-23.2H222.4z"/>
	<path class="st0" d="M153.7,209.3h31.4v79.4h-17.4v31.4l0.8,19v18.2H54.4v-68.7H37v-78.6h116.7V209.3z"/>
	<path class="st0" d="M243.9,300.3h24.8v5h19.9v81.9h-23.2l-5,2.5h-6.6v-0.8H253l-5,2.5h-1.7v-4.1h-21.5v-48l1.7-19v-15.7h17.4
		V300.3z"/>
	<path class="st0" d="M226.5,320.2h-58.8l0.8,19h56.3L226.5,320.2z"/>
	<path class="st0" d="M289.4,260.6v-19.9h12.4V235l19.4-19h13.7v-32.3h46.3v33.1h14.9l18.2,19v28.1h12.4v21.5h-12.4v43.9h-51.3v8.3
		h-21.5v-8.3h-39.7v-68.7H289.4z"/>
	<path class="st0" d="M301.8,337.6h77v42.6l2.5,3.7v17.4l-1.7,1.7v13.2l-56.3,0.8v-48h-21.5V337.6z"/>
	<path class="st0" d="M224.9,417h98.5l56.3-0.8h28.1v51.3H373v5h-43v-5H224.9V417z"/>
	<path class="st0" d="M288.6,393v24h-63.7v-24h24l5-2.5v-0.8h6.6v1.7h0.8l5-2.5h1.7v4.1H288.6z"/>
	<rect x="109.8" y="408.7" class="st0" width="28.1" height="38.9"/>
	<path class="st0" d="M82.5,357.4h29l-1.7,6.2v84h-1.7v13.2H86.7v-44.7h-4.1V357.4z"/>
	<path class="st0" d="M59.3,460.9h48.8v19h41.4v15.3h7.4v-15.3h49.7v73.7h-51.3v-36.2h-5.8v22.1H59.3V460.9z"/>
	<path class="st0" d="M139.6,580.9v-27.3h67v-10.8h47.2v-22.3h73.7v22.3H373v-19.9h41.4v-15.7l15.7-14.1h46.3v82.8H353.1v-5.8h-77
		v11.6h-22.3l-0.8-0.8H139.6z"/>
	<path class="st0" d="M276.2,581.7h-22.3v97.2l38.9,26.1h74.5l44.7-29.8V652l-5.8-12l5.8-9.5v-6.6h-39.7v-48h-19v48h-77V581.7z"/>
	<path class="st0" d="M224.9,479.5v-12h68.7v11.6h9.1v5.8l2.5,2.9v32.7h-22.3v-8.3h-57.1v-29.8L224.9,479.5z"/>
	<path class="st0" d="M317.5,472.5h90.2v46.3h-5.8v4.1h-11.6v-4.1h-5v-23.2h-67.9V472.5z"/>
</g>
<g id="Zone_separators">
	<path class="st1" d="M225.7,320.2h0.8l-1.7,19H224L225.7,320.2z"/>
	<path class="st1" d="M167.8,320.2h0.8l0.8,19h-0.8L167.8,320.2z"/>
	<rect x="253.8" y="389.7" class="st1" width="6.6" height="0.8"/>
	<path class="st1" d="M323.3,415.4h56.3v0.8h-56.3V415.4z"/>
	<rect x="224.9" y="416.2" class="st1" width="63.7" height="0.8"/>
	<path class="st1" d="M482.2,429.4h0.8v20.7h-0.8V429.4z"/>
	<path class="st1" d="M621.2,324.3h28.1v2.5h-0.8v-1.7h-27.3V324.3z"/>
	<rect x="341.5" y="336.7" class="st1" width="21.5" height="0.8"/>
	<rect x="599.7" y="165.4" class="st1" width="22.3" height="0.8"/>
	<rect x="479.7" y="165.4" class="st1" width="33.1" height="0.8"/>
	<rect x="512.8" y="136.5" class="st1" width="0.8" height="29"/>
	<rect x="425.9" y="263.9" class="st1" width="0.8" height="21.5"/>
	<rect x="512.8" y="189.4" class="st1" width="0.8" height="21.5"/>
	<rect x="553.4" y="219.2" class="st1" width="33.9" height="0.8"/>
	<rect x="562.5" y="324.3" class="st1" width="29" height="0.8"/>
	<rect x="561.7" y="326" class="st1" width="0.8" height="22.3"/>
	<rect x="478.9" y="329.3" class="st1" width="0.8" height="14.9"/>
	<path class="st1" d="M623.1,378.1l-1.8-1.8v1l-0.1,0.1l1.6,1.6h25.8v-0.8H623.1z"/>
	<rect x="440.8" y="415.4" class="st1" width="9.9" height="0.8"/>
	<rect x="436.7" y="492.3" class="st1" width="17.4" height="0.8"/>
	<rect x="390.4" y="522.1" class="st1" width="11.6" height="0.8"/>
	<rect x="330" y="471.6" class="st1" width="43" height="0.8"/>
	<rect x="224.9" y="467.5" class="st1" width="68.7" height="0.8"/>
	<rect x="282.8" y="519.6" class="st1" width="22.3" height="0.8"/>
	<rect x="206.6" y="556.9" class="st1" width="0.8" height="24"/>
	<rect x="82.5" y="357.4" class="st1" width="29" height="0.8"/>
	<rect x="289.4" y="240.7" class="st1" width="0.8" height="19.9"/>
	<rect x="255.5" y="135.6" class="st1" width="0.8" height="28.1"/>
	<rect x="222.4" y="271.4" class="st1" width="8.3" height="0.8"/>
	<rect x="243.9" y="300.3" class="st1" width="24.8" height="0.8"/>
	<rect x="153.7" y="209.3" class="st1" width="31.4" height="0.8"/>
	<path class="st2" d="M648.6,224.2v-14.9h-46.3v14.9"/>
</g>
<g id="Colors" class="st3">
	<g class="st4">
		
			<linearGradient id="SVGID_1_" gradientUnits="userSpaceOnUse" x1="180.491" y1="249.058" x2="180.491" y2="68.948" gradientTransform="matrix(1 0 0 -1 0 710)">
			<stop  offset="0" style="stop-color:#FF5859"/>
			<stop  offset="1" style="stop-color:#FF5859;stop-opacity:0"/>
		</linearGradient>
		<path class="st5" d="M154.3,495.2h2.7v-15.3h49.7v73.7h-51.3v-36.2h-1V495.2z"/>
		
			<linearGradient id="SVGID_2_" gradientUnits="userSpaceOnUse" x1="332.8475" y1="249.058" x2="332.8475" y2="68.948" gradientTransform="matrix(1 0 0 -1 0 710)">
			<stop  offset="0" style="stop-color:#FF5859"/>
			<stop  offset="1" style="stop-color:#FF5859;stop-opacity:0"/>
		</linearGradient>
		<path class="st6" d="M276.2,581.7h-22.3v97.2l38.9,26.1h74.5l44.7-29.8V652l-5.8-12l5.8-9.5v-6.6h-39.7v-48h-19v48h-77V581.7z"/>
		
			<linearGradient id="SVGID_3_" gradientUnits="userSpaceOnUse" x1="308.0205" y1="249.058" x2="308.0205" y2="68.948" gradientTransform="matrix(1 0 0 -1 0 710)">
			<stop  offset="0" style="stop-color:#FF5859"/>
			<stop  offset="1" style="stop-color:#FF5859;stop-opacity:0"/>
		</linearGradient>
		<path class="st7" d="M139.6,580.9v-27.3h67l0-10.8h47.2v-22.3h73.7v22.3H373v-19.9h41.4v-15.7h62.1v68.7H353.1v-5.8h-77v11.6
			h-22.3l-0.8-0.8H139.6z"/>
		
			<linearGradient id="SVGID_4_" gradientUnits="userSpaceOnUse" x1="394.8465" y1="249.058" x2="394.8465" y2="68.948" gradientTransform="matrix(1 0 0 -1 0 710)">
			<stop  offset="0" style="stop-color:#FF5859"/>
			<stop  offset="1" style="stop-color:#FF5859;stop-opacity:0"/>
		</linearGradient>
		<path class="st8" d="M382,472.5h25.8v46.3h-5.8v4.1h-11.6v-4.1h-5v-23.2H382V472.5z"/>
	</g>
	
		<linearGradient id="SVGID_5_" gradientUnits="userSpaceOnUse" x1="631.1776" y1="708" x2="631.1776" y2="340.473" gradientTransform="matrix(1 0 0 -1 0 710)">
		<stop  offset="0.2833" style="stop-color:#24E8AD;stop-opacity:0"/>
		<stop  offset="1" style="stop-color:#24E8AD"/>
	</linearGradient>
	<path class="st9" d="M599.7,172.1v46.3h62.9v-19.9h-13.2v-9.9h-9.9v-16.5H599.7z"/>
	
		<linearGradient id="SVGID_6_" gradientUnits="userSpaceOnUse" x1="567.457" y1="708" x2="567.457" y2="340.473" gradientTransform="matrix(1 0 0 -1 0 710)">
		<stop  offset="0.2833" style="stop-color:#24E8AD;stop-opacity:0"/>
		<stop  offset="1" style="stop-color:#24E8AD"/>
	</linearGradient>
	<path class="st10" d="M512.8,136.5h109.2v35.6h-22.3v-6.6h-86.9V136.5z"/>
	
		<linearGradient id="SVGID_7_" gradientUnits="userSpaceOnUse" x1="634.9016" y1="708" x2="634.9016" y2="340.473" gradientTransform="matrix(1 0 0 -1 0 710)">
		<stop  offset="0.2833" style="stop-color:#24E8AD;stop-opacity:0"/>
		<stop  offset="1" style="stop-color:#24E8AD"/>
	</linearGradient>
	<path class="st11" d="M621.2,324.3h27.3V359h-27.3V324.3z"/>
	
		<linearGradient id="SVGID_8_" gradientUnits="userSpaceOnUse" x1="555.6375" y1="708" x2="555.6375" y2="340.473" gradientTransform="matrix(1 0 0 -1 0 710)">
		<stop  offset="0.2833" style="stop-color:#24E8AD;stop-opacity:0"/>
		<stop  offset="1" style="stop-color:#24E8AD"/>
	</linearGradient>
	<path class="st12" d="M548.4,324.3v1.7h-1.3v22.3h17l0-24H548.4z"/>
	
		<linearGradient id="SVGID_9_" gradientUnits="userSpaceOnUse" x1="358.0875" y1="708" x2="358.0875" y2="340.473" gradientTransform="matrix(1 0 0 -1 0 710)">
		<stop  offset="0.2833" style="stop-color:#24E8AD;stop-opacity:0"/>
		<stop  offset="1" style="stop-color:#24E8AD"/>
	</linearGradient>
	<path class="st13" d="M289.4,260.6v-19.9h12.4V235l19.4-19h13.7v-32.3h46.3v33.1h14.9l18.2,19v28.1h12.4v21.5h-12.4v43.9h-51.3v3.6
		h-21.5v-3.6h-39.7v-68.7H289.4z"/>
	
		<linearGradient id="SVGID_10_" gradientUnits="userSpaceOnUse" x1="197.13" y1="708" x2="197.13" y2="340.473" gradientTransform="matrix(1 0 0 -1 0 710)">
		<stop  offset="0.2833" style="stop-color:#24E8AD;stop-opacity:0"/>
		<stop  offset="1" style="stop-color:#24E8AD"/>
	</linearGradient>
	<path class="st14" d="M226.5,320.2h-58.8l0.8,19h56.3L226.5,320.2z"/>
	
		<linearGradient id="SVGID_11_" gradientUnits="userSpaceOnUse" x1="256.7135" y1="708" x2="256.7135" y2="340.473" gradientTransform="matrix(1 0 0 -1 0 710)">
		<stop  offset="0.2833" style="stop-color:#24E8AD;stop-opacity:0"/>
		<stop  offset="1" style="stop-color:#24E8AD"/>
	</linearGradient>
	<path class="st15" d="M243.9,300.3h24.8v5h19.9V348h-63.7v-8.7l1.7-19v-15.7h17.4V300.3z"/>
	
		<linearGradient id="SVGID_12_" gradientUnits="userSpaceOnUse" x1="111.0655" y1="708" x2="111.0655" y2="340.473" gradientTransform="matrix(1 0 0 -1 0 710)">
		<stop  offset="0.2833" style="stop-color:#24E8AD;stop-opacity:0"/>
		<stop  offset="1" style="stop-color:#24E8AD"/>
	</linearGradient>
	<path class="st16" d="M153.7,209.3h31.4v79.4h-17.4v31.4l0.8,19v18.2H54.4v-68.7H37v-78.6h116.7V209.3z"/>
	
		<linearGradient id="SVGID_13_" gradientUnits="userSpaceOnUse" x1="252.5755" y1="708" x2="252.5755" y2="340.473" gradientTransform="matrix(1 0 0 -1 0 710)">
		<stop  offset="0.2833" style="stop-color:#24E8AD;stop-opacity:0"/>
		<stop  offset="1" style="stop-color:#24E8AD"/>
	</linearGradient>
	<path class="st17" d="M222.4,277.2v-5.8h8.3v5.8h58.8v23.2h-73.7v-23.2H222.4z"/>
	
		<linearGradient id="SVGID_14_" gradientUnits="userSpaceOnUse" x1="221.5425" y1="708" x2="221.5425" y2="340.473" gradientTransform="matrix(1 0 0 -1 0 710)">
		<stop  offset="0.2833" style="stop-color:#24E8AD;stop-opacity:0"/>
		<stop  offset="1" style="stop-color:#24E8AD"/>
	</linearGradient>
	<path class="st18" d="M234,135.6h21.5v93.5h33.9v42.2h-73.7v-62.1h-62.1V182H234V135.6z"/>
	
		<linearGradient id="SVGID_15_" gradientUnits="userSpaceOnUse" x1="327.0545" y1="708" x2="327.0545" y2="340.473" gradientTransform="matrix(1 0 0 -1 0 710)">
		<stop  offset="0.2833" style="stop-color:#24E8AD;stop-opacity:0"/>
		<stop  offset="1" style="stop-color:#24E8AD"/>
	</linearGradient>
	<path class="st19" d="M398.6,113.3V79.4h-80.3v56.3h-62.9v28.1h127.4v-50.5H398.6z"/>
	
		<linearGradient id="SVGID_16_" gradientUnits="userSpaceOnUse" x1="469.8065" y1="708" x2="469.8065" y2="340.473" gradientTransform="matrix(1 0 0 -1 0 710)">
		<stop  offset="0.2833" style="stop-color:#24E8AD;stop-opacity:0"/>
		<stop  offset="1" style="stop-color:#24E8AD"/>
	</linearGradient>
	<path class="st20" d="M479.7,165.4h33.1v116.7h-17.4V297h-19v-9.1h-49.7v-35.6h53V165.4z"/>
	
		<linearGradient id="SVGID_17_" gradientUnits="userSpaceOnUse" x1="598.903" y1="708" x2="598.903" y2="340.473" gradientTransform="matrix(1 0 0 -1 0 710)">
		<stop  offset="0.2833" style="stop-color:#24E8AD;stop-opacity:0"/>
		<stop  offset="1" style="stop-color:#24E8AD"/>
	</linearGradient>
	<path class="st21" d="M553.4,220.1h48v-9.9h48v15.7h22.3v101h-23.2v-2.5H548.4v-11.6h-22.3v-77h27.3V220.1z"/>
	
		<linearGradient id="SVGID_18_" gradientUnits="userSpaceOnUse" x1="478.9095" y1="708" x2="478.9095" y2="340.473" gradientTransform="matrix(1 0 0 -1 0 710)">
		<stop  offset="0.2833" style="stop-color:#24E8AD;stop-opacity:0"/>
		<stop  offset="1" style="stop-color:#24E8AD"/>
	</linearGradient>
	<path class="st22" d="M445,79.4h67.9v86.1H445V79.4z"/>
	
		<linearGradient id="SVGID_19_" gradientUnits="userSpaceOnUse" x1="436.7045" y1="708" x2="436.7045" y2="340.473" gradientTransform="matrix(1 0 0 -1 0 710)">
		<stop  offset="0.2833" style="stop-color:#24E8AD;stop-opacity:0"/>
		<stop  offset="1" style="stop-color:#24E8AD"/>
	</linearGradient>
	<path class="st23" d="M398.6,113.3V29.7l13.2-14.9h7.4L434.6,2l14.1,5.4h8.3l6.2,6.2v5.8l6.6,6.6v26.1l5,5v22.3H445v33.9H398.6z"/>
	
		<linearGradient id="SVGID_20_" gradientUnits="userSpaceOnUse" x1="586.077" y1="708" x2="586.077" y2="340.473" gradientTransform="matrix(1 0 0 -1 0 710)">
		<stop  offset="0.2833" style="stop-color:#24E8AD;stop-opacity:0"/>
		<stop  offset="1" style="stop-color:#24E8AD"/>
	</linearGradient>
	<path class="st24" d="M608,370.7v-46.3h-43.9v46.3H608z"/>
	
		<linearGradient id="SVGID_21_" gradientUnits="userSpaceOnUse" x1="550.078" y1="708" x2="550.078" y2="340.473" gradientTransform="matrix(1 0 0 -1 0 710)">
		<stop  offset="0.2833" style="stop-color:#24E8AD;stop-opacity:0"/>
		<stop  offset="1" style="stop-color:#24E8AD"/>
	</linearGradient>
	<path class="st25" d="M587.3,178.7v41.4h-33.9V211h-40.5v-21.5H555v-10.8H587.3z"/>
	<g class="st26">
		<g class="st27">
			
				<linearGradient id="SVGID_22_" gradientUnits="userSpaceOnUse" x1="483.047" y1="376.982" x2="542.63" y2="376.982" gradientTransform="matrix(1 0 0 -1 0 710)">
				<stop  offset="0.2292" style="stop-color:#182338"/>
				<stop  offset="1" style="stop-color:#182338;stop-opacity:0"/>
			</linearGradient>
			<path class="st28" d="M548.4,324.3v1.7h-43v-11.6h-20.7v14.9H483v22.3h19.9l3.3-3.3h57.9v-24H548.4z"/>
			<path class="st1" d="M478.9,329.3h4.1v14.9h-4.1v18.2h-47.2v-3.3H421v-44.7h57.9V329.3z"/>
			
				<linearGradient id="SVGID_23_" gradientUnits="userSpaceOnUse" x1="483.047" y1="281.814" x2="554.629" y2="281.814" gradientTransform="matrix(1 0 0 -1 0 710)">
				<stop  offset="0" style="stop-color:#182338;stop-opacity:0"/>
				<stop  offset="1" style="stop-color:#182338"/>
			</linearGradient>
			<path class="st29" d="M622.9,378.9h48v43.9h-52.1l-62.9,39.7h-23.2v16.6H483v-49.7h0.8v-28.1h25.7v16.6h42.2l69.5-40.6
				L622.9,378.9z"/>
			
				<linearGradient id="SVGID_24_" gradientUnits="userSpaceOnUse" x1="634.9016" y1="385.671" x2="634.9016" y2="331.053" gradientTransform="matrix(1 0 0 -1 0 710)">
				<stop  offset="0" style="stop-color:#182338;stop-opacity:0"/>
				<stop  offset="1" style="stop-color:#182338"/>
			</linearGradient>
			<path class="st30" d="M621.2,324.3h27.3v54.6h-25.7l-1.7-1.7V324.3z"/>
			
				<linearGradient id="SVGID_25_" gradientUnits="userSpaceOnUse" x1="444.566" y1="347.604" x2="444.566" y2="294.6411" gradientTransform="matrix(1 0 0 -1 0 710)">
				<stop  offset="0.2552" style="stop-color:#182338"/>
				<stop  offset="1" style="stop-color:#182338;stop-opacity:0"/>
			</linearGradient>
			<rect x="431.7" y="362.4" class="st31" width="25.7" height="53"/>
			
				<linearGradient id="SVGID_26_" gradientUnits="userSpaceOnUse" x1="341.536" y1="372.43" x2="341.536" y2="292.986" gradientTransform="matrix(1 0 0 -1 0 710)">
				<stop  offset="0" style="stop-color:#182338;stop-opacity:0"/>
				<stop  offset="1" style="stop-color:#182338"/>
			</linearGradient>
			<path class="st32" d="M301.8,337.6h77v42.6l2.5,3.7v17.4l-1.7,1.7v13.2l-56.3,0.8v-48h-21.5V337.6z"/>
			<path class="st1" d="M224.9,417h98.5l56.3-0.8h28.1v51.3H373v5h-43v-5H224.9V417z"/>
			
				<linearGradient id="SVGID_27_" gradientUnits="userSpaceOnUse" x1="256.7125" y1="321.123" x2="256.7125" y2="292.986" gradientTransform="matrix(1 0 0 -1 0 710)">
				<stop  offset="0" style="stop-color:#182338;stop-opacity:0"/>
				<stop  offset="1" style="stop-color:#182338"/>
			</linearGradient>
			<path class="st33" d="M288.6,393v24h-63.7v-24h24l5-2.5v-0.8h6.6v1.7h0.8l5-2.5h1.7v4.1H288.6z"/>
			
				<radialGradient id="SVGID_28_" cx="-142.6322" cy="856.8017" r="1" gradientTransform="matrix(3.749771e-15 61.2384 80.4799 -4.927972e-15 -68662.6016 9255.0244)" gradientUnits="userSpaceOnUse">
				<stop  offset="0" style="stop-color:#182338"/>
				<stop  offset="1" style="stop-color:#182338;stop-opacity:0"/>
			</radialGradient>
			<path class="st34" d="M139.6,580.9v-27.3h67v-10.8h47.2v-22.3h73.7v22.3H373v-19.9h41.4v-15.7l15.7-14.1h46.3v82.8H353.1v-5.8
				h-77v11.6h-22.3l-0.8-0.8H139.6z"/>
			<path class="st1" d="M224.9,479.5v-12h68.7v11.6h9.1v5.8l2.5,2.9v32.7h-22.3v-8.3h-57.1v-29.8L224.9,479.5z"/>
		</g>
		
			<linearGradient id="SVGID_29_" gradientUnits="userSpaceOnUse" x1="528.976" y1="555.7315" x2="598.076" y2="555.7315" gradientTransform="matrix(1 0 0 -1 0 710)">
			<stop  offset="0" style="stop-color:#273552;stop-opacity:0"/>
			<stop  offset="1" style="stop-color:#273552"/>
		</linearGradient>
		<path class="st35" d="M512.8,136.5h109.2v35.6h-22.3v-6.6h-86.9V136.5z"/>
		
			<linearGradient id="SVGID_30_" gradientUnits="userSpaceOnUse" x1="362.639" y1="237.54" x2="362.639" y2="187.06" gradientTransform="matrix(1 0 0 -1 0 710)">
			<stop  offset="0.4601" style="stop-color:#273552"/>
			<stop  offset="1" style="stop-color:#273552;stop-opacity:0"/>
		</linearGradient>
		<path class="st36" d="M317.5,472.5h90.2v46.3h-5.8v4.1h-11.6v-4.1h-5v-23.2h-67.9V472.5z"/>
		<path class="st37" d="M599.7,172.1v46.3h62.9v-19.9h-13.2v-9.9h-9.9v-16.6H599.7z"/>
	</g>
</g>
<g id="Overlay">
	<g id="Rayures" class="st38">
		<defs>
			<filter id="Adobe_OpacityMaskFilter" filterUnits="userSpaceOnUse" x="-12.1" y="122.1" width="737.6" height="271.5">
				<feColorMatrix  type="matrix" values="1 0 0 0 0  0 1 0 0 0  0 0 1 0 0  0 0 0 1 0"/>
			</filter>
		</defs>
		<mask maskUnits="userSpaceOnUse" x="-12.1" y="122.1" width="737.6" height="271.5" id="mask0_1_">
			<path class="st39" d="M589,224.2c0-2.3,1.8-4.1,4.1-4.1h4.2c2.3,0,4.1-1.8,4.1-4.1v-1.7c0-2.3,1.8-4.1,4.1-4.1h39.8
				c2.3,0,4.1,1.8,4.1,4.1v7.5c0,2.3,1.8,4.1,4.1,4.1h14.1c2.3,0,4.1,1.8,4.1,4.1v51.4c0,2.3-1.8,4.1-4.1,4.1h-74.5
				c-2.3,0-4.1-1.8-4.1-4.1V224.2z"/>
			<path class="st40" d="M319.2,242.4c0-2.3,1.8-4.1,4.1-4.1h75.4c2.3,0,4.1,1.8,4.1,4.1v67.1c0,2.3-1.8,4.1-4.1,4.1h-75.4
				c-2.3,0-4.1-1.8-4.1-4.1V242.4z"/>
			<path class="st40" d="M54.4,214.2c0-2.3,1.8-4.1,4.1-4.1h91.1c2.3,0,4.1,1.8,4.1,4.1v70.4c0,2.3-1.8,4.1-4.1,4.1H75
				c-2.3,0-4.1-1.8-4.1-4.1v-28.2c0-2.3-1.8-4.1-4.1-4.1h-8.3c-2.3,0-4.1-1.8-4.1-4.1V214.2z"/>
		</mask>
		<g class="st41">
			
				<rect x="68" y="292.3" transform="matrix(0.7074 -0.7068 0.7068 0.7074 -161.0756 199.2591)" class="st42" width="184.1" height="3.7"/>
			
				<rect x="62.8" y="287" transform="matrix(0.7074 -0.7068 0.7068 0.7074 -158.8869 193.974)" class="st42" width="184.1" height="3.7"/>
			
				<rect x="57.5" y="281.7" transform="matrix(0.7074 -0.7068 0.7068 0.7074 -156.6987 188.6875)" class="st42" width="184.1" height="3.7"/>
			
				<rect x="52.2" y="276.4" transform="matrix(0.7074 -0.7068 0.7068 0.7074 -154.5109 183.4023)" class="st42" width="184.1" height="3.7"/>
			
				<rect x="46.9" y="271.2" transform="matrix(0.7074 -0.7068 0.7068 0.7074 -152.3225 178.1165)" class="st42" width="184.1" height="3.7"/>
			
				<rect x="41.6" y="265.9" transform="matrix(0.7074 -0.7068 0.7068 0.7074 -150.134 172.8307)" class="st42" width="184.1" height="3.7"/>
			
				<rect x="36.3" y="260.6" transform="matrix(0.7074 -0.7068 0.7068 0.7074 -147.9463 167.5452)" class="st42" width="184.1" height="3.7"/>
			
				<rect x="31" y="255.3" transform="matrix(0.7074 -0.7068 0.7068 0.7074 -145.7577 162.2598)" class="st42" width="184.1" height="3.7"/>
			
				<rect x="25.7" y="250" transform="matrix(0.7074 -0.7068 0.7068 0.7074 -143.5701 156.9742)" class="st42" width="184.1" height="3.7"/>
			
				<rect x="20.4" y="244.7" transform="matrix(0.7074 -0.7068 0.7068 0.7074 -141.3816 151.6885)" class="st42" width="184.1" height="3.7"/>
			
				<rect x="15.2" y="239.4" transform="matrix(0.7074 -0.7068 0.7068 0.7074 -139.1932 146.4027)" class="st42" width="184.1" height="3.7"/>
			
				<rect x="9.9" y="234.2" transform="matrix(0.7074 -0.7068 0.7068 0.7074 -137.0056 141.1167)" class="st42" width="184.1" height="3.7"/>
			
				<rect x="4.6" y="228.9" transform="matrix(0.7074 -0.7068 0.7068 0.7074 -134.8169 135.8316)" class="st42" width="184.1" height="3.7"/>
			
				<rect x="-0.7" y="223.6" transform="matrix(0.7074 -0.7068 0.7068 0.7074 -132.6286 130.5455)" class="st42" width="184.1" height="3.7"/>
			
				<rect x="-6" y="218.3" transform="matrix(0.7074 -0.7068 0.7068 0.7074 -130.4402 125.2597)" class="st42" width="184.1" height="3.7"/>
			
				<rect x="-11.3" y="213" transform="matrix(0.7074 -0.7068 0.7068 0.7074 -128.2525 119.9742)" class="st42" width="184.1" height="3.7"/>
			
				<rect x="-16.6" y="207.7" transform="matrix(0.7074 -0.7068 0.7068 0.7074 -126.0639 114.6888)" class="st42" width="184.1" height="3.7"/>
			
				<rect x="-21.9" y="202.4" transform="matrix(0.7074 -0.7068 0.7068 0.7074 -123.8762 109.4033)" class="st42" width="184.1" height="3.7"/>
			
				<rect x="-27.2" y="197.2" transform="matrix(0.7074 -0.7068 0.7068 0.7074 -121.6876 104.1178)" class="st42" width="184.1" height="3.7"/>
			
				<rect x="-32.5" y="191.9" transform="matrix(0.7074 -0.7068 0.7068 0.7074 -119.4992 98.832)" class="st42" width="184.1" height="3.7"/>
			
				<rect x="-37.7" y="186.6" transform="matrix(0.7074 -0.7068 0.7068 0.7074 -117.3109 93.5458)" class="st42" width="184.1" height="3.7"/>
			
				<rect x="315.2" y="325.3" transform="matrix(0.7074 -0.7068 0.7068 0.7074 -112.0984 383.623)" class="st42" width="184.1" height="3.7"/>
			
				<rect x="309.9" y="320" transform="matrix(0.7074 -0.7068 0.7068 0.7074 -109.9097 378.3377)" class="st42" width="184.1" height="3.7"/>
			
				<rect x="304.6" y="314.8" transform="matrix(0.7074 -0.7068 0.7068 0.7074 -107.7213 373.0518)" class="st42" width="184.1" height="3.7"/>
			
				<rect x="299.3" y="309.5" transform="matrix(0.7074 -0.7068 0.7068 0.7074 -105.5337 367.7661)" class="st42" width="184.1" height="3.7"/>
			
				<rect x="294" y="304.2" transform="matrix(0.7074 -0.7068 0.7068 0.7074 -103.3453 362.4802)" class="st42" width="184.1" height="3.7"/>
			
				<rect x="288.8" y="298.9" transform="matrix(0.7074 -0.7068 0.7068 0.7074 -101.1567 357.1949)" class="st42" width="184.1" height="3.7"/>
			
				<rect x="283.5" y="293.6" transform="matrix(0.7074 -0.7068 0.7068 0.7074 -98.9693 351.9086)" class="st42" width="184.1" height="3.7"/>
			
				<rect x="278.2" y="288.3" transform="matrix(0.7074 -0.7068 0.7068 0.7074 -96.7807 346.6233)" class="st42" width="184.1" height="3.7"/>
			
				<rect x="272.9" y="283" transform="matrix(0.7074 -0.7068 0.7068 0.7074 -94.593 341.3377)" class="st42" width="184.1" height="3.7"/>
			
				<rect x="267.6" y="277.8" transform="matrix(0.7074 -0.7068 0.7068 0.7074 -92.4043 336.0524)" class="st42" width="184.1" height="3.7"/>
			
				<rect x="262.3" y="272.5" transform="matrix(0.7074 -0.7068 0.7068 0.7074 -90.216 330.7665)" class="st42" width="184.1" height="3.7"/>
			
				<rect x="257" y="267.2" transform="matrix(0.7074 -0.7068 0.7068 0.7074 -88.0283 325.4808)" class="st42" width="184.1" height="3.7"/>
			
				<rect x="251.7" y="261.9" transform="matrix(0.7074 -0.7068 0.7068 0.7074 -85.84 320.1949)" class="st42" width="184.1" height="3.7"/>
			
				<rect x="246.4" y="256.6" transform="matrix(0.7074 -0.7068 0.7068 0.7074 -83.6516 314.9089)" class="st42" width="184.1" height="3.7"/>
			
				<rect x="241.1" y="251.3" transform="matrix(0.7074 -0.7068 0.7068 0.7074 -81.463 309.6237)" class="st42" width="184.1" height="3.7"/>
			
				<rect x="235.9" y="246" transform="matrix(0.7074 -0.7068 0.7068 0.7074 -79.2753 304.338)" class="st42" width="184.1" height="3.7"/>
			
				<rect x="230.6" y="240.8" transform="matrix(0.7074 -0.7068 0.7068 0.7074 -77.0866 299.0528)" class="st42" width="184.1" height="3.7"/>
			
				<rect x="225.3" y="235.5" transform="matrix(0.7074 -0.7068 0.7068 0.7074 -74.8993 293.7664)" class="st42" width="184.1" height="3.7"/>
			
				<rect x="220" y="230.2" transform="matrix(0.7074 -0.7068 0.7068 0.7074 -72.7106 288.4812)" class="st42" width="184.1" height="3.7"/>
			
				<rect x="214.7" y="224.9" transform="matrix(0.7074 -0.7068 0.7068 0.7074 -70.522 283.196)" class="st42" width="184.1" height="3.7"/>
			
				<rect x="209.4" y="219.6" transform="matrix(0.7074 -0.7068 0.7068 0.7074 -68.3346 277.9096)" class="st42" width="184.1" height="3.7"/>
			
				<rect x="567" y="311.5" transform="matrix(0.7074 -0.7068 0.7068 0.7074 -28.6461 557.5483)" class="st42" width="184.1" height="3.7"/>
			
				<rect x="561.7" y="306.2" transform="matrix(0.7074 -0.7068 0.7068 0.7074 -26.4572 552.2637)" class="st42" width="184.1" height="3.7"/>
			
				<rect x="556.4" y="300.9" transform="matrix(0.7074 -0.7068 0.7068 0.7074 -24.2691 546.9771)" class="st42" width="184.1" height="3.7"/>
			
				<rect x="551.1" y="295.6" transform="matrix(0.7074 -0.7068 0.7068 0.7074 -22.0812 541.6922)" class="st42" width="184.1" height="3.7"/>
			
				<rect x="545.8" y="290.4" transform="matrix(0.7074 -0.7068 0.7068 0.7074 -19.8931 536.4055)" class="st42" width="184.1" height="3.7"/>
			
				<rect x="540.5" y="285.1" transform="matrix(0.7074 -0.7068 0.7068 0.7074 -17.7044 531.1203)" class="st42" width="184.1" height="3.7"/>
			
				<rect x="535.3" y="279.8" transform="matrix(0.7074 -0.7068 0.7068 0.7074 -15.5168 525.8347)" class="st42" width="184.1" height="3.7"/>
			
				<rect x="530" y="274.5" transform="matrix(0.7074 -0.7068 0.7068 0.7074 -13.3284 520.5486)" class="st42" width="184.1" height="3.7"/>
			
				<rect x="524.7" y="269.2" transform="matrix(0.7074 -0.7068 0.7068 0.7074 -11.1405 515.2637)" class="st42" width="184.1" height="3.7"/>
			
				<rect x="519.4" y="263.9" transform="matrix(0.7074 -0.7068 0.7068 0.7074 -8.9521 509.9778)" class="st42" width="184.1" height="3.7"/>
			
				<rect x="514.1" y="258.6" transform="matrix(0.7074 -0.7068 0.7068 0.7074 -6.7635 504.6925)" class="st42" width="184.1" height="3.7"/>
			
				<rect x="508.8" y="253.4" transform="matrix(0.7074 -0.7068 0.7068 0.7074 -4.5761 499.4062)" class="st42" width="184.1" height="3.7"/>
			
				<rect x="503.5" y="248.1" transform="matrix(0.7074 -0.7068 0.7068 0.7074 -2.3874 494.1209)" class="st42" width="184.1" height="3.7"/>
			
				<rect x="498.2" y="242.8" transform="matrix(0.7074 -0.7068 0.7068 0.7074 -0.1992 488.8347)" class="st42" width="184.1" height="3.7"/>
			
				<rect x="492.9" y="237.5" transform="matrix(0.7074 -0.7068 0.7068 0.7074 1.9893 483.5491)" class="st42" width="184.1" height="3.7"/>
			
				<rect x="487.6" y="232.2" transform="matrix(0.7074 -0.7068 0.7068 0.7074 4.1769 478.2634)" class="st42" width="184.1" height="3.7"/>
			
				<rect x="482.4" y="226.9" transform="matrix(0.7074 -0.7068 0.7068 0.7074 6.3656 472.9781)" class="st42" width="184.1" height="3.7"/>
			
				<rect x="477.1" y="221.6" transform="matrix(0.7074 -0.7068 0.7068 0.7074 8.5533 467.6925)" class="st42" width="184.1" height="3.7"/>
			
				<rect x="471.8" y="216.4" transform="matrix(0.7074 -0.7068 0.7068 0.7074 10.7419 462.4073)" class="st42" width="184.1" height="3.7"/>
			
				<rect x="466.5" y="211.1" transform="matrix(0.7074 -0.7068 0.7068 0.7074 12.9303 457.1213)" class="st42" width="184.1" height="3.7"/>
			
				<rect x="461.2" y="205.8" transform="matrix(0.7074 -0.7068 0.7068 0.7074 15.1189 451.8361)" class="st42" width="184.1" height="3.7"/>
		</g>
	</g>
	<path class="st43" d="M58.5,210.1h91.1c2.3,0,4.1,1.8,4.1,4.1v70.4c0,2.3-1.8,4.1-4.1,4.1H75c-2.3,0-4.1-1.8-4.1-4.1v-28.2
		c0-2.3-1.8-4.1-4.1-4.1h-8.3c-2.3,0-4.1-1.8-4.1-4.1v-34C54.4,212,56.2,210.1,58.5,210.1z"/>
	<path class="st44" d="M323.3,238.3h75.4c2.3,0,4.1,1.8,4.1,4.1v67.1c0,2.3-1.8,4.1-4.1,4.1h-75.4c-2.3,0-4.1-1.8-4.1-4.1v-67.1
		C319.2,240.1,321,238.3,323.3,238.3z"/>
	<path class="st43" d="M593.1,220.1h4.2c2.3,0,4.1-1.8,4.1-4.1v-1.7c0-2.3,1.8-4.1,4.1-4.1h39.8c2.3,0,4.1,1.8,4.1,4.1v7.5
		c0,2.3,1.8,4.1,4.1,4.1h14.1c2.3,0,4.1,1.8,4.1,4.1v51.4c0,2.3-1.8,4.1-4.1,4.1h-74.5c-2.3,0-4.1-1.8-4.1-4.1v-57.2
		C589,221.9,590.8,220.1,593.1,220.1z"/>
	<g class="st45">
		<rect x="573.3" y="178.7" class="st46" width="14.1" height="11.6"/>
		
			<rect x="578.4" y="253.9" transform="matrix(0.95 -0.3123 0.3123 0.95 -52.1907 203.1661)" class="st46" width="59.4" height="21.2"/>
		<rect x="548.4" y="309.4" class="st46" width="14.1" height="16.6"/>
		<rect x="591.5" y="324.3" class="st46" width="16.6" height="15.7"/>
		
			<rect x="605.2" y="415.9" transform="matrix(0.8464 -0.5325 0.5325 0.8464 -130.6978 389.8163)" class="st46" width="10.7" height="11.2"/>
		<rect x="476.4" y="281.3" class="st46" width="19" height="15.7"/>
		<rect x="479.7" y="232.5" class="st46" width="12.4" height="19"/>
		<rect x="479.7" y="223.4" class="st47" width="7.4" height="9.1"/>
		<rect x="344.8" y="212.6" class="st46" width="26.5" height="5.8"/>
		<rect x="301.8" y="278.8" class="st37" width="11.6" height="50.5"/>
		<path class="st37" d="M391.2,249.9h-60.4v46.3h9.9v9.9h36.4v-9.9h14.1V249.9z"/>
		<rect x="153.7" y="182" class="st46" width="15.7" height="12.4"/>
		<rect x="75.9" y="210.1" class="st37" width="19.9" height="16.6"/>
		<path class="st46" d="M42.8,247.4H37v41.4h33.9v-36.4H42.8V247.4z"/>
		<rect x="118.1" y="340.1" class="st46" width="19.9" height="17.4"/>
		<rect x="87.4" y="272.9" class="st46" width="66.2" height="26.5"/>
		<rect x="128.7" y="299.4" class="st47" width="19.9" height="15.7"/>
		<rect x="164.9" y="270.9" class="st47" width="20.1" height="18.1"/>
		<rect x="268.7" y="342.5" class="st37" width="19.9" height="16.6"/>
		<rect x="109.8" y="408.7" class="st46" width="28.1" height="22.3"/>
		<rect x="157" y="479.9" class="st46" width="15.7" height="14.1"/>
		<rect x="224.9" y="431.9" class="st46" width="19.9" height="16.6"/>
		<rect x="365.5" y="402.9" class="st37" width="14.1" height="12.4"/>
		<rect x="333.3" y="465.8" class="st48" width="36.4" height="6.6"/>
		<rect x="336.6" y="460" class="st49" width="29.8" height="5.8"/>
		<rect x="414.4" y="443.5" class="st46" width="20.7" height="18.2"/>
		<rect x="459.9" y="472.5" class="st46" width="16.6" height="15.7"/>
		<rect x="373" y="561.8" class="st46" width="18.2" height="14.1"/>
		<rect x="206.6" y="542.8" class="st46" width="18.2" height="14.1"/>
		<rect x="273.7" y="467.5" class="st47" width="19.9" height="16.6"/>
	</g>
</g>
<g id="Spawn_limits">
	<path class="st50" d="M281.2,519.2h25.2"/>
	<path class="st50" d="M153.3,494v24.2"/>
	<path class="st50" d="M382,470.8V497"/>
	<path class="st50" d="M413.2,507.1h64.5"/>
	<path class="st51" d="M547.1,324.8V350"/>
	<path class="st51" d="M80.8,358H112"/>
	<path class="st51" d="M223.8,348h66.5"/>
	<path class="st51" d="M340.7,332.9h23.2"/>
	<path class="st51" d="M619.6,359h30.2"/>
</g>
<g id="Texts" class="st3">
	<path class="st52" d="M309.6,667.8l-0.5-1.5h-3.5l-0.5,1.5h-1.8l3.3-9.2h1.5l3.3,9.2H309.6z M307.3,661.3l-1.2,3.6h2.5L307.3,661.3
		L307.3,661.3z M312.5,665.3v-3h-1.1v-1.4h1.1v-1.7h1.6v1.7h1.8v1.4h-1.7v2.9c0,0.4,0.1,0.6,0.2,0.8c0.1,0.1,0.4,0.2,0.8,0.2h0.6
		v1.6H315c-0.9,0-1.6-0.2-1.9-0.6C312.7,666.8,312.5,666.2,312.5,665.3z M317.5,665.3v-3h-1.1v-1.4h1.1v-1.7h1.6v1.7h1.8v1.4h-1.7
		v2.9c0,0.4,0.1,0.6,0.2,0.8c0.1,0.1,0.4,0.2,0.7,0.2h0.6v1.6h-0.7c-0.9,0-1.6-0.2-1.9-0.6C317.7,666.8,317.5,666.2,317.5,665.3z
		 M326.1,667.8v-0.7h0c0,0,0,0.1-0.1,0.1c0,0-0.1,0.1-0.2,0.2c-0.1,0.1-0.2,0.2-0.4,0.3c-0.1,0.1-0.3,0.1-0.5,0.2s-0.5,0.1-0.7,0.1
		c-0.8,0-1.5-0.2-1.9-0.6c-0.4-0.4-0.6-0.9-0.6-1.5c0-0.6,0.2-1.1,0.5-1.4c0.4-0.3,1-0.6,1.8-0.8c0.8-0.2,1.3-0.3,1.5-0.5
		c0.2-0.1,0.3-0.3,0.3-0.5c0-0.2-0.1-0.4-0.3-0.5c-0.2-0.1-0.5-0.2-0.9-0.2c-0.5,0-0.8,0.1-1,0.3c-0.2,0.2-0.4,0.5-0.5,0.8l-1.4-0.6
		c0.2-0.6,0.5-1.1,1-1.4c0.5-0.4,1.1-0.6,1.9-0.6c0.9,0,1.5,0.2,2.1,0.7c0.5,0.4,0.8,1.1,0.8,2.1v4.4H326.1z M324.3,665
		c-0.4,0.1-0.7,0.2-0.9,0.4c-0.1,0.1-0.2,0.3-0.2,0.5c0,0.5,0.3,0.7,1,0.7c0.5,0,0.9-0.1,1.2-0.3c0.3-0.2,0.4-0.4,0.4-0.7v-1.2h0
		c0,0.1-0.1,0.1-0.1,0.2c0,0-0.2,0.1-0.4,0.2C325.1,664.8,324.8,664.9,324.3,665z M333.4,665l1.6,0.4c-0.2,0.8-0.5,1.5-1,1.9
		c-0.5,0.4-1.2,0.7-2,0.7c-0.9,0-1.7-0.3-2.3-1c-0.6-0.6-0.9-1.6-0.9-2.7c0-1.1,0.3-2,0.9-2.7c0.6-0.7,1.4-1,2.3-1
		c0.8,0,1.4,0.2,2,0.7c0.5,0.5,0.9,1.1,1,1.8l-1.6,0.3c-0.2-0.9-0.6-1.3-1.3-1.3c-0.5,0-0.9,0.2-1.2,0.6c-0.3,0.4-0.4,0.9-0.4,1.6
		s0.1,1.2,0.4,1.6c0.3,0.4,0.7,0.5,1.2,0.5C332.8,666.5,333.2,666,333.4,665z M336.3,667.8v-9.6h1.7v5.5h0l2.5-2.9h2.1l-2.5,2.8
		l2.7,4.1h-1.9l-2.1-3.2h0l-0.9,1v2.2H336.3z M348.1,665.4l1.2,1.1c-0.7,1-1.7,1.6-2.9,1.6c-1,0-1.8-0.3-2.4-1
		c-0.6-0.7-0.9-1.6-0.9-2.7c0-1.1,0.3-2,0.9-2.7c0.6-0.7,1.4-1,2.3-1c0.9,0,1.7,0.3,2.3,1c0.6,0.7,0.9,1.6,0.9,2.7v0.5h-4.7
		c0,0.5,0.2,0.9,0.4,1.2c0.3,0.3,0.6,0.4,1.1,0.4c0.4,0,0.7-0.1,1-0.3C347.7,666,347.9,665.8,348.1,665.4z M344.9,663.6h3
		c0-0.4-0.2-0.8-0.5-1c-0.3-0.3-0.6-0.4-1.1-0.4c-0.4,0-0.8,0.1-1,0.4C345.1,662.8,344.9,663.2,344.9,663.6z M350.9,667.8v-7h1.6
		v0.7h0c0.1-0.3,0.3-0.5,0.6-0.6c0.3-0.2,0.5-0.2,0.9-0.2c0.2,0,0.4,0,0.6,0.1l-0.3,1.7c-0.2-0.1-0.4-0.1-0.5-0.1
		c-0.8,0-1.2,0.5-1.2,1.6v3.8H350.9z M355.2,665.5l1.5-0.4c0.1,1,0.6,1.5,1.6,1.5c0.4,0,0.8-0.1,1-0.2c0.3-0.1,0.4-0.3,0.4-0.6
		c0-0.2-0.1-0.3-0.3-0.4c-0.2-0.1-0.6-0.2-1.2-0.4c-0.2,0-0.3-0.1-0.4-0.1c-0.8-0.2-1.4-0.5-1.8-0.8c-0.4-0.3-0.6-0.7-0.6-1.2
		c0-0.6,0.2-1.1,0.7-1.5c0.5-0.4,1.1-0.6,1.9-0.6c1.6,0,2.5,0.7,2.9,2.1l-1.4,0.4c-0.1-0.3-0.3-0.6-0.5-0.8c-0.2-0.2-0.5-0.3-1-0.3
		c-0.3,0-0.6,0.1-0.8,0.2c-0.2,0.1-0.3,0.3-0.3,0.4c0,0.2,0.1,0.3,0.3,0.5c0.2,0.1,0.8,0.3,1.7,0.6c0.8,0.2,1.4,0.5,1.7,0.8
		c0.3,0.3,0.4,0.8,0.4,1.3c0,0.6-0.2,1.1-0.7,1.5c-0.5,0.4-1.2,0.7-2.1,0.7c-1,0-1.7-0.2-2.2-0.7
		C355.7,666.8,355.3,666.2,355.2,665.5z"/>
	<path class="st53" d="M406,44.6h1.2c0.3,0,0.6,0,0.8-0.1c0.2-0.1,0.5-0.2,0.7-0.4c0.2-0.2,0.4-0.5,0.5-0.9c0.1-0.4,0.2-0.9,0.2-1.5
		c0-1-0.2-1.8-0.6-2.2c-0.4-0.5-0.9-0.7-1.5-0.7H406V44.6z M404.2,46.2V37h3.1c0.5,0,1,0.1,1.5,0.3c0.5,0.2,0.9,0.5,1.3,0.8
		c0.4,0.4,0.7,0.8,0.9,1.4c0.2,0.6,0.3,1.3,0.3,2.1c0,0.8-0.1,1.6-0.3,2.2c-0.2,0.6-0.5,1.1-0.9,1.4c-0.4,0.3-0.8,0.6-1.3,0.7
		c-0.5,0.2-1,0.2-1.5,0.2H404.2z M417.2,43.8l1.2,1.1c-0.7,1-1.7,1.6-2.9,1.6c-1,0-1.8-0.3-2.4-1c-0.6-0.7-0.9-1.6-0.9-2.7
		c0-1.1,0.3-2,0.9-2.7c0.6-0.7,1.4-1,2.3-1c0.9,0,1.7,0.3,2.3,1c0.6,0.7,0.9,1.6,0.9,2.7v0.5h-4.7c0,0.5,0.2,0.9,0.4,1.2
		c0.3,0.3,0.6,0.4,1.1,0.4c0.4,0,0.7-0.1,1-0.3C416.7,44.4,417,44.2,417.2,43.8z M413.9,42h3c0-0.4-0.2-0.8-0.5-1
		c-0.3-0.3-0.6-0.4-1.1-0.4c-0.4,0-0.8,0.1-1,0.4C414.1,41.3,414,41.6,413.9,42z M420.4,46.2v-5.5h-1.1v-1.4h1.1v-1
		c0-0.6,0.2-1,0.5-1.3c0.3-0.3,0.8-0.4,1.4-0.4h1.4v1.5h-1c-0.2,0-0.4,0-0.4,0.1c-0.1,0.1-0.1,0.2-0.1,0.4v0.6h1.8v1.4h-1.7v5.5
		H420.4z M429.2,43.8l1.2,1.1c-0.7,1-1.7,1.6-2.9,1.6c-1,0-1.8-0.3-2.4-1c-0.6-0.7-0.9-1.6-0.9-2.7c0-1.1,0.3-2,0.9-2.7
		c0.6-0.7,1.4-1,2.3-1c0.9,0,1.7,0.3,2.3,1c0.6,0.7,0.9,1.6,0.9,2.7v0.5H426c0,0.5,0.2,0.9,0.4,1.2c0.3,0.3,0.6,0.4,1.1,0.4
		c0.4,0,0.7-0.1,1-0.3C428.8,44.4,429,44.2,429.2,43.8z M426,42h3c0-0.4-0.2-0.8-0.5-1c-0.3-0.3-0.6-0.4-1.1-0.4
		c-0.4,0-0.8,0.1-1,0.4C426.2,41.3,426,41.6,426,42z M432,46.2v-7h1.6v0.7h0c0.2-0.2,0.5-0.5,0.8-0.6c0.3-0.2,0.7-0.2,1.1-0.2
		c0.8,0,1.4,0.2,1.8,0.7c0.4,0.5,0.7,1.1,0.7,1.9v4.6h-1.7v-4.1c0-0.5-0.1-0.8-0.3-1.1c-0.2-0.2-0.5-0.4-0.9-0.4
		c-0.4,0-0.7,0.1-1,0.4c-0.2,0.2-0.4,0.6-0.4,1v4.3H432z M444.1,43.4v-1.3c0-0.4-0.1-0.8-0.4-1.1c-0.3-0.3-0.6-0.4-1.1-0.4
		c-0.5,0-0.9,0.2-1.2,0.5c-0.3,0.4-0.4,0.9-0.4,1.6c0,0.7,0.1,1.2,0.4,1.6c0.3,0.4,0.7,0.5,1.2,0.5c0.5,0,0.8-0.1,1.1-0.4
		C444,44.2,444.1,43.8,444.1,43.4z M444.2,46.2v-0.7h0c0,0.1-0.1,0.1-0.2,0.2c-0.1,0.1-0.3,0.2-0.6,0.4c-0.3,0.2-0.7,0.2-1,0.2
		c-0.9,0-1.7-0.3-2.2-1c-0.5-0.7-0.8-1.6-0.8-2.7c0-1.1,0.3-2,0.9-2.7c0.6-0.7,1.3-1,2.1-1c0.4,0,0.7,0.1,1,0.2
		c0.3,0.1,0.5,0.3,0.6,0.4l0.2,0.2h0v-3.3h1.7v9.6H444.2z M452.2,43.8l1.2,1.1c-0.7,1-1.7,1.6-2.9,1.6c-1,0-1.8-0.3-2.4-1
		c-0.6-0.7-0.9-1.6-0.9-2.7c0-1.1,0.3-2,0.9-2.7c0.6-0.7,1.4-1,2.3-1c0.9,0,1.7,0.3,2.3,1c0.6,0.7,0.9,1.6,0.9,2.7v0.5h-4.7
		c0,0.5,0.2,0.9,0.4,1.2c0.3,0.3,0.6,0.4,1.1,0.4c0.4,0,0.7-0.1,1-0.3C451.7,44.4,452,44.2,452.2,43.8z M448.9,42h3
		c0-0.4-0.2-0.8-0.5-1c-0.3-0.3-0.6-0.4-1.1-0.4c-0.4,0-0.8,0.1-1,0.4C449.1,41.3,449,41.6,448.9,42z M455,46.2v-7h1.6V40h0
		c0.1-0.3,0.3-0.5,0.6-0.6c0.3-0.2,0.5-0.2,0.9-0.2c0.2,0,0.4,0,0.6,0.1l-0.3,1.7c-0.2-0.1-0.4-0.1-0.5-0.1c-0.8,0-1.2,0.5-1.2,1.6
		v3.8H455z M459.3,43.9l1.5-0.4c0.1,1,0.6,1.5,1.6,1.5c0.4,0,0.8-0.1,1-0.2c0.3-0.1,0.4-0.3,0.4-0.6c0-0.2-0.1-0.4-0.3-0.4
		c-0.2-0.1-0.6-0.2-1.2-0.4c-0.2,0-0.3-0.1-0.4-0.1c-0.8-0.2-1.4-0.5-1.8-0.8c-0.4-0.3-0.6-0.7-0.6-1.2c0-0.6,0.2-1.1,0.7-1.5
		c0.5-0.4,1.1-0.6,1.9-0.6c1.6,0,2.5,0.7,2.9,2.1l-1.4,0.4c-0.1-0.3-0.3-0.6-0.5-0.8c-0.2-0.2-0.5-0.3-1-0.3c-0.3,0-0.6,0.1-0.8,0.2
		c-0.2,0.1-0.3,0.3-0.3,0.4c0,0.2,0.1,0.3,0.3,0.5c0.2,0.1,0.8,0.3,1.7,0.6c0.8,0.2,1.4,0.5,1.7,0.8c0.3,0.3,0.4,0.8,0.4,1.3
		c0,0.6-0.2,1.1-0.7,1.5c-0.5,0.4-1.2,0.7-2.1,0.7c-1,0-1.7-0.2-2.2-0.7C459.7,45.2,459.4,44.6,459.3,43.9z"/>
	<path class="st54" d="M633.6,257.1l-0.7-1.9h-4.4l-0.7,1.9h-2.2l4.2-11.5h1.9l4.1,11.5H633.6z M630.7,248.9l-1.6,4.5h3.1
		L630.7,248.9L630.7,248.9z"/>
	<path class="st54" d="M357,280.3v-11.5h4.9c1,0,1.8,0.3,2.4,0.9c0.6,0.6,0.9,1.3,0.9,2.2c0,1-0.4,1.7-1.2,2.2v0
		c0.5,0.2,0.9,0.5,1.2,1c0.3,0.4,0.5,1,0.5,1.6c0,1.1-0.3,2-1,2.6c-0.7,0.6-1.8,1-3.3,1H357z M359.2,278.2h2.7
		c1.1,0,1.6-0.5,1.6-1.5c0-0.5-0.1-0.8-0.4-1.1c-0.3-0.3-0.7-0.4-1.1-0.4h-2.7V278.2z M359.2,273.4h2.4c0.4,0,0.8-0.1,1.1-0.3
		c0.3-0.2,0.4-0.5,0.4-1c0-0.4-0.1-0.8-0.4-1c-0.3-0.2-0.6-0.3-1.1-0.3h-2.4V273.4z"/>
	<path class="st54" d="M109.9,247.6l2.3,0.5c-0.2,1.3-0.7,2.4-1.5,3.2c-0.8,0.8-1.8,1.1-3.1,1.1c-1.5,0-2.7-0.5-3.6-1.5
		c-0.9-1-1.4-2.6-1.4-4.7c0-1.8,0.5-3.2,1.5-4.3c1-1,2.2-1.5,3.5-1.5c1.2,0,2.2,0.4,3,1.1c0.8,0.7,1.3,1.7,1.4,3l-2.2,0.3
		c-0.1-0.7-0.3-1.3-0.7-1.7c-0.4-0.4-0.9-0.7-1.5-0.7c-0.8,0-1.4,0.3-1.9,1c-0.5,0.7-0.8,1.6-0.8,2.8c0,1.4,0.3,2.4,0.8,3.1
		c0.5,0.7,1.2,1,2,1C108.9,250.3,109.6,249.4,109.9,247.6z"/>
	<path class="st55" d="M234.6,501.5v-6.9h2.9c0.6,0,1.1,0.2,1.5,0.5c0.4,0.4,0.6,0.8,0.6,1.3c0,0.6-0.3,1-0.7,1.3v0
		c0.3,0.1,0.5,0.3,0.7,0.6c0.2,0.3,0.3,0.6,0.3,1c0,0.7-0.2,1.2-0.6,1.6c-0.4,0.4-1.1,0.6-2,0.6H234.6z M235.9,500.2h1.6
		c0.6,0,0.9-0.3,0.9-0.9c0-0.3-0.1-0.5-0.3-0.7c-0.2-0.2-0.4-0.2-0.7-0.2h-1.6V500.2z M235.9,497.4h1.4c0.3,0,0.5-0.1,0.6-0.2
		c0.2-0.1,0.2-0.3,0.2-0.6c0-0.3-0.1-0.5-0.2-0.6c-0.2-0.1-0.4-0.2-0.6-0.2h-1.4V497.4z M242.1,500.1c0.2,0.3,0.5,0.4,0.9,0.4
		c0.4,0,0.7-0.1,0.9-0.4c0.2-0.3,0.3-0.7,0.3-1.2c0-0.5-0.1-0.9-0.3-1.2c-0.2-0.3-0.5-0.4-0.9-0.4c-0.4,0-0.7,0.1-0.9,0.4
		c-0.2,0.3-0.3,0.7-0.3,1.2C241.8,499.4,241.9,499.8,242.1,500.1z M244.7,500.9c-0.5,0.5-1,0.7-1.8,0.7c-0.7,0-1.3-0.2-1.8-0.7
		c-0.5-0.5-0.7-1.2-0.7-2c0-0.9,0.2-1.5,0.7-2c0.5-0.5,1.1-0.7,1.7-0.7c0.7,0,1.3,0.2,1.7,0.7c0.5,0.5,0.7,1.2,0.7,2
		C245.4,499.7,245.2,500.4,244.7,500.9z M246.7,499.6v-2.3h-0.8v-1.1h0.8V495h1.2v1.3h1.3v1.1H248v2.2c0,0.3,0,0.5,0.1,0.6
		c0.1,0.1,0.3,0.2,0.6,0.2h0.4v1.2h-0.5c-0.7,0-1.2-0.1-1.4-0.4C246.9,500.7,246.7,500.3,246.7,499.6z M250.4,499.6v-2.3h-0.8v-1.1
		h0.8V495h1.2v1.3h1.3v1.1h-1.3v2.2c0,0.3,0,0.5,0.1,0.6c0.1,0.1,0.3,0.2,0.6,0.2h0.4v1.2h-0.5c-0.7,0-1.2-0.1-1.5-0.4
		C250.6,500.7,250.4,500.3,250.4,499.6z M255.2,500.1c0.2,0.3,0.5,0.4,0.9,0.4c0.4,0,0.7-0.1,0.9-0.4c0.2-0.3,0.3-0.7,0.3-1.2
		c0-0.5-0.1-0.9-0.3-1.2c-0.2-0.3-0.5-0.4-0.9-0.4c-0.4,0-0.7,0.1-0.9,0.4c-0.2,0.3-0.3,0.7-0.3,1.2
		C254.9,499.4,255,499.8,255.2,500.1z M257.9,500.9c-0.5,0.5-1,0.7-1.8,0.7c-0.7,0-1.3-0.2-1.8-0.7c-0.5-0.5-0.7-1.2-0.7-2
		c0-0.9,0.2-1.5,0.7-2c0.5-0.5,1.1-0.7,1.7-0.7c0.7,0,1.3,0.2,1.7,0.7c0.5,0.5,0.7,1.2,0.7,2C258.5,499.7,258.3,500.4,257.9,500.9z
		 M259.6,501.5v-5.2h1.2v0.5h0c0.1-0.2,0.3-0.3,0.5-0.5c0.2-0.1,0.5-0.2,0.7-0.2c0.3,0,0.5,0.1,0.8,0.2c0.2,0.1,0.4,0.3,0.6,0.5h0
		c0.1-0.2,0.3-0.4,0.6-0.5c0.2-0.1,0.5-0.2,0.8-0.2c0.6,0,1.1,0.2,1.5,0.5c0.4,0.3,0.6,0.8,0.6,1.3v3.6h-1.2v-3.3
		c0-0.3-0.1-0.5-0.2-0.6c-0.1-0.2-0.4-0.2-0.7-0.2c-0.3,0-0.5,0.1-0.7,0.2c-0.2,0.2-0.2,0.3-0.2,0.6v3.4h-1.2v-3.3
		c0-0.2-0.1-0.5-0.2-0.6c-0.2-0.2-0.4-0.3-0.7-0.3c-0.3,0-0.5,0.1-0.7,0.2c-0.2,0.2-0.2,0.3-0.2,0.6v3.4H259.6z M270.7,501.5v-6.9
		h1.4l2,4.5h0l2-4.5h1.4v6.9h-1.3v-4.2h0l-2,4.2h-0.2l-2-4.2h0v4.2H270.7z M278.9,501.5v-5.2h1.3v5.2H278.9z M278.9,495.5v-1.2h1.3
		v1.2H278.9z M284.8,499.3v-1c0-0.3-0.1-0.6-0.3-0.8c-0.2-0.2-0.5-0.3-0.8-0.3c-0.4,0-0.7,0.1-0.9,0.4c-0.2,0.3-0.3,0.7-0.3,1.2
		c0,0.5,0.1,0.9,0.3,1.2c0.2,0.3,0.5,0.4,0.9,0.4c0.3,0,0.6-0.1,0.8-0.3C284.7,499.9,284.8,499.7,284.8,499.3z M284.9,501.5V501h0
		c0,0-0.1,0.1-0.1,0.2c-0.1,0.1-0.2,0.2-0.5,0.3c-0.2,0.1-0.5,0.2-0.8,0.2c-0.7,0-1.2-0.3-1.7-0.7c-0.4-0.5-0.6-1.2-0.6-2
		c0-0.8,0.2-1.5,0.7-2c0.4-0.5,1-0.7,1.6-0.7c0.3,0,0.5,0.1,0.7,0.2c0.2,0.1,0.4,0.2,0.5,0.3l0.1,0.2h0v-2.5h1.3v7.2H284.9z"/>
	<path class="st55" d="M322.6,487v-6.9h1.4l2,4.5h0l2-4.5h1.4v6.9h-1.3v-4.2h0l-2,4.2h-0.2l-2-4.2h0v4.2H322.6z M330.9,487v-5.2h1.3
		v5.2H330.9z M330.9,481v-1.2h1.3v1.2H330.9z M336.8,484.9v-1c0-0.3-0.1-0.6-0.3-0.8c-0.2-0.2-0.5-0.3-0.8-0.3
		c-0.4,0-0.7,0.1-0.9,0.4c-0.2,0.3-0.3,0.7-0.3,1.2c0,0.5,0.1,0.9,0.3,1.2c0.2,0.3,0.5,0.4,0.9,0.4c0.3,0,0.6-0.1,0.8-0.3
		C336.7,485.4,336.8,485.2,336.8,484.9z M336.9,487v-0.5h0c0,0-0.1,0.1-0.1,0.2c-0.1,0.1-0.2,0.2-0.5,0.3c-0.2,0.1-0.5,0.2-0.8,0.2
		c-0.7,0-1.2-0.3-1.7-0.7c-0.4-0.5-0.6-1.2-0.6-2c0-0.8,0.2-1.5,0.7-2c0.4-0.5,1-0.8,1.6-0.8c0.3,0,0.5,0.1,0.7,0.2
		c0.2,0.1,0.4,0.2,0.5,0.3l0.1,0.2h0v-2.5h1.3v7.2H336.9z M342.9,487l-1.3-6.9h1.4l0.9,4.7h0l1.6-4.7h0.7l1.6,4.7h0l0.9-4.7h1.3
		l-1.3,6.9h-1.4l-1.4-4.3h-0.1l-1.4,4.3H342.9z M350.9,487v-5.2h1.3v5.2H350.9z M350.9,481v-1.2h1.3v1.2H350.9z M353.5,487v-5.2h1.2
		v0.5h0c0.1-0.2,0.3-0.3,0.6-0.5c0.2-0.1,0.5-0.2,0.8-0.2c0.6,0,1,0.2,1.4,0.5c0.3,0.3,0.5,0.8,0.5,1.4v3.4h-1.3v-3.1
		c0-0.4-0.1-0.6-0.2-0.8c-0.1-0.2-0.4-0.3-0.7-0.3c-0.3,0-0.6,0.1-0.7,0.3c-0.2,0.2-0.3,0.4-0.3,0.7v3.2H353.5z M362.6,484.9v-1
		c0-0.3-0.1-0.6-0.3-0.8c-0.2-0.2-0.5-0.3-0.8-0.3c-0.4,0-0.7,0.1-0.9,0.4c-0.2,0.3-0.3,0.7-0.3,1.2c0,0.5,0.1,0.9,0.3,1.2
		c0.2,0.3,0.5,0.4,0.9,0.4c0.3,0,0.6-0.1,0.8-0.3C362.5,485.4,362.6,485.2,362.6,484.9z M362.7,487v-0.5h0c0,0-0.1,0.1-0.1,0.2
		c-0.1,0.1-0.2,0.2-0.5,0.3c-0.2,0.1-0.5,0.2-0.8,0.2c-0.7,0-1.2-0.3-1.7-0.7c-0.4-0.5-0.6-1.2-0.6-2c0-0.8,0.2-1.5,0.7-2
		c0.4-0.5,1-0.8,1.6-0.8c0.3,0,0.5,0.1,0.7,0.2c0.2,0.1,0.4,0.2,0.5,0.3l0.1,0.2h0v-2.5h1.3v7.2H362.7z M366.5,485.6
		c0.2,0.3,0.5,0.4,0.9,0.4c0.4,0,0.7-0.1,0.9-0.4c0.2-0.3,0.3-0.7,0.3-1.2s-0.1-0.9-0.3-1.2c-0.2-0.3-0.5-0.4-0.9-0.4
		c-0.4,0-0.6,0.1-0.9,0.4c-0.2,0.3-0.3,0.7-0.3,1.2C366.2,484.9,366.3,485.3,366.5,485.6z M369.1,486.4c-0.5,0.5-1,0.7-1.8,0.7
		s-1.3-0.2-1.8-0.7c-0.5-0.5-0.7-1.2-0.7-2c0-0.9,0.2-1.5,0.7-2c0.5-0.5,1.1-0.7,1.7-0.7c0.7,0,1.3,0.2,1.7,0.7
		c0.5,0.5,0.7,1.2,0.7,2C369.8,485.3,369.6,485.9,369.1,486.4z M371.6,487l-1.2-5.2h1.3l0.7,3.5h0l1.2-3.5h1.2l1.1,3.5h0l0.8-3.5
		h1.2l-1.3,5.2h-1.3l-1.2-3.8h0l-1.3,3.8H371.6z"/>
	<path class="st55" d="M334.5,349v-6.9h2.9c0.6,0,1.1,0.2,1.5,0.5c0.4,0.4,0.6,0.8,0.6,1.3c0,0.6-0.3,1-0.8,1.3v0
		c0.3,0.1,0.5,0.3,0.7,0.6c0.2,0.3,0.3,0.6,0.3,1c0,0.7-0.2,1.2-0.6,1.6c-0.4,0.4-1.1,0.6-2,0.6H334.5z M335.8,347.8h1.6
		c0.6,0,0.9-0.3,0.9-0.9c0-0.3-0.1-0.5-0.3-0.7c-0.2-0.2-0.4-0.2-0.7-0.2h-1.6V347.8z M335.8,344.9h1.4c0.3,0,0.5-0.1,0.6-0.2
		c0.2-0.1,0.2-0.3,0.2-0.6c0-0.3-0.1-0.5-0.2-0.6c-0.2-0.1-0.4-0.2-0.6-0.2h-1.4V344.9z M344.7,347.8h0.9c0.2,0,0.4,0,0.6-0.1
		c0.2-0.1,0.3-0.2,0.5-0.3c0.2-0.2,0.3-0.4,0.4-0.7c0.1-0.3,0.1-0.7,0.1-1.2c0-0.8-0.1-1.3-0.4-1.7c-0.3-0.4-0.7-0.5-1.1-0.5h-1
		V347.8z M343.3,349v-6.9h2.3c0.4,0,0.8,0.1,1.1,0.2c0.3,0.1,0.7,0.3,0.9,0.6c0.3,0.3,0.5,0.6,0.7,1.1c0.2,0.4,0.3,1,0.3,1.5
		c0,0.6-0.1,1.2-0.3,1.6c-0.2,0.5-0.4,0.8-0.7,1.1c-0.3,0.3-0.6,0.4-1,0.6c-0.3,0.1-0.7,0.2-1.1,0.2H343.3z M350.9,347.6
		c0.2,0.3,0.5,0.4,0.9,0.4c0.4,0,0.7-0.1,0.9-0.4c0.2-0.3,0.3-0.7,0.3-1.2s-0.1-0.9-0.3-1.2c-0.2-0.3-0.5-0.4-0.9-0.4
		c-0.4,0-0.7,0.1-0.9,0.4c-0.2,0.3-0.3,0.7-0.3,1.2C350.6,346.9,350.7,347.3,350.9,347.6z M353.5,348.4c-0.5,0.5-1,0.7-1.8,0.7
		c-0.7,0-1.3-0.2-1.8-0.7c-0.5-0.5-0.7-1.2-0.7-2c0-0.9,0.2-1.5,0.7-2c0.5-0.5,1.1-0.7,1.7-0.7c0.7,0,1.3,0.2,1.7,0.7s0.7,1.2,0.7,2
		C354.2,347.3,354,347.9,353.5,348.4z M356.5,347.6c0.2,0.3,0.5,0.4,0.9,0.4c0.4,0,0.7-0.1,0.9-0.4c0.2-0.3,0.3-0.7,0.3-1.2
		s-0.1-0.9-0.3-1.2c-0.2-0.3-0.5-0.4-0.9-0.4c-0.4,0-0.7,0.1-0.9,0.4c-0.2,0.3-0.3,0.7-0.3,1.2C356.2,346.9,356.3,347.3,356.5,347.6
		z M359.1,348.4c-0.5,0.5-1,0.7-1.8,0.7c-0.7,0-1.3-0.2-1.8-0.7c-0.5-0.5-0.7-1.2-0.7-2c0-0.9,0.2-1.5,0.7-2
		c0.5-0.5,1.1-0.7,1.7-0.7c0.7,0,1.3,0.2,1.7,0.7s0.7,1.2,0.7,2C359.8,347.3,359.6,347.9,359.1,348.4z M360.8,349v-5.2h1.2v0.6h0
		c0.1-0.2,0.2-0.4,0.4-0.5c0.2-0.1,0.4-0.2,0.6-0.2c0.2,0,0.3,0,0.5,0.1l-0.2,1.2c-0.1-0.1-0.3-0.1-0.4-0.1c-0.6,0-0.9,0.4-0.9,1.2
		v2.9H360.8z"/>
	<path class="st55" d="M342.3,419v-6.9h1.4l2,4.5h0l2-4.5h1.4v6.9h-1.3v-4.2h0l-2,4.2h-0.2l-2-4.2h0v4.2H342.3z M350.6,419v-5.2h1.3
		v5.2H350.6z M350.6,413v-1.2h1.3v1.2H350.6z M356.5,416.9v-1c0-0.3-0.1-0.6-0.3-0.8c-0.2-0.2-0.5-0.3-0.8-0.3
		c-0.4,0-0.7,0.1-0.9,0.4c-0.2,0.3-0.3,0.7-0.3,1.2c0,0.5,0.1,0.9,0.3,1.2c0.2,0.3,0.5,0.4,0.9,0.4c0.3,0,0.6-0.1,0.8-0.3
		C356.4,417.4,356.5,417.2,356.5,416.9z M356.6,419v-0.5h0c0,0-0.1,0.1-0.1,0.2c-0.1,0.1-0.2,0.2-0.5,0.3c-0.2,0.1-0.5,0.2-0.8,0.2
		c-0.7,0-1.2-0.3-1.7-0.7c-0.4-0.5-0.6-1.2-0.6-2c0-0.8,0.2-1.5,0.7-2c0.4-0.5,1-0.8,1.6-0.8c0.3,0,0.5,0.1,0.7,0.2
		c0.2,0.1,0.4,0.2,0.5,0.3l0.1,0.2h0v-2.5h1.3v7.2H356.6z M332,431.3l1.4,0.3c-0.1,0.8-0.4,1.4-0.9,1.9c-0.5,0.5-1.1,0.7-1.9,0.7
		c-0.9,0-1.6-0.3-2.2-0.9c-0.6-0.6-0.8-1.5-0.8-2.8c0-1.1,0.3-1.9,0.9-2.6c0.6-0.6,1.3-0.9,2.1-0.9c0.7,0,1.3,0.2,1.8,0.7
		c0.5,0.4,0.8,1,0.9,1.8l-1.3,0.2c-0.1-0.4-0.2-0.8-0.4-1c-0.2-0.3-0.5-0.4-0.9-0.4c-0.5,0-0.8,0.2-1.2,0.6c-0.3,0.4-0.5,1-0.5,1.7
		c0,0.8,0.2,1.5,0.5,1.9c0.3,0.4,0.7,0.6,1.2,0.6C331.4,432.9,331.9,432.4,332,431.3z M335.6,432.6c0.2,0.3,0.5,0.4,0.9,0.4
		c0.4,0,0.7-0.1,0.9-0.4c0.2-0.3,0.3-0.7,0.3-1.2s-0.1-0.9-0.3-1.2c-0.2-0.3-0.5-0.4-0.9-0.4c-0.4,0-0.7,0.1-0.9,0.4
		c-0.2,0.3-0.3,0.7-0.3,1.2C335.3,431.9,335.4,432.3,335.6,432.6z M338.3,433.4c-0.5,0.5-1,0.7-1.8,0.7s-1.3-0.2-1.8-0.7
		c-0.5-0.5-0.7-1.2-0.7-2c0-0.9,0.2-1.5,0.7-2c0.5-0.5,1.1-0.7,1.7-0.7c0.7,0,1.3,0.2,1.7,0.7c0.5,0.5,0.7,1.2,0.7,2
		C339,432.3,338.7,432.9,338.3,433.4z M340,432.1v-3.4h1.3v3.2c0,0.3,0.1,0.6,0.2,0.7s0.3,0.2,0.6,0.2c0.3,0,0.6-0.1,0.8-0.2
		c0.2-0.2,0.3-0.4,0.3-0.8v-3.1h1.3v5.2h-1.2v-0.5h0c-0.3,0.4-0.8,0.7-1.4,0.7c-0.6,0-1.1-0.2-1.4-0.5
		C340.1,433.2,340,432.8,340,432.1z M345.7,434v-5.2h1.2v0.6h0c0.1-0.2,0.2-0.4,0.4-0.5c0.2-0.1,0.4-0.2,0.6-0.2
		c0.2,0,0.3,0,0.5,0.1l-0.2,1.2c-0.1-0.1-0.3-0.1-0.4-0.1c-0.6,0-0.9,0.4-0.9,1.2v2.9H345.7z M349.7,432.1v-2.3h-0.8v-1.1h0.8v-1.3
		h1.2v1.3h1.3v1.1H351v2.2c0,0.3,0,0.5,0.1,0.6c0.1,0.1,0.3,0.2,0.6,0.2h0.4v1.2h-0.5c-0.7,0-1.2-0.1-1.4-0.4
		C349.8,433.3,349.7,432.8,349.7,432.1z M353.7,436.2l1-2.5l-2.1-5h1.3l1.4,3.5h0l1.4-3.5h1.3l-3,7.4H353.7z M361.6,434v-0.5h0
		c0,0,0,0,0,0.1c0,0-0.1,0.1-0.1,0.1c-0.1,0.1-0.2,0.1-0.3,0.2c-0.1,0.1-0.2,0.1-0.4,0.2c-0.2,0-0.4,0.1-0.6,0.1
		c-0.6,0-1.1-0.1-1.4-0.4c-0.3-0.3-0.5-0.7-0.5-1.1c0-0.5,0.1-0.8,0.4-1c0.3-0.2,0.7-0.4,1.4-0.6c0.6-0.1,1-0.3,1.1-0.3
		c0.2-0.1,0.2-0.2,0.2-0.4s-0.1-0.3-0.2-0.4c-0.1-0.1-0.4-0.2-0.7-0.2c-0.3,0-0.6,0.1-0.7,0.2c-0.2,0.2-0.3,0.4-0.4,0.6l-1.1-0.4
		c0.1-0.4,0.4-0.8,0.7-1.1c0.4-0.3,0.8-0.4,1.4-0.4c0.6,0,1.2,0.2,1.6,0.5c0.4,0.3,0.6,0.9,0.6,1.6v3.3H361.6z M360.3,431.9
		c-0.3,0.1-0.5,0.2-0.7,0.3c-0.1,0.1-0.1,0.2-0.1,0.4c0,0.4,0.3,0.5,0.8,0.5c0.4,0,0.7-0.1,0.9-0.2c0.2-0.2,0.3-0.3,0.3-0.6v-0.9h0
		c0,0.1-0.1,0.1-0.1,0.1c0,0-0.1,0.1-0.3,0.1C360.8,431.7,360.6,431.8,360.3,431.9z M363.9,434v-5.2h1.2v0.6h0
		c0.1-0.2,0.2-0.4,0.4-0.5c0.2-0.1,0.4-0.2,0.6-0.2c0.2,0,0.3,0,0.5,0.1l-0.2,1.2c-0.1-0.1-0.3-0.1-0.4-0.1c-0.6,0-0.9,0.4-0.9,1.2
		v2.9H363.9z M370.8,431.9v-1c0-0.3-0.1-0.6-0.3-0.8c-0.2-0.2-0.5-0.3-0.8-0.3c-0.4,0-0.7,0.1-0.9,0.4c-0.2,0.3-0.3,0.7-0.3,1.2
		c0,0.5,0.1,0.9,0.3,1.2c0.2,0.3,0.5,0.4,0.9,0.4c0.3,0,0.6-0.1,0.8-0.3C370.7,432.4,370.8,432.2,370.8,431.9z M370.9,434v-0.5h0
		c0,0-0.1,0.1-0.1,0.2c-0.1,0.1-0.2,0.2-0.5,0.3c-0.2,0.1-0.5,0.2-0.8,0.2c-0.7,0-1.2-0.3-1.7-0.7c-0.4-0.5-0.6-1.2-0.6-2
		c0-0.8,0.2-1.5,0.7-2c0.4-0.5,1-0.8,1.6-0.8c0.3,0,0.5,0.1,0.7,0.2c0.2,0.1,0.4,0.2,0.5,0.3l0.1,0.2h0v-2.5h1.3v7.2H370.9z"/>
	<path class="st55" d="M234.5,405.8v-6.9h1.4l2,4.5h0l2-4.5h1.4v6.9H240v-4.2h0l-2,4.2h-0.2l-2-4.2h0v4.2H234.5z M242.8,405.8v-5.2
		h1.3v5.2H242.8z M242.8,399.8v-1.2h1.3v1.2H242.8z M248.7,403.7v-1c0-0.3-0.1-0.6-0.3-0.8c-0.2-0.2-0.5-0.3-0.8-0.3
		c-0.4,0-0.7,0.1-0.9,0.4c-0.2,0.3-0.3,0.7-0.3,1.2c0,0.5,0.1,0.9,0.3,1.2c0.2,0.3,0.5,0.4,0.9,0.4c0.3,0,0.6-0.1,0.8-0.3
		C248.6,404.2,248.7,404,248.7,403.7z M248.7,405.8v-0.5h0c0,0-0.1,0.1-0.1,0.2c-0.1,0.1-0.2,0.2-0.5,0.3c-0.2,0.1-0.5,0.2-0.8,0.2
		c-0.7,0-1.2-0.3-1.7-0.8c-0.4-0.5-0.6-1.2-0.6-2c0-0.8,0.2-1.5,0.7-2c0.4-0.5,1-0.8,1.6-0.8c0.3,0,0.5,0.1,0.7,0.2
		c0.2,0.1,0.4,0.2,0.5,0.3l0.1,0.2h0v-2.5h1.3v7.2H248.7z M255.2,404.6h0.9c0.2,0,0.4,0,0.6-0.1c0.2-0.1,0.3-0.2,0.5-0.3
		s0.3-0.4,0.4-0.7c0.1-0.3,0.1-0.7,0.1-1.2c0-0.8-0.1-1.3-0.4-1.7c-0.3-0.4-0.7-0.5-1.1-0.5h-1V404.6z M253.9,405.8v-6.9h2.3
		c0.4,0,0.8,0.1,1.1,0.2s0.7,0.3,0.9,0.6c0.3,0.3,0.5,0.6,0.7,1.1c0.2,0.4,0.3,1,0.3,1.5c0,0.6-0.1,1.2-0.3,1.6
		c-0.2,0.5-0.4,0.8-0.7,1.1c-0.3,0.3-0.6,0.4-1,0.6c-0.3,0.1-0.7,0.2-1.1,0.2H253.9z M261.5,404.4c0.2,0.3,0.5,0.4,0.9,0.4
		s0.7-0.1,0.9-0.4c0.2-0.3,0.3-0.7,0.3-1.2s-0.1-0.9-0.3-1.2c-0.2-0.3-0.5-0.4-0.9-0.4c-0.4,0-0.6,0.1-0.9,0.4
		c-0.2,0.3-0.3,0.7-0.3,1.2C261.1,403.7,261.2,404.1,261.5,404.4z M264.1,405.2c-0.5,0.5-1,0.7-1.8,0.7s-1.3-0.2-1.8-0.7
		c-0.5-0.5-0.7-1.2-0.7-2c0-0.9,0.2-1.5,0.7-2c0.5-0.5,1.1-0.7,1.7-0.7c0.7,0,1.3,0.2,1.7,0.7c0.5,0.5,0.7,1.2,0.7,2
		C264.8,404.1,264.5,404.7,264.1,405.2z M267,404.4c0.2,0.3,0.5,0.4,0.9,0.4c0.4,0,0.7-0.1,0.9-0.4c0.2-0.3,0.3-0.7,0.3-1.2
		s-0.1-0.9-0.3-1.2c-0.2-0.3-0.5-0.4-0.9-0.4s-0.7,0.1-0.9,0.4c-0.2,0.3-0.3,0.7-0.3,1.2C266.7,403.7,266.8,404.1,267,404.4z
		 M269.7,405.2c-0.5,0.5-1,0.7-1.8,0.7c-0.7,0-1.3-0.2-1.8-0.7c-0.5-0.5-0.7-1.2-0.7-2c0-0.9,0.2-1.5,0.7-2c0.5-0.5,1.1-0.7,1.7-0.7
		c0.7,0,1.3,0.2,1.7,0.7c0.5,0.5,0.7,1.2,0.7,2C270.3,404.1,270.1,404.7,269.7,405.2z M271.4,405.8v-5.2h1.2v0.6h0
		c0.1-0.2,0.2-0.4,0.4-0.5c0.2-0.1,0.4-0.2,0.6-0.2c0.2,0,0.3,0,0.5,0.1l-0.2,1.2c-0.1-0.1-0.3-0.1-0.4-0.1c-0.6,0-0.9,0.4-0.9,1.2
		v2.9H271.4z M274.6,404.1l1.2-0.3c0.1,0.7,0.5,1.1,1.2,1.1c0.3,0,0.6,0,0.7-0.1c0.2-0.1,0.3-0.3,0.3-0.4c0-0.2-0.1-0.3-0.2-0.3
		c-0.1-0.1-0.4-0.2-0.9-0.3c-0.1,0-0.2-0.1-0.3-0.1c-0.6-0.2-1-0.4-1.3-0.6c-0.3-0.2-0.4-0.5-0.4-0.9c0-0.4,0.2-0.8,0.5-1.1
		c0.4-0.3,0.8-0.5,1.4-0.5c1.2,0,1.9,0.5,2.2,1.5l-1.1,0.3c-0.1-0.3-0.2-0.4-0.4-0.6c-0.2-0.1-0.4-0.2-0.7-0.2
		c-0.3,0-0.5,0.1-0.6,0.1c-0.1,0.1-0.2,0.2-0.2,0.3c0,0.1,0.1,0.3,0.3,0.3c0.2,0.1,0.6,0.2,1.3,0.4c0.6,0.2,1,0.4,1.2,0.6
		c0.2,0.2,0.3,0.6,0.3,1c0,0.4-0.2,0.8-0.6,1.1c-0.4,0.3-0.9,0.5-1.6,0.5c-0.7,0-1.3-0.2-1.7-0.5C274.9,405,274.7,404.6,274.6,404.1
		z"/>
	<path class="st52" d="M166.9,508.3l1.4,0.3c-0.1,0.8-0.4,1.4-0.9,1.9c-0.5,0.5-1.1,0.7-1.9,0.7c-0.9,0-1.6-0.3-2.2-0.9
		c-0.6-0.6-0.8-1.5-0.8-2.8c0-1.1,0.3-1.9,0.9-2.6c0.6-0.6,1.3-0.9,2.1-0.9c0.7,0,1.3,0.2,1.8,0.7c0.5,0.4,0.8,1,0.9,1.8l-1.3,0.2
		c-0.1-0.4-0.2-0.8-0.4-1c-0.2-0.3-0.5-0.4-0.9-0.4c-0.5,0-0.8,0.2-1.2,0.6c-0.3,0.4-0.5,1-0.5,1.7c0,0.8,0.2,1.5,0.5,1.9
		c0.3,0.4,0.7,0.6,1.2,0.6C166.3,509.9,166.7,509.4,166.9,508.3z M171.8,511v-6.9h1.3v5.7h2.8v1.2H171.8z M178.1,509.6
		c0.2,0.3,0.5,0.4,0.9,0.4s0.7-0.1,0.9-0.4c0.2-0.3,0.3-0.7,0.3-1.2s-0.1-0.9-0.3-1.2c-0.2-0.3-0.5-0.4-0.9-0.4
		c-0.4,0-0.7,0.1-0.9,0.4c-0.2,0.3-0.3,0.7-0.3,1.2C177.8,508.9,177.9,509.3,178.1,509.6z M180.7,510.4c-0.5,0.5-1,0.7-1.8,0.7
		c-0.7,0-1.3-0.2-1.8-0.7c-0.5-0.5-0.7-1.2-0.7-2c0-0.9,0.2-1.5,0.7-2c0.5-0.5,1.1-0.7,1.7-0.7c0.7,0,1.3,0.2,1.7,0.7
		c0.5,0.5,0.7,1.2,0.7,2C181.4,509.3,181.2,509.9,180.7,510.4z M183.7,507.9v1c0,0.3,0.1,0.6,0.3,0.8c0.2,0.2,0.5,0.3,0.8,0.3
		c0.4,0,0.7-0.1,0.9-0.4c0.2-0.3,0.3-0.7,0.3-1.2c0-0.5-0.1-0.9-0.3-1.2c-0.2-0.3-0.5-0.4-0.9-0.4c-0.3,0-0.6,0.1-0.8,0.3
		C183.8,507.3,183.7,507.6,183.7,507.9z M182.4,511v-7.2h1.3v2.5h0c0,0,0,0,0-0.1c0,0,0.1-0.1,0.1-0.2c0.1-0.1,0.2-0.1,0.3-0.2
		c0.1-0.1,0.2-0.1,0.4-0.2c0.2,0,0.3-0.1,0.5-0.1c0.6,0,1.2,0.3,1.6,0.8c0.4,0.5,0.6,1.2,0.6,2c0,0.8-0.2,1.5-0.6,2
		c-0.4,0.5-1,0.7-1.6,0.7c-0.3,0-0.5-0.1-0.8-0.2c-0.2-0.1-0.4-0.2-0.5-0.3l-0.1-0.2h0v0.5H182.4z M189.6,507.9v1
		c0,0.3,0.1,0.6,0.3,0.8c0.2,0.2,0.5,0.3,0.8,0.3c0.4,0,0.7-0.1,0.9-0.4c0.2-0.3,0.3-0.7,0.3-1.2c0-0.5-0.1-0.9-0.3-1.2
		c-0.2-0.3-0.5-0.4-0.9-0.4c-0.3,0-0.6,0.1-0.8,0.3C189.7,507.3,189.6,507.6,189.6,507.9z M188.3,511v-7.2h1.3v2.5h0c0,0,0,0,0-0.1
		c0,0,0.1-0.1,0.1-0.2c0.1-0.1,0.2-0.1,0.3-0.2c0.1-0.1,0.2-0.1,0.4-0.2c0.2,0,0.3-0.1,0.5-0.1c0.6,0,1.2,0.3,1.6,0.8
		c0.4,0.5,0.6,1.2,0.6,2c0,0.8-0.2,1.5-0.6,2c-0.4,0.5-1,0.7-1.6,0.7c-0.3,0-0.5-0.1-0.8-0.2c-0.2-0.1-0.4-0.2-0.5-0.3l-0.1-0.2h0
		v0.5H188.3z M194.5,513.2l1-2.5l-2.1-5h1.3l1.4,3.5h0l1.4-3.5h1.3l-3,7.4H194.5z"/>
	<path class="st55" d="M82.5,392l1.4,0.3c-0.1,0.8-0.4,1.4-0.9,1.9c-0.5,0.5-1.1,0.7-1.9,0.7c-0.9,0-1.6-0.3-2.2-0.9
		c-0.6-0.6-0.8-1.5-0.8-2.8c0-1.1,0.3-1.9,0.9-2.6c0.6-0.6,1.3-0.9,2.1-0.9c0.7,0,1.3,0.2,1.8,0.7c0.5,0.4,0.8,1,0.9,1.8l-1.3,0.2
		c-0.1-0.4-0.2-0.8-0.4-1c-0.2-0.3-0.5-0.4-0.9-0.4c-0.5,0-0.8,0.2-1.2,0.6c-0.3,0.4-0.5,1-0.5,1.7c0,0.8,0.2,1.5,0.5,1.9
		c0.3,0.4,0.7,0.6,1.2,0.6C82,393.6,82.4,393.1,82.5,392z M87.1,392v-1h3.2v1H87.1z M94,394.7v-6.9h1.3v5.7h2.8v1.2H94z
		 M100.3,393.3c0.2,0.3,0.5,0.4,0.9,0.4c0.4,0,0.7-0.1,0.9-0.4c0.2-0.3,0.3-0.7,0.3-1.2s-0.1-0.9-0.3-1.2c-0.2-0.3-0.5-0.4-0.9-0.4
		c-0.4,0-0.7,0.1-0.9,0.4c-0.2,0.3-0.3,0.7-0.3,1.2C99.9,392.6,100,393,100.3,393.3z M102.9,394.1c-0.5,0.5-1,0.7-1.8,0.7
		s-1.3-0.2-1.8-0.7c-0.5-0.5-0.7-1.2-0.7-2c0-0.9,0.2-1.5,0.7-2c0.5-0.5,1.1-0.7,1.7-0.7c0.7,0,1.3,0.2,1.7,0.7
		c0.5,0.5,0.7,1.2,0.7,2C103.6,393,103.3,393.7,102.9,394.1z M104.6,394.7v-5.2h1.2v0.5h0c0.1-0.2,0.3-0.3,0.6-0.5s0.5-0.2,0.8-0.2
		c0.6,0,1,0.2,1.4,0.5c0.3,0.3,0.5,0.8,0.5,1.4v3.4h-1.3v-3.1c0-0.4-0.1-0.6-0.2-0.8c-0.1-0.2-0.4-0.3-0.7-0.3
		c-0.3,0-0.6,0.1-0.7,0.3c-0.2,0.2-0.3,0.4-0.3,0.7v3.2H104.6z M113.8,392.6v-1.1c0-0.3-0.1-0.5-0.3-0.7c-0.2-0.2-0.5-0.3-0.8-0.3
		c-0.4,0-0.7,0.1-0.9,0.4c-0.2,0.3-0.4,0.7-0.4,1.2c0,0.5,0.1,0.9,0.4,1.2c0.2,0.3,0.6,0.4,0.9,0.4c0.3,0,0.6-0.1,0.8-0.3
		C113.7,393.2,113.8,392.9,113.8,392.6z M110.5,395.8l1-0.7c0.2,0.3,0.3,0.5,0.5,0.6c0.2,0.1,0.4,0.2,0.7,0.2c0.3,0,0.6-0.1,0.8-0.3
		c0.2-0.2,0.3-0.4,0.3-0.8v-0.7h0c-0.1,0.2-0.3,0.3-0.5,0.5c-0.2,0.1-0.5,0.2-0.8,0.2c-0.7,0-1.2-0.2-1.7-0.7
		c-0.5-0.5-0.7-1.2-0.7-2c0-0.8,0.2-1.5,0.7-2c0.5-0.5,1-0.8,1.6-0.8c0.6,0,1.1,0.2,1.4,0.7h0v-0.5h1.2v5.2c0,0.8-0.2,1.3-0.7,1.8
		c-0.4,0.4-1,0.6-1.7,0.6c-0.5,0-1-0.1-1.4-0.4C110.9,396.5,110.6,396.2,110.5,395.8z"/>
	<path class="st55" d="M177.7,330.8l1.4,0.3c-0.1,0.8-0.4,1.4-0.9,1.9c-0.5,0.5-1.1,0.7-1.9,0.7c-0.9,0-1.6-0.3-2.2-0.9
		c-0.6-0.6-0.8-1.5-0.8-2.8c0-1.1,0.3-1.9,0.9-2.6c0.6-0.6,1.3-0.9,2.1-0.9c0.7,0,1.3,0.2,1.8,0.7c0.5,0.4,0.8,1,0.9,1.8l-1.3,0.2
		c-0.1-0.4-0.2-0.8-0.4-1c-0.2-0.3-0.5-0.4-0.9-0.4c-0.5,0-0.8,0.2-1.2,0.6c-0.3,0.4-0.5,1-0.5,1.7c0,0.8,0.2,1.5,0.5,1.9
		c0.3,0.4,0.7,0.6,1.2,0.6C177.1,332.4,177.6,331.9,177.7,330.8z M181.3,332.1c0.2,0.3,0.5,0.4,0.9,0.4c0.4,0,0.7-0.1,0.9-0.4
		c0.2-0.3,0.3-0.7,0.3-1.2c0-0.5-0.1-0.9-0.3-1.2c-0.2-0.3-0.5-0.4-0.9-0.4c-0.4,0-0.7,0.1-0.9,0.4c-0.2,0.3-0.3,0.7-0.3,1.2
		C181,331.4,181.1,331.8,181.3,332.1z M184,332.9c-0.5,0.5-1,0.7-1.8,0.7c-0.7,0-1.3-0.2-1.8-0.7c-0.5-0.5-0.7-1.2-0.7-2
		c0-0.9,0.2-1.5,0.7-2c0.5-0.5,1.1-0.7,1.7-0.7c0.7,0,1.3,0.2,1.7,0.7c0.5,0.5,0.7,1.2,0.7,2C184.7,331.8,184.4,332.4,184,332.9z
		 M185.7,333.5v-5.2h1.2v0.5h0c0.1-0.2,0.3-0.3,0.6-0.5s0.5-0.2,0.8-0.2c0.6,0,1,0.2,1.4,0.5c0.3,0.3,0.5,0.8,0.5,1.4v3.4h-1.3v-3.1
		c0-0.4-0.1-0.6-0.2-0.8c-0.1-0.2-0.4-0.3-0.7-0.3c-0.3,0-0.6,0.1-0.7,0.3c-0.2,0.2-0.3,0.4-0.3,0.7v3.2H185.7z M191.5,333.5v-5.2
		h1.2v0.5h0c0.1-0.2,0.3-0.3,0.6-0.5s0.5-0.2,0.8-0.2c0.6,0,1,0.2,1.4,0.5c0.3,0.3,0.5,0.8,0.5,1.4v3.4h-1.3v-3.1
		c0-0.4-0.1-0.6-0.2-0.8c-0.1-0.2-0.4-0.3-0.7-0.3c-0.3,0-0.6,0.1-0.7,0.3c-0.2,0.2-0.3,0.4-0.3,0.7v3.2H191.5z M200.7,331.7
		l0.9,0.8c-0.5,0.8-1.3,1.2-2.2,1.2c-0.7,0-1.3-0.2-1.8-0.7c-0.5-0.5-0.7-1.2-0.7-2c0-0.8,0.2-1.5,0.7-2c0.5-0.5,1-0.8,1.7-0.8
		c0.7,0,1.3,0.3,1.7,0.8c0.5,0.5,0.7,1.2,0.7,2v0.4h-3.5c0,0.4,0.1,0.7,0.3,0.9c0.2,0.2,0.5,0.3,0.8,0.3c0.3,0,0.5-0.1,0.7-0.2
		C200.4,332.1,200.5,331.9,200.7,331.7z M198.3,330.3h2.3c0-0.3-0.1-0.6-0.3-0.8c-0.2-0.2-0.5-0.3-0.8-0.3c-0.3,0-0.6,0.1-0.8,0.3
		C198.4,329.8,198.3,330,198.3,330.3z M206,331.4l1.2,0.3c-0.1,0.6-0.4,1.1-0.8,1.4c-0.4,0.3-0.9,0.5-1.5,0.5
		c-0.7,0-1.3-0.2-1.8-0.7c-0.5-0.5-0.7-1.2-0.7-2c0-0.9,0.2-1.5,0.7-2c0.5-0.5,1.1-0.7,1.7-0.7c0.6,0,1.1,0.2,1.5,0.5
		c0.4,0.3,0.6,0.8,0.7,1.4l-1.2,0.2c-0.1-0.6-0.5-1-1-1c-0.4,0-0.7,0.1-0.9,0.4c-0.2,0.3-0.3,0.7-0.3,1.2c0,0.5,0.1,0.9,0.3,1.2
		c0.2,0.3,0.5,0.4,0.9,0.4C205.5,332.5,205.8,332.1,206,331.4z M208.4,331.6v-2.3h-0.8v-1.1h0.8V327h1.2v1.3h1.3v1.1h-1.3v2.2
		c0,0.3,0,0.5,0.1,0.6c0.1,0.1,0.3,0.2,0.6,0.2h0.4v1.2h-0.5c-0.7,0-1.2-0.1-1.4-0.4C208.6,332.8,208.4,332.3,208.4,331.6z
		 M213.2,332.1c0.2,0.3,0.5,0.4,0.9,0.4c0.4,0,0.7-0.1,0.9-0.4c0.2-0.3,0.3-0.7,0.3-1.2c0-0.5-0.1-0.9-0.3-1.2
		c-0.2-0.3-0.5-0.4-0.9-0.4c-0.4,0-0.7,0.1-0.9,0.4c-0.2,0.3-0.3,0.7-0.3,1.2C212.9,331.4,213,331.8,213.2,332.1z M215.8,332.9
		c-0.5,0.5-1,0.7-1.8,0.7c-0.7,0-1.3-0.2-1.8-0.7c-0.5-0.5-0.7-1.2-0.7-2c0-0.9,0.2-1.5,0.7-2c0.5-0.5,1.1-0.7,1.7-0.7
		c0.7,0,1.3,0.2,1.7,0.7c0.5,0.5,0.7,1.2,0.7,2C216.5,331.8,216.3,332.4,215.8,332.9z M217.6,333.5v-5.2h1.2v0.6h0
		c0.1-0.2,0.2-0.4,0.4-0.5c0.2-0.1,0.4-0.2,0.6-0.2c0.2,0,0.3,0,0.5,0.1l-0.2,1.2c-0.1-0.1-0.3-0.1-0.4-0.1c-0.6,0-0.9,0.4-0.9,1.2
		v2.9H217.6z"/>
	<path class="st55" d="M242.9,337.5c-0.9,0-1.6-0.3-2.2-0.9c-0.6-0.6-0.8-1.5-0.8-2.8c0-1.1,0.3-1.9,0.9-2.6
		c0.6-0.6,1.3-0.9,2.1-0.9c0.7,0,1.3,0.2,1.8,0.6c0.5,0.4,0.8,1,0.9,1.7l-1.3,0.2c-0.2-0.9-0.6-1.3-1.3-1.3c-0.5,0-0.8,0.2-1.2,0.6
		c-0.3,0.4-0.5,1-0.5,1.7c0,0.8,0.2,1.5,0.5,1.9c0.3,0.4,0.7,0.6,1.2,0.6c0.4,0,0.8-0.1,1-0.4c0.3-0.2,0.4-0.6,0.4-1H243v-1.1h2.6
		v0.9c0,0.9-0.2,1.6-0.7,2.1C244.3,337.2,243.7,337.5,242.9,337.5z M249.6,337.3v-0.5h0c0,0,0,0-0.1,0.1c0,0-0.1,0.1-0.1,0.1
		c-0.1,0.1-0.2,0.1-0.3,0.2c-0.1,0.1-0.2,0.1-0.4,0.2c-0.2,0-0.4,0.1-0.6,0.1c-0.6,0-1.1-0.1-1.4-0.4c-0.3-0.3-0.5-0.7-0.5-1.1
		c0-0.5,0.1-0.8,0.4-1c0.3-0.2,0.7-0.4,1.4-0.6c0.6-0.1,1-0.3,1.1-0.3c0.2-0.1,0.2-0.2,0.2-0.4c0-0.2-0.1-0.3-0.2-0.4
		c-0.1-0.1-0.4-0.2-0.7-0.2c-0.3,0-0.6,0.1-0.8,0.2c-0.2,0.2-0.3,0.4-0.4,0.6l-1.1-0.4c0.1-0.4,0.4-0.8,0.7-1.1
		c0.4-0.3,0.8-0.4,1.4-0.4c0.6,0,1.2,0.2,1.6,0.5c0.4,0.3,0.6,0.9,0.6,1.6v3.3H249.6z M248.3,335.2c-0.3,0.1-0.5,0.2-0.7,0.3
		c-0.1,0.1-0.1,0.2-0.1,0.4c0,0.4,0.3,0.5,0.8,0.5c0.4,0,0.7-0.1,0.9-0.2c0.2-0.2,0.3-0.3,0.3-0.6v-0.9h0c0,0.1-0.1,0.1-0.1,0.1
		c0,0-0.1,0.1-0.3,0.1C248.9,335,248.7,335.1,248.3,335.2z M252,337.3v-5.2h1.2v0.6h0c0.1-0.2,0.2-0.4,0.4-0.5
		c0.2-0.1,0.4-0.2,0.6-0.2c0.2,0,0.3,0,0.5,0.1l-0.2,1.2c-0.1-0.1-0.3-0.1-0.4-0.1c-0.6,0-0.9,0.4-0.9,1.2v2.9H252z M258.6,337.3
		v-0.5h0c0,0,0,0,0,0.1c0,0-0.1,0.1-0.1,0.1c-0.1,0.1-0.2,0.1-0.3,0.2s-0.2,0.1-0.4,0.2c-0.2,0-0.4,0.1-0.6,0.1
		c-0.6,0-1.1-0.1-1.4-0.4c-0.3-0.3-0.5-0.7-0.5-1.1c0-0.5,0.1-0.8,0.4-1c0.3-0.2,0.7-0.4,1.4-0.6c0.6-0.1,1-0.3,1.1-0.3
		c0.2-0.1,0.2-0.2,0.2-0.4c0-0.2-0.1-0.3-0.2-0.4c-0.1-0.1-0.4-0.2-0.7-0.2c-0.3,0-0.6,0.1-0.8,0.2c-0.2,0.2-0.3,0.4-0.4,0.6
		l-1.1-0.4c0.1-0.4,0.4-0.8,0.7-1.1c0.4-0.3,0.8-0.4,1.4-0.4c0.6,0,1.2,0.2,1.6,0.5c0.4,0.3,0.6,0.9,0.6,1.6v3.3H258.6z
		 M257.3,335.2c-0.3,0.1-0.5,0.2-0.6,0.3c-0.1,0.1-0.1,0.2-0.1,0.4c0,0.4,0.3,0.5,0.8,0.5c0.4,0,0.7-0.1,0.9-0.2
		c0.2-0.2,0.3-0.3,0.3-0.6v-0.9h0c0,0.1-0.1,0.1-0.1,0.1c0,0-0.1,0.1-0.3,0.1C257.9,335,257.6,335.1,257.3,335.2z M264.3,335.2v-1.1
		c0-0.3-0.1-0.5-0.3-0.8c-0.2-0.2-0.5-0.3-0.8-0.3c-0.4,0-0.7,0.1-0.9,0.4c-0.2,0.3-0.4,0.7-0.4,1.2c0,0.5,0.1,0.9,0.4,1.2
		c0.2,0.3,0.6,0.4,0.9,0.4c0.3,0,0.6-0.1,0.8-0.3C264.2,335.8,264.3,335.5,264.3,335.2z M261,338.4l1-0.7c0.2,0.3,0.3,0.5,0.5,0.6
		c0.2,0.1,0.4,0.2,0.7,0.2c0.3,0,0.6-0.1,0.8-0.3c0.2-0.2,0.3-0.4,0.3-0.8v-0.7h0c-0.1,0.2-0.3,0.3-0.5,0.5
		c-0.2,0.1-0.5,0.2-0.8,0.2c-0.7,0-1.2-0.2-1.7-0.7c-0.5-0.5-0.7-1.2-0.7-2c0-0.8,0.2-1.5,0.7-2c0.5-0.5,1-0.7,1.6-0.7
		c0.6,0,1.1,0.2,1.4,0.7h0v-0.5h1.2v5.2c0,0.8-0.2,1.3-0.7,1.8c-0.4,0.4-1,0.6-1.7,0.6c-0.5,0-1-0.1-1.4-0.4
		C261.4,339.1,261.1,338.8,261,338.4z M270.3,335.5l0.9,0.8c-0.5,0.8-1.3,1.2-2.2,1.2c-0.7,0-1.3-0.3-1.8-0.8
		c-0.5-0.5-0.7-1.2-0.7-2c0-0.8,0.2-1.5,0.7-2c0.5-0.5,1-0.8,1.7-0.8c0.7,0,1.3,0.3,1.7,0.8c0.5,0.5,0.7,1.2,0.7,2v0.4h-3.5
		c0,0.4,0.1,0.7,0.3,0.9c0.2,0.2,0.5,0.3,0.8,0.3c0.3,0,0.5-0.1,0.7-0.2C269.9,336,270.1,335.8,270.3,335.5z M267.9,334.1h2.3
		c0-0.3-0.1-0.6-0.3-0.8c-0.2-0.2-0.5-0.3-0.8-0.3c-0.3,0-0.6,0.1-0.8,0.3C268,333.6,267.9,333.8,267.9,334.1z"/>
	<path class="st55" d="M232.3,289.3l1.4,0.3c-0.1,0.8-0.4,1.4-0.9,1.9c-0.5,0.5-1.1,0.7-1.9,0.7c-0.9,0-1.6-0.3-2.2-0.9
		c-0.6-0.6-0.8-1.5-0.8-2.8c0-1.1,0.3-1.9,0.9-2.6c0.6-0.6,1.3-0.9,2.1-0.9c0.7,0,1.3,0.2,1.8,0.7c0.5,0.4,0.8,1,0.9,1.8l-1.3,0.2
		c-0.1-0.4-0.2-0.8-0.4-1c-0.2-0.3-0.5-0.4-0.9-0.4c-0.5,0-0.8,0.2-1.2,0.6c-0.3,0.4-0.5,1-0.5,1.7c0,0.8,0.2,1.5,0.5,1.9
		c0.3,0.4,0.7,0.6,1.2,0.6C231.7,290.9,232.2,290.4,232.3,289.3z M237.9,292l-1.2-5.2h1.3l0.7,3.5h0l1.2-3.5h1.2l1.1,3.5h0l0.8-3.5
		h1.2l-1.3,5.2h-1.3l-1.2-3.8h0l-1.3,3.8H237.9z M245.2,292v-5.2h1.3v5.2H245.2z M245.2,286v-1.2h1.3v1.2H245.2z M247.8,292v-5.2
		h1.2v0.5h0c0.1-0.2,0.3-0.3,0.6-0.5s0.5-0.2,0.8-0.2c0.6,0,1,0.2,1.4,0.5c0.3,0.3,0.5,0.8,0.5,1.4v3.4H251v-3.1
		c0-0.4-0.1-0.6-0.2-0.8c-0.1-0.2-0.4-0.3-0.7-0.3c-0.3,0-0.6,0.1-0.7,0.3c-0.2,0.2-0.3,0.4-0.3,0.7v3.2H247.8z M256.9,289.9v-1
		c0-0.3-0.1-0.6-0.3-0.8c-0.2-0.2-0.5-0.3-0.8-0.3c-0.4,0-0.7,0.1-0.9,0.4c-0.2,0.3-0.3,0.7-0.3,1.2c0,0.5,0.1,0.9,0.3,1.2
		c0.2,0.3,0.5,0.4,0.9,0.4c0.3,0,0.6-0.1,0.8-0.3C256.8,290.4,256.9,290.2,256.9,289.9z M257,292v-0.5h0c0,0-0.1,0.1-0.1,0.2
		c-0.1,0.1-0.2,0.2-0.5,0.3c-0.2,0.1-0.5,0.2-0.8,0.2c-0.7,0-1.2-0.3-1.7-0.7c-0.4-0.5-0.6-1.2-0.6-2c0-0.8,0.2-1.5,0.7-2
		c0.4-0.5,1-0.8,1.6-0.8c0.3,0,0.5,0.1,0.7,0.2c0.2,0.1,0.4,0.2,0.5,0.3l0.1,0.2h0v-2.5h1.3v7.2H257z M260.8,290.6
		c0.2,0.3,0.5,0.4,0.9,0.4c0.4,0,0.7-0.1,0.9-0.4c0.2-0.3,0.3-0.7,0.3-1.2s-0.1-0.9-0.3-1.2c-0.2-0.3-0.5-0.4-0.9-0.4
		c-0.4,0-0.7,0.1-0.9,0.4c-0.2,0.3-0.3,0.7-0.3,1.2C260.5,289.9,260.6,290.3,260.8,290.6z M263.4,291.4c-0.5,0.5-1,0.7-1.8,0.7
		c-0.7,0-1.3-0.2-1.8-0.7c-0.5-0.5-0.7-1.2-0.7-2c0-0.9,0.2-1.5,0.7-2c0.5-0.5,1.1-0.7,1.7-0.7c0.7,0,1.3,0.2,1.7,0.7
		c0.5,0.5,0.7,1.2,0.7,2C264.1,290.3,263.9,290.9,263.4,291.4z M265.9,292l-1.2-5.2h1.3l0.7,3.5h0l1.2-3.5h1.2l1.1,3.5h0l0.8-3.5
		h1.2l-1.3,5.2h-1.3l-1.2-3.8h0l-1.3,3.8H265.9z"/>
	<path class="st55" d="M604.8,223.5v-6.9h2.9c0.6,0,1.1,0.2,1.5,0.5c0.4,0.4,0.6,0.8,0.6,1.3c0,0.6-0.3,1-0.7,1.3v0
		c0.3,0.1,0.5,0.3,0.7,0.6c0.2,0.3,0.3,0.6,0.3,1c0,0.7-0.2,1.2-0.6,1.6c-0.4,0.4-1.1,0.6-2,0.6H604.8z M606.1,222.3h1.6
		c0.6,0,0.9-0.3,0.9-0.9c0-0.3-0.1-0.5-0.3-0.7c-0.2-0.2-0.4-0.2-0.7-0.2h-1.6V222.3z M606.1,219.4h1.4c0.3,0,0.5-0.1,0.6-0.2
		c0.2-0.1,0.2-0.3,0.2-0.6c0-0.3-0.1-0.5-0.2-0.6c-0.2-0.1-0.4-0.2-0.6-0.2h-1.4V219.4z M612.4,222.1c0.2,0.3,0.5,0.4,0.9,0.4
		c0.4,0,0.7-0.1,0.9-0.4c0.2-0.3,0.3-0.7,0.3-1.2c0-0.5-0.1-0.9-0.3-1.2c-0.2-0.3-0.5-0.4-0.9-0.4c-0.4,0-0.7,0.1-0.9,0.4
		c-0.2,0.3-0.3,0.7-0.3,1.2C612,221.4,612.1,221.8,612.4,222.1z M615,222.9c-0.5,0.5-1,0.7-1.8,0.7c-0.7,0-1.3-0.2-1.8-0.7
		c-0.5-0.5-0.7-1.2-0.7-2c0-0.9,0.2-1.5,0.7-2s1.1-0.7,1.7-0.7c0.7,0,1.3,0.2,1.7,0.7c0.5,0.5,0.7,1.2,0.7,2
		C615.7,221.8,615.4,222.4,615,222.9z M617,221.7v-2.3h-0.8v-1.1h0.8V217h1.2v1.3h1.3v1.1h-1.3v2.2c0,0.3,0,0.5,0.1,0.6
		c0.1,0.1,0.3,0.2,0.6,0.2h0.4v1.2h-0.5c-0.7,0-1.2-0.1-1.5-0.4C617.1,222.8,617,222.3,617,221.7z M620.7,221.7v-2.3h-0.8v-1.1h0.8
		V217h1.2v1.3h1.3v1.1H622v2.2c0,0.3,0,0.5,0.1,0.6c0.1,0.1,0.3,0.2,0.6,0.2h0.4v1.2h-0.5c-0.7,0-1.2-0.1-1.4-0.4
		C620.8,222.8,620.7,222.3,620.7,221.7z M625.5,222.1c0.2,0.3,0.5,0.4,0.9,0.4c0.4,0,0.7-0.1,0.9-0.4c0.2-0.3,0.3-0.7,0.3-1.2
		c0-0.5-0.1-0.9-0.3-1.2c-0.2-0.3-0.5-0.4-0.9-0.4c-0.4,0-0.7,0.1-0.9,0.4c-0.2,0.3-0.3,0.7-0.3,1.2
		C625.2,221.4,625.3,221.8,625.5,222.1z M628.1,222.9c-0.5,0.5-1,0.7-1.8,0.7c-0.7,0-1.3-0.2-1.8-0.7c-0.5-0.5-0.7-1.2-0.7-2
		c0-0.9,0.2-1.5,0.7-2c0.5-0.5,1.1-0.7,1.7-0.7c0.7,0,1.3,0.2,1.7,0.7c0.5,0.5,0.7,1.2,0.7,2C628.8,221.8,628.6,222.4,628.1,222.9z
		 M629.8,223.5v-5.2h1.2v0.5h0c0.1-0.2,0.3-0.3,0.5-0.5c0.2-0.1,0.5-0.2,0.7-0.2c0.3,0,0.5,0.1,0.8,0.2c0.2,0.1,0.4,0.3,0.6,0.5h0
		c0.1-0.2,0.3-0.4,0.6-0.5c0.2-0.1,0.5-0.2,0.8-0.2c0.6,0,1.1,0.2,1.5,0.5c0.4,0.3,0.6,0.8,0.6,1.3v3.6h-1.2v-3.3
		c0-0.3-0.1-0.5-0.2-0.6c-0.1-0.2-0.4-0.2-0.7-0.2c-0.3,0-0.5,0.1-0.7,0.2c-0.2,0.2-0.2,0.3-0.2,0.6v3.4h-1.2v-3.3
		c0-0.3-0.1-0.5-0.2-0.6c-0.2-0.2-0.4-0.3-0.7-0.3c-0.3,0-0.5,0.1-0.7,0.2c-0.2,0.2-0.2,0.3-0.2,0.6v3.4H629.8z M644.9,223.5
		l-0.4-1.1h-2.6l-0.4,1.1h-1.3l2.5-6.9h1.1l2.5,6.9H644.9z M643.2,218.6l-0.9,2.7h1.9L643.2,218.6L643.2,218.6z M613.3,233.7
		l-0.5,0.4c-0.1-0.1-0.2-0.2-0.4-0.4c-0.1-0.2-0.3-0.5-0.5-0.9c-0.2-0.4-0.4-0.8-0.5-1.3c-0.1-0.5-0.2-1-0.2-1.6
		c0-0.4,0-0.8,0.1-1.2c0.1-0.4,0.2-0.8,0.4-1c0.1-0.3,0.3-0.5,0.5-0.8c0.2-0.3,0.3-0.4,0.4-0.5c0.1-0.1,0.2-0.2,0.3-0.3l0.5,0.4
		c-0.4,0.5-0.8,1.1-1,1.6c-0.2,0.5-0.3,1.1-0.3,1.9c0,0.7,0.1,1.4,0.4,2.1C612.6,232.7,612.9,233.2,613.3,233.7z M615.3,229.9v0.8
		c0,0.3,0.1,0.5,0.2,0.7c0.2,0.2,0.4,0.3,0.7,0.3c0.3,0,0.6-0.1,0.7-0.3c0.2-0.2,0.3-0.6,0.3-1c0-0.4-0.1-0.8-0.3-1
		c-0.2-0.2-0.4-0.3-0.7-0.3c-0.3,0-0.5,0.1-0.7,0.3C615.4,229.5,615.3,229.7,615.3,229.9z M614.2,232.5v-6h1.1v2.1h0c0,0,0,0,0-0.1
		c0,0,0.1-0.1,0.1-0.1c0.1-0.1,0.1-0.1,0.2-0.2c0.1-0.1,0.2-0.1,0.3-0.1c0.1,0,0.3-0.1,0.4-0.1c0.5,0,1,0.2,1.3,0.6
		c0.4,0.4,0.5,1,0.5,1.7c0,0.7-0.2,1.3-0.5,1.7c-0.3,0.4-0.8,0.6-1.4,0.6c-0.2,0-0.4,0-0.6-0.1c-0.2-0.1-0.3-0.2-0.4-0.3l-0.1-0.1h0
		v0.4H614.2z M622,231l0.7,0.7c-0.4,0.6-1,1-1.8,1c-0.6,0-1.1-0.2-1.5-0.6c-0.4-0.4-0.6-1-0.6-1.7c0-0.7,0.2-1.3,0.6-1.7
		c0.4-0.4,0.9-0.6,1.4-0.6s1.1,0.2,1.4,0.6c0.4,0.4,0.6,1,0.6,1.7v0.3h-2.9c0,0.3,0.1,0.6,0.3,0.8c0.2,0.2,0.4,0.3,0.7,0.3
		c0.2,0,0.4-0.1,0.6-0.2C621.7,231.4,621.8,231.2,622,231z M619.9,229.9h1.9c0-0.3-0.1-0.5-0.3-0.6c-0.2-0.2-0.4-0.2-0.7-0.2
		c-0.3,0-0.5,0.1-0.6,0.3C620,229.4,620,229.6,619.9,229.9z M623.7,232.5v-6h1.1v6H623.7z M627,231.3c0.2,0.2,0.4,0.3,0.7,0.3
		s0.5-0.1,0.7-0.3c0.2-0.2,0.3-0.6,0.3-1s-0.1-0.8-0.3-1c-0.2-0.2-0.4-0.4-0.7-0.4s-0.5,0.1-0.7,0.3c-0.2,0.2-0.3,0.6-0.3,1
		S626.8,231.1,627,231.3z M629.2,232c-0.4,0.4-0.9,0.6-1.5,0.6c-0.6,0-1.1-0.2-1.5-0.6c-0.4-0.4-0.6-1-0.6-1.7
		c0-0.7,0.2-1.3,0.6-1.7c0.4-0.4,0.9-0.6,1.4-0.6s1.1,0.2,1.4,0.6c0.4,0.4,0.6,1,0.6,1.7C629.8,231.1,629.6,231.6,629.2,232z
		 M631.3,232.5l-1-4.4h1l0.6,2.9h0l1-2.9h1l0.9,2.9h0l0.7-2.9h1l-1,4.4h-1.1l-1-3.1h0l-1.1,3.1H631.3z M637.6,234.1l-0.5-0.4
		c0.4-0.5,0.7-1,0.9-1.7c0.2-0.7,0.4-1.3,0.4-2.1c0-0.8-0.1-1.4-0.3-1.9c-0.2-0.5-0.5-1-1-1.6l0.5-0.4c0.1,0.1,0.2,0.2,0.3,0.3
		c0.1,0.1,0.2,0.3,0.4,0.5c0.2,0.3,0.3,0.5,0.5,0.8c0.1,0.3,0.2,0.6,0.3,1c0.1,0.4,0.2,0.8,0.2,1.2c0,0.5-0.1,1.1-0.2,1.6
		c-0.1,0.5-0.3,1-0.5,1.3c-0.2,0.4-0.4,0.6-0.5,0.9C637.8,233.9,637.7,234.1,637.6,234.1z"/>
	<path class="st55" d="M474.5,270.8l-0.4-1.1h-2.6l-0.4,1.1h-1.3l2.5-6.9h1.1l2.5,6.9H474.5z M472.8,265.9l-0.9,2.7h1.9L472.8,265.9
		L472.8,265.9z M479.2,270.8v-6.9h1.3v5.7h2.8v1.2H479.2z M484.2,270.8v-5.2h1.3v5.2H484.2z M484.2,264.8v-1.2h1.3v1.2H484.2z
		 M486.8,270.8v-5.2h1.2v0.5h0c0.1-0.2,0.3-0.3,0.6-0.5s0.5-0.2,0.8-0.2c0.6,0,1,0.2,1.4,0.5c0.3,0.3,0.5,0.8,0.5,1.4v3.4h-1.3v-3.1
		c0-0.4-0.1-0.6-0.2-0.8c-0.1-0.2-0.4-0.3-0.7-0.3c-0.3,0-0.6,0.1-0.7,0.3c-0.2,0.2-0.3,0.4-0.3,0.7v3.2H486.8z M492.7,270.8v-7.2
		h1.3v4.1h0l1.9-2.2h1.6l-1.9,2.1l2.1,3.1h-1.4l-1.6-2.4h0l-0.7,0.8v1.6H492.7z"/>
	<path class="st55" d="M523.2,202.4l-0.4-1.1h-2.6l-0.4,1.1h-1.3l2.5-6.9h1.1l2.5,6.9H523.2z M521.5,197.4l-0.9,2.7h1.9L521.5,197.4
		L521.5,197.4z M529.2,202.4v-5.7h-2v-1.2h5.4v1.2h-2v5.7H529.2z M532.8,200.5v-3.4h1.3v3.2c0,0.3,0.1,0.6,0.2,0.7s0.3,0.2,0.6,0.2
		c0.3,0,0.6-0.1,0.7-0.2c0.2-0.2,0.3-0.4,0.3-0.8v-3.1h1.3v5.2H536v-0.5h0c-0.3,0.4-0.8,0.7-1.4,0.7c-0.6,0-1.1-0.2-1.4-0.5
		C532.9,201.6,532.8,201.1,532.8,200.5z M538.6,202.4v-5.2h1.2v0.5h0c0.1-0.2,0.3-0.3,0.6-0.5c0.3-0.1,0.5-0.2,0.8-0.2
		c0.6,0,1,0.2,1.4,0.5c0.3,0.3,0.5,0.8,0.5,1.4v3.4h-1.3v-3.1c0-0.4-0.1-0.6-0.2-0.8c-0.1-0.2-0.4-0.3-0.7-0.3
		c-0.3,0-0.6,0.1-0.7,0.3c-0.2,0.2-0.3,0.4-0.3,0.7v3.2H538.6z M544.4,202.4v-5.2h1.2v0.5h0c0.1-0.2,0.3-0.3,0.6-0.5
		c0.2-0.1,0.5-0.2,0.8-0.2c0.6,0,1,0.2,1.4,0.5c0.3,0.3,0.5,0.8,0.5,1.4v3.4h-1.3v-3.1c0-0.4-0.1-0.6-0.2-0.8
		c-0.1-0.2-0.4-0.3-0.7-0.3c-0.3,0-0.6,0.1-0.7,0.3c-0.2,0.2-0.3,0.4-0.3,0.7v3.2H544.4z M553.6,200.5l0.9,0.8
		c-0.5,0.8-1.3,1.2-2.2,1.2c-0.7,0-1.3-0.3-1.8-0.8c-0.5-0.5-0.7-1.2-0.7-2c0-0.8,0.2-1.5,0.7-2c0.5-0.5,1-0.8,1.7-0.8
		c0.7,0,1.3,0.3,1.7,0.8c0.5,0.5,0.7,1.2,0.7,2v0.4h-3.5c0,0.4,0.1,0.7,0.3,0.9c0.2,0.2,0.5,0.3,0.8,0.3c0.3,0,0.5-0.1,0.7-0.2
		C553.2,201,553.4,200.8,553.6,200.5z M551.2,199.2h2.3c0-0.3-0.1-0.6-0.3-0.8c-0.2-0.2-0.5-0.3-0.8-0.3c-0.3,0-0.6,0.1-0.8,0.3
		C551.3,198.6,551.2,198.9,551.2,199.2z M555.7,202.4v-7.2h1.3v7.2H555.7z"/>
	<path class="st55" d="M427,550c-0.9,0-1.6-0.3-2.2-0.9c-0.6-0.6-0.8-1.5-0.8-2.8c0-1.1,0.3-1.9,0.9-2.6c0.6-0.6,1.3-0.9,2.1-0.9
		c0.7,0,1.3,0.2,1.8,0.6c0.5,0.4,0.8,1,0.9,1.7l-1.3,0.2c-0.2-0.9-0.6-1.3-1.3-1.3c-0.5,0-0.8,0.2-1.2,0.6c-0.3,0.4-0.5,1-0.5,1.7
		c0,0.8,0.2,1.5,0.5,1.9c0.3,0.4,0.7,0.6,1.2,0.6c0.4,0,0.8-0.1,1-0.4c0.3-0.2,0.4-0.6,0.4-1H427v-1.1h2.6v0.9
		c0,0.9-0.2,1.6-0.7,2.1C428.4,549.7,427.7,550,427,550z M433.7,549.8v-0.5h0c0,0,0,0,0,0.1c0,0-0.1,0.1-0.1,0.1
		c-0.1,0.1-0.2,0.1-0.3,0.2c-0.1,0.1-0.2,0.1-0.4,0.2c-0.2,0-0.4,0.1-0.6,0.1c-0.6,0-1.1-0.1-1.4-0.4c-0.3-0.3-0.5-0.7-0.5-1.1
		c0-0.5,0.1-0.8,0.4-1c0.3-0.2,0.7-0.4,1.4-0.6c0.6-0.1,1-0.3,1.1-0.3c0.2-0.1,0.2-0.2,0.2-0.4c0-0.2-0.1-0.3-0.2-0.4
		c-0.1-0.1-0.4-0.2-0.7-0.2c-0.3,0-0.6,0.1-0.8,0.2c-0.2,0.2-0.3,0.4-0.4,0.6l-1.1-0.4c0.1-0.4,0.4-0.8,0.7-1.1
		c0.4-0.3,0.8-0.4,1.4-0.4c0.6,0,1.2,0.2,1.6,0.5c0.4,0.3,0.6,0.9,0.6,1.6v3.3H433.7z M432.4,547.7c-0.3,0.1-0.5,0.2-0.7,0.3
		c-0.1,0.1-0.1,0.2-0.1,0.4c0,0.4,0.3,0.5,0.8,0.5c0.4,0,0.7-0.1,0.9-0.2c0.2-0.2,0.3-0.3,0.3-0.6v-0.9h0c0,0.1-0.1,0.1-0.1,0.1
		c0,0-0.1,0.1-0.3,0.1C432.9,547.5,432.7,547.6,432.4,547.7z M436,549.8v-5.2h1.2v0.6h0c0.1-0.2,0.2-0.4,0.4-0.5
		c0.2-0.1,0.4-0.2,0.6-0.2c0.2,0,0.3,0,0.5,0.1l-0.2,1.2c-0.1-0.1-0.3-0.1-0.4-0.1c-0.6,0-0.9,0.4-0.9,1.2v2.9H436z M442.9,547.7v-1
		c0-0.3-0.1-0.6-0.3-0.8c-0.2-0.2-0.5-0.3-0.8-0.3c-0.4,0-0.7,0.1-0.9,0.4c-0.2,0.3-0.3,0.7-0.3,1.2c0,0.5,0.1,0.9,0.3,1.2
		c0.2,0.3,0.5,0.4,0.9,0.4c0.3,0,0.6-0.1,0.8-0.3C442.8,548.3,442.9,548,442.9,547.7z M443,549.8v-0.5h0c0,0-0.1,0.1-0.1,0.2
		c-0.1,0.1-0.2,0.2-0.5,0.3c-0.2,0.1-0.5,0.2-0.8,0.2c-0.7,0-1.2-0.3-1.7-0.7c-0.4-0.5-0.6-1.2-0.6-2c0-0.8,0.2-1.5,0.7-2
		c0.4-0.5,1-0.8,1.6-0.8c0.3,0,0.5,0.1,0.7,0.2c0.2,0.1,0.4,0.2,0.5,0.3l0.1,0.2h0v-2.5h1.3v7.2H443z M448.9,548l0.9,0.8
		c-0.5,0.8-1.3,1.2-2.2,1.2c-0.7,0-1.3-0.3-1.8-0.7c-0.5-0.5-0.7-1.2-0.7-2c0-0.8,0.2-1.5,0.7-2c0.5-0.5,1-0.8,1.7-0.8
		c0.7,0,1.3,0.3,1.7,0.8c0.5,0.5,0.7,1.2,0.7,2v0.4h-3.5c0,0.4,0.1,0.7,0.3,0.9c0.2,0.2,0.5,0.3,0.8,0.3c0.3,0,0.5-0.1,0.7-0.2
		C448.6,548.5,448.8,548.3,448.9,548z M446.5,546.6h2.3c0-0.3-0.1-0.6-0.3-0.8c-0.2-0.2-0.5-0.3-0.8-0.3c-0.3,0-0.6,0.1-0.8,0.3
		C446.6,546.1,446.5,546.3,446.5,546.6z M451,549.8v-5.2h1.2v0.5h0c0.1-0.2,0.3-0.3,0.6-0.5s0.5-0.2,0.8-0.2c0.6,0,1,0.2,1.4,0.5
		c0.3,0.3,0.5,0.8,0.5,1.4v3.4h-1.3v-3.1c0-0.4-0.1-0.6-0.2-0.8c-0.1-0.2-0.4-0.3-0.7-0.3c-0.3,0-0.6,0.1-0.7,0.3
		c-0.2,0.2-0.3,0.4-0.3,0.7v3.2H451z"/>
	<path class="st55" d="M431.6,453l-0.4-1.1h-2.6l-0.4,1.1h-1.3l2.5-6.9h1.1l2.5,6.9H431.6z M429.9,448.1l-0.9,2.7h1.9L429.9,448.1
		L429.9,448.1z M436.3,453v-6.9h1.3v5.7h2.8v1.2H436.3z M442.5,451.6c0.2,0.3,0.5,0.4,0.9,0.4c0.4,0,0.7-0.1,0.9-0.4
		c0.2-0.3,0.3-0.7,0.3-1.2s-0.1-0.9-0.3-1.2c-0.2-0.3-0.5-0.4-0.9-0.4c-0.4,0-0.7,0.1-0.9,0.4c-0.2,0.3-0.3,0.7-0.3,1.2
		C442.2,450.9,442.3,451.3,442.5,451.6z M445.1,452.4c-0.5,0.5-1,0.7-1.8,0.7c-0.7,0-1.3-0.2-1.8-0.7c-0.5-0.5-0.7-1.2-0.7-2
		c0-0.9,0.2-1.5,0.7-2c0.5-0.5,1.1-0.7,1.7-0.7c0.7,0,1.3,0.2,1.7,0.7c0.5,0.5,0.7,1.2,0.7,2C445.8,451.3,445.6,451.9,445.1,452.4z
		 M448.1,449.9v1c0,0.3,0.1,0.6,0.3,0.8c0.2,0.2,0.5,0.3,0.8,0.3c0.4,0,0.7-0.1,0.9-0.4c0.2-0.3,0.3-0.7,0.3-1.2
		c0-0.5-0.1-0.9-0.3-1.2c-0.2-0.3-0.5-0.4-0.9-0.4c-0.3,0-0.6,0.1-0.8,0.3C448.2,449.3,448.1,449.6,448.1,449.9z M446.9,453v-7.2
		h1.3v2.5h0c0,0,0,0,0-0.1c0,0,0.1-0.1,0.1-0.2c0.1-0.1,0.2-0.1,0.3-0.2c0.1-0.1,0.2-0.1,0.4-0.2c0.2,0,0.3-0.1,0.5-0.1
		c0.6,0,1.2,0.3,1.6,0.8c0.4,0.5,0.6,1.2,0.6,2c0,0.8-0.2,1.5-0.6,2c-0.4,0.5-1,0.7-1.6,0.7c-0.3,0-0.5-0.1-0.8-0.2
		c-0.2-0.1-0.4-0.2-0.5-0.3l-0.1-0.2h0v0.5H446.9z M454,449.9v1c0,0.3,0.1,0.6,0.3,0.8c0.2,0.2,0.5,0.3,0.8,0.3
		c0.4,0,0.7-0.1,0.9-0.4c0.2-0.3,0.3-0.7,0.3-1.2c0-0.5-0.1-0.9-0.3-1.2c-0.2-0.3-0.5-0.4-0.9-0.4c-0.3,0-0.6,0.1-0.8,0.3
		C454.1,449.3,454,449.6,454,449.9z M452.8,453v-7.2h1.3v2.5h0c0,0,0,0,0-0.1c0,0,0.1-0.1,0.1-0.2c0.1-0.1,0.2-0.1,0.3-0.2
		c0.1-0.1,0.2-0.1,0.4-0.2c0.2,0,0.3-0.1,0.5-0.1c0.6,0,1.2,0.3,1.6,0.8c0.4,0.5,0.6,1.2,0.6,2c0,0.8-0.2,1.5-0.6,2
		c-0.4,0.5-1,0.7-1.6,0.7c-0.3,0-0.5-0.1-0.8-0.2c-0.2-0.1-0.4-0.2-0.5-0.3l-0.1-0.2h0v0.5H452.8z M458.9,455.2l1-2.5l-2.1-5h1.3
		l1.4,3.5h0l1.4-3.5h1.3l-3,7.4H458.9z"/>
	<path class="st55" d="M565.8,429.5l-0.4-1.1h-2.6l-0.4,1.1H561l2.5-6.9h1.1l2.5,6.9H565.8z M564.1,424.6l-0.9,2.7h1.9L564.1,424.6
		L564.1,424.6z M570.5,429.5v-6.9h1.3v5.7h2.8v1.2H570.5z M576.7,428.1c0.2,0.3,0.5,0.4,0.9,0.4c0.4,0,0.7-0.1,0.9-0.4
		c0.2-0.3,0.3-0.7,0.3-1.2s-0.1-0.9-0.3-1.2c-0.2-0.3-0.5-0.4-0.9-0.4c-0.4,0-0.7,0.1-0.9,0.4c-0.2,0.3-0.3,0.7-0.3,1.2
		S576.5,427.8,576.7,428.1z M579.3,428.9c-0.5,0.5-1,0.7-1.8,0.7c-0.7,0-1.3-0.2-1.8-0.7c-0.5-0.5-0.7-1.2-0.7-2
		c0-0.9,0.2-1.5,0.7-2c0.5-0.5,1.1-0.7,1.7-0.7c0.7,0,1.3,0.2,1.7,0.7c0.5,0.5,0.7,1.2,0.7,2C580,427.8,579.8,428.4,579.3,428.9z
		 M581.1,429.5v-5.2h1.2v0.5h0c0.1-0.2,0.3-0.3,0.6-0.5c0.3-0.1,0.5-0.2,0.8-0.2c0.6,0,1,0.2,1.4,0.5c0.3,0.3,0.5,0.8,0.5,1.4v3.4
		h-1.3v-3.1c0-0.4-0.1-0.6-0.2-0.8c-0.1-0.2-0.4-0.3-0.7-0.3c-0.3,0-0.6,0.1-0.7,0.3c-0.2,0.2-0.3,0.4-0.3,0.7v3.2H581.1z
		 M590.2,427.4v-1.1c0-0.3-0.1-0.5-0.3-0.8c-0.2-0.2-0.5-0.3-0.8-0.3c-0.4,0-0.7,0.1-0.9,0.4s-0.4,0.7-0.4,1.2s0.1,0.9,0.4,1.2
		c0.2,0.3,0.6,0.4,0.9,0.4c0.3,0,0.6-0.1,0.8-0.3C590.1,428,590.2,427.7,590.2,427.4z M586.9,430.6l1-0.7c0.2,0.3,0.3,0.5,0.5,0.6
		c0.2,0.1,0.4,0.2,0.7,0.2c0.3,0,0.6-0.1,0.8-0.3c0.2-0.2,0.3-0.4,0.3-0.8V429h0c-0.1,0.2-0.3,0.3-0.5,0.5c-0.2,0.1-0.5,0.2-0.8,0.2
		c-0.7,0-1.2-0.2-1.7-0.7c-0.5-0.5-0.7-1.2-0.7-2c0-0.8,0.2-1.5,0.7-2c0.5-0.5,1-0.7,1.6-0.7c0.6,0,1.1,0.2,1.4,0.7h0v-0.5h1.2v5.2
		c0,0.8-0.2,1.3-0.7,1.8c-0.4,0.4-1,0.6-1.7,0.6c-0.5,0-1-0.1-1.4-0.4C587.3,431.3,587.1,431,586.9,430.6z"/>
	<path class="st55" d="M619,349.4l-0.4-1.1H616l-0.4,1.1h-1.3l2.5-6.9h1.1l2.5,6.9H619z M617.3,344.5l-0.9,2.7h1.9L617.3,344.5
		L617.3,344.5z M623.3,346.7v-1h3.2v1H623.3z M630.2,349.4v-6.9h2.8c0.7,0,1.3,0.2,1.7,0.6c0.4,0.4,0.7,0.9,0.7,1.6
		c0,0.5-0.1,0.9-0.4,1.3c-0.3,0.3-0.6,0.6-1.1,0.7l1.5,2.7H634l-1.4-2.6h-1v2.6H630.2z M631.5,345.7h1.4c0.8,0,1.1-0.3,1.1-1
		c0-0.7-0.4-1-1.1-1h-1.4V345.7z M639.4,349.4v-0.5h0c0,0,0,0,0,0.1c0,0-0.1,0.1-0.1,0.1c-0.1,0.1-0.2,0.1-0.3,0.2
		c-0.1,0.1-0.2,0.1-0.4,0.2c-0.2,0-0.4,0.1-0.6,0.1c-0.6,0-1.1-0.1-1.4-0.4c-0.3-0.3-0.5-0.7-0.5-1.1c0-0.5,0.1-0.8,0.4-1
		c0.3-0.2,0.7-0.4,1.4-0.6c0.6-0.1,1-0.3,1.1-0.3c0.2-0.1,0.2-0.2,0.2-0.4c0-0.2-0.1-0.3-0.2-0.4c-0.1-0.1-0.4-0.2-0.7-0.2
		c-0.3,0-0.6,0.1-0.8,0.2c-0.2,0.2-0.3,0.4-0.4,0.6l-1.1-0.4c0.1-0.4,0.4-0.8,0.7-1.1c0.4-0.3,0.8-0.4,1.4-0.4
		c0.6,0,1.2,0.2,1.6,0.5c0.4,0.3,0.6,0.9,0.6,1.6v3.3H639.4z M638.1,347.3c-0.3,0.1-0.5,0.2-0.7,0.3c-0.1,0.1-0.1,0.2-0.1,0.4
		c0,0.4,0.3,0.5,0.8,0.5c0.4,0,0.7-0.1,0.9-0.2c0.2-0.2,0.3-0.3,0.3-0.6v-0.9h0c0,0.1-0.1,0.1-0.1,0.1c0,0-0.1,0.1-0.3,0.1
		C638.6,347.1,638.4,347.2,638.1,347.3z M641.7,349.4v-5.2h1.2v0.5h0c0.1-0.2,0.3-0.3,0.5-0.5c0.2-0.1,0.5-0.2,0.7-0.2
		c0.3,0,0.5,0.1,0.8,0.2c0.2,0.1,0.4,0.3,0.6,0.5h0c0.1-0.2,0.3-0.4,0.6-0.5c0.2-0.1,0.5-0.2,0.8-0.2c0.6,0,1.1,0.2,1.5,0.5
		c0.4,0.3,0.6,0.8,0.6,1.3v3.6h-1.2v-3.3c0-0.3-0.1-0.5-0.2-0.6c-0.1-0.2-0.4-0.2-0.7-0.2c-0.3,0-0.5,0.1-0.7,0.2
		c-0.2,0.2-0.2,0.3-0.2,0.6v3.4h-1.2v-3.3c0-0.3-0.1-0.5-0.2-0.6c-0.2-0.2-0.4-0.3-0.7-0.3c-0.3,0-0.5,0.1-0.7,0.2s-0.2,0.3-0.2,0.6
		v3.4H641.7z M651.5,346.2v1.1c0,0.3,0.1,0.6,0.3,0.8c0.2,0.2,0.5,0.3,0.8,0.3c0.4,0,0.7-0.1,0.9-0.4c0.2-0.3,0.4-0.7,0.4-1.2
		c0-0.5-0.1-0.9-0.4-1.2c-0.2-0.3-0.5-0.4-0.9-0.4c-0.3,0-0.6,0.1-0.8,0.3C651.6,345.7,651.5,345.9,651.5,346.2z M650.2,351.6v-7.4
		h1.2v0.5h0c0,0,0,0,0-0.1c0,0,0.1-0.1,0.1-0.2c0.1-0.1,0.2-0.1,0.3-0.2c0.1-0.1,0.2-0.1,0.4-0.2c0.2,0,0.4-0.1,0.5-0.1
		c0.6,0,1.2,0.3,1.6,0.7c0.5,0.5,0.7,1.2,0.7,2c0,0.9-0.2,1.5-0.7,2c-0.4,0.5-1,0.7-1.6,0.7c-0.2,0-0.4,0-0.5-0.1
		c-0.2,0-0.3-0.1-0.4-0.2c-0.1-0.1-0.2-0.1-0.3-0.2c-0.1-0.1-0.1-0.1-0.2-0.2l0-0.1h0v2.7H650.2z"/>
	<path class="st55" d="M612.1,262.3l-0.4-1.1h-2.6l-0.4,1.1h-1.3l2.5-6.9h1.1l2.5,6.9H612.1z M610.4,257.4l-0.9,2.7h1.9L610.4,257.4
		L610.4,257.4z M613.5,259.6v-1h3.2v1H613.5z M617.9,262.3v-6.9h2.9c0.6,0,1.1,0.2,1.5,0.5c0.4,0.4,0.6,0.8,0.6,1.3
		c0,0.6-0.3,1-0.8,1.3v0c0.3,0.1,0.5,0.3,0.7,0.6c0.2,0.3,0.3,0.6,0.3,1c0,0.7-0.2,1.2-0.6,1.6c-0.4,0.4-1.1,0.6-2,0.6H617.9z
		 M619.3,261.1h1.6c0.6,0,0.9-0.3,0.9-0.9c0-0.3-0.1-0.5-0.3-0.7c-0.2-0.2-0.4-0.2-0.7-0.2h-1.6V261.1z M619.3,258.2h1.4
		c0.3,0,0.5-0.1,0.6-0.2c0.2-0.1,0.2-0.3,0.2-0.6c0-0.3-0.1-0.5-0.2-0.6c-0.2-0.1-0.4-0.2-0.6-0.2h-1.4V258.2z M625.5,260.9
		c0.2,0.3,0.5,0.4,0.9,0.4c0.4,0,0.7-0.1,0.9-0.4c0.2-0.3,0.3-0.7,0.3-1.2c0-0.5-0.1-0.9-0.3-1.2c-0.2-0.3-0.5-0.4-0.9-0.4
		c-0.4,0-0.7,0.1-0.9,0.4c-0.2,0.3-0.3,0.7-0.3,1.2C625.2,260.2,625.3,260.6,625.5,260.9z M628.1,261.8c-0.5,0.5-1,0.7-1.8,0.7
		c-0.7,0-1.3-0.2-1.8-0.7c-0.5-0.5-0.7-1.2-0.7-2c0-0.9,0.2-1.5,0.7-2c0.5-0.5,1.1-0.7,1.7-0.7c0.7,0,1.3,0.2,1.7,0.7
		c0.5,0.5,0.7,1.2,0.7,2C628.8,260.6,628.5,261.3,628.1,261.8z M629,262.3l1.8-2.7l-1.7-2.5h1.3l1.2,1.8h0l1.2-1.8h1.3l-1.7,2.5
		l1.8,2.7h-1.4l-1.2-1.9h0l-1.2,1.9H629z"/>
	<path class="st55" d="M348.4,292.1v-6.9h2.9c0.6,0,1.1,0.2,1.5,0.5c0.4,0.4,0.6,0.8,0.6,1.3c0,0.6-0.2,1-0.7,1.3v0
		c0.3,0.1,0.5,0.3,0.7,0.6c0.2,0.3,0.3,0.6,0.3,1c0,0.7-0.2,1.2-0.6,1.6c-0.4,0.4-1.1,0.6-2,0.6H348.4z M349.7,290.9h1.6
		c0.6,0,0.9-0.3,0.9-0.9c0-0.3-0.1-0.5-0.3-0.7c-0.2-0.2-0.4-0.2-0.7-0.2h-1.6V290.9z M349.7,288h1.4c0.3,0,0.5-0.1,0.6-0.2
		c0.2-0.1,0.2-0.3,0.2-0.6c0-0.3-0.1-0.5-0.2-0.6c-0.2-0.1-0.4-0.2-0.6-0.2h-1.4V288z M354.4,289.4v-1h3.2v1H354.4z M358.8,292.1
		v-6.9h2.9c0.6,0,1.1,0.2,1.5,0.5c0.4,0.4,0.6,0.8,0.6,1.3c0,0.6-0.3,1-0.7,1.3v0c0.3,0.1,0.5,0.3,0.7,0.6c0.2,0.3,0.3,0.6,0.3,1
		c0,0.7-0.2,1.2-0.6,1.6c-0.4,0.4-1.1,0.6-2,0.6H358.8z M360.1,290.9h1.6c0.6,0,0.9-0.3,0.9-0.9c0-0.3-0.1-0.5-0.3-0.7
		c-0.2-0.2-0.4-0.2-0.7-0.2h-1.6V290.9z M360.1,288h1.4c0.3,0,0.5-0.1,0.6-0.2c0.2-0.1,0.2-0.3,0.2-0.6c0-0.3-0.1-0.5-0.2-0.6
		c-0.2-0.1-0.4-0.2-0.6-0.2h-1.4V288z M366.3,290.7c0.2,0.3,0.5,0.4,0.9,0.4c0.4,0,0.7-0.1,0.9-0.4c0.2-0.3,0.3-0.7,0.3-1.2
		c0-0.5-0.1-0.9-0.3-1.2c-0.2-0.3-0.5-0.4-0.9-0.4c-0.4,0-0.7,0.1-0.9,0.4c-0.2,0.3-0.3,0.7-0.3,1.2
		C366,290,366.1,290.4,366.3,290.7z M368.9,291.5c-0.5,0.5-1,0.7-1.8,0.7c-0.7,0-1.3-0.2-1.8-0.7c-0.5-0.5-0.7-1.2-0.7-2
		c0-0.9,0.2-1.5,0.7-2c0.5-0.5,1.1-0.7,1.7-0.7c0.7,0,1.3,0.2,1.7,0.7c0.5,0.5,0.7,1.2,0.7,2C369.6,290.4,369.4,291.1,368.9,291.5z
		 M369.9,292.1l1.8-2.7l-1.7-2.5h1.3l1.2,1.8h0l1.2-1.8h1.3l-1.7,2.5l1.8,2.7h-1.4l-1.2-1.9h0l-1.2,1.9H369.9z"/>
	<path class="st55" d="M164.9,281.9V275h1.3v5.7h2.9v1.2H164.9z M171.1,280.5c0.2,0.3,0.5,0.4,0.9,0.4c0.4,0,0.7-0.1,0.9-0.4
		c0.2-0.3,0.3-0.7,0.3-1.2s-0.1-0.9-0.3-1.2c-0.2-0.3-0.5-0.4-0.9-0.4c-0.4,0-0.7,0.1-0.9,0.4c-0.2,0.3-0.3,0.7-0.3,1.2
		C170.8,279.8,170.9,280.2,171.1,280.5z M173.7,281.3c-0.5,0.5-1,0.7-1.8,0.7c-0.7,0-1.3-0.2-1.8-0.7c-0.5-0.5-0.7-1.2-0.7-2
		c0-0.9,0.2-1.5,0.7-2c0.5-0.5,1.1-0.7,1.7-0.7c0.7,0,1.3,0.2,1.7,0.7c0.5,0.5,0.7,1.2,0.7,2C174.4,280.2,174.2,280.9,173.7,281.3z
		 M178.8,279.8v-1.1c0-0.3-0.1-0.5-0.3-0.8c-0.2-0.2-0.5-0.3-0.8-0.3c-0.4,0-0.7,0.1-0.9,0.4c-0.2,0.3-0.4,0.7-0.4,1.2
		c0,0.5,0.1,0.9,0.4,1.2c0.2,0.3,0.6,0.4,0.9,0.4c0.3,0,0.6-0.1,0.8-0.3C178.7,280.4,178.8,280.1,178.8,279.8z M175.5,283l1-0.7
		c0.2,0.3,0.3,0.5,0.5,0.6c0.2,0.1,0.4,0.2,0.7,0.2c0.3,0,0.6-0.1,0.8-0.3c0.2-0.2,0.3-0.4,0.3-0.8v-0.7h0c-0.1,0.2-0.3,0.3-0.5,0.5
		c-0.2,0.1-0.5,0.2-0.8,0.2c-0.7,0-1.2-0.2-1.7-0.7c-0.5-0.5-0.7-1.2-0.7-2c0-0.8,0.2-1.5,0.7-2c0.5-0.5,1-0.7,1.6-0.7
		c0.6,0,1.1,0.2,1.4,0.7h0v-0.5h1.2v5.2c0,0.8-0.2,1.3-0.7,1.8c-0.4,0.4-1,0.6-1.7,0.6c-0.5,0-1-0.1-1.4-0.4
		C175.9,283.7,175.7,283.4,175.5,283z M181,280.2l1.2-0.3c0.1,0.7,0.5,1.1,1.2,1.1c0.3,0,0.6,0,0.8-0.1c0.2-0.1,0.3-0.3,0.3-0.4
		c0-0.2-0.1-0.3-0.2-0.3c-0.1-0.1-0.4-0.2-0.9-0.3c-0.1,0-0.2-0.1-0.3-0.1c-0.6-0.2-1-0.4-1.3-0.6c-0.3-0.2-0.4-0.5-0.4-0.9
		c0-0.4,0.2-0.8,0.5-1.1c0.4-0.3,0.8-0.5,1.4-0.5c1.2,0,1.9,0.5,2.2,1.5l-1.1,0.3c-0.1-0.3-0.2-0.4-0.4-0.6
		c-0.2-0.1-0.4-0.2-0.7-0.2c-0.2,0-0.4,0-0.6,0.1c-0.1,0.1-0.2,0.2-0.2,0.3c0,0.1,0.1,0.3,0.3,0.3c0.2,0.1,0.6,0.2,1.3,0.4
		c0.6,0.2,1,0.4,1.2,0.6c0.2,0.2,0.3,0.6,0.3,1c0,0.4-0.2,0.8-0.6,1.1c-0.4,0.3-0.9,0.5-1.6,0.5c-0.7,0-1.3-0.2-1.7-0.5
		C181.3,281.2,181.1,280.7,181,280.2z"/>
	<path class="st55" d="M45.4,274.7v-6.9h2.8c0.7,0,1.3,0.2,1.7,0.6c0.4,0.4,0.7,0.9,0.7,1.6c0,0.7-0.2,1.2-0.6,1.6
		c-0.4,0.4-1,0.6-1.7,0.6h-1.5v2.5H45.4z M46.7,271h1.4c0.3,0,0.5-0.1,0.7-0.3c0.2-0.2,0.3-0.4,0.3-0.7c0-0.3-0.1-0.6-0.3-0.7
		c-0.2-0.2-0.4-0.2-0.7-0.2h-1.4V271z M51.3,274.7v-7.2h1.3v7.2H51.3z M57,274.7v-0.5h0c0,0,0,0,0,0.1c0,0-0.1,0.1-0.1,0.1
		c-0.1,0.1-0.2,0.1-0.3,0.2c-0.1,0.1-0.2,0.1-0.4,0.2c-0.2,0-0.4,0.1-0.6,0.1c-0.6,0-1.1-0.1-1.4-0.4c-0.3-0.3-0.5-0.7-0.5-1.1
		c0-0.5,0.1-0.8,0.4-1c0.3-0.2,0.7-0.4,1.4-0.6c0.6-0.1,1-0.3,1.1-0.3c0.2-0.1,0.2-0.2,0.2-0.4s-0.1-0.3-0.2-0.4
		c-0.1-0.1-0.4-0.2-0.7-0.2c-0.3,0-0.6,0.1-0.7,0.2c-0.2,0.2-0.3,0.4-0.4,0.6l-1.1-0.4c0.1-0.4,0.4-0.8,0.7-1.1
		c0.4-0.3,0.8-0.4,1.4-0.4c0.6,0,1.2,0.2,1.6,0.5c0.4,0.3,0.6,0.9,0.6,1.6v3.3H57z M55.7,272.6c-0.3,0.1-0.5,0.2-0.7,0.3
		c-0.1,0.1-0.1,0.2-0.1,0.4c0,0.4,0.3,0.5,0.8,0.5c0.4,0,0.7-0.1,0.9-0.2c0.2-0.2,0.3-0.3,0.3-0.6v-0.9h0c0,0.1-0.1,0.1-0.1,0.1
		c0,0-0.1,0.1-0.3,0.1C56.3,272.5,56,272.5,55.7,272.6z M59.6,272.9v-2.3h-0.8v-1.1h0.8v-1.3h1.2v1.3h1.3v1.1h-1.3v2.2
		c0,0.3,0,0.5,0.1,0.6c0.1,0.1,0.3,0.2,0.6,0.2H62v1.2h-0.5c-0.7,0-1.2-0.1-1.4-0.4C59.8,274,59.6,273.5,59.6,272.9z"/>
	<path class="st55" d="M113.2,430.9l1.4,0.3c-0.1,0.8-0.4,1.4-0.9,1.9c-0.5,0.5-1.1,0.7-1.9,0.7c-0.9,0-1.6-0.3-2.2-0.9
		c-0.6-0.6-0.8-1.5-0.8-2.8c0-1.1,0.3-1.9,0.9-2.6c0.6-0.6,1.3-0.9,2.1-0.9c0.7,0,1.3,0.2,1.8,0.7c0.5,0.4,0.8,1,0.9,1.8l-1.3,0.2
		c-0.1-0.4-0.2-0.8-0.4-1c-0.2-0.3-0.5-0.4-0.9-0.4c-0.5,0-0.8,0.2-1.2,0.6c-0.3,0.4-0.5,1-0.5,1.7c0,0.8,0.2,1.5,0.5,1.9
		c0.3,0.4,0.7,0.6,1.2,0.6C112.6,432.5,113.1,432,113.2,430.9z M115.6,431.8v-3.4h1.3v3.2c0,0.3,0.1,0.6,0.2,0.7s0.3,0.2,0.6,0.2
		c0.3,0,0.6-0.1,0.7-0.2c0.2-0.2,0.3-0.4,0.3-0.8v-3.1h1.3v5.2h-1.2v-0.5h0c-0.3,0.4-0.8,0.7-1.4,0.7c-0.6,0-1.1-0.2-1.4-0.5
		C115.7,432.9,115.6,432.4,115.6,431.8z M122.6,430.5v1c0,0.3,0.1,0.6,0.3,0.8c0.2,0.2,0.5,0.3,0.8,0.3c0.4,0,0.7-0.1,0.9-0.4
		c0.2-0.3,0.3-0.7,0.3-1.2c0-0.5-0.1-0.9-0.3-1.2c-0.2-0.3-0.5-0.4-0.9-0.4c-0.3,0-0.6,0.1-0.8,0.3
		C122.7,430,122.6,430.2,122.6,430.5z M121.3,433.6v-7.2h1.3v2.5h0c0,0,0,0,0-0.1c0,0,0.1-0.1,0.1-0.2c0.1-0.1,0.2-0.1,0.3-0.2
		c0.1-0.1,0.2-0.1,0.4-0.2c0.2,0,0.3-0.1,0.5-0.1c0.6,0,1.2,0.3,1.6,0.8c0.4,0.5,0.6,1.2,0.6,2c0,0.8-0.2,1.5-0.6,2
		c-0.4,0.5-1,0.7-1.6,0.7c-0.3,0-0.5-0.1-0.8-0.2c-0.2-0.1-0.4-0.2-0.5-0.3l-0.1-0.2h0v0.5H121.3z M128.5,430.5v1
		c0,0.3,0.1,0.6,0.3,0.8c0.2,0.2,0.5,0.3,0.8,0.3c0.4,0,0.7-0.1,0.9-0.4c0.2-0.3,0.3-0.7,0.3-1.2c0-0.5-0.1-0.9-0.3-1.2
		c-0.2-0.3-0.5-0.4-0.9-0.4c-0.3,0-0.6,0.1-0.8,0.3C128.6,430,128.5,430.2,128.5,430.5z M127.2,433.6v-7.2h1.3v2.5h0
		c0,0,0,0,0.1-0.1c0,0,0.1-0.1,0.1-0.2c0.1-0.1,0.2-0.1,0.3-0.2c0.1-0.1,0.2-0.1,0.4-0.2c0.2,0,0.3-0.1,0.5-0.1
		c0.6,0,1.2,0.3,1.6,0.8c0.4,0.5,0.6,1.2,0.6,2c0,0.8-0.2,1.5-0.6,2c-0.4,0.5-1,0.7-1.6,0.7c-0.3,0-0.5-0.1-0.8-0.2
		c-0.2-0.1-0.4-0.2-0.5-0.3l-0.1-0.2h0v0.5H127.2z M133.4,435.9l1-2.5l-2.1-5h1.3l1.4,3.5h0l1.4-3.5h1.3l-3,7.4H133.4z"/>
	<path class="st55" d="M568.8,352.4v-5.7h-2v-1.2h5.4v1.2h-2v5.7H568.8z M573.3,351c0.2,0.3,0.5,0.4,0.9,0.4s0.7-0.1,0.9-0.4
		c0.2-0.3,0.3-0.7,0.3-1.2c0-0.5-0.1-0.9-0.3-1.2c-0.2-0.3-0.5-0.4-0.9-0.4c-0.4,0-0.6,0.1-0.9,0.4c-0.2,0.3-0.3,0.7-0.3,1.2
		C573,350.3,573.1,350.7,573.3,351z M576,351.8c-0.5,0.5-1,0.7-1.8,0.7c-0.7,0-1.3-0.2-1.8-0.7c-0.5-0.5-0.7-1.2-0.7-2
		c0-0.9,0.2-1.5,0.7-2c0.5-0.5,1.1-0.7,1.7-0.7c0.7,0,1.3,0.2,1.7,0.7c0.5,0.5,0.7,1.2,0.7,2C576.7,350.7,576.4,351.4,576,351.8z
		 M578.5,352.4l-1.2-5.2h1.3l0.7,3.5h0l1.2-3.5h1.2l1.1,3.5h0l0.8-3.5h1.2l-1.3,5.2h-1.3l-1.2-3.8h0l-1.3,3.8H578.5z M589,350.6
		l0.9,0.8c-0.5,0.8-1.3,1.2-2.2,1.2c-0.7,0-1.3-0.3-1.8-0.7c-0.5-0.5-0.7-1.2-0.7-2c0-0.8,0.2-1.5,0.7-2c0.5-0.5,1-0.8,1.7-0.8
		c0.7,0,1.3,0.3,1.7,0.8c0.5,0.5,0.7,1.2,0.7,2v0.4h-3.5c0,0.4,0.1,0.7,0.3,0.9c0.2,0.2,0.5,0.3,0.8,0.3c0.3,0,0.5-0.1,0.7-0.2
		C588.6,351.1,588.8,350.9,589,350.6z M586.6,349.2h2.3c0-0.3-0.1-0.6-0.3-0.8c-0.2-0.2-0.5-0.3-0.8-0.3c-0.3,0-0.6,0.1-0.8,0.3
		C586.7,348.7,586.6,348.9,586.6,349.2z M591.1,352.4v-5.2h1.2v0.6h0c0.1-0.2,0.2-0.4,0.4-0.5c0.2-0.1,0.4-0.2,0.6-0.2
		c0.2,0,0.3,0,0.5,0.1l-0.2,1.2c-0.1-0.1-0.3-0.1-0.4-0.1c-0.6,0-0.9,0.4-0.9,1.2v2.9H591.1z M594.3,350.7l1.2-0.3
		c0.1,0.7,0.5,1.1,1.2,1.1c0.3,0,0.6,0,0.8-0.1c0.2-0.1,0.3-0.2,0.3-0.4c0-0.2-0.1-0.3-0.2-0.3c-0.1-0.1-0.4-0.2-0.9-0.3
		c-0.1,0-0.2-0.1-0.3-0.1c-0.6-0.2-1-0.4-1.3-0.6c-0.3-0.2-0.4-0.5-0.4-0.9c0-0.4,0.2-0.8,0.5-1.1c0.4-0.3,0.8-0.5,1.4-0.5
		c1.2,0,1.9,0.5,2.2,1.5l-1.1,0.3c-0.1-0.3-0.2-0.4-0.4-0.6c-0.2-0.1-0.4-0.2-0.7-0.2c-0.2,0-0.5,0-0.6,0.1
		c-0.1,0.1-0.2,0.2-0.2,0.3c0,0.1,0.1,0.3,0.3,0.3c0.2,0.1,0.6,0.2,1.3,0.4c0.6,0.2,1,0.4,1.2,0.6c0.2,0.3,0.3,0.6,0.3,1
		c0,0.4-0.2,0.8-0.6,1.1c-0.4,0.3-0.9,0.5-1.6,0.5c-0.7,0-1.3-0.2-1.7-0.5C594.6,351.7,594.4,351.2,594.3,350.7z"/>
	<path class="st55" d="M437.1,340l-0.4-1.1h-2.6l-0.4,1.1h-1.3l2.5-6.9h1.1l2.5,6.9H437.1z M435.4,335.1l-0.9,2.7h1.9L435.4,335.1
		L435.4,335.1z M441.3,337.7l1.4-0.3c0.1,0.5,0.2,0.9,0.4,1.2c0.2,0.2,0.5,0.4,1,0.4c0.4,0,0.7-0.1,0.9-0.2c0.2-0.1,0.3-0.3,0.3-0.6
		c0-0.3-0.1-0.5-0.3-0.6c-0.2-0.2-0.7-0.3-1.5-0.6c-0.7-0.2-1.2-0.5-1.5-0.8c-0.3-0.3-0.4-0.7-0.4-1.2c0-0.5,0.2-1,0.6-1.4
		c0.4-0.4,1-0.6,1.7-0.6c0.7,0,1.2,0.2,1.7,0.5c0.5,0.3,0.8,0.8,0.9,1.4l-1.3,0.3c-0.2-0.7-0.6-1-1.3-1c-0.3,0-0.6,0.1-0.8,0.2
		c-0.2,0.1-0.2,0.3-0.2,0.5c0,0.2,0.1,0.4,0.3,0.5c0.2,0.1,0.7,0.3,1.5,0.6c0.8,0.3,1.3,0.5,1.6,0.9c0.3,0.3,0.4,0.7,0.4,1.2
		c0,0.6-0.2,1.1-0.7,1.5c-0.5,0.4-1.1,0.6-1.8,0.6c-0.8,0-1.4-0.2-1.9-0.6C441.7,339.1,441.4,338.5,441.3,337.7z M447.6,340v-7.2
		h1.3v2.5h0c0.1-0.2,0.3-0.3,0.5-0.5c0.2-0.1,0.5-0.2,0.7-0.2c0.6,0,1,0.2,1.3,0.5c0.3,0.3,0.5,0.8,0.5,1.4v3.5h-1.3v-3.2
		c0-0.3-0.1-0.5-0.2-0.7c-0.2-0.2-0.4-0.3-0.7-0.3c-0.3,0-0.5,0.1-0.7,0.3c-0.2,0.2-0.2,0.4-0.2,0.7v3.3H447.6z M454.5,338.6
		c0.2,0.3,0.5,0.4,0.9,0.4c0.4,0,0.7-0.1,0.9-0.4c0.2-0.3,0.3-0.7,0.3-1.2s-0.1-0.9-0.3-1.2c-0.2-0.3-0.5-0.4-0.9-0.4
		c-0.4,0-0.7,0.1-0.9,0.4c-0.2,0.3-0.3,0.7-0.3,1.2C454.2,337.9,454.3,338.3,454.5,338.6z M457.1,339.4c-0.5,0.5-1,0.7-1.8,0.7
		c-0.7,0-1.3-0.2-1.8-0.7c-0.5-0.5-0.7-1.2-0.7-2c0-0.9,0.2-1.5,0.7-2c0.5-0.5,1.1-0.7,1.7-0.7c0.7,0,1.3,0.2,1.7,0.7
		c0.5,0.5,0.7,1.2,0.7,2C457.8,338.3,457.6,338.9,457.1,339.4z M458.9,340v-5.2h1.2v0.6h0c0.1-0.2,0.2-0.4,0.4-0.5
		c0.2-0.1,0.4-0.2,0.6-0.2c0.2,0,0.3,0,0.5,0.1l-0.2,1.2c-0.1-0.1-0.3-0.1-0.4-0.1c-0.6,0-0.9,0.4-0.9,1.2v2.9H458.9z M462.8,338.1
		v-2.3H462v-1.1h0.8v-1.3h1.2v1.3h1.3v1.1h-1.3v2.2c0,0.3,0,0.5,0.1,0.6c0.1,0.1,0.3,0.2,0.6,0.2h0.4v1.2h-0.5
		c-0.7,0-1.2-0.1-1.4-0.4C463,339.3,462.8,338.8,462.8,338.1z"/>
	<path class="st55" d="M608.6,199l-0.4-1.1h-2.6l-0.4,1.1h-1.3l2.5-6.9h1.1l2.5,6.9H608.6z M606.9,194.1l-0.9,2.7h1.9L606.9,194.1
		L606.9,194.1z M613.3,199v-6.9h1.3v2.8h2.4v-2.8h1.3v6.9H617v-3h-2.4v3H613.3z M623.2,197.2l0.9,0.8c-0.5,0.8-1.3,1.2-2.2,1.2
		c-0.7,0-1.3-0.3-1.8-0.7c-0.5-0.5-0.7-1.2-0.7-2c0-0.8,0.2-1.5,0.7-2c0.5-0.5,1-0.8,1.7-0.8s1.3,0.3,1.7,0.8c0.5,0.5,0.7,1.2,0.7,2
		v0.4h-3.5c0,0.4,0.1,0.7,0.3,0.9c0.2,0.2,0.5,0.3,0.8,0.3c0.3,0,0.5-0.1,0.7-0.2C622.8,197.6,623,197.4,623.2,197.2z M620.7,195.8
		h2.3c0-0.3-0.1-0.6-0.3-0.8c-0.2-0.2-0.5-0.3-0.8-0.3c-0.3,0-0.6,0.1-0.8,0.3C620.9,195.3,620.8,195.5,620.7,195.8z M628.2,199
		v-0.5h0c0,0,0,0,0,0.1c0,0-0.1,0.1-0.1,0.1c-0.1,0.1-0.2,0.1-0.3,0.2c-0.1,0.1-0.2,0.1-0.4,0.2c-0.2,0-0.4,0.1-0.6,0.1
		c-0.6,0-1.1-0.1-1.4-0.4c-0.3-0.3-0.5-0.7-0.5-1.1c0-0.5,0.1-0.8,0.4-1c0.3-0.2,0.7-0.4,1.4-0.6c0.6-0.1,1-0.3,1.1-0.3
		c0.2-0.1,0.2-0.2,0.2-0.4s-0.1-0.3-0.2-0.4c-0.1-0.1-0.4-0.2-0.7-0.2c-0.3,0-0.6,0.1-0.7,0.2c-0.2,0.2-0.3,0.4-0.4,0.6l-1.1-0.4
		c0.1-0.4,0.4-0.8,0.7-1.1c0.4-0.3,0.8-0.4,1.4-0.4c0.6,0,1.2,0.2,1.6,0.5c0.4,0.3,0.6,0.9,0.6,1.6v3.3H628.2z M627,196.9
		c-0.3,0.1-0.5,0.2-0.6,0.3c-0.1,0.1-0.1,0.2-0.1,0.4c0,0.4,0.3,0.5,0.8,0.5c0.4,0,0.7-0.1,0.9-0.2c0.2-0.2,0.3-0.3,0.3-0.6v-0.9h0
		c0,0.1-0.1,0.1-0.1,0.1c0,0-0.1,0.1-0.3,0.1C627.5,196.7,627.3,196.8,627,196.9z M631.8,199l-2.1-5.2h1.3l1.3,3.4h0l1.3-3.4h1.3
		l-2.1,5.2H631.8z M639,197.2l0.9,0.8c-0.5,0.8-1.3,1.2-2.2,1.2c-0.7,0-1.3-0.3-1.8-0.7c-0.5-0.5-0.7-1.2-0.7-2c0-0.8,0.2-1.5,0.7-2
		c0.5-0.5,1-0.8,1.7-0.8c0.7,0,1.3,0.3,1.7,0.8c0.5,0.5,0.7,1.2,0.7,2v0.4h-3.5c0,0.4,0.1,0.7,0.3,0.9c0.2,0.2,0.5,0.3,0.8,0.3
		c0.3,0,0.5-0.1,0.7-0.2C638.6,197.6,638.8,197.4,639,197.2z M636.5,195.8h2.3c0-0.3-0.1-0.6-0.3-0.8c-0.2-0.2-0.5-0.3-0.8-0.3
		c-0.3,0-0.6,0.1-0.8,0.3C636.7,195.3,636.6,195.5,636.5,195.8z M641.1,199v-5.2h1.2v0.5h0c0.1-0.2,0.3-0.3,0.6-0.5s0.5-0.2,0.8-0.2
		c0.6,0,1,0.2,1.4,0.5c0.3,0.3,0.5,0.8,0.5,1.4v3.4h-1.3v-3.1c0-0.4-0.1-0.6-0.2-0.8c-0.1-0.2-0.4-0.3-0.7-0.3
		c-0.3,0-0.6,0.1-0.7,0.3c-0.2,0.2-0.3,0.4-0.3,0.7v3.2H641.1z"/>
	<path class="st55" d="M534.1,153.1v-6.9h1.3v2.8h2.4v-2.8h1.3v6.9h-1.3v-3h-2.4v3H534.1z M544,151.3l0.9,0.8
		c-0.5,0.8-1.3,1.2-2.2,1.2c-0.7,0-1.3-0.2-1.8-0.7c-0.5-0.5-0.7-1.2-0.7-2c0-0.8,0.2-1.5,0.7-2c0.5-0.5,1-0.8,1.7-0.8
		c0.7,0,1.3,0.3,1.7,0.8c0.5,0.5,0.7,1.2,0.7,2v0.4h-3.5c0,0.4,0.1,0.7,0.3,0.9c0.2,0.2,0.5,0.3,0.8,0.3c0.3,0,0.5-0.1,0.7-0.2
		C543.6,151.7,543.8,151.5,544,151.3z M541.6,149.9h2.3c0-0.3-0.1-0.6-0.3-0.8c-0.2-0.2-0.5-0.3-0.8-0.3c-0.3,0-0.6,0.1-0.8,0.3
		C541.7,149.4,541.6,149.6,541.6,149.9z M549.1,153.1v-0.5h0c0,0,0,0,0,0.1c0,0-0.1,0.1-0.1,0.1c-0.1,0.1-0.2,0.1-0.3,0.2
		c-0.1,0.1-0.2,0.1-0.4,0.2c-0.2,0-0.4,0.1-0.6,0.1c-0.6,0-1.1-0.1-1.4-0.4c-0.3-0.3-0.5-0.7-0.5-1.1c0-0.5,0.1-0.8,0.4-1
		c0.3-0.2,0.7-0.4,1.4-0.6c0.6-0.1,1-0.3,1.1-0.3c0.2-0.1,0.2-0.2,0.2-0.4c0-0.2-0.1-0.3-0.2-0.4c-0.1-0.1-0.4-0.2-0.7-0.2
		c-0.3,0-0.6,0.1-0.7,0.2c-0.2,0.2-0.3,0.4-0.4,0.6l-1.1-0.4c0.1-0.4,0.4-0.8,0.7-1.1c0.4-0.3,0.8-0.4,1.4-0.4
		c0.6,0,1.2,0.2,1.6,0.5c0.4,0.3,0.6,0.9,0.6,1.6v3.3H549.1z M547.8,151c-0.3,0.1-0.5,0.2-0.7,0.3c-0.1,0.1-0.1,0.2-0.1,0.4
		c0,0.4,0.3,0.5,0.8,0.5c0.4,0,0.7-0.1,0.9-0.2c0.2-0.2,0.3-0.3,0.3-0.6v-0.9h0c0,0.1-0.1,0.1-0.1,0.1c0,0-0.1,0.1-0.3,0.1
		C548.3,150.8,548.1,150.9,547.8,151z M552.6,153.1l-2.1-5.2h1.3l1.3,3.4h0l1.3-3.4h1.3l-2.1,5.2H552.6z M559.8,151.3l0.9,0.8
		c-0.5,0.8-1.3,1.2-2.2,1.2c-0.7,0-1.3-0.2-1.8-0.7c-0.5-0.5-0.7-1.2-0.7-2c0-0.8,0.2-1.5,0.7-2c0.5-0.5,1-0.8,1.7-0.8
		c0.7,0,1.3,0.3,1.7,0.8c0.5,0.5,0.7,1.2,0.7,2v0.4h-3.5c0,0.4,0.1,0.7,0.3,0.9c0.2,0.2,0.5,0.3,0.8,0.3c0.3,0,0.5-0.1,0.7-0.2
		C559.4,151.7,559.6,151.5,559.8,151.3z M557.4,149.9h2.3c0-0.3-0.1-0.6-0.3-0.8c-0.2-0.2-0.5-0.3-0.8-0.3c-0.3,0-0.6,0.1-0.8,0.3
		C557.5,149.4,557.4,149.6,557.4,149.9z M561.9,153.1v-5.2h1.2v0.5h0c0.1-0.2,0.3-0.3,0.6-0.5s0.5-0.2,0.8-0.2c0.6,0,1,0.2,1.4,0.5
		c0.3,0.3,0.5,0.8,0.5,1.4v3.4h-1.3V150c0-0.4-0.1-0.6-0.2-0.8c-0.1-0.2-0.4-0.3-0.7-0.3c-0.3,0-0.6,0.1-0.7,0.3
		c-0.2,0.2-0.3,0.4-0.3,0.7v3.2H561.9z M569.8,150.8l1.4-0.3c0.1,0.5,0.2,0.9,0.4,1.2c0.2,0.2,0.5,0.4,1,0.4c0.4,0,0.7-0.1,0.9-0.2
		c0.2-0.1,0.3-0.3,0.3-0.6c0-0.3-0.1-0.5-0.3-0.6c-0.2-0.2-0.7-0.3-1.5-0.6c-0.7-0.2-1.2-0.5-1.5-0.8c-0.3-0.3-0.4-0.7-0.4-1.2
		c0-0.5,0.2-1,0.6-1.4c0.4-0.4,1-0.6,1.7-0.6c0.7,0,1.2,0.2,1.7,0.5c0.5,0.3,0.8,0.8,0.9,1.4l-1.3,0.3c-0.2-0.7-0.6-1-1.3-1
		c-0.3,0-0.6,0.1-0.8,0.2c-0.2,0.1-0.2,0.3-0.2,0.5c0,0.2,0.1,0.4,0.3,0.5c0.2,0.1,0.7,0.3,1.5,0.6c0.8,0.3,1.3,0.5,1.6,0.9
		c0.3,0.3,0.4,0.7,0.4,1.2c0,0.6-0.2,1.1-0.7,1.5c-0.5,0.4-1.1,0.6-1.8,0.6c-0.8,0-1.4-0.2-1.9-0.6
		C570.2,152.2,569.9,151.6,569.8,150.8z M576.3,151.2V149h-0.8v-1.1h0.8v-1.3h1.2v1.3h1.3v1.1h-1.3v2.2c0,0.3,0,0.5,0.1,0.6
		c0.1,0.1,0.3,0.2,0.6,0.2h0.4v1.2h-0.5c-0.7,0-1.2-0.1-1.4-0.4C576.5,152.4,576.3,151.9,576.3,151.2z M582.8,153.1v-0.5h0
		c0,0,0,0,0,0.1c0,0-0.1,0.1-0.1,0.1c-0.1,0.1-0.2,0.1-0.3,0.2c-0.1,0.1-0.2,0.1-0.4,0.2c-0.2,0-0.4,0.1-0.6,0.1
		c-0.6,0-1.1-0.1-1.4-0.4c-0.3-0.3-0.5-0.7-0.5-1.1c0-0.5,0.1-0.8,0.4-1c0.3-0.2,0.7-0.4,1.4-0.6c0.6-0.1,1-0.3,1.1-0.3
		c0.2-0.1,0.2-0.2,0.2-0.4c0-0.2-0.1-0.3-0.2-0.4c-0.1-0.1-0.4-0.2-0.7-0.2c-0.3,0-0.6,0.1-0.8,0.2c-0.2,0.2-0.3,0.4-0.4,0.6
		l-1.1-0.4c0.1-0.4,0.4-0.8,0.7-1.1c0.4-0.3,0.8-0.4,1.4-0.4c0.6,0,1.2,0.2,1.6,0.5c0.4,0.3,0.6,0.9,0.6,1.6v3.3H582.8z M581.5,151
		c-0.3,0.1-0.5,0.2-0.7,0.3c-0.1,0.1-0.1,0.2-0.1,0.4c0,0.4,0.3,0.5,0.8,0.5c0.4,0,0.7-0.1,0.9-0.2c0.2-0.2,0.3-0.3,0.3-0.6v-0.9h0
		c0,0.1-0.1,0.1-0.1,0.1c0,0-0.1,0.1-0.3,0.1C582,150.8,581.8,150.9,581.5,151z M585.1,153.1v-5.2h1.3v5.2H585.1z M585.1,147.1v-1.2
		h1.3v1.2H585.1z M587.8,153.1v-5.2h1.2v0.6h0c0.1-0.2,0.2-0.4,0.4-0.5c0.2-0.1,0.4-0.2,0.6-0.2c0.2,0,0.3,0,0.5,0.1l-0.2,1.2
		c-0.1-0.1-0.3-0.1-0.4-0.1c-0.6,0-0.9,0.4-0.9,1.2v2.9H587.8z M591,151.4l1.2-0.3c0.1,0.7,0.5,1.1,1.2,1.1c0.3,0,0.6-0.1,0.7-0.1
		c0.2-0.1,0.3-0.3,0.3-0.4c0-0.2-0.1-0.3-0.2-0.3c-0.1-0.1-0.4-0.2-0.9-0.3c-0.1,0-0.2-0.1-0.3-0.1c-0.6-0.2-1-0.4-1.3-0.6
		c-0.3-0.2-0.4-0.5-0.4-0.9c0-0.4,0.2-0.8,0.5-1.1c0.4-0.3,0.8-0.5,1.5-0.5c1.2,0,1.9,0.5,2.2,1.5l-1.1,0.3
		c-0.1-0.2-0.2-0.4-0.4-0.6c-0.2-0.1-0.4-0.2-0.7-0.2c-0.3,0-0.5,0-0.6,0.1c-0.1,0.1-0.2,0.2-0.2,0.3c0,0.1,0.1,0.3,0.3,0.3
		c0.2,0.1,0.6,0.2,1.3,0.4c0.6,0.2,1,0.4,1.2,0.6c0.2,0.3,0.3,0.6,0.3,1c0,0.4-0.2,0.8-0.6,1.1c-0.4,0.3-0.9,0.5-1.6,0.5
		c-0.7,0-1.3-0.2-1.7-0.5C591.3,152.3,591.1,151.9,591,151.4z"/>
	<path class="st55" d="M342.5,202v-6.9h2.9c0.6,0,1.1,0.2,1.5,0.5c0.4,0.4,0.6,0.8,0.6,1.3c0,0.6-0.3,1-0.8,1.3v0
		c0.3,0.1,0.5,0.3,0.7,0.6c0.2,0.3,0.3,0.6,0.3,1c0,0.7-0.2,1.2-0.6,1.6c-0.4,0.4-1.1,0.6-2,0.6H342.5z M343.8,200.8h1.6
		c0.6,0,0.9-0.3,0.9-0.9c0-0.3-0.1-0.5-0.3-0.7c-0.2-0.2-0.4-0.2-0.7-0.2h-1.6V200.8z M343.8,197.9h1.4c0.3,0,0.5-0.1,0.6-0.2
		c0.2-0.1,0.2-0.3,0.2-0.6c0-0.3-0.1-0.5-0.2-0.6c-0.2-0.1-0.4-0.2-0.6-0.2h-1.4V197.9z M351.8,202v-0.5h0c0,0,0,0,0,0.1
		c0,0-0.1,0.1-0.1,0.1c-0.1,0.1-0.2,0.1-0.3,0.2c-0.1,0.1-0.2,0.1-0.4,0.2c-0.2,0-0.4,0.1-0.6,0.1c-0.6,0-1.1-0.1-1.4-0.4
		c-0.3-0.3-0.5-0.7-0.5-1.1c0-0.5,0.1-0.8,0.4-1c0.3-0.2,0.7-0.4,1.4-0.6c0.6-0.1,1-0.3,1.1-0.3c0.2-0.1,0.2-0.2,0.2-0.4
		s-0.1-0.3-0.2-0.4c-0.1-0.1-0.4-0.2-0.7-0.2c-0.3,0-0.6,0.1-0.8,0.2c-0.2,0.2-0.3,0.4-0.4,0.6l-1.1-0.4c0.1-0.4,0.4-0.8,0.7-1.1
		c0.4-0.3,0.8-0.4,1.4-0.4c0.6,0,1.2,0.2,1.6,0.5c0.4,0.3,0.6,0.9,0.6,1.6v3.3H351.8z M350.5,199.9c-0.3,0.1-0.5,0.2-0.7,0.3
		c-0.1,0.1-0.1,0.2-0.1,0.4c0,0.4,0.3,0.5,0.8,0.5c0.4,0,0.7-0.1,0.9-0.2c0.2-0.2,0.3-0.3,0.3-0.6v-0.9h0c0,0.1-0.1,0.1-0.1,0.1
		c0,0-0.1,0.1-0.3,0.1C351,199.7,350.8,199.8,350.5,199.9z M357.3,199.9l1.2,0.3c-0.1,0.6-0.4,1.1-0.8,1.4c-0.4,0.3-0.9,0.5-1.5,0.5
		c-0.7,0-1.3-0.2-1.8-0.7c-0.5-0.5-0.7-1.2-0.7-2c0-0.9,0.2-1.5,0.7-2c0.5-0.5,1.1-0.7,1.7-0.7c0.6,0,1.1,0.2,1.5,0.5
		c0.4,0.3,0.6,0.8,0.7,1.4l-1.2,0.2c-0.1-0.6-0.5-1-1-1c-0.4,0-0.7,0.1-0.9,0.4c-0.2,0.3-0.3,0.7-0.3,1.2s0.1,0.9,0.3,1.2
		c0.2,0.3,0.5,0.4,0.9,0.4C356.8,201,357.1,200.6,357.3,199.9z M359.5,202v-7.2h1.3v4.1h0l1.9-2.2h1.6l-1.9,2.1l2.1,3.1H363
		l-1.6-2.4h0l-0.7,0.7v1.6H359.5z M367.7,202v-6.9h2.9c0.6,0,1.1,0.2,1.5,0.5c0.4,0.4,0.6,0.8,0.6,1.3c0,0.6-0.3,1-0.7,1.3v0
		c0.3,0.1,0.5,0.3,0.7,0.6c0.2,0.3,0.3,0.6,0.3,1c0,0.7-0.2,1.2-0.6,1.6c-0.4,0.4-1.1,0.6-2,0.6H367.7z M369,200.8h1.6
		c0.6,0,0.9-0.3,0.9-0.9c0-0.3-0.1-0.5-0.3-0.7c-0.2-0.2-0.4-0.2-0.7-0.2H369V200.8z M369,197.9h1.4c0.3,0,0.5-0.1,0.6-0.2
		c0.2-0.1,0.2-0.3,0.2-0.6c0-0.3-0.1-0.5-0.2-0.6c-0.2-0.1-0.4-0.2-0.6-0.2H369V197.9z"/>
	<path class="st55" d="M227.1,234.3l1.4,0.3c-0.1,0.8-0.4,1.4-0.9,1.9c-0.5,0.5-1.1,0.7-1.9,0.7c-0.9,0-1.6-0.3-2.2-0.9
		c-0.6-0.6-0.8-1.5-0.8-2.8c0-1.1,0.3-1.9,0.9-2.6c0.6-0.6,1.3-0.9,2.1-0.9c0.7,0,1.3,0.2,1.8,0.7c0.5,0.4,0.8,1,0.9,1.8l-1.3,0.2
		c-0.1-0.4-0.2-0.8-0.4-1c-0.2-0.3-0.5-0.4-0.9-0.4c-0.5,0-0.8,0.2-1.2,0.6c-0.3,0.4-0.5,0.9-0.5,1.7c0,0.8,0.2,1.5,0.5,1.9
		c0.3,0.4,0.7,0.6,1.2,0.6C226.6,235.9,227,235.4,227.1,234.3z M232.1,237v-6.9h1.3v5.7h2.8v1.2H232.1z M237.1,237v-5.2h1.3v5.2
		H237.1z M237.1,231v-1.2h1.3v1.2H237.1z M239.8,237v-5.2h1.2v0.5h0c0.1-0.2,0.3-0.3,0.6-0.5c0.3-0.1,0.5-0.2,0.8-0.2
		c0.6,0,1,0.2,1.4,0.5c0.3,0.3,0.5,0.8,0.5,1.4v3.4H243v-3.1c0-0.4-0.1-0.6-0.2-0.8c-0.1-0.2-0.4-0.3-0.7-0.3
		c-0.3,0-0.6,0.1-0.7,0.3c-0.2,0.2-0.3,0.4-0.3,0.7v3.2H239.8z M245.6,237v-7.2h1.3v4.1h0l1.9-2.2h1.6l-1.9,2.1l2.1,3.1h-1.4
		l-1.6-2.4h0l-0.7,0.7v1.6H245.6z"/>
</g>
</svg>
