<?xml version="1.0" encoding="utf-8"?>
<!-- Generator: Adobe Illustrator 22.1.0, SVG Export Plug-In . SVG Version: 6.00 Build 0)  -->
<svg version="1.1" id="Calque_1" xmlns="http://www.w3.org/2000/svg" xmlns:xlink="http://www.w3.org/1999/xlink" x="0px" y="0px"
	 viewBox="0 0 708 708" style="enable-background:new 0 0 708 708;" xml:space="preserve" width="800" height="800">
<style type="text/css">
	.st0{fill:#202B43;}
	.st1{fill:#182338;}
	.st2{fill:#343F57;}
	.st3{fill:#273552;}
	.st4{fill:#131C2E;}
	.st5{fill:url(#SVGID_1_);}
	.st6{display:none;fill:url(#SVGID_2_);fill-opacity:0.15;}
	.st7{display:none;opacity:0.15;fill:url(#SVGID_3_);enable-background:new    ;}
	.st8{fill:none;stroke:#24E8AD;stroke-width:3;stroke-linecap:round;}
	.st9{fill:none;stroke:#FF5859;stroke-width:3;stroke-linecap:round;}
	
		.st10{opacity:0.5;fill:#4D5F83;fill-opacity:0.15;stroke:#4D5F83;stroke-width:1.6433;stroke-miterlimit:16;enable-background:new    ;}
	.st11{display:none;opacity:0.15;}
	.st12{display:inline;}
	.st13{fill:#4D5F83;}
	.st14{display:none;fill:#7986A3;}
	.st15{display:none;fill:#E5EBEF;}
	.st16{display:none;fill:#FF5859;}
	.st17{display:none;fill:#24E8CC;}
</style>
<path class="st0" d="M84.4,90.3h127.9h2v4h2V123H84.4V90.3z"/>
<path class="st0" d="M287.7,83.3v12.9V123l36.7-39.7H287.7z"/>
<rect x="216.3" y="90.3" class="st0" width="71.4" height="32.7"/>
<path class="st0" d="M296.6,15.4l-7.4,39.2l-1.5,28.8h102.1V49.6l-4-11.9l-7.4-20.8l-28.8-5L340.3,3h-32.7L296.6,15.4z"/>
<path class="st0" d="M387.8,124.5l-29.7-41.1h31.7v10.9H488h10.4h12.4h56.5V128h-50.6h-14.9v-9.4h-6.9v5.9H387.8z"/>
<rect x="191.5" y="290.5" class="st0" width="26.8" height="16.9"/>
<path class="st0" d="M263.9,290.5h-45.6v16.4l-7.9,13.4V358h-25.8v43.6h79.3V290.5z"/>
<rect x="263.9" y="288.6" class="st0" width="4" height="23.8"/>
<path class="st0" d="M228.2,277.7v12.9h35.7v-12.9H228.2z"/>
<rect x="153.8" y="299.5" class="st0" width="37.7" height="40.7"/>
<rect x="163.8" y="280.6" class="st0" width="27.8" height="18.8"/>
<rect x="213.3" y="399.6" class="st0" width="37.7" height="35.7"/>
<rect x="251" y="413.5" class="st0" width="99.2" height="21.8"/>
<path class="st0" d="M324.4,413.5V349H375v34.7h-13.9l-10.9,12.9v16.9H324.4z"/>
<rect x="403.7" y="132.9" class="st0" width="21.8" height="44.6"/>
<rect x="425.5" y="159.7" class="st0" width="8.9" height="17.8"/>
<rect x="403.7" y="123" class="st0" width="21.8" height="9.9"/>
<path class="st0" d="M534.2,138.6v-10.7h19.6v10.7l18.5,16.1h-56.5L534.2,138.6z"/>
<rect x="453.3" y="360.9" class="st0" width="45.6" height="48.6"/>
<rect x="384.9" y="293.5" class="st0" width="51.6" height="38.7"/>
<rect x="406.7" y="323.3" class="st0" width="29.7" height="49.6"/>
<rect x="469.1" y="351" class="st0" width="29.7" height="9.9"/>
<rect x="436.4" y="360.9" class="st0" width="29.7" height="22.8"/>
<rect x="480.1" y="419.4" class="st0" width="52.6" height="107.1"/>
<rect x="274.8" y="435.3" class="st0" width="19.8" height="28.8"/>
<rect x="55.7" y="307.4" class="st0" width="34.7" height="92.2"/>
<path class="st0" d="M55.7,443.2v-35.7h100.1v31.7h10.9v53.5h-61.5L55.7,443.2z"/>
<path class="st0" d="M66.6,407.5v-29.7h118.5v23.8h-29.3v5.9L66.6,407.5L66.6,407.5z"/>
<rect x="532.6" y="419.4" class="st0" width="74.4" height="40.7"/>
<path class="st1" d="M609.9,463.1v-44.6h35.8l12.8,11.4v19.9l-12.8,13.3L609.9,463.1L609.9,463.1z"/>
<path class="st2" d="M636.9,441.3l6.5-6.5l-3.2-3.2l-6.5,6.5l-6.7-6.7l-3.2,3.2l6.7,6.7l-6.7,6.7l3.2,3.2l6.7-6.7l6.7,6.7l3.2-3.2
	L636.9,441.3z"/>
<rect x="581.2" y="346.1" class="st0" width="47.6" height="69.4"/>
<rect x="553.4" y="387.7" class="st0" width="53.5" height="31.7"/>
<rect x="522.7" y="274.7" class="st0" width="90.2" height="21.8"/>
<rect x="612.9" y="274.7" class="st0" width="23.8" height="37.7"/>
<rect x="581.2" y="294.5" class="st0" width="31.7" height="45.6"/>
<rect x="589.1" y="340.1" class="st0" width="12.9" height="5.9"/>
<path class="st0" d="M84.4,145.8V123h16.9l0.5,51.6H58.7v5h5.9v15.9h41.6v-67.4h96.2v26.8h12.9v37.7h-20.8V236h-46.6l-16.1,20.8
	H80.5v-41.6H33.9v-35.7h7.9v-5h-7.9v-28.8h50.5V145.8z"/>
<rect x="103.3" y="256.8" class="st0" width="23.8" height="6.9"/>
<path class="st0" d="M141,263.8v37.7l-9.9,10.9h-29.7l-8.9-19.8v21.8H28.9v-43.6h60.5v5h3v-11.9H141V263.8z"/>
<rect x="181.6" y="123" class="st0" width="17.8" height="5"/>
<rect x="161.8" y="236" class="st0" width="18.8" height="3"/>
<rect x="153.8" y="239" class="st0" width="37.7" height="41.6"/>
<rect x="530.6" y="266.7" class="st0" width="15.9" height="7.9"/>
<rect x="274.8" y="280.6" class="st0" width="5" height="19.8"/>
<path class="st1" d="M267.9,322.3v-44.6h37.7l13.9,9.9v25.8l-12.9,8.9L267.9,322.3L267.9,322.3z"/>
<rect x="607" y="433.3" class="st0" width="3" height="17.8"/>
<rect x="375" y="356.5" class="st0" width="5.9" height="12.9"/>
<rect x="380.9" y="348.1" class="st0" width="55.5" height="35.7"/>
<rect x="469.1" y="360" class="st1" width="29.7" height="1"/>
<rect x="453.3" y="409.5" class="st0" width="28.8" height="9.9"/>
<rect x="453.3" y="419.4" class="st0" width="43.6" height="40.7"/>
<rect x="553.4" y="387.7" class="st3" width="8.9" height="8.9"/>
<rect x="553.4" y="396.6" class="st3" width="4" height="4"/>
<path class="st0" d="M578.2,202.3v-47.6h-81.3v-17.8h-40.7l-21.8,21.8v22.8h13.9v6.9h-21.8v13.9h-9.9v-13.9h-37.7v65.4h22.8v20.8
	l-0.5,17.8l34.7,0.5l18.3-6.4h38.7v-33.7h32.7v13.9h52.6v-42.6h-18.8v-21.8H578.2z M451.3,224.1h-54.5v-5.5h45.6v-18.3h8.9V224.1z"
	/>
<rect x="474.1" y="207.3" class="st3" width="13.9" height="10.9"/>
<rect x="509.8" y="198.3" class="st3" width="11.9" height="19.8"/>
<rect x="521.7" y="198.3" class="st3" width="9.9" height="10.9"/>
<rect x="570.3" y="230.1" class="st3" width="7.9" height="7.9"/>
<rect x="570.3" y="238" class="st3" width="7.9" height="7.9"/>
<rect x="515.8" y="154.7" class="st4" width="56.5" height="1"/>
<rect x="569.3" y="257.8" class="st3" width="8.9" height="8.9"/>
<rect x="560.4" y="257.8" class="st3" width="8.9" height="8.9"/>
<rect x="484" y="252.9" class="st3" width="8.9" height="8.9"/>
<rect x="106.2" y="181.5" class="st3" width="12.9" height="11.9"/>
<rect x="80.5" y="222.1" class="st3" width="9.9" height="25.8"/>
<rect x="184.6" y="224.1" class="st3" width="9.9" height="11.9"/>
<path class="st3" d="M123.1,446.2c3.3,0,5.9-2.7,5.9-5.9c0-3.3-2.7-5.9-5.9-5.9c-3.3,0-5.9,2.7-5.9,5.9
	C117.2,443.6,119.8,446.2,123.1,446.2z M123.1,456.1c8.8,0,15.9-7.1,15.9-15.9s-7.1-15.9-15.9-15.9s-15.9,7.1-15.9,15.9
	S114.3,456.1,123.1,456.1z"/>
<rect x="128.1" y="164.6" class="st3" width="45.6" height="16.9"/>
<rect x="140" y="181.5" class="st3" width="24.8" height="10.9"/>
<rect x="128.1" y="163.6" class="st3" width="14.9" height="18.8"/>
<rect x="164.7" y="154.7" class="st3" width="8.9" height="8.9"/>
<path class="st2" d="M296.8,299.5l6.5-6.5l-3.2-3.2l-6.5,6.5l-6.7-6.7l-3.2,3.2l6.7,6.7l-6.7,6.7l3.2,3.2l6.7-6.7l6.7,6.7l3.2-3.2
	L296.8,299.5z"/>
<path class="st2" d="M394.8,272.2c0.8,0,1.5-0.7,1.5-1.5s-0.7-1.5-1.5-1.5V272.2z M359.1,270.7v-1.5c-0.8,0-1.5,0.7-1.5,1.5H359.1z
	 M359.1,301.9v1.5c0.8,0,1.5-0.7,1.5-1.5H359.1z M322.8,300.9c-0.6,0.6-0.6,1.5,0,2.1l9.5,9.5c0.6,0.6,1.5,0.6,2.1,0s0.6-1.5,0-2.1
	l-8.5-8.5l8.5-8.5c0.6-0.6,0.6-1.5,0-2.1s-1.5-0.6-2.1,0L322.8,300.9z M394.8,269.2h-35.7v3h35.7V269.2z M357.6,270.7v31.2h3v-31.2
	H357.6z M359.1,300.4h-35.2v3h35.2V300.4z"/>
<linearGradient id="SVGID_1_" gradientUnits="userSpaceOnUse" x1="18" y1="-254.6" x2="674.398" y2="-254.6" gradientTransform="matrix(1 0 0 1 0 676)">
	<stop  offset="0" style="stop-color:#343F57"/>
	<stop  offset="0.6285" style="stop-color:#343F57;stop-opacity:0.5"/>
	<stop  offset="1" style="stop-color:#343F57"/>
</linearGradient>
<path class="st5" d="M18,292.5V291c-0.8,0-1.5,0.7-1.5,1.5H18z M18,550.3h-1.5c0,0.8,0.7,1.5,1.5,1.5V550.3z M689.3,550.3v1.5
	c0.8,0,1.5-0.7,1.5-1.5H689.3z M668.9,443.7c-0.6,0.6-0.6,1.5,0,2.1l9.5,9.5c0.6,0.6,1.5,0.6,2.1,0s0.6-1.5,0-2.1l-8.5-8.5l8.5-8.5
	c0.6-0.6,0.6-1.5,0-2.1s-1.5-0.6-2.1,0L668.9,443.7z M268.4,551.8c0.8,0,1.5-0.7,1.5-1.5s-0.7-1.5-1.5-1.5V551.8z M540.5,548.8
	c-0.8,0-1.5,0.7-1.5,1.5s0.7,1.5,1.5,1.5V548.8z M689.3,444.7h1.5c0-0.8-0.7-1.5-1.5-1.5V444.7z M16.5,292.5v257.8h3V292.5H16.5z
	 M18,294h5.9v-3H18V294z M18,551.8h250.4v-3H18V551.8z M540.5,551.8h148.7v-3H540.5V551.8z M690.8,550.3V444.7h-3v105.6H690.8z
	 M689.3,443.2H670v3h19.3V443.2z"/>
<path class="st0" d="M452.3,505.2l-14.4,3.5l-1.5,4.5L419,523.6l-3.5-3l-17.8,7.4l-9.4-1l-8.9-7.4l-12.4-0.5l-6.9-5.5l-10.9-2
	l-13.9-6.4v-53h-25.8v11.9H166.8v28.8h112l2.5,32.7l21.8,42.1l22.8,43.6l28.3,28.3l-5,14.4l13.9,29.7l25.8,22.3h33.2l4.5-9.4
	l6.4-1.5l1.5-25.8l19.3-37.7l14.4-10.9l21.3-26.3l43.1-41.1v-48.1H452.3z M481.1,547.4l-7.4,13.9l-15.9,20.3L438,601.9l-0.5,7.4
	l-19.3,19.8l-5.9,9.4l-8.9,4L372,624.7l-11.4-22.8l-39.7-44.1l-5.9-37.2l14.9,1l48.1,24.3l6.4-5l26.8,3l9.4-4l8.9-1l17.4-12.4
	l16.9-3l10.9,4.5l8.4,14.9L481.1,547.4z"/>
<rect x="232.2" y="460.1" class="st0" width="33.7" height="4"/>
<rect x="451.3" y="206.3" class="st2" width="22.8" height="13.9"/>
<rect x="426.5" y="224.1" class="st2" width="9.9" height="17.8"/>
<linearGradient id="SVGID_2_" gradientUnits="userSpaceOnUse" x1="306.1" y1="-592.6855" x2="306.1" y2="-355.182" gradientTransform="matrix(1 0 0 1 0 676)">
	<stop  offset="0.2833" style="stop-color:#24E8AD;stop-opacity:0"/>
	<stop  offset="1" style="stop-color:#24E8AD"/>
</linearGradient>
<path class="st6" d="M289.2,54.6l7.4-39.2L307.5,3h32.7l9.4,8.9l28.8,5l7.4,20.8l4,11.9v33.7v10.9H488h10.4h12.4h56.5v33.7h-13.5
	v10.7l18.5,16.1h6v47.6h-18.8v21.8h18.8v42.6h-31.7v7.9h-15.9v-7.9h-5v-13.9H493v33.7h-38.7l-18.3,6.4l-34.7-0.5l0.5-17.8v-20.8H379
	v-65.4h37.7v13.9h9.9v-13.9h21.8v-6.9h-13.9v-22.8l21.8-21.8H497v17.8h18.8l18.5-16.1v-10.7h-17.5h-14.9v-9.4H495v5.9h-69.4v8.4
	v44.6h-21.8v-44.6v-8.4h-15.9l-29.7-41.1h-33.7L287.7,123V96.2V83.3L289.2,54.6z M84.4,90.3h129.9v4h2V123h-16.9v5h3v26.8h12.9v37.7
	h-20.8V236h-13.9v3h10.9v41.6v9.9h7.9v16.9h-7.9v32.7h-37.7v-40.7h9.9v-18.8h-9.9V239h7.9v-3h-13.9l-16.1,20.8H127v3h-23.8v-3H80.5
	v-41.6H33.9v-35.7h7.9v-5h-7.9v-28.8h50.6V123l0,0L84.4,90.3L84.4,90.3z M101.3,123h80.3v5h-75.4v67.4H64.6v-15.9h-5.9v-5h43.1
	L101.3,123z M287.7,90.3h-71.4V123h71.4V90.3z M434.4,159.7h-8.9v17.8h8.9V159.7z M442.4,200.3h8.9v23.8h-54.5v-5.5h45.6V200.3z"/>
<linearGradient id="SVGID_3_" gradientUnits="userSpaceOnUse" x1="353.65" y1="-414.357" x2="353.65" y2="-86.431" gradientTransform="matrix(1 0 0 1 0 676)">
	<stop  offset="0" style="stop-color:#FF5859"/>
	<stop  offset="1" style="stop-color:#FF5859;stop-opacity:0"/>
</linearGradient>
<path class="st7" d="M324.4,413.5V349H375v7.4h4v12.9h-4v14.4h-13.9l-10.9,12.9v16.9l0,0v21.8h-55.5v28.8h14.9v-11.9h25.8v53
	l13.9,6.4l10.9,2l6.9,5.5l12.4,0.5l8.9,7.4l9.4,1l17.8-7.4l3.5,3l17.4-10.4l1.5-4.5l14.4-3.5h27.8v-45.1h-26.8v-40.7v-9.9H482v9.9
	h14.9h35.7v85.8v48.1l-43.1,41.1l-21.3,26.3l-14.4,10.9l-19.3,37.7l-1.5,25.8l-6.4,1.5l-4.5,9.4h-33.2l-25.8-22.3L349.2,654l5-14.4
	l-28.3-28.3l-22.8-43.6l-21.8-42.1l-2.5-32.7h-112v-28.8h108.1v-28.8H251h-37.7v-35.7H251v13.9L324.4,413.5L324.4,413.5z
	 M532.6,419.4h7.9v40.7h-7.9V419.4z M329.8,521.6l-14.9-1l6,37.2l39.7,44.1l11.4,22.8l31.2,17.8l8.9-4l5.9-9.4l19.3-19.8l0.5-7.4
	l19.8-20.3l15.9-20.3l7.4-13.9l2-4.5l-8.4-14.9l-10.9-4.5l-16.9,3l-17.4,12.4l-8.9,1l-9.4,4l-26.8-3l-6.4,5L329.8,521.6z"/>
<path class="st8" d="M528.6,271.2h18.8"/>
<path class="st8" d="M402.2,293h33.7"/>
<path class="st8" d="M103.3,259.8h23.8"/>
<path class="st8" d="M400.7,252.9v39.7"/>
<path class="st8" d="M199.5,289.6v19.8"/>
<path class="st9" d="M540.5,415.5v47.6"/>
<path class="st9" d="M377.4,355v15.9"/>
<path class="st9" d="M483,413.5h-31.7"/>
<path class="st9" d="M169.7,460.1v35.7"/>
<path class="st9" d="M213.3,402.6H251"/>
<path class="st10" d="M469.3,171.6h76.1c2.3,0,4.1,1.8,4.1,4.1v66.1c0,2.3-1.8,4.1-4.1,4.1h-76.1c-2.3,0-4.1-1.8-4.1-4.1v-66.1
	C465.2,173.4,467,171.6,469.3,171.6z"/>
<g class="st11">
	<g class="st12">
		
			<rect x="474.1" y="258.2" transform="matrix(0.7074 -0.7068 0.7068 0.7074 -18.566 475.2577)" class="st13" width="181.3" height="3.7"/>
		
			<rect x="468.9" y="253" transform="matrix(0.7074 -0.7068 0.7068 0.7074 -16.4079 470.0593)" class="st13" width="181.3" height="3.7"/>
		
			<rect x="463.7" y="247.8" transform="matrix(0.7074 -0.7068 0.7068 0.7074 -14.2484 464.8611)" class="st13" width="181.3" height="3.7"/>
		
			<rect x="458.5" y="242.6" transform="matrix(0.7074 -0.7068 0.7068 0.7074 -12.0897 459.6622)" class="st13" width="181.3" height="3.7"/>
		
			<rect x="453.2" y="237.4" transform="matrix(0.7074 -0.7068 0.7068 0.7074 -10.0017 454.4346)" class="st13" width="181.3" height="3.7"/>
		
			<rect x="448" y="232.2" transform="matrix(0.7074 -0.7068 0.7068 0.7074 -7.8434 449.2361)" class="st13" width="181.3" height="3.7"/>
		
			<rect x="442.8" y="227" transform="matrix(0.7074 -0.7068 0.7068 0.7074 -5.6839 444.0371)" class="st13" width="181.3" height="3.7"/>
		
			<rect x="437.6" y="221.8" transform="matrix(0.7074 -0.7068 0.7068 0.7074 -3.5256 438.8385)" class="st13" width="181.3" height="3.7"/>
		
			<rect x="432.4" y="216.6" transform="matrix(0.7074 -0.7068 0.7068 0.7074 -1.3665 433.64)" class="st13" width="181.3" height="3.7"/>
		
			<rect x="427.2" y="211.4" transform="matrix(0.7074 -0.7068 0.7068 0.7074 0.7918 428.4414)" class="st13" width="181.3" height="3.7"/>
		
			<rect x="422" y="206.2" transform="matrix(0.7074 -0.7068 0.7068 0.7074 2.9509 423.2428)" class="st13" width="181.3" height="3.7"/>
		
			<rect x="416.8" y="201" transform="matrix(0.7074 -0.7068 0.7068 0.7074 5.1096 418.0439)" class="st13" width="181.3" height="3.7"/>
		
			<rect x="411.6" y="195.8" transform="matrix(0.7074 -0.7068 0.7068 0.7074 7.2687 412.8453)" class="st13" width="181.3" height="3.7"/>
		
			<rect x="406.4" y="190.6" transform="matrix(0.7074 -0.7068 0.7068 0.7074 9.4275 407.6469)" class="st13" width="181.3" height="3.7"/>
		
			<rect x="401.2" y="185.4" transform="matrix(0.7074 -0.7068 0.7068 0.7074 11.5862 402.4488)" class="st13" width="181.3" height="3.7"/>
		
			<rect x="396" y="180.1" transform="matrix(0.7074 -0.7068 0.7068 0.7074 13.7749 397.1794)" class="st13" width="181.3" height="3.7"/>
		
			<rect x="390.8" y="174.9" transform="matrix(0.7074 -0.7068 0.7068 0.7074 15.9331 391.9807)" class="st13" width="181.3" height="3.7"/>
		
			<rect x="385.5" y="169.8" transform="matrix(0.7074 -0.7068 0.7068 0.7074 18.0212 386.7524)" class="st13" width="181.3" height="3.7"/>
		
			<rect x="380.3" y="164.6" transform="matrix(0.7074 -0.7068 0.7068 0.7074 20.1798 381.5543)" class="st13" width="181.3" height="3.7"/>
		
			<rect x="375.1" y="159.3" transform="matrix(0.7074 -0.7068 0.7068 0.7074 22.3389 376.3557)" class="st13" width="181.3" height="3.7"/>
		
			<rect x="369.9" y="154.1" transform="matrix(0.7074 -0.7068 0.7068 0.7074 24.4976 371.1568)" class="st13" width="181.3" height="3.7"/>
	</g>
</g>
<path class="st10" d="M122.3,144.8h63.2c2.3,0,4.1,1.8,4.1,4.1v51.3c0,2.3-1.8,4.1-4.1,4.1h-63.2c-2.3,0-4.1-1.8-4.1-4.1v-51.3
	C118.1,146.6,120,144.8,122.3,144.8z"/>
<g class="st11">
	<g class="st12">
		
			<rect x="125.1" y="240.4" transform="matrix(0.7074 -0.7068 0.7068 0.7074 -108.065 223.3766)" class="st13" width="181.3" height="3.7"/>
		
			<rect x="119.9" y="235.2" transform="matrix(0.7074 -0.7068 0.7068 0.7074 -105.9064 218.1784)" class="st13" width="181.3" height="3.7"/>
		
			<rect x="114.6" y="229.9" transform="matrix(0.7074 -0.7068 0.7068 0.7074 -103.7887 212.8799)" class="st13" width="181.3" height="3.7"/>
		
			<rect x="109.4" y="224.7" transform="matrix(0.7074 -0.7068 0.7068 0.7074 -101.63 207.6809)" class="st13" width="181.3" height="3.7"/>
		
			<rect x="104.2" y="219.5" transform="matrix(0.7074 -0.7068 0.7068 0.7074 -99.4713 202.4827)" class="st13" width="181.3" height="3.7"/>
		
			<rect x="99" y="214.3" transform="matrix(0.7074 -0.7068 0.7068 0.7074 -97.3123 197.2842)" class="st13" width="181.3" height="3.7"/>
		
			<rect x="93.8" y="209.1" transform="matrix(0.7074 -0.7068 0.7068 0.7074 -95.1535 192.0852)" class="st13" width="181.3" height="3.7"/>
		
			<rect x="88.6" y="203.9" transform="matrix(0.7074 -0.7068 0.7068 0.7074 -92.9949 186.8871)" class="st13" width="181.3" height="3.7"/>
		
			<rect x="83.4" y="198.7" transform="matrix(0.7074 -0.7068 0.7068 0.7074 -90.8362 181.688)" class="st13" width="181.3" height="3.7"/>
		
			<rect x="78.2" y="193.5" transform="matrix(0.7074 -0.7068 0.7068 0.7074 -88.6775 176.4899)" class="st13" width="181.3" height="3.7"/>
		
			<rect x="73" y="188.3" transform="matrix(0.7074 -0.7068 0.7068 0.7074 -86.5183 171.2913)" class="st13" width="181.3" height="3.7"/>
		
			<rect x="67.8" y="183.1" transform="matrix(0.7074 -0.7068 0.7068 0.7074 -84.3597 166.0924)" class="st13" width="181.3" height="3.7"/>
		
			<rect x="62.6" y="177.9" transform="matrix(0.7074 -0.7068 0.7068 0.7074 -82.2007 160.8939)" class="st13" width="181.3" height="3.7"/>
		
			<rect x="57.4" y="172.7" transform="matrix(0.7074 -0.7068 0.7068 0.7074 -80.0418 155.6955)" class="st13" width="181.3" height="3.7"/>
		
			<rect x="52.2" y="167.5" transform="matrix(0.7074 -0.7068 0.7068 0.7074 -77.883 150.4972)" class="st13" width="181.3" height="3.7"/>
		
			<rect x="46.9" y="162.3" transform="matrix(0.7074 -0.7068 0.7068 0.7074 -75.7949 145.2689)" class="st13" width="181.3" height="3.7"/>
		
			<rect x="41.7" y="157.1" transform="matrix(0.7074 -0.7068 0.7068 0.7074 -73.6361 140.0706)" class="st13" width="181.3" height="3.7"/>
		
			<rect x="36.5" y="151.9" transform="matrix(0.7074 -0.7068 0.7068 0.7074 -71.4773 134.8715)" class="st13" width="181.3" height="3.7"/>
		
			<rect x="31.3" y="146.7" transform="matrix(0.7074 -0.7068 0.7068 0.7074 -69.3188 129.6735)" class="st13" width="181.3" height="3.7"/>
		
			<rect x="26.1" y="141.5" transform="matrix(0.7074 -0.7068 0.7068 0.7074 -67.1597 124.4751)" class="st13" width="181.3" height="3.7"/>
		
			<rect x="20.9" y="136.3" transform="matrix(0.7074 -0.7068 0.7068 0.7074 -65.0008 119.2758)" class="st13" width="181.3" height="3.7"/>
	</g>
</g>
<path class="st14" d="M560.8,286.7l1.4-0.3c0.1,0.5,0.2,0.9,0.4,1.2c0.2,0.2,0.5,0.4,1,0.4c0.4,0,0.7-0.1,0.9-0.2s0.3-0.3,0.3-0.6
	c0-0.3-0.1-0.5-0.3-0.6c-0.2-0.2-0.7-0.3-1.5-0.6c-0.7-0.2-1.2-0.5-1.5-0.8s-0.4-0.7-0.4-1.2s0.2-1,0.6-1.4c0.4-0.4,1-0.6,1.7-0.6
	s1.2,0.2,1.7,0.5s0.8,0.8,0.9,1.4l-1.3,0.3c-0.2-0.7-0.6-1-1.3-1c-0.3,0-0.6,0.1-0.8,0.2s-0.2,0.3-0.2,0.5s0.1,0.4,0.3,0.5
	s0.7,0.3,1.5,0.6c0.8,0.3,1.3,0.5,1.6,0.9c0.3,0.3,0.4,0.7,0.4,1.2c0,0.6-0.2,1.1-0.7,1.5s-1.1,0.6-1.8,0.6c-0.8,0-1.4-0.2-1.9-0.6
	C561.2,288.1,560.9,287.5,560.8,286.7z M567.1,289v-7.2h1.3v2.5l0,0c0.1-0.2,0.3-0.3,0.5-0.5c0.2-0.1,0.5-0.2,0.7-0.2
	c0.6,0,1,0.2,1.3,0.5s0.5,0.8,0.5,1.4v3.5h-1.3v-3.2c0-0.3-0.1-0.5-0.2-0.7c-0.2-0.2-0.4-0.3-0.7-0.3s-0.5,0.1-0.7,0.3
	c-0.2,0.2-0.2,0.4-0.2,0.7v3.3L567.1,289L567.1,289z M574,287.6c0.2,0.3,0.5,0.4,0.9,0.4s0.7-0.1,0.9-0.4s0.3-0.7,0.3-1.2
	s-0.1-0.9-0.3-1.2c-0.2-0.3-0.5-0.4-0.9-0.4s-0.7,0.1-0.9,0.4s-0.3,0.7-0.3,1.2S573.8,287.3,574,287.6z M576.6,288.4
	c-0.5,0.5-1,0.7-1.8,0.7c-0.7,0-1.3-0.2-1.8-0.7s-0.7-1.2-0.7-2c0-0.9,0.2-1.5,0.7-2s1.1-0.7,1.7-0.7c0.7,0,1.3,0.2,1.7,0.7
	c0.5,0.5,0.7,1.2,0.7,2C577.3,287.3,577.1,287.9,576.6,288.4z M579.1,289l-1.2-5.2h1.3l0.7,3.5l0,0l1.2-3.5h1.2l1.1,3.5l0,0l0.8-3.5
	h1.2l-1.3,5.2h-1.3l-1.2-3.8l0,0l-1.3,3.8H579.1z M589.7,287.2l0.9,0.8c-0.5,0.8-1.3,1.2-2.2,1.2c-0.7,0-1.3-0.3-1.8-0.7
	c-0.5-0.5-0.7-1.2-0.7-2s0.2-1.5,0.7-2s1-0.8,1.7-0.8s1.3,0.3,1.7,0.8c0.5,0.5,0.7,1.2,0.7,2v0.4h-3.5c0,0.4,0.1,0.7,0.3,0.9
	c0.2,0.2,0.5,0.3,0.8,0.3s0.5-0.1,0.7-0.2C589.3,287.6,589.5,287.4,589.7,287.2z M587.2,285.8h2.3c0-0.3-0.1-0.6-0.3-0.8
	c-0.2-0.2-0.5-0.3-0.8-0.3s-0.6,0.1-0.8,0.3C587.4,285.3,587.3,285.5,587.2,285.8z M591.8,289v-5.2h1.2v0.6l0,0
	c0.1-0.2,0.2-0.4,0.4-0.5s0.4-0.2,0.6-0.2c0.2,0,0.3,0,0.5,0.1l-0.2,1.2c-0.1-0.1-0.3-0.1-0.4-0.1c-0.6,0-0.9,0.4-0.9,1.2v2.9H591.8
	z M595,287.3l1.2-0.3c0.1,0.7,0.5,1.1,1.2,1.1c0.3,0,0.6,0,0.7-0.1c0.2-0.1,0.3-0.3,0.3-0.4c0-0.2-0.1-0.3-0.2-0.3
	c-0.1-0.1-0.4-0.2-0.9-0.3c-0.1,0-0.2-0.1-0.3-0.1c-0.6-0.2-1-0.4-1.3-0.6s-0.4-0.5-0.4-0.9s0.2-0.8,0.5-1.1
	c0.4-0.3,0.8-0.5,1.4-0.5c1.2,0,1.9,0.5,2.2,1.5l-1.1,0.3c-0.1-0.3-0.2-0.4-0.4-0.6c-0.2-0.1-0.4-0.2-0.7-0.2s-0.5,0-0.6,0.1
	s-0.2,0.2-0.2,0.3c0,0.1,0.1,0.3,0.3,0.3c0.2,0.1,0.6,0.2,1.3,0.4c0.6,0.2,1,0.4,1.2,0.6c0.2,0.3,0.3,0.6,0.3,1s-0.2,0.8-0.6,1.1
	c-0.4,0.3-0.9,0.5-1.6,0.5c-0.7,0-1.3-0.2-1.7-0.5C595.3,288.2,595.1,287.8,595,287.3z M599.8,289.1l3.5-7.5l0.8,0.4l-3.5,7.5
	L599.8,289.1z M605,289v-6.9h2.9c0.6,0,1.1,0.2,1.5,0.5c0.4,0.4,0.6,0.8,0.6,1.3c0,0.6-0.3,1-0.8,1.3l0,0c0.3,0.1,0.5,0.3,0.7,0.6
	c0.2,0.3,0.3,0.6,0.3,1c0,0.7-0.2,1.2-0.6,1.6c-0.4,0.4-1.1,0.6-2,0.6H605z M606.4,287.8h1.6c0.6,0,0.9-0.3,0.9-0.9
	c0-0.3-0.1-0.5-0.3-0.7s-0.4-0.2-0.7-0.2h-1.6L606.4,287.8L606.4,287.8z M606.4,284.9h1.4c0.3,0,0.5-0.1,0.6-0.2
	c0.2-0.1,0.2-0.3,0.2-0.6c0-0.3-0.1-0.5-0.2-0.6c-0.2-0.1-0.4-0.2-0.6-0.2h-1.4V284.9z M614.3,289v-0.5l0,0c0,0,0,0,0,0.1l-0.1,0.1
	c-0.1,0.1-0.2,0.1-0.3,0.2s-0.2,0.1-0.4,0.2c-0.2,0-0.4,0.1-0.6,0.1c-0.6,0-1.1-0.1-1.4-0.4c-0.3-0.3-0.5-0.7-0.5-1.1
	c0-0.5,0.1-0.8,0.4-1c0.3-0.2,0.7-0.4,1.4-0.6c0.6-0.1,1-0.3,1.1-0.3c0.2-0.1,0.2-0.2,0.2-0.4s-0.1-0.3-0.2-0.4
	c-0.1-0.1-0.4-0.2-0.7-0.2s-0.6,0.1-0.7,0.2c-0.2,0.2-0.3,0.4-0.4,0.6l-1.1-0.4c0.1-0.4,0.4-0.8,0.7-1.1c0.4-0.3,0.8-0.4,1.4-0.4
	c0.6,0,1.2,0.2,1.6,0.5c0.4,0.3,0.6,0.9,0.6,1.6v3.3h-1V289z M613,286.9c-0.3,0.1-0.5,0.2-0.7,0.3c-0.1,0.1-0.1,0.2-0.1,0.4
	c0,0.4,0.3,0.5,0.8,0.5c0.4,0,0.7-0.1,0.9-0.2c0.2-0.2,0.3-0.3,0.3-0.6v-0.9l0,0c0,0.1-0.1,0.1-0.1,0.1s-0.1,0.1-0.3,0.1
	C613.6,286.7,613.3,286.8,613,286.9z M616.9,287.1v-2.3h-0.8v-1.1h0.8v-1.3h1.2v1.3h1.3v1.1h-1.3v2.2c0,0.3,0,0.5,0.1,0.6
	s0.3,0.2,0.6,0.2h0.4v1.2h-0.5c-0.7,0-1.2-0.1-1.4-0.4C617.1,288.3,616.9,287.8,616.9,287.1z M620.5,289v-7.2h1.3v2.5l0,0
	c0.1-0.2,0.3-0.3,0.5-0.5c0.2-0.1,0.5-0.2,0.8-0.2c0.6,0,1,0.2,1.3,0.5s0.5,0.8,0.5,1.4v3.5h-1.3v-3.2c0-0.3-0.1-0.5-0.2-0.7
	c-0.2-0.2-0.4-0.3-0.7-0.3s-0.5,0.1-0.7,0.3c-0.2,0.2-0.2,0.4-0.2,0.7v3.3L620.5,289L620.5,289z"/>
<path class="st14" d="M565.8,422l-0.4-1.1h-2.6l-0.4,1.1h-1.3l2.5-6.9h1.1l2.5,6.9H565.8z M564.1,417.1l-0.9,2.7h1.9L564.1,417.1
	L564.1,417.1z M570.5,422v-6.9h1.3v5.7h2.9v1.2L570.5,422L570.5,422z M576.8,420.6c0.2,0.3,0.5,0.4,0.9,0.4s0.7-0.1,0.9-0.4
	s0.3-0.7,0.3-1.2s-0.1-0.9-0.3-1.2c-0.2-0.3-0.5-0.4-0.9-0.4s-0.7,0.1-0.9,0.4s-0.3,0.7-0.3,1.2
	C576.4,419.9,576.5,420.3,576.8,420.6z M579.4,421.4c-0.5,0.5-1,0.7-1.8,0.7c-0.7,0-1.3-0.2-1.8-0.7s-0.7-1.2-0.7-2
	c0-0.9,0.2-1.5,0.7-2s1.1-0.7,1.7-0.7c0.7,0,1.3,0.2,1.7,0.7c0.5,0.5,0.7,1.2,0.7,2C580.1,420.3,579.8,420.9,579.4,421.4z
	 M582.4,418.9v1c0,0.3,0.1,0.6,0.3,0.8c0.2,0.2,0.5,0.3,0.8,0.3c0.4,0,0.7-0.1,0.9-0.4s0.3-0.7,0.3-1.2s-0.1-0.9-0.3-1.2
	c-0.2-0.3-0.5-0.4-0.9-0.4c-0.3,0-0.6,0.1-0.8,0.3C582.5,418.3,582.4,418.6,582.4,418.9z M581.1,422v-7.2h1.3v2.5l0,0c0,0,0,0,0-0.1
	c0,0,0.1-0.1,0.1-0.2c0.1-0.1,0.2-0.1,0.3-0.2s0.2-0.1,0.4-0.2c0.2,0,0.3-0.1,0.5-0.1c0.6,0,1.2,0.3,1.6,0.8c0.4,0.5,0.6,1.2,0.6,2
	s-0.2,1.5-0.6,2c-0.4,0.5-1,0.7-1.6,0.7c-0.3,0-0.5-0.1-0.8-0.2c-0.2-0.1-0.4-0.2-0.5-0.3l-0.1-0.2l0,0v0.5h-1.2V422z M588.3,418.9
	v1c0,0.3,0.1,0.6,0.3,0.8c0.2,0.2,0.5,0.3,0.8,0.3c0.4,0,0.7-0.1,0.9-0.4s0.3-0.7,0.3-1.2s-0.1-0.9-0.3-1.2
	c-0.2-0.3-0.5-0.4-0.9-0.4c-0.3,0-0.6,0.1-0.8,0.3C588.4,418.3,588.3,418.6,588.3,418.9z M587,422v-7.2h1.3v2.5l0,0c0,0,0,0,0-0.1
	c0,0,0.1-0.1,0.1-0.2c0.1-0.1,0.2-0.1,0.3-0.2s0.2-0.1,0.4-0.2c0.2,0,0.3-0.1,0.5-0.1c0.6,0,1.2,0.3,1.6,0.8c0.4,0.5,0.6,1.2,0.6,2
	s-0.2,1.5-0.6,2c-0.4,0.5-1,0.7-1.6,0.7c-0.3,0-0.5-0.1-0.8-0.2c-0.2-0.1-0.4-0.2-0.5-0.3l-0.1-0.2l0,0v0.5H587V422z M593.1,424.2
	l1-2.5l-2.1-5h1.3l1.4,3.5l0,0l1.4-3.5h1.3l-3,7.4h-1.3V424.2z"/>
<path class="st14" d="M393.8,534.8l1.4,0.3c-0.1,0.8-0.4,1.4-0.9,1.9s-1.1,0.7-1.9,0.7c-0.9,0-1.6-0.3-2.2-0.9
	c-0.6-0.6-0.8-1.5-0.8-2.8c0-1.1,0.3-1.9,0.9-2.6c0.6-0.6,1.3-0.9,2.1-0.9c0.7,0,1.3,0.2,1.8,0.7c0.5,0.4,0.8,1,0.9,1.8l-1.3,0.2
	c-0.1-0.4-0.2-0.8-0.4-1c-0.2-0.3-0.5-0.4-0.9-0.4c-0.5,0-0.8,0.2-1.2,0.6c-0.3,0.4-0.5,1-0.5,1.7c0,0.8,0.2,1.5,0.5,1.9
	s0.7,0.6,1.2,0.6C393.3,536.4,393.7,535.9,393.8,534.8z M399.2,537.5V537l0,0c0,0,0,0-0.1,0.1l-0.1,0.1c-0.1,0.1-0.2,0.1-0.3,0.2
	c-0.1,0.1-0.2,0.1-0.4,0.2c-0.2,0-0.4,0.1-0.6,0.1c-0.6,0-1.1-0.1-1.4-0.4c-0.3-0.3-0.5-0.7-0.5-1.1c0-0.5,0.1-0.8,0.4-1
	s0.7-0.4,1.4-0.6c0.6-0.1,1-0.3,1.1-0.3c0.2-0.1,0.2-0.2,0.2-0.4s-0.1-0.3-0.2-0.4c-0.1-0.1-0.4-0.2-0.7-0.2c-0.3,0-0.6,0.1-0.8,0.2
	c-0.2,0.2-0.3,0.4-0.4,0.6l-1.1-0.4c0.1-0.4,0.4-0.8,0.7-1.1c0.4-0.3,0.8-0.4,1.4-0.4s1.2,0.2,1.6,0.5s0.6,0.9,0.6,1.6v3.3
	L399.2,537.5L399.2,537.5z M397.9,535.4c-0.3,0.1-0.5,0.2-0.7,0.3c-0.1,0.1-0.1,0.2-0.1,0.4c0,0.4,0.3,0.5,0.8,0.5
	c0.4,0,0.7-0.1,0.9-0.2c0.2-0.2,0.3-0.3,0.3-0.6v-0.9l0,0c0,0.1-0.1,0.1-0.1,0.1s-0.1,0.1-0.3,0.1
	C398.5,535.2,398.3,535.3,397.9,535.4z M402.8,537.5l-2.1-5.2h1.3l1.3,3.4l0,0l1.3-3.4h1.3l-2.1,5.2H402.8z M410,535.7l0.9,0.8
	c-0.5,0.8-1.3,1.2-2.2,1.2c-0.7,0-1.3-0.3-1.8-0.7c-0.5-0.5-0.7-1.2-0.7-2s0.2-1.5,0.7-2s1-0.8,1.7-0.8s1.3,0.3,1.7,0.8
	c0.5,0.5,0.7,1.2,0.7,2v0.4h-3.5c0,0.4,0.1,0.7,0.3,0.9c0.2,0.2,0.5,0.3,0.8,0.3s0.5-0.1,0.7-0.2C409.6,536.2,409.8,536,410,535.7z
	 M407.5,534.3h2.3c0-0.3-0.1-0.6-0.3-0.8c-0.2-0.2-0.5-0.3-0.8-0.3s-0.6,0.1-0.8,0.3C407.7,533.8,407.5,534,407.5,534.3z"/>
<path class="st14" d="M409.3,343l-0.4-1.1h-2.6l-0.4,1.1h-1.3l2.5-6.9h1.1l2.5,6.9H409.3z M407.6,338.1l-0.9,2.7h1.9L407.6,338.1
	L407.6,338.1z M413.6,340.7l1.4-0.3c0.1,0.5,0.2,0.9,0.4,1.2c0.2,0.2,0.5,0.4,1,0.4c0.4,0,0.7-0.1,0.9-0.2c0.2-0.1,0.3-0.3,0.3-0.6
	c0-0.3-0.1-0.5-0.3-0.6c-0.2-0.2-0.7-0.3-1.5-0.6c-0.7-0.2-1.2-0.5-1.5-0.8s-0.4-0.7-0.4-1.2s0.2-1,0.6-1.4s1-0.6,1.7-0.6
	s1.2,0.2,1.7,0.5s0.8,0.8,0.9,1.4l-1.3,0.3c-0.2-0.7-0.6-1-1.3-1c-0.3,0-0.6,0.1-0.8,0.2c-0.2,0.1-0.2,0.3-0.2,0.5s0.1,0.4,0.3,0.5
	c0.2,0.1,0.7,0.3,1.5,0.6c0.8,0.3,1.3,0.5,1.6,0.9c0.3,0.3,0.4,0.7,0.4,1.2c0,0.6-0.2,1.1-0.7,1.5s-1.1,0.6-1.8,0.6
	c-0.8,0-1.4-0.2-1.9-0.6C413.9,342.1,413.7,341.5,413.6,340.7z M419.8,343v-7.2h1.3v2.5l0,0c0.1-0.2,0.3-0.3,0.5-0.5
	c0.2-0.1,0.5-0.2,0.7-0.2c0.6,0,1,0.2,1.3,0.5s0.5,0.8,0.5,1.4v3.5h-1.3v-3.2c0-0.3-0.1-0.5-0.2-0.7c-0.2-0.2-0.4-0.3-0.7-0.3
	c-0.3,0-0.5,0.1-0.7,0.3c-0.2,0.2-0.2,0.4-0.2,0.7v3.3L419.8,343L419.8,343z M426.8,341.6c0.2,0.3,0.5,0.4,0.9,0.4s0.7-0.1,0.9-0.4
	c0.2-0.3,0.3-0.7,0.3-1.2s-0.1-0.9-0.3-1.2c-0.2-0.3-0.5-0.4-0.9-0.4s-0.7,0.1-0.9,0.4c-0.2,0.3-0.3,0.7-0.3,1.2
	C426.4,340.9,426.5,341.3,426.8,341.6z M429.4,342.4c-0.5,0.5-1,0.7-1.8,0.7c-0.7,0-1.3-0.2-1.8-0.7s-0.7-1.2-0.7-2
	c0-0.9,0.2-1.5,0.7-2s1.1-0.7,1.7-0.7c0.7,0,1.3,0.2,1.7,0.7c0.5,0.5,0.7,1.2,0.7,2C430.1,341.3,429.8,341.9,429.4,342.4z
	 M431.1,343v-5.2h1.2v0.6l0,0c0.1-0.2,0.2-0.4,0.4-0.5c0.2-0.1,0.4-0.2,0.6-0.2s0.3,0,0.5,0.1l-0.2,1.2c-0.1-0.1-0.3-0.1-0.4-0.1
	c-0.6,0-0.9,0.4-0.9,1.2v2.9H431.1z M435.1,341.1v-2.3h-0.8v-1.1h0.8v-1.3h1.2v1.3h1.3v1.1h-1.3v2.2c0,0.3,0,0.5,0.1,0.6
	s0.3,0.2,0.6,0.2h0.4v1.2h-0.5c-0.7,0-1.2-0.1-1.4-0.4C435.2,342.3,435.1,341.8,435.1,341.1z"/>
<path class="st14" d="M385.4,315.7l1.4,0.3c-0.1,0.8-0.4,1.4-0.9,1.9s-1.1,0.7-1.9,0.7c-0.9,0-1.6-0.3-2.2-0.9s-0.8-1.5-0.8-2.8
	c0-1.1,0.3-1.9,0.9-2.6c0.6-0.6,1.3-0.9,2.1-0.9c0.7,0,1.3,0.2,1.8,0.7c0.5,0.4,0.8,1,0.9,1.8l-1.3,0.2c-0.1-0.4-0.2-0.8-0.4-1
	c-0.2-0.3-0.5-0.4-0.9-0.4c-0.5,0-0.8,0.2-1.2,0.6c-0.3,0.4-0.5,1-0.5,1.7c0,0.8,0.2,1.5,0.5,1.9s0.7,0.6,1.2,0.6
	C384.8,317.3,385.3,316.8,385.4,315.7z M387.8,316.5v-3.4h1.3v3.2c0,0.3,0.1,0.6,0.2,0.7s0.3,0.2,0.6,0.2c0.3,0,0.6-0.1,0.8-0.2
	c0.2-0.2,0.3-0.4,0.3-0.8v-3.1h1.3v5.2h-1.2v-0.5l0,0c-0.3,0.4-0.8,0.6-1.4,0.6s-1.1-0.2-1.4-0.5
	C387.9,317.6,387.8,317.2,387.8,316.5z M394.8,315.3v1c0,0.3,0.1,0.6,0.3,0.8c0.2,0.2,0.5,0.3,0.8,0.3c0.4,0,0.7-0.1,0.9-0.4
	c0.2-0.3,0.3-0.7,0.3-1.2s-0.1-0.9-0.3-1.2c-0.2-0.3-0.5-0.4-0.9-0.4c-0.3,0-0.6,0.1-0.8,0.3C394.9,314.7,394.8,315,394.8,315.3z
	 M393.5,318.4v-7.2h1.3v2.5l0,0c0,0,0,0,0-0.1c0,0,0.1-0.1,0.1-0.2c0.1-0.1,0.2-0.1,0.3-0.2c0.1-0.1,0.2-0.1,0.4-0.2
	c0.2,0,0.3-0.1,0.5-0.1c0.6,0,1.2,0.3,1.6,0.8s0.6,1.2,0.6,2s-0.2,1.5-0.6,2s-1,0.7-1.6,0.7c-0.3,0-0.5-0.1-0.8-0.2
	c-0.2-0.1-0.4-0.2-0.5-0.3l-0.1-0.2l0,0v0.5h-1.2V318.4z M400.7,315.3v1c0,0.3,0.1,0.6,0.3,0.8c0.2,0.2,0.5,0.3,0.8,0.3
	c0.4,0,0.7-0.1,0.9-0.4c0.2-0.3,0.3-0.7,0.3-1.2s-0.1-0.9-0.3-1.2c-0.2-0.3-0.5-0.4-0.9-0.4c-0.3,0-0.6,0.1-0.8,0.3
	C400.8,314.7,400.7,315,400.7,315.3z M399.5,318.4v-7.2h1.3v2.5l0,0c0,0,0,0,0-0.1c0,0,0.1-0.1,0.1-0.2c0.1-0.1,0.2-0.1,0.3-0.2
	c0.1-0.1,0.2-0.1,0.4-0.2c0.2,0,0.3-0.1,0.5-0.1c0.6,0,1.2,0.3,1.6,0.8s0.6,1.2,0.6,2s-0.2,1.5-0.6,2s-1,0.7-1.6,0.7
	c-0.3,0-0.5-0.1-0.8-0.2c-0.2-0.1-0.4-0.2-0.5-0.3l-0.1-0.2l0,0v0.5h-1.2V318.4z M405.6,320.6l1-2.5l-2.1-5h1.3l1.4,3.5l0,0l1.4-3.5
	h1.3l-3,7.4h-1.3V320.6z"/>
<path class="st14" d="M274.4,427.5v-6.9h1.3v5.7h2.9v1.2L274.4,427.5L274.4,427.5z M279.4,427.5v-5.2h1.3v5.2H279.4z M279.4,421.5
	v-1.2h1.3v1.2H279.4z M282.1,427.5v-5.2h1.2v0.5l0,0c0.1-0.2,0.3-0.3,0.6-0.5s0.5-0.2,0.8-0.2c0.6,0,1,0.2,1.4,0.5
	c0.3,0.3,0.5,0.8,0.5,1.4v3.4h-1.3v-3.1c0-0.4-0.1-0.6-0.2-0.8c-0.1-0.2-0.4-0.3-0.7-0.3c-0.3,0-0.6,0.1-0.7,0.3
	c-0.2,0.2-0.3,0.4-0.3,0.7v3.2h-1.3V427.5z M287.9,427.5v-7.2h1.3v4.1l0,0l1.9-2.2h1.6l-1.9,2.1l2.1,3.1h-1.4l-1.6-2.4l0,0l-0.7,0.8
	v1.6h-1.3V427.5z"/>
<path class="st14" d="M102.8,289.8c-0.9,0-1.6-0.3-2.2-0.9s-0.8-1.5-0.8-2.8c0-1.1,0.3-1.9,0.9-2.6c0.6-0.6,1.3-0.9,2.1-0.9
	c0.7,0,1.3,0.2,1.8,0.6s0.8,1,0.9,1.7l-1.3,0.2c-0.2-0.9-0.6-1.3-1.3-1.3c-0.5,0-0.8,0.2-1.2,0.6c-0.3,0.4-0.5,1-0.5,1.7
	c0,0.8,0.2,1.5,0.5,1.9s0.7,0.6,1.2,0.6c0.4,0,0.8-0.1,1-0.4c0.2-0.2,0.4-0.6,0.4-1H103V286h2.6v0.9c0,0.9-0.2,1.6-0.7,2.1
	C104.2,289.5,103.5,289.8,102.8,289.8z M109.5,289.6v-0.5l0,0c0,0,0,0,0,0.1l-0.1,0.1c-0.1,0.1-0.2,0.1-0.3,0.2
	c-0.1,0.1-0.2,0.1-0.4,0.2c-0.2,0-0.4,0.1-0.6,0.1c-0.6,0-1.1-0.1-1.4-0.4s-0.5-0.7-0.5-1.1c0-0.5,0.1-0.8,0.4-1s0.7-0.4,1.4-0.6
	c0.6-0.1,1-0.3,1.1-0.3c0.2-0.1,0.2-0.2,0.2-0.4c0-0.2-0.1-0.3-0.2-0.4s-0.4-0.2-0.7-0.2c-0.3,0-0.6,0.1-0.7,0.2
	c-0.2,0.2-0.3,0.4-0.4,0.6l-1.1-0.4c0.1-0.4,0.4-0.8,0.7-1.1c0.4-0.3,0.8-0.4,1.4-0.4s1.2,0.2,1.6,0.5s0.6,0.9,0.6,1.6v3.3h-1V289.6
	z M108.2,287.5c-0.3,0.1-0.5,0.2-0.7,0.3c-0.1,0.1-0.1,0.2-0.1,0.4c0,0.4,0.3,0.5,0.8,0.5c0.4,0,0.7-0.1,0.9-0.2
	c0.2-0.2,0.3-0.3,0.3-0.6V287l0,0c0,0.1-0.1,0.1-0.1,0.1s-0.1,0.1-0.3,0.1C108.7,287.3,108.5,287.4,108.2,287.5z M111.8,289.6v-5.2
	h1.2v0.6l0,0c0.1-0.2,0.2-0.4,0.4-0.5c0.2-0.1,0.4-0.2,0.6-0.2s0.3,0,0.5,0.1l-0.2,1.2c-0.1-0.1-0.3-0.1-0.4-0.1
	c-0.6,0-0.9,0.4-0.9,1.2v2.9H111.8z M118.7,287.5v-1c0-0.3-0.1-0.6-0.3-0.8c-0.2-0.2-0.5-0.3-0.8-0.3c-0.4,0-0.7,0.1-0.9,0.4
	c-0.2,0.3-0.3,0.7-0.3,1.2s0.1,0.9,0.3,1.2c0.2,0.3,0.5,0.4,0.9,0.4c0.3,0,0.6-0.1,0.8-0.3C118.6,288.1,118.7,287.8,118.7,287.5z
	 M118.8,289.6v-0.5l0,0c0,0-0.1,0.1-0.1,0.2c-0.1,0.1-0.2,0.2-0.5,0.3c-0.2,0.1-0.5,0.2-0.8,0.2c-0.7,0-1.2-0.3-1.7-0.8
	c-0.4-0.5-0.6-1.2-0.6-2s0.2-1.5,0.7-2c0.4-0.5,1-0.8,1.6-0.8c0.3,0,0.5,0.1,0.7,0.2s0.4,0.2,0.5,0.3l0.1,0.2l0,0v-2.5h1.3v7.2
	L118.8,289.6L118.8,289.6z M124.7,287.8l0.9,0.8c-0.5,0.8-1.3,1.2-2.2,1.2c-0.7,0-1.3-0.3-1.8-0.8s-0.7-1.2-0.7-2s0.2-1.5,0.7-2
	s1-0.8,1.7-0.8s1.3,0.3,1.7,0.8c0.5,0.5,0.7,1.2,0.7,2v0.4h-3.5c0,0.4,0.1,0.7,0.3,0.9c0.2,0.2,0.5,0.3,0.8,0.3s0.5-0.1,0.7-0.2
	C124.4,288.3,124.6,288.1,124.7,287.8z M122.3,286.5h2.3c0-0.3-0.1-0.6-0.3-0.8c-0.2-0.2-0.5-0.3-0.8-0.3s-0.6,0.1-0.8,0.3
	C122.4,285.9,122.3,286.2,122.3,286.5z M126.8,289.6v-5.2h1.2v0.5l0,0c0.1-0.2,0.3-0.3,0.6-0.5c0.3-0.1,0.5-0.2,0.8-0.2
	c0.6,0,1,0.2,1.4,0.5c0.3,0.3,0.5,0.8,0.5,1.4v3.4H130v-3.1c0-0.4-0.1-0.6-0.2-0.8c-0.1-0.2-0.4-0.3-0.7-0.3s-0.6,0.1-0.7,0.3
	c-0.2,0.2-0.3,0.4-0.3,0.7v3.2h-1.3V289.6z"/>
<path class="st14" d="M221.6,348.1v-6.9h2.9c0.6,0,1.1,0.2,1.5,0.5c0.4,0.4,0.6,0.8,0.6,1.3c0,0.6-0.3,1-0.8,1.3l0,0
	c0.3,0.1,0.5,0.3,0.7,0.6c0.2,0.3,0.3,0.6,0.3,1c0,0.7-0.2,1.2-0.6,1.6c-0.4,0.4-1.1,0.6-2,0.6H221.6z M222.9,346.9h1.6
	c0.6,0,0.9-0.3,0.9-0.9c0-0.3-0.1-0.5-0.3-0.7s-0.4-0.2-0.7-0.2h-1.6v1.8H222.9z M222.9,344h1.4c0.3,0,0.5-0.1,0.6-0.2
	c0.2-0.1,0.2-0.3,0.2-0.6c0-0.3-0.1-0.5-0.2-0.6c-0.2-0.1-0.4-0.2-0.6-0.2h-1.4V344z M230,345.8l1.4-0.3c0.1,0.5,0.2,0.9,0.4,1.2
	c0.2,0.2,0.5,0.4,1,0.4c0.4,0,0.7-0.1,0.9-0.2s0.3-0.3,0.3-0.6c0-0.3-0.1-0.5-0.3-0.6c-0.2-0.2-0.7-0.3-1.5-0.6
	c-0.7-0.2-1.2-0.5-1.5-0.8s-0.4-0.7-0.4-1.2s0.2-1,0.6-1.4c0.4-0.4,1-0.6,1.7-0.6s1.2,0.2,1.7,0.5s0.8,0.8,0.9,1.4l-1.3,0.3
	c-0.2-0.6-0.6-1-1.3-1c-0.3,0-0.6,0.1-0.8,0.2s-0.2,0.3-0.2,0.5s0.1,0.4,0.3,0.5s0.7,0.3,1.5,0.6c0.8,0.3,1.3,0.5,1.6,0.9
	c0.3,0.3,0.4,0.7,0.4,1.2c0,0.6-0.2,1.1-0.7,1.5s-1.1,0.6-1.8,0.6c-0.8,0-1.4-0.2-1.9-0.6C230.4,347.3,230.1,346.6,230,345.8z
	 M236.3,348.1v-7.2h1.3v2.5l0,0c0.1-0.2,0.3-0.3,0.5-0.5c0.2-0.1,0.5-0.2,0.7-0.2c0.6,0,1,0.2,1.3,0.5s0.5,0.8,0.5,1.4v3.5h-1.3
	v-3.2c0-0.3-0.1-0.5-0.2-0.7c-0.2-0.2-0.4-0.3-0.7-0.3s-0.5,0.1-0.7,0.3c-0.2,0.2-0.2,0.4-0.2,0.7v3.3L236.3,348.1L236.3,348.1z
	 M243.2,346.7c0.2,0.3,0.5,0.4,0.9,0.4s0.7-0.1,0.9-0.4s0.3-0.7,0.3-1.2s-0.1-0.9-0.3-1.2c-0.2-0.3-0.5-0.4-0.9-0.4
	s-0.7,0.1-0.9,0.4s-0.3,0.7-0.3,1.2S243,346.4,243.2,346.7z M245.9,347.6c-0.5,0.5-1,0.7-1.8,0.7c-0.7,0-1.3-0.2-1.8-0.7
	s-0.7-1.2-0.7-2c0-0.9,0.2-1.5,0.7-2s1.1-0.7,1.7-0.7c0.7,0,1.3,0.2,1.7,0.7c0.5,0.5,0.7,1.2,0.7,2
	C246.5,346.4,246.3,347.1,245.9,347.6z M247.6,348.1v-5.2h1.2v0.6l0,0c0.1-0.2,0.2-0.4,0.4-0.5s0.4-0.2,0.6-0.2c0.2,0,0.3,0,0.5,0.1
	l-0.2,1.2c-0.1-0.1-0.3-0.1-0.4-0.1c-0.6,0-0.9,0.4-0.9,1.2v2.9H247.6z M251.6,346.3V344h-0.8v-1.1h0.8v-1.3h1.2v1.3h1.3v1.1h-1.3
	v2.2c0,0.3,0,0.5,0.1,0.6s0.3,0.2,0.6,0.2h0.4v1.2h-0.5c-0.7,0-1.2-0.1-1.4-0.4C251.7,347.4,251.6,346.9,251.6,346.3z"/>
<path class="st14" d="M481.9,113v-5.7h-2v-1.2h5.4v1.2h-2v5.7H481.9z M486.5,111.6c0.2,0.3,0.5,0.4,0.9,0.4s0.7-0.1,0.9-0.4
	c0.2-0.3,0.3-0.7,0.3-1.2s-0.1-0.9-0.3-1.2c-0.2-0.3-0.5-0.4-0.9-0.4s-0.7,0.1-0.9,0.4c-0.2,0.3-0.3,0.7-0.3,1.2
	C486.1,110.9,486.3,111.3,486.5,111.6z M489.1,112.4c-0.5,0.5-1,0.7-1.8,0.7c-0.7,0-1.3-0.2-1.8-0.7s-0.7-1.2-0.7-2
	c0-0.9,0.2-1.5,0.7-2s1.1-0.7,1.7-0.7c0.7,0,1.3,0.2,1.7,0.7c0.5,0.5,0.7,1.2,0.7,2C489.8,111.3,489.5,111.9,489.1,112.4z
	 M491.6,113l-1.2-5.2h1.3l0.7,3.5l0,0l1.2-3.5h1.2l1.1,3.5l0,0l0.8-3.5h1.2l-1.3,5.2h-1.3l-1.2-3.8l0,0l-1.3,3.8H491.6z
	 M502.1,111.2l0.9,0.8c-0.5,0.8-1.3,1.2-2.2,1.2c-0.7,0-1.3-0.3-1.8-0.7c-0.5-0.5-0.7-1.2-0.7-2s0.2-1.5,0.7-2s1-0.8,1.7-0.8
	s1.3,0.3,1.7,0.8c0.5,0.5,0.7,1.2,0.7,2v0.4h-3.5c0,0.4,0.1,0.7,0.3,0.9c0.2,0.2,0.5,0.3,0.8,0.3s0.5-0.1,0.7-0.2
	C501.8,111.6,501.9,111.4,502.1,111.2z M499.7,109.8h2.3c0-0.3-0.1-0.6-0.3-0.8c-0.2-0.2-0.5-0.3-0.8-0.3s-0.6,0.1-0.8,0.3
	C499.8,109.3,499.7,109.5,499.7,109.8z M504.2,113v-5.2h1.2v0.6l0,0c0.1-0.2,0.2-0.4,0.4-0.5c0.2-0.1,0.4-0.2,0.6-0.2s0.3,0,0.5,0.1
	l-0.2,1.2c-0.1-0.1-0.3-0.1-0.4-0.1c-0.6,0-0.9,0.4-0.9,1.2v2.9H504.2z M509.7,113.1l3.5-7.5l0.8,0.4l-3.5,7.5L509.7,113.1z
	 M517.3,113v-6.9h1.3v2.8h2.4v-2.8h1.3v6.9H521v-3h-2.4v3H517.3z M527.2,111.2l0.9,0.8c-0.5,0.8-1.3,1.2-2.2,1.2
	c-0.7,0-1.3-0.3-1.8-0.7c-0.5-0.5-0.7-1.2-0.7-2s0.2-1.5,0.7-2s1-0.8,1.7-0.8s1.3,0.3,1.7,0.8c0.5,0.5,0.7,1.2,0.7,2v0.4h-3.5
	c0,0.4,0.1,0.7,0.3,0.9c0.2,0.2,0.5,0.3,0.8,0.3s0.5-0.1,0.7-0.2C526.9,111.6,527,111.4,527.2,111.2z M524.8,109.8h2.3
	c0-0.3-0.1-0.6-0.3-0.8c-0.2-0.2-0.5-0.3-0.8-0.3s-0.6,0.1-0.8,0.3C524.9,109.3,524.8,109.5,524.8,109.8z M532.3,113v-0.5l0,0
	c0,0,0,0,0,0.1l-0.1,0.1c-0.1,0.1-0.2,0.1-0.3,0.2s-0.2,0.1-0.4,0.2c-0.2,0-0.4,0.1-0.6,0.1c-0.6,0-1.1-0.1-1.4-0.4
	c-0.3-0.3-0.5-0.7-0.5-1.1c0-0.5,0.1-0.8,0.4-1c0.3-0.2,0.7-0.4,1.4-0.6c0.6-0.1,1-0.3,1.1-0.3c0.2-0.1,0.2-0.2,0.2-0.4
	s-0.1-0.3-0.2-0.4c-0.1-0.1-0.4-0.2-0.7-0.2s-0.6,0.1-0.7,0.2c-0.2,0.2-0.3,0.4-0.4,0.6l-1.1-0.4c0.1-0.4,0.4-0.8,0.7-1.1
	c0.4-0.3,0.8-0.4,1.4-0.4c0.6,0,1.2,0.2,1.6,0.5c0.4,0.3,0.6,0.9,0.6,1.6v3.3L532.3,113L532.3,113z M531,110.9
	c-0.3,0.1-0.5,0.2-0.7,0.3c-0.1,0.1-0.1,0.2-0.1,0.4c0,0.4,0.3,0.5,0.8,0.5c0.4,0,0.7-0.1,0.9-0.2c0.2-0.2,0.3-0.3,0.3-0.6v-0.9l0,0
	c0,0.1-0.1,0.1-0.1,0.1s-0.1,0.1-0.3,0.1C531.6,110.7,531.3,110.8,531,110.9z M535.9,113l-2.1-5.2h1.3l1.3,3.4l0,0l1.3-3.4h1.3
	l-2.1,5.2H535.9z M543,111.2l0.9,0.8c-0.5,0.8-1.3,1.2-2.2,1.2c-0.7,0-1.3-0.3-1.8-0.7c-0.5-0.5-0.7-1.2-0.7-2s0.2-1.5,0.7-2
	s1-0.8,1.7-0.8s1.3,0.3,1.7,0.8c0.5,0.5,0.7,1.2,0.7,2v0.4h-3.5c0,0.4,0.1,0.7,0.3,0.9c0.2,0.2,0.5,0.3,0.8,0.3s0.5-0.1,0.7-0.2
	C542.7,111.6,542.8,111.4,543,111.2z M540.6,109.8h2.3c0-0.3-0.1-0.6-0.3-0.8c-0.2-0.2-0.5-0.3-0.8-0.3s-0.6,0.1-0.8,0.3
	C540.7,109.3,540.6,109.5,540.6,109.8z M545.1,113v-5.2h1.2v0.5l0,0c0.1-0.2,0.3-0.3,0.6-0.5c0.2-0.1,0.5-0.2,0.8-0.2
	c0.6,0,1,0.2,1.4,0.5c0.3,0.3,0.5,0.8,0.5,1.4v3.4h-1.3v-3.1c0-0.4-0.1-0.6-0.2-0.8c-0.1-0.2-0.4-0.3-0.7-0.3s-0.6,0.1-0.7,0.3
	c-0.2,0.2-0.3,0.4-0.3,0.7v3.2L545.1,113L545.1,113z"/>
<path class="st14" d="M33.5,295.6v-6.9h2.9c0.6,0,1.1,0.2,1.5,0.5c0.4,0.4,0.6,0.8,0.6,1.3c0,0.6-0.2,1-0.7,1.3l0,0
	c0.3,0.1,0.5,0.3,0.7,0.6c0.2,0.3,0.3,0.6,0.3,1c0,0.7-0.2,1.2-0.6,1.6c-0.4,0.4-1.1,0.6-2,0.6H33.5z M34.9,294.4h1.6
	c0.6,0,0.9-0.3,0.9-0.9c0-0.3-0.1-0.5-0.3-0.7s-0.4-0.2-0.7-0.2h-1.6L34.9,294.4L34.9,294.4z M34.9,291.5h1.4c0.3,0,0.5-0.1,0.6-0.2
	c0.2-0.1,0.2-0.3,0.2-0.6c0-0.3-0.1-0.5-0.2-0.6c-0.2-0.1-0.4-0.2-0.6-0.2h-1.4V291.5z M42.4,295.6v-6.9h2.8c0.7,0,1.3,0.2,1.7,0.6
	s0.7,0.9,0.7,1.6s-0.2,1.2-0.6,1.6c-0.4,0.4-1,0.6-1.7,0.6h-1.5v2.5L42.4,295.6L42.4,295.6z M43.7,291.8h1.4c0.3,0,0.5-0.1,0.7-0.3
	c0.2-0.2,0.3-0.4,0.3-0.7c0-0.3-0.1-0.6-0.3-0.7c-0.2-0.2-0.4-0.2-0.7-0.2h-1.4V291.8z M49.6,294.2c0.2,0.3,0.5,0.4,0.9,0.4
	s0.7-0.1,0.9-0.4s0.3-0.7,0.3-1.2s-0.1-0.9-0.3-1.2c-0.2-0.3-0.5-0.4-0.9-0.4s-0.7,0.1-0.9,0.4s-0.3,0.7-0.3,1.2
	C49.2,293.5,49.4,293.9,49.6,294.2z M52.2,295c-0.5,0.5-1,0.7-1.8,0.7s-1.3-0.2-1.8-0.7s-0.7-1.2-0.7-2c0-0.9,0.2-1.5,0.7-2
	s1.1-0.7,1.7-0.7c0.7,0,1.3,0.2,1.7,0.7c0.5,0.5,0.7,1.2,0.7,2C52.9,293.8,52.6,294.5,52.2,295z M53.9,295.6v-5.2h1.2v0.6l0,0
	c0.1-0.2,0.2-0.4,0.4-0.5s0.4-0.2,0.6-0.2c0.2,0,0.3,0,0.5,0.1l-0.2,1.2c-0.1-0.1-0.3-0.1-0.4-0.1c-0.6,0-0.9,0.4-0.9,1.2v2.9H53.9z
	 M57.9,293.7v-2.3h-0.8v-1.1h0.8V289h1.2v1.3h1.3v1.1h-1.3v2.2c0,0.3,0,0.5,0.1,0.6s0.3,0.2,0.6,0.2h0.4v1.2h-0.5
	c-0.7,0-1.2-0.1-1.4-0.4C58,294.8,57.9,294.4,57.9,293.7z"/>
<path class="st14" d="M649.6,411v-6.9h2.9c0.6,0,1.1,0.2,1.5,0.5c0.4,0.4,0.6,0.8,0.6,1.3c0,0.6-0.3,1-0.7,1.3l0,0
	c0.3,0.1,0.5,0.3,0.7,0.6c0.2,0.3,0.3,0.6,0.3,1c0,0.7-0.2,1.2-0.6,1.6c-0.4,0.4-1.1,0.6-2,0.6H649.6z M651,409.8h1.6
	c0.6,0,0.9-0.3,0.9-0.9c0-0.3-0.1-0.5-0.3-0.7s-0.4-0.2-0.7-0.2H651V409.8z M651,406.9h1.4c0.3,0,0.5-0.1,0.6-0.2
	c0.2-0.1,0.2-0.3,0.2-0.6c0-0.3-0.1-0.5-0.2-0.6c-0.2-0.1-0.4-0.2-0.6-0.2H651V406.9z M658.5,411v-6.9h2.8c0.7,0,1.3,0.2,1.7,0.6
	s0.7,0.9,0.7,1.6s-0.2,1.2-0.6,1.6c-0.4,0.4-1,0.6-1.7,0.6h-1.5v2.5L658.5,411L658.5,411z M659.8,407.3h1.4c0.3,0,0.5-0.1,0.7-0.3
	c0.2-0.2,0.3-0.4,0.3-0.7c0-0.3-0.1-0.6-0.3-0.7c-0.2-0.2-0.4-0.2-0.7-0.2h-1.4V407.3z M665.6,409.6c0.2,0.3,0.5,0.4,0.9,0.4
	s0.7-0.1,0.9-0.4s0.3-0.7,0.3-1.2s-0.1-0.9-0.3-1.2c-0.2-0.3-0.5-0.4-0.9-0.4s-0.7,0.1-0.9,0.4s-0.3,0.7-0.3,1.2
	S665.4,409.3,665.6,409.6z M668.3,410.4c-0.5,0.5-1,0.7-1.8,0.7c-0.7,0-1.3-0.2-1.8-0.7s-0.7-1.2-0.7-2c0-0.9,0.2-1.5,0.7-2
	s1.1-0.7,1.7-0.7c0.7,0,1.3,0.2,1.7,0.7c0.5,0.5,0.7,1.2,0.7,2C669,409.3,668.7,409.9,668.3,410.4z M670,411v-5.2h1.2v0.6l0,0
	c0.1-0.2,0.2-0.4,0.4-0.5s0.4-0.2,0.6-0.2c0.2,0,0.3,0,0.5,0.1l-0.2,1.2c-0.1-0.1-0.3-0.1-0.4-0.1c-0.6,0-0.9,0.4-0.9,1.2v2.9H670z
	 M674,409.1v-2.3h-0.8v-1.1h0.8v-1.3h1.2v1.3h1.3v1.1h-1.3v2.2c0,0.3,0,0.5,0.1,0.6s0.3,0.2,0.6,0.2h0.4v1.2h-0.5
	c-0.7,0-1.2-0.1-1.5-0.4C674.1,410.3,674,409.8,674,409.1z M654.8,426v-6.9h4.4v1.2h-3v1.5h2.8v1.2h-2.8v1.7h3v1.2L654.8,426
	L654.8,426z M659.8,426l1.8-2.7l-1.7-2.5h1.3l1.2,1.8l0,0l1.2-1.8h1.3l-1.7,2.5l1.8,2.7h-1.4l-1.2-1.9l0,0l-1.2,1.9H659.8z
	 M665.9,426v-5.2h1.3v5.2H665.9z M665.9,420v-1.2h1.3v1.2H665.9z M668.8,424.1v-2.3H668v-1.1h0.8v-1.3h1.2v1.3h1.3v1.1H670v2.2
	c0,0.3,0,0.5,0.1,0.6s0.3,0.2,0.6,0.2h0.4v1.2h-0.5c-0.7,0-1.2-0.1-1.4-0.4C668.9,425.3,668.8,424.8,668.8,424.1z"/>
<path class="st14" d="M413.7,274l-0.4-1.1h-2.6l-0.4,1.1H409l2.5-6.9h1.1l2.5,6.9H413.7z M412,269.1l-0.9,2.7h1.9L412,269.1
	L412,269.1z M418.4,274v-6.9h2.8c0.7,0,1.3,0.2,1.7,0.6c0.4,0.4,0.7,0.9,0.7,1.6s-0.2,1.2-0.6,1.6s-1,0.6-1.7,0.6h-1.5v2.5
	L418.4,274L418.4,274z M419.7,270.3h1.4c0.3,0,0.5-0.1,0.7-0.3c0.2-0.2,0.3-0.4,0.3-0.7c0-0.3-0.1-0.6-0.3-0.7
	c-0.2-0.2-0.4-0.2-0.7-0.2h-1.4V270.3z M425.6,272.6c0.2,0.3,0.5,0.4,0.9,0.4s0.7-0.1,0.9-0.4c0.2-0.3,0.3-0.7,0.3-1.2
	s-0.1-0.9-0.3-1.2c-0.2-0.3-0.5-0.4-0.9-0.4s-0.7,0.1-0.9,0.4c-0.2,0.3-0.3,0.7-0.3,1.2C425.2,271.9,425.3,272.3,425.6,272.6z
	 M428.2,273.4c-0.5,0.5-1,0.7-1.8,0.7s-1.3-0.2-1.8-0.7s-0.7-1.2-0.7-2c0-0.9,0.2-1.5,0.7-2s1.1-0.7,1.7-0.7c0.7,0,1.3,0.2,1.7,0.7
	c0.5,0.5,0.7,1.2,0.7,2C428.9,272.3,428.6,272.9,428.2,273.4z M429.9,274v-5.2h1.2v0.6l0,0c0.1-0.2,0.2-0.4,0.4-0.5
	c0.2-0.1,0.4-0.2,0.6-0.2s0.3,0,0.5,0.1l-0.2,1.2c-0.1-0.1-0.3-0.1-0.4-0.1c-0.6,0-0.9,0.4-0.9,1.2v2.9H429.9z M433.9,272.1v-2.3
	h-0.8v-1.1h0.8v-1.3h1.2v1.3h1.3v1.1h-1.3v2.2c0,0.3,0,0.5,0.1,0.6s0.3,0.2,0.6,0.2h0.4v1.2h-0.5c-0.7,0-1.2-0.1-1.4-0.4
	C434,273.3,433.9,272.8,433.9,272.1z"/>
<path class="st14" d="M308.7,262l-0.4-1.1h-2.6l-0.4,1.1H304l2.5-6.9h1.1l2.5,6.9H308.7z M307,257.1l-0.9,2.7h1.9L307,257.1
	L307,257.1z M313.4,262v-6.9h2.8c0.7,0,1.3,0.2,1.7,0.6c0.4,0.4,0.7,0.9,0.7,1.6s-0.2,1.2-0.6,1.6s-1,0.6-1.7,0.6h-1.5v2.5
	L313.4,262L313.4,262z M314.7,258.3h1.4c0.3,0,0.5-0.1,0.7-0.3c0.2-0.2,0.3-0.4,0.3-0.7c0-0.3-0.1-0.6-0.3-0.7
	c-0.2-0.2-0.4-0.2-0.7-0.2h-1.4V258.3z M320.6,260.6c0.2,0.3,0.5,0.4,0.9,0.4s0.7-0.1,0.9-0.4c0.2-0.3,0.3-0.7,0.3-1.2
	s-0.1-0.9-0.3-1.2c-0.2-0.3-0.5-0.4-0.9-0.4s-0.7,0.1-0.9,0.4c-0.2,0.3-0.3,0.7-0.3,1.2C320.2,259.9,320.3,260.3,320.6,260.6z
	 M323.2,261.4c-0.5,0.5-1,0.7-1.8,0.7s-1.3-0.2-1.8-0.7s-0.7-1.2-0.7-2c0-0.9,0.2-1.5,0.7-2s1.1-0.7,1.7-0.7c0.7,0,1.3,0.2,1.7,0.7
	c0.5,0.5,0.7,1.2,0.7,2C323.9,260.3,323.6,260.9,323.2,261.4z M324.9,262v-5.2h1.2v0.6l0,0c0.1-0.2,0.2-0.4,0.4-0.5
	c0.2-0.1,0.4-0.2,0.6-0.2s0.3,0,0.5,0.1l-0.2,1.2c-0.1-0.1-0.3-0.1-0.4-0.1c-0.6,0-0.9,0.4-0.9,1.2v2.9H324.9z M328.9,260.1v-2.3
	h-0.8v-1.1h0.8v-1.3h1.2v1.3h1.3v1.1h-1.3v2.2c0,0.3,0,0.5,0.1,0.6s0.3,0.2,0.6,0.2h0.4v1.2h-0.5c-0.7,0-1.2-0.1-1.4-0.4
	C329,261.3,328.9,260.8,328.9,260.1z M309.8,277v-6.9h4.4v1.2h-3v1.5h2.8v1.2h-2.8v1.7h3v1.2L309.8,277L309.8,277z M314.8,277
	l1.8-2.7l-1.7-2.5h1.3l1.2,1.8l0,0l1.2-1.8h1.3l-1.7,2.5l1.8,2.7h-1.4l-1.2-1.9l0,0l-1.2,1.9H314.8z M320.9,277v-5.2h1.3v5.2H320.9z
	 M320.9,271v-1.2h1.3v1.2H320.9z M323.8,275.1v-2.3H323v-1.1h0.8v-1.3h1.2v1.3h1.3v1.1H325v2.2c0,0.3,0,0.5,0.1,0.6s0.3,0.2,0.6,0.2
	h0.4v1.2h-0.5c-0.7,0-1.2-0.1-1.4-0.4C323.9,276.3,323.8,275.8,323.8,275.1z"/>
<path class="st14" d="M110.6,473.1v-6.9h2.9c0.6,0,1.1,0.2,1.5,0.5c0.4,0.4,0.6,0.8,0.6,1.3c0,0.6-0.3,1-0.8,1.3l0,0
	c0.3,0.1,0.5,0.3,0.7,0.6c0.2,0.3,0.3,0.6,0.3,1c0,0.7-0.2,1.2-0.6,1.6s-1.1,0.6-2,0.6H110.6z M111.9,471.8h1.6
	c0.6,0,0.9-0.3,0.9-0.9c0-0.3-0.1-0.5-0.3-0.7c-0.2-0.2-0.4-0.2-0.7-0.2h-1.6L111.9,471.8L111.9,471.8z M111.9,469h1.4
	c0.3,0,0.5-0.1,0.6-0.2c0.2-0.1,0.2-0.3,0.2-0.6c0-0.3-0.1-0.5-0.2-0.6c-0.2-0.1-0.4-0.2-0.6-0.2h-1.4V469z M119.4,473.1v-6.9h1.3
	v5.7h2.8v1.2L119.4,473.1L119.4,473.1z M125.7,471.7c0.2,0.3,0.5,0.4,0.9,0.4s0.7-0.1,0.9-0.4c0.2-0.3,0.3-0.7,0.3-1.2
	s-0.1-0.9-0.3-1.2c-0.2-0.3-0.5-0.4-0.9-0.4s-0.7,0.1-0.9,0.4c-0.2,0.3-0.3,0.7-0.3,1.2C125.3,471,125.5,471.4,125.7,471.7z
	 M128.3,472.5c-0.5,0.5-1,0.7-1.8,0.7s-1.3-0.2-1.8-0.7s-0.7-1.2-0.7-2c0-0.9,0.2-1.5,0.7-2s1.1-0.7,1.7-0.7c0.7,0,1.3,0.2,1.7,0.7
	c0.5,0.5,0.7,1.2,0.7,2C129,471.3,128.7,472,128.3,472.5z M131.3,470v1c0,0.3,0.1,0.6,0.3,0.8c0.2,0.2,0.5,0.3,0.8,0.3
	c0.4,0,0.7-0.1,0.9-0.4s0.3-0.7,0.3-1.2s-0.1-0.9-0.3-1.2c-0.2-0.3-0.5-0.4-0.9-0.4c-0.3,0-0.6,0.1-0.8,0.3
	C131.4,469.4,131.3,469.7,131.3,470z M130,473.1v-7.2h1.3v2.5l0,0c0,0,0,0,0-0.1c0,0,0.1-0.1,0.1-0.2c0.1-0.1,0.2-0.1,0.3-0.2
	s0.2-0.1,0.4-0.2c0.2,0,0.3-0.1,0.5-0.1c0.6,0,1.2,0.3,1.6,0.8c0.4,0.5,0.6,1.2,0.6,2s-0.2,1.5-0.6,2c-0.4,0.5-1,0.7-1.6,0.7
	c-0.3,0-0.5-0.1-0.8-0.2c-0.2-0.1-0.4-0.2-0.5-0.3l-0.1-0.2l0,0v0.5H130V473.1z M137.2,470v1c0,0.3,0.1,0.6,0.3,0.8
	c0.2,0.2,0.5,0.3,0.8,0.3c0.4,0,0.7-0.1,0.9-0.4s0.3-0.7,0.3-1.2s-0.1-0.9-0.3-1.2c-0.2-0.3-0.5-0.4-0.9-0.4c-0.3,0-0.6,0.1-0.8,0.3
	C137.3,469.4,137.2,469.7,137.2,470z M135.9,473.1v-7.2h1.3v2.5l0,0c0,0,0,0,0-0.1c0,0,0.1-0.1,0.1-0.2c0.1-0.1,0.2-0.1,0.3-0.2
	s0.2-0.1,0.4-0.2c0.2,0,0.3-0.1,0.5-0.1c0.6,0,1.2,0.3,1.6,0.8c0.4,0.5,0.6,1.2,0.6,2s-0.2,1.5-0.6,2c-0.4,0.5-1,0.7-1.6,0.7
	c-0.3,0-0.5-0.1-0.8-0.2c-0.2-0.1-0.4-0.2-0.5-0.3l-0.1-0.2l0,0v0.5h-1.2V473.1z M142,475.3l1-2.5l-2.1-5h1.3l1.4,3.5l0,0l1.4-3.5
	h1.3l-3,7.4H142V475.3z"/>
<path class="st14" d="M58.6,348.1v-6.9h2.9c0.6,0,1.1,0.2,1.5,0.5c0.4,0.4,0.6,0.8,0.6,1.3c0,0.6-0.2,1-0.7,1.3l0,0
	c0.3,0.1,0.5,0.3,0.7,0.6c0.2,0.3,0.3,0.6,0.3,1c0,0.7-0.2,1.2-0.6,1.6c-0.4,0.4-1.1,0.6-2,0.6H58.6z M60,346.9h1.6
	c0.6,0,0.9-0.3,0.9-0.9c0-0.3-0.1-0.5-0.3-0.7s-0.4-0.2-0.7-0.2H60V346.9z M60,344h1.4c0.3,0,0.5-0.1,0.6-0.2
	c0.2-0.1,0.2-0.3,0.2-0.6c0-0.3-0.1-0.5-0.2-0.6c-0.2-0.1-0.4-0.2-0.6-0.2H60V344z M67.5,348.1v-6.9h1.3v5.7h2.8v1.2L67.5,348.1
	L67.5,348.1z M73.8,346.7c0.2,0.3,0.5,0.4,0.9,0.4s0.7-0.1,0.9-0.4c0.2-0.3,0.3-0.7,0.3-1.2s-0.1-0.9-0.3-1.2
	c-0.2-0.3-0.5-0.4-0.9-0.4s-0.7,0.1-0.9,0.4c-0.2,0.3-0.3,0.7-0.3,1.2C73.4,346,73.6,346.4,73.8,346.7z M76.4,347.6
	c-0.5,0.5-1,0.7-1.8,0.7c-0.7,0-1.3-0.2-1.8-0.7s-0.7-1.2-0.7-2c0-0.9,0.2-1.5,0.7-2s1.1-0.7,1.7-0.7c0.7,0,1.3,0.2,1.7,0.7
	c0.5,0.5,0.7,1.2,0.7,2C77.1,346.4,76.8,347.1,76.4,347.6z M78.1,348.1v-5.2h1.2v0.5l0,0c0.1-0.2,0.3-0.3,0.6-0.5s0.5-0.2,0.8-0.2
	c0.6,0,1,0.2,1.4,0.5c0.3,0.3,0.5,0.8,0.5,1.4v3.4h-1.3v-3c0-0.4-0.1-0.6-0.2-0.8c-0.1-0.2-0.4-0.3-0.7-0.3c-0.3,0-0.6,0.1-0.7,0.3
	c-0.2,0.2-0.3,0.4-0.3,0.7v3.2L78.1,348.1L78.1,348.1z M87.3,346.1V345c0-0.3-0.1-0.5-0.3-0.7c-0.2-0.2-0.5-0.3-0.8-0.3
	c-0.4,0-0.7,0.1-0.9,0.4c-0.2,0.3-0.4,0.7-0.4,1.2s0.1,0.9,0.4,1.2c0.2,0.3,0.6,0.4,0.9,0.4s0.6-0.1,0.8-0.3
	C87.2,346.6,87.3,346.4,87.3,346.1z M84,349.2l1-0.7c0.2,0.3,0.3,0.5,0.5,0.6s0.4,0.2,0.7,0.2c0.3,0,0.6-0.1,0.8-0.3
	c0.2-0.2,0.3-0.4,0.3-0.8v-0.7l0,0c-0.1,0.2-0.3,0.3-0.5,0.5c-0.2,0.1-0.5,0.2-0.8,0.2c-0.7,0-1.2-0.2-1.7-0.7s-0.7-1.2-0.7-2
	s0.2-1.5,0.7-2s1-0.7,1.6-0.7s1.1,0.2,1.4,0.7l0,0V343h1.2v5.2c0,0.8-0.2,1.3-0.7,1.8c-0.4,0.4-1,0.6-1.7,0.6c-0.5,0-1-0.1-1.4-0.4
	C84.4,349.9,84.1,349.6,84,349.2z"/>
<path class="st14" d="M157.2,321v-6.9h1.3v2.8h2.4v-2.8h1.3v6.9h-1.3v-3h-2.4v3H157.2z M164.9,319.6c0.2,0.3,0.5,0.4,0.9,0.4
	s0.7-0.1,0.9-0.4s0.3-0.7,0.3-1.2s-0.1-0.9-0.3-1.2c-0.2-0.3-0.5-0.4-0.9-0.4s-0.7,0.1-0.9,0.4s-0.3,0.7-0.3,1.2
	C164.6,318.9,164.7,319.3,164.9,319.6z M167.6,320.4c-0.5,0.5-1,0.7-1.8,0.7c-0.7,0-1.3-0.2-1.8-0.7s-0.7-1.2-0.7-2
	c0-0.9,0.2-1.5,0.7-2s1.1-0.7,1.7-0.7c0.7,0,1.3,0.2,1.7,0.7c0.5,0.5,0.7,1.2,0.7,2C168.3,319.3,168,319.9,167.6,320.4z
	 M170.5,319.6c0.2,0.3,0.5,0.4,0.9,0.4s0.7-0.1,0.9-0.4s0.3-0.7,0.3-1.2s-0.1-0.9-0.3-1.2c-0.2-0.3-0.5-0.4-0.9-0.4
	s-0.7,0.1-0.9,0.4s-0.3,0.7-0.3,1.2S170.3,319.3,170.5,319.6z M173.2,320.4c-0.5,0.5-1,0.7-1.8,0.7c-0.7,0-1.3-0.2-1.8-0.7
	s-0.7-1.2-0.7-2c0-0.9,0.2-1.5,0.7-2s1.1-0.7,1.7-0.7c0.7,0,1.3,0.2,1.7,0.7c0.5,0.5,0.7,1.2,0.7,2
	C173.8,319.3,173.6,319.9,173.2,320.4z M174.9,321v-7.2h1.3v4.1l0,0l1.9-2.2h1.6l-1.9,2.1l2.1,3.1h-1.4l-1.6-2.4l0,0l-0.7,0.7v1.6
	h-1.3V321z M183.5,321v-0.5l0,0c0,0,0,0,0,0.1l-0.1,0.1c-0.1,0.1-0.2,0.1-0.3,0.2s-0.2,0.1-0.4,0.2c-0.2,0-0.4,0.1-0.6,0.1
	c-0.6,0-1.1-0.1-1.4-0.4c-0.3-0.3-0.5-0.7-0.5-1.1c0-0.5,0.1-0.8,0.4-1c0.3-0.2,0.7-0.4,1.4-0.6c0.6-0.1,1-0.3,1.1-0.3
	c0.2-0.1,0.2-0.2,0.2-0.4s-0.1-0.3-0.2-0.4c-0.1-0.1-0.4-0.2-0.7-0.2s-0.6,0.1-0.7,0.2c-0.2,0.2-0.3,0.4-0.4,0.6l-1.1-0.4
	c0.1-0.4,0.4-0.8,0.7-1.1c0.4-0.3,0.8-0.4,1.4-0.4c0.6,0,1.2,0.2,1.6,0.5c0.4,0.3,0.6,0.9,0.6,1.6v3.3h-1V321z M182.2,318.9
	c-0.3,0.1-0.5,0.2-0.7,0.3c-0.1,0.1-0.1,0.2-0.1,0.4c0,0.4,0.3,0.5,0.8,0.5c0.4,0,0.7-0.1,0.9-0.2c0.2-0.2,0.3-0.3,0.3-0.6v-0.9l0,0
	c0,0.1-0.1,0.1-0.1,0.1s-0.1,0.1-0.3,0.1C182.8,318.7,182.6,318.8,182.2,318.9z M185.9,321v-7.2h1.3v2.5l0,0
	c0.1-0.2,0.3-0.3,0.5-0.5c0.2-0.1,0.5-0.2,0.8-0.2c0.6,0,1,0.2,1.3,0.5s0.5,0.8,0.5,1.4v3.5H189v-3.2c0-0.3-0.1-0.5-0.2-0.7
	c-0.2-0.2-0.4-0.3-0.7-0.3s-0.5,0.1-0.7,0.3c-0.2,0.2-0.2,0.4-0.2,0.7v3.3L185.9,321L185.9,321z"/>
<path class="st14" d="M156.9,255l-1.3-6.9h1.3l0.9,4.7l0,0l1.6-4.7h0.7l1.6,4.7l0,0l0.9-4.7h1.3l-1.3,6.9h-1.4l-1.4-4.3h-0.1
	l-1.4,4.3H156.9z M164.9,255v-5.2h1.3v5.2H164.9z M164.9,249v-1.2h1.3v1.2H164.9z M167.5,255v-5.2h1.2v0.5l0,0
	c0.1-0.2,0.3-0.3,0.6-0.5c0.3-0.1,0.5-0.2,0.8-0.2c0.6,0,1,0.2,1.4,0.5c0.3,0.3,0.5,0.8,0.5,1.4v3.4h-1.3v-3.1
	c0-0.4-0.1-0.6-0.2-0.8c-0.1-0.2-0.4-0.3-0.7-0.3s-0.6,0.1-0.7,0.3c-0.2,0.2-0.3,0.4-0.3,0.7v3.2h-1.3V255z M176.6,252.9v-1
	c0-0.3-0.1-0.6-0.3-0.8s-0.5-0.3-0.8-0.3c-0.4,0-0.7,0.1-0.9,0.4c-0.2,0.3-0.3,0.7-0.3,1.2s0.1,0.9,0.3,1.2s0.5,0.4,0.9,0.4
	c0.3,0,0.6-0.1,0.8-0.3C176.5,253.4,176.6,253.2,176.6,252.9z M176.6,255v-0.5l0,0c0,0-0.1,0.1-0.1,0.2c-0.1,0.1-0.2,0.2-0.5,0.3
	c-0.2,0.1-0.5,0.2-0.8,0.2c-0.7,0-1.2-0.3-1.7-0.7c-0.4-0.5-0.6-1.2-0.6-2s0.2-1.5,0.7-2c0.4-0.5,1-0.8,1.6-0.8
	c0.3,0,0.5,0.1,0.7,0.2c0.2,0.1,0.4,0.2,0.5,0.3l0.1,0.2l0,0v-2.5h1.3v7.2L176.6,255L176.6,255z M180.5,253.6
	c0.2,0.3,0.5,0.4,0.9,0.4s0.7-0.1,0.9-0.4c0.2-0.3,0.3-0.7,0.3-1.2s-0.1-0.9-0.3-1.2s-0.5-0.4-0.9-0.4s-0.7,0.1-0.9,0.4
	c-0.2,0.3-0.3,0.7-0.3,1.2C180.1,252.9,180.3,253.3,180.5,253.6z M183.1,254.4c-0.5,0.5-1,0.7-1.8,0.7c-0.7,0-1.3-0.2-1.8-0.7
	s-0.7-1.2-0.7-2c0-0.9,0.2-1.5,0.7-2s1.1-0.7,1.7-0.7c0.7,0,1.3,0.2,1.7,0.7c0.5,0.5,0.7,1.2,0.7,2
	C183.8,253.3,183.5,253.9,183.1,254.4z M185.6,255l-1.2-5.2h1.3l0.7,3.5l0,0l1.2-3.5h1.2l1.1,3.5l0,0l0.8-3.5h1.2l-1.3,5.2h-1.3
	l-1.2-3.8l0,0l-1.3,3.8H185.6z"/>
<path class="st14" d="M39.5,205.4v-6.9h4.4v1.2h-3v1.5h2.8v1.2h-2.8v1.7h3v1.2h-4.4V205.4z M45.1,205.4v-7.2h1.3v7.2H45.1z
	 M49.1,202.3v1c0,0.3,0.1,0.6,0.3,0.8s0.5,0.3,0.8,0.3c0.4,0,0.7-0.1,0.9-0.4c0.2-0.3,0.3-0.7,0.3-1.2s-0.1-0.9-0.3-1.2
	s-0.5-0.4-0.9-0.4c-0.3,0-0.6,0.1-0.8,0.3C49.2,201.7,49.1,201.9,49.1,202.3z M47.9,205.4v-7.2h1.3v2.5l0,0c0,0,0,0,0-0.1
	c0,0,0.1-0.1,0.1-0.2c0.1-0.1,0.2-0.1,0.3-0.2c0.1-0.1,0.2-0.1,0.4-0.2c0.2,0,0.3-0.1,0.5-0.1c0.6,0,1.2,0.3,1.6,0.8
	c0.4,0.5,0.6,1.2,0.6,2s-0.2,1.5-0.6,2c-0.4,0.5-1,0.7-1.6,0.7c-0.3,0-0.5-0.1-0.8-0.2c-0.2-0.1-0.4-0.2-0.5-0.3l-0.1-0.2l0,0v0.5
	h-1.2V205.4z M55,203.9c0.2,0.3,0.5,0.4,0.9,0.4s0.7-0.1,0.9-0.4c0.2-0.3,0.3-0.7,0.3-1.2s-0.1-0.9-0.3-1.2s-0.5-0.4-0.9-0.4
	s-0.7,0.1-0.9,0.4c-0.2,0.3-0.3,0.7-0.3,1.2C54.7,203.3,54.8,203.7,55,203.9z M57.6,204.8c-0.5,0.5-1,0.7-1.8,0.7s-1.3-0.2-1.8-0.7
	s-0.7-1.2-0.7-2c0-0.9,0.2-1.5,0.7-2s1.1-0.7,1.7-0.7s1.3,0.2,1.7,0.7c0.5,0.5,0.7,1.2,0.7,2C58.3,203.6,58.1,204.3,57.6,204.8z
	 M60.1,205.4l-1.2-5.2h1.3l0.7,3.5l0,0l1.2-3.5h1.2l1.1,3.5l0,0l0.8-3.5h1.2l-1.3,5.2h-1.3l-1.2-3.8l0,0l-1.3,3.8H60.1z"/>
<path class="st14" d="M135.8,110.2v-6.9h2.9c0.6,0,1.1,0.2,1.5,0.5c0.4,0.4,0.6,0.8,0.6,1.3c0,0.6-0.2,1-0.7,1.3l0,0
	c0.3,0.1,0.5,0.3,0.7,0.6c0.2,0.3,0.3,0.6,0.3,1c0,0.7-0.2,1.2-0.6,1.6c-0.4,0.4-1.1,0.6-2,0.6H135.8z M137.1,108.9h1.6
	c0.6,0,0.9-0.3,0.9-0.9c0-0.3-0.1-0.5-0.3-0.7s-0.4-0.2-0.7-0.2H137v1.8H137.1z M137.1,106h1.4c0.3,0,0.5-0.1,0.6-0.2
	c0.2-0.1,0.2-0.3,0.2-0.6c0-0.3-0.1-0.5-0.2-0.6c-0.2-0.1-0.4-0.2-0.6-0.2h-1.4V106z M141.8,107.4v-1h3.2v1H141.8z M146.2,110.2
	v-6.9h1.3v2.8h2.4v-2.8h1.3v6.9h-1.3v-3h-2.4v3H146.2z M155.7,110.2v-0.5l0,0c0,0,0,0,0,0.1l-0.1,0.1c-0.1,0.1-0.2,0.1-0.3,0.2
	s-0.2,0.1-0.4,0.2c-0.2,0-0.4,0.1-0.6,0.1c-0.6,0-1.1-0.1-1.4-0.4c-0.3-0.3-0.5-0.7-0.5-1.1c0-0.5,0.1-0.8,0.4-1
	c0.3-0.2,0.7-0.4,1.4-0.6c0.6-0.1,1-0.3,1.1-0.3c0.2-0.1,0.2-0.2,0.2-0.4c0-0.2-0.1-0.3-0.2-0.4c-0.1-0.1-0.4-0.2-0.7-0.2
	s-0.6,0.1-0.7,0.2c-0.2,0.2-0.3,0.4-0.4,0.6l-1.1-0.4c0.1-0.4,0.4-0.8,0.7-1.1c0.4-0.3,0.8-0.4,1.4-0.4c0.6,0,1.2,0.2,1.6,0.5
	c0.4,0.3,0.6,0.9,0.6,1.6v3.3L155.7,110.2L155.7,110.2z M154.4,108c-0.3,0.1-0.5,0.2-0.6,0.3c-0.1,0.1-0.1,0.2-0.1,0.4
	c0,0.4,0.3,0.5,0.8,0.5c0.4,0,0.7-0.1,0.9-0.2c0.2-0.2,0.3-0.3,0.3-0.6v-0.9l0,0c0,0.1-0.1,0.1-0.1,0.1s-0.1,0.1-0.3,0.1
	C155,107.9,154.7,108,154.4,108z M158,110.2V103h1.3v7.2H158z M160.8,110.2V103h1.3v7.2H160.8z"/>
<path class="st14" d="M198.5,178.6v-6.9h2.9c0.6,0,1.1,0.2,1.5,0.5c0.4,0.4,0.6,0.8,0.6,1.3c0,0.6-0.3,1-0.8,1.3l0,0
	c0.3,0.1,0.5,0.3,0.7,0.6s0.3,0.6,0.3,1c0,0.7-0.2,1.2-0.6,1.6c-0.4,0.4-1.1,0.6-2,0.6L198.5,178.6L198.5,178.6z M199.9,177.4h1.6
	c0.6,0,0.9-0.3,0.9-0.9c0-0.3-0.1-0.5-0.3-0.6c-0.2-0.2-0.4-0.2-0.7-0.2h-1.6v1.7H199.9z M199.9,174.5h1.4c0.3,0,0.5-0.1,0.6-0.2
	c0.2-0.1,0.2-0.3,0.2-0.6s-0.1-0.5-0.2-0.6c-0.2-0.1-0.4-0.2-0.6-0.2h-1.4V174.5z M211.4,175.8l1.4,0.3c-0.1,0.8-0.4,1.4-0.9,1.9
	s-1.1,0.7-1.9,0.7c-0.9,0-1.6-0.3-2.2-0.9c-0.6-0.6-0.8-1.5-0.8-2.8c0-1.1,0.3-1.9,0.9-2.6c0.6-0.6,1.3-0.9,2.1-0.9
	c0.7,0,1.3,0.2,1.8,0.7c0.5,0.4,0.8,1,0.9,1.8l-1.3,0.2c-0.1-0.4-0.2-0.8-0.4-1c-0.2-0.3-0.5-0.4-0.9-0.4c-0.5,0-0.8,0.2-1.2,0.6
	c-0.3,0.4-0.5,1-0.5,1.7c0,0.8,0.2,1.5,0.5,1.9s0.7,0.6,1.2,0.6C210.8,177.5,211.2,176.9,211.4,175.8z M213.7,176.7v-3.4h1.3v3.2
	c0,0.3,0.1,0.6,0.2,0.7s0.3,0.2,0.6,0.2s0.6-0.1,0.7-0.2c0.2-0.2,0.3-0.4,0.3-0.8v-3.1h1.3v5.2h-1.2V178l0,0
	c-0.3,0.4-0.8,0.7-1.4,0.7c-0.6,0-1.1-0.2-1.4-0.5C213.9,177.8,213.7,177.3,213.7,176.7z M220.8,175.5v1c0,0.3,0.1,0.6,0.3,0.8
	s0.5,0.3,0.8,0.3c0.4,0,0.7-0.1,0.9-0.4c0.2-0.3,0.3-0.7,0.3-1.2s-0.1-0.9-0.3-1.2s-0.5-0.4-0.9-0.4c-0.3,0-0.6,0.1-0.8,0.3
	C220.9,174.9,220.8,175.2,220.8,175.5z M219.5,178.6v-7.2h1.3v2.5l0,0c0,0,0,0,0-0.1c0,0,0.1-0.1,0.1-0.2c0.1-0.1,0.2-0.1,0.3-0.2
	c0.1-0.1,0.2-0.1,0.4-0.2c0.2,0,0.3-0.1,0.5-0.1c0.6,0,1.2,0.3,1.6,0.8c0.4,0.5,0.6,1.2,0.6,2s-0.2,1.5-0.6,2
	c-0.4,0.5-1,0.8-1.6,0.8c-0.3,0-0.5-0.1-0.8-0.2c-0.2-0.1-0.4-0.2-0.5-0.3l-0.1-0.2l0,0v0.5L219.5,178.6L219.5,178.6z M226.7,175.5
	v1c0,0.3,0.1,0.6,0.3,0.8s0.5,0.3,0.8,0.3c0.4,0,0.7-0.1,0.9-0.4c0.2-0.3,0.3-0.7,0.3-1.2s-0.1-0.9-0.3-1.2s-0.5-0.4-0.9-0.4
	c-0.3,0-0.6,0.1-0.8,0.3C226.8,174.9,226.7,175.2,226.7,175.5z M225.4,178.6v-7.2h1.3v2.5l0,0c0,0,0,0,0-0.1c0,0,0.1-0.1,0.1-0.2
	c0.1-0.1,0.2-0.1,0.3-0.2c0.1-0.1,0.2-0.1,0.4-0.2c0.2,0,0.3-0.1,0.5-0.1c0.6,0,1.2,0.3,1.6,0.8c0.4,0.5,0.6,1.2,0.6,2
	s-0.2,1.5-0.6,2c-0.4,0.5-1,0.8-1.6,0.8c-0.3,0-0.5-0.1-0.8-0.2c-0.2-0.1-0.4-0.2-0.5-0.3l-0.1-0.2l0,0v0.5L225.4,178.6L225.4,178.6
	z M231.5,180.8l1-2.5l-2.1-5h1.3l1.4,3.5l0,0l1.4-3.5h1.3l-3,7.4h-1.3V180.8z"/>
<path class="st14" d="M388.7,208.1v-4.7h1.3v4.6c0,0.4,0.1,0.7,0.3,0.9c0.2,0.2,0.5,0.3,0.9,0.3s0.7-0.1,0.9-0.3
	c0.2-0.2,0.3-0.5,0.3-0.9v-4.6h1.3v4.7c0,0.8-0.2,1.4-0.7,1.8c-0.5,0.4-1.1,0.6-1.9,0.6s-1.4-0.2-1.9-0.6
	C388.9,209.4,388.7,208.8,388.7,208.1z M397.8,210.3v-6.9h1.3v2.8h2.4v-2.8h1.3v6.9h-1.3v-3h-2.4v3H397.8z M407.3,210.3v-0.5l0,0
	c0,0,0,0,0,0.1l-0.1,0.1c-0.1,0.1-0.2,0.1-0.3,0.2c-0.1,0.1-0.2,0.1-0.4,0.2c-0.2,0-0.4,0.1-0.6,0.1c-0.6,0-1.1-0.1-1.4-0.4
	c-0.3-0.3-0.5-0.7-0.5-1.1c0-0.5,0.1-0.8,0.4-1s0.7-0.4,1.4-0.6c0.6-0.1,1-0.3,1.1-0.3c0.2-0.1,0.2-0.2,0.2-0.4s-0.1-0.3-0.2-0.4
	c-0.1-0.1-0.4-0.2-0.7-0.2c-0.3,0-0.6,0.1-0.7,0.2c-0.2,0.2-0.3,0.4-0.4,0.6l-1.1-0.4c0.1-0.4,0.4-0.8,0.7-1.1
	c0.4-0.3,0.8-0.4,1.4-0.4s1.2,0.2,1.6,0.5s0.6,0.9,0.6,1.6v3.3h-1V210.3z M406,208.2c-0.3,0.1-0.5,0.2-0.6,0.3s-0.1,0.2-0.1,0.4
	c0,0.4,0.3,0.5,0.8,0.5c0.4,0,0.7-0.1,0.9-0.2c0.2-0.2,0.3-0.3,0.3-0.6v-0.9l0,0c0,0.1-0.1,0.1-0.1,0.1s-0.1,0.1-0.3,0.1
	C406.6,208,406.3,208.1,406,208.2z M409.6,210.3v-7.2h1.3v7.2H409.6z M412.4,210.3v-7.2h1.3v7.2H412.4z"/>
<path class="st14" d="M453.1,215.3v-5.7h-2v-1.2h5.4v1.2h-2v5.7H453.1z M456.8,215.3V210h1.2v0.6l0,0c0.1-0.2,0.2-0.4,0.4-0.5
	c0.2-0.1,0.4-0.2,0.6-0.2s0.3,0,0.5,0.1l-0.2,1.2c-0.1-0.1-0.3-0.1-0.4-0.1c-0.6,0-0.9,0.4-0.9,1.2v2.9h-1.2V215.3z M460.3,213.4
	V210h1.3v3.2c0,0.3,0.1,0.6,0.2,0.7s0.3,0.2,0.6,0.2c0.3,0,0.6-0.1,0.8-0.2c0.2-0.2,0.3-0.4,0.3-0.8V210h1.3v5.2h-1.2v-0.5l0,0
	c-0.3,0.4-0.8,0.7-1.4,0.7s-1.1-0.2-1.4-0.5C460.5,214.5,460.3,214,460.3,213.4z M469.2,213.2l1.2,0.3c-0.1,0.6-0.4,1.1-0.8,1.4
	c-0.4,0.3-0.9,0.5-1.5,0.5c-0.7,0-1.3-0.2-1.8-0.7s-0.7-1.2-0.7-2c0-0.9,0.2-1.5,0.7-2s1.1-0.7,1.7-0.7s1.1,0.2,1.5,0.5
	s0.6,0.8,0.7,1.4l-1.2,0.2c-0.1-0.6-0.5-1-1-1c-0.4,0-0.7,0.1-0.9,0.4c-0.2,0.3-0.3,0.7-0.3,1.2s0.1,0.9,0.3,1.2
	c0.2,0.3,0.5,0.4,0.9,0.4C468.8,214.3,469.1,213.9,469.2,213.2z M471.4,215.3v-7.2h1.3v4.1l0,0l1.9-2.2h1.6l-1.9,2.1l2.1,3.1H475
	l-1.6-2.4l0,0l-0.7,0.7v1.6h-1.3V215.3z"/>
<path class="st14" d="M423.2,234.1v-6.9h2.8c0.7,0,1.3,0.2,1.7,0.6c0.4,0.4,0.7,0.9,0.7,1.6c0,0.7-0.2,1.2-0.6,1.6
	c-0.4,0.4-1,0.6-1.7,0.6h-1.5v2.5L423.2,234.1L423.2,234.1z M424.5,230.4h1.5c0.3,0,0.5-0.1,0.7-0.3s0.3-0.4,0.3-0.7
	s-0.1-0.6-0.3-0.7c-0.2-0.2-0.4-0.2-0.7-0.2h-1.5V230.4z M429.1,234.1v-5.2h1.3v5.2H429.1z M429.1,228.1v-1.2h1.3v1.2H429.1z
	 M431.8,234.1v-7.2h1.3v7.2H431.8z M434.5,234.1v-7.2h1.3v7.2H434.5z M440.2,234.1v-0.5l0,0c0,0,0,0-0.1,0.1l-0.1,0.1
	c-0.1,0.1-0.2,0.1-0.3,0.2c-0.1,0.1-0.2,0.1-0.4,0.2s-0.4,0.1-0.6,0.1c-0.6,0-1.1-0.1-1.4-0.4c-0.3-0.3-0.5-0.7-0.5-1.1
	c0-0.5,0.1-0.8,0.4-1s0.7-0.4,1.4-0.6c0.6-0.1,1-0.3,1.1-0.3c0.2-0.1,0.2-0.2,0.2-0.4s-0.1-0.3-0.2-0.4c-0.1-0.1-0.4-0.2-0.7-0.2
	c-0.3,0-0.6,0.1-0.7,0.2c-0.2,0.2-0.3,0.4-0.4,0.6l-1.1-0.4c0.1-0.4,0.4-0.8,0.7-1.1c0.4-0.3,0.8-0.4,1.4-0.4s1.2,0.2,1.6,0.5
	s0.6,0.9,0.6,1.6v3.3h-0.9V234.1z M438.9,232c-0.3,0.1-0.5,0.2-0.7,0.3c-0.1,0.1-0.1,0.2-0.1,0.4c0,0.4,0.3,0.5,0.8,0.5
	c0.4,0,0.7-0.1,0.9-0.2c0.2-0.2,0.3-0.3,0.3-0.6v-0.9l0,0c0,0.1-0.1,0.1-0.1,0.1s-0.1,0.1-0.3,0.1
	C439.5,231.8,439.2,231.9,438.9,232z M442.5,234.1v-5.2h1.2v0.6l0,0c0.1-0.2,0.2-0.4,0.4-0.5c0.2-0.1,0.4-0.2,0.6-0.2s0.3,0,0.5,0.1
	l-0.2,1.2c-0.1-0.1-0.3-0.1-0.4-0.1c-0.6,0-0.9,0.4-0.9,1.2v2.9H442.5z"/>
<path class="st14" d="M561.2,263.9v-5.7h-2V257h5.4v1.2h-2v5.7L561.2,263.9L561.2,263.9z M565.8,262.4c0.2,0.3,0.5,0.4,0.9,0.4
	s0.7-0.1,0.9-0.4s0.3-0.7,0.3-1.2s-0.1-0.9-0.3-1.2c-0.2-0.3-0.5-0.4-0.9-0.4s-0.7,0.1-0.9,0.4s-0.3,0.7-0.3,1.2
	S565.6,262.2,565.8,262.4z M568.4,263.3c-0.5,0.5-1,0.7-1.8,0.7c-0.7,0-1.3-0.2-1.8-0.7s-0.7-1.2-0.7-2c0-0.9,0.2-1.5,0.7-2
	s1.1-0.7,1.7-0.7c0.7,0,1.3,0.2,1.7,0.7c0.5,0.5,0.7,1.2,0.7,2C569.1,262.1,568.9,262.8,568.4,263.3z M570.9,263.9l-1.2-5.2h1.3
	l0.7,3.5l0,0l1.2-3.5h1.2l1.1,3.5l0,0l0.8-3.5h1.2l-1.3,5.2h-1.3l-1.2-3.8l0,0l-1.3,3.8H570.9z M581.4,262.1l0.9,0.8
	c-0.5,0.8-1.3,1.2-2.2,1.2c-0.7,0-1.3-0.3-1.8-0.8s-0.7-1.2-0.7-2s0.2-1.5,0.7-2s1-0.8,1.7-0.8s1.3,0.3,1.7,0.8
	c0.5,0.5,0.7,1.2,0.7,2v0.4H579c0,0.4,0.1,0.7,0.3,0.9c0.2,0.2,0.5,0.3,0.8,0.3s0.5-0.1,0.7-0.2
	C581.1,262.5,581.3,262.3,581.4,262.1z M579,260.7h2.3c0-0.3-0.1-0.6-0.3-0.8c-0.2-0.2-0.5-0.3-0.8-0.3s-0.6,0.1-0.8,0.3
	C579.1,260.1,579,260.4,579,260.7z M583.5,263.9v-5.2h1.2v0.6l0,0c0.1-0.2,0.2-0.4,0.4-0.5s0.4-0.2,0.6-0.2c0.2,0,0.3,0,0.5,0.1
	l-0.2,1.2c-0.1-0.1-0.3-0.1-0.4-0.1c-0.6,0-0.9,0.4-0.9,1.2v2.9H583.5z"/>
<path class="st14" d="M404.2,152.8l-2.5-6.9h1.4l1.7,4.9l0,0l1.7-4.9h1.4l-2.5,6.9H404.2z M411.6,151l0.9,0.8
	c-0.5,0.8-1.3,1.2-2.2,1.2c-0.7,0-1.3-0.3-1.8-0.8s-0.7-1.2-0.7-2s0.2-1.5,0.7-2s1-0.8,1.7-0.8s1.3,0.3,1.7,0.8
	c0.5,0.5,0.7,1.2,0.7,2v0.4h-3.5c0,0.4,0.1,0.7,0.3,0.9c0.2,0.2,0.5,0.3,0.8,0.3s0.5-0.1,0.7-0.2C411.2,151.5,411.4,151.3,411.6,151
	z M409.1,149.6h2.3c0-0.3-0.1-0.6-0.3-0.8c-0.2-0.2-0.5-0.3-0.8-0.3s-0.6,0.1-0.8,0.3C409.3,149.1,409.2,149.3,409.1,149.6z
	 M413.7,152.8v-5.2h1.2v0.5l0,0c0.1-0.2,0.3-0.3,0.6-0.5c0.2-0.1,0.5-0.2,0.8-0.2c0.6,0,1,0.2,1.4,0.5c0.3,0.3,0.5,0.8,0.5,1.4v3.4
	h-1.3v-3.1c0-0.4-0.1-0.6-0.2-0.8s-0.4-0.3-0.7-0.3c-0.3,0-0.6,0.1-0.7,0.3c-0.2,0.2-0.3,0.4-0.3,0.7v3.2h-1.3V152.8z M419.8,150.9
	v-2.3H419v-1.1h0.8v-1.3h1.2v1.3h1.3v1.1H421v2.2c0,0.3,0,0.5,0.1,0.6s0.3,0.2,0.6,0.2h0.4v1.2h-0.5c-0.7,0-1.2-0.1-1.5-0.4
	C419.9,152.1,419.8,151.6,419.8,150.9z"/>
<path class="st15" d="M510.1,213.4l-0.6-1.8h-4.3l-0.6,1.8h-2.1l4-11.2h1.8l4,11.2H510.1z M507.3,205.4l-1.5,4.4h3.1L507.3,205.4
	L507.3,205.4z"/>
<path class="st15" d="M150.4,178.7v-11.2h4.8c1,0,1.8,0.3,2.4,0.9c0.6,0.6,0.9,1.3,0.9,2.1c0,0.9-0.4,1.6-1.2,2.1l0,0
	c0.5,0.2,0.9,0.5,1.2,1c0.3,0.4,0.5,1,0.5,1.6c0,1.1-0.3,1.9-1,2.6c-0.7,0.6-1.7,0.9-3.2,0.9L150.4,178.7L150.4,178.7z M152.6,176.7
	h2.6c1,0,1.5-0.5,1.5-1.5c0-0.5-0.1-0.8-0.4-1.1c-0.3-0.3-0.6-0.4-1.1-0.4h-2.6V176.7z M152.6,172h2.3c0.4,0,0.8-0.1,1-0.3
	c0.3-0.2,0.4-0.5,0.4-0.9s-0.1-0.7-0.4-1c-0.2-0.2-0.6-0.3-1-0.3h-2.3V172z"/>
<path class="st16" d="M376.3,675.5l-0.5-1.5h-3.5l-0.5,1.5H370l3.3-9.2h1.5l3.3,9.2H376.3z M374,668.9l-1.2,3.6h2.5L374,668.9
	L374,668.9z M379.2,673v-3h-1.1v-1.4h1.1v-1.7h1.6v1.7h1.8v1.4h-1.7v2.9c0,0.4,0.1,0.6,0.2,0.8c0.1,0.1,0.4,0.2,0.7,0.2h0.6v1.6
	h-0.7c-0.9,0-1.6-0.2-1.9-0.6C379.3,674.5,379.2,673.9,379.2,673z M384.1,673v-3H383v-1.4h1.1v-1.7h1.6v1.7h1.8v1.4h-1.7v2.9
	c0,0.4,0.1,0.6,0.2,0.8c0.1,0.1,0.4,0.2,0.8,0.2h0.6v1.6h-0.7c-0.9,0-1.6-0.2-1.9-0.6C384.3,674.5,384.1,673.9,384.1,673z
	 M392.7,675.5v-0.7l0,0c0,0,0,0.1-0.1,0.1c0,0-0.1,0.1-0.2,0.2c-0.1,0.1-0.2,0.2-0.4,0.3c-0.1,0.1-0.3,0.1-0.5,0.2
	c-0.2,0.1-0.5,0.1-0.7,0.1c-0.8,0-1.5-0.2-1.9-0.6c-0.4-0.4-0.6-0.9-0.6-1.5s0.2-1.1,0.5-1.4c0.4-0.3,1-0.6,1.8-0.8s1.3-0.3,1.5-0.5
	s0.3-0.3,0.3-0.5s-0.1-0.4-0.3-0.5c-0.2-0.1-0.5-0.2-0.9-0.2c-0.5,0-0.8,0.1-1,0.3s-0.4,0.5-0.5,0.8l-1.4-0.6c0.2-0.6,0.5-1.1,1-1.4
	c0.5-0.4,1.1-0.6,1.9-0.6s1.5,0.2,2.1,0.7c0.5,0.4,0.8,1.1,0.8,2.1v4.4h-1.4V675.5z M391,672.7c-0.4,0.1-0.7,0.2-0.9,0.4
	c-0.1,0.1-0.2,0.3-0.2,0.5c0,0.5,0.3,0.7,1,0.7c0.5,0,0.9-0.1,1.2-0.3c0.3-0.2,0.4-0.4,0.4-0.7V672l0,0c0,0.1-0.1,0.1-0.1,0.2
	c0,0-0.2,0.1-0.4,0.2C391.7,672.5,391.4,672.6,391,672.7z M400,672.7l1.6,0.4c-0.2,0.8-0.5,1.5-1,1.9s-1.2,0.7-2,0.7
	c-0.9,0-1.7-0.3-2.3-1c-0.6-0.6-0.9-1.6-0.9-2.7c0-1.1,0.3-2,0.9-2.7s1.4-1,2.3-1c0.8,0,1.4,0.2,2,0.7c0.5,0.5,0.9,1.1,1,1.8
	l-1.6,0.3c-0.2-0.8-0.6-1.3-1.3-1.3c-0.5,0-0.9,0.2-1.2,0.6c-0.3,0.4-0.4,0.9-0.4,1.6c0,0.7,0.1,1.2,0.4,1.6
	c0.3,0.4,0.7,0.5,1.2,0.5C399.4,674.2,399.9,673.7,400,672.7z M403,675.5v-9.6h1.7v5.5l0,0l2.5-2.9h2.1l-2.5,2.8l2.7,4.1h-1.9
	l-2.1-3.2l0,0l-0.9,1v2.2H403V675.5z M414.8,673.1l1.2,1.1c-0.7,1-1.7,1.6-2.9,1.6c-1,0-1.8-0.3-2.4-1s-0.9-1.6-0.9-2.7
	c0-1.1,0.3-2,0.9-2.7s1.4-1,2.3-1s1.7,0.3,2.3,1c0.6,0.7,0.9,1.6,0.9,2.7v0.5h-4.7c0,0.5,0.2,0.9,0.4,1.2c0.3,0.3,0.6,0.4,1.1,0.4
	c0.4,0,0.7-0.1,1-0.3C414.3,673.7,414.6,673.4,414.8,673.1z M411.5,671.3h3c0-0.4-0.2-0.8-0.5-1c-0.3-0.3-0.6-0.4-1.1-0.4
	c-0.4,0-0.8,0.1-1,0.4C411.7,670.5,411.6,670.9,411.5,671.3z M417.6,675.5v-7h1.6v0.7l0,0c0.1-0.3,0.3-0.5,0.6-0.6
	c0.3-0.2,0.5-0.2,0.9-0.2c0.2,0,0.4,0,0.6,0.1l-0.3,1.7c-0.2-0.1-0.4-0.1-0.5-0.1c-0.8,0-1.2,0.5-1.2,1.6v3.8H417.6z M421.9,673.2
	l1.5-0.4c0.1,1,0.6,1.5,1.6,1.5c0.4,0,0.8-0.1,1-0.2c0.3-0.1,0.4-0.3,0.4-0.6c0-0.2-0.1-0.4-0.3-0.4c-0.2-0.1-0.6-0.2-1.2-0.4
	c-0.2,0-0.3-0.1-0.4-0.1c-0.8-0.2-1.4-0.5-1.8-0.8s-0.6-0.7-0.6-1.2c0-0.6,0.2-1.1,0.7-1.5s1.1-0.6,1.9-0.6c1.6,0,2.5,0.7,2.9,2.1
	l-1.4,0.4c-0.1-0.3-0.3-0.6-0.5-0.8s-0.5-0.3-1-0.3c-0.3,0-0.6,0.1-0.8,0.2c-0.2,0.1-0.3,0.3-0.3,0.4c0,0.2,0.1,0.3,0.3,0.5
	c0.2,0.1,0.8,0.3,1.7,0.6c0.8,0.2,1.4,0.5,1.7,0.8c0.3,0.3,0.4,0.8,0.4,1.3c0,0.6-0.2,1.1-0.7,1.5s-1.2,0.7-2.1,0.7
	c-1,0-1.7-0.2-2.2-0.7C422.3,674.5,422,673.9,421.9,673.2z"/>
<path class="st17" d="M311.4,46.1h1.2c0.3,0,0.6,0,0.8-0.1c0.2-0.1,0.5-0.2,0.7-0.4s0.4-0.5,0.5-0.9s0.2-0.9,0.2-1.5
	c0-1-0.2-1.8-0.6-2.2c-0.4-0.5-0.9-0.7-1.5-0.7h-1.3L311.4,46.1L311.4,46.1z M309.7,47.7v-9.2h3.1c0.5,0,1,0.1,1.5,0.3
	s0.9,0.5,1.3,0.8c0.4,0.4,0.7,0.8,0.9,1.4c0.2,0.6,0.3,1.3,0.3,2.1s-0.1,1.6-0.3,2.2c-0.2,0.6-0.5,1.1-0.9,1.4
	c-0.4,0.3-0.8,0.6-1.3,0.7c-0.5,0.2-1,0.2-1.5,0.2L309.7,47.7L309.7,47.7z M322.6,45.3l1.2,1.1c-0.7,1-1.7,1.6-2.9,1.6
	c-1,0-1.8-0.3-2.4-1s-0.9-1.6-0.9-2.7c0-1.1,0.3-2,0.9-2.7s1.4-1,2.3-1s1.7,0.3,2.3,1c0.6,0.7,0.9,1.6,0.9,2.7v0.5h-4.7
	c0,0.5,0.2,0.9,0.4,1.2c0.3,0.3,0.6,0.4,1.1,0.4c0.4,0,0.7-0.1,1-0.3C322.1,45.9,322.4,45.6,322.6,45.3z M319.4,43.5h3
	c0-0.4-0.2-0.8-0.5-1c-0.3-0.3-0.6-0.4-1.1-0.4c-0.4,0-0.8,0.1-1,0.4C319.6,42.7,319.4,43.1,319.4,43.5z M325.8,47.7v-5.5h-1.1v-1.4
	h1.1v-1c0-0.6,0.2-1,0.5-1.3s0.8-0.4,1.4-0.4h1.4v1.5h-1c-0.2,0-0.4,0-0.4,0.1c-0.1,0.1-0.1,0.2-0.1,0.4v0.6h1.8v1.4h-1.7v5.5h-1.9
	V47.7z M334.7,45.3l1.2,1.1c-0.7,1-1.7,1.6-2.9,1.6c-1,0-1.8-0.3-2.4-1s-0.9-1.6-0.9-2.7c0-1.1,0.3-2,0.9-2.7s1.4-1,2.3-1
	s1.7,0.3,2.3,1c0.6,0.7,0.9,1.6,0.9,2.7v0.5h-4.7c0,0.5,0.2,0.9,0.4,1.2c0.3,0.3,0.6,0.4,1.1,0.4c0.4,0,0.7-0.1,1-0.3
	C334.2,45.9,334.4,45.6,334.7,45.3z M331.4,43.5h3c0-0.4-0.2-0.8-0.5-1c-0.3-0.3-0.6-0.4-1.1-0.4c-0.4,0-0.8,0.1-1,0.4
	C331.6,42.7,331.4,43.1,331.4,43.5z M337.5,47.7v-7h1.6v0.7l0,0c0.2-0.2,0.5-0.5,0.8-0.6s0.7-0.2,1.1-0.2c0.8,0,1.4,0.2,1.8,0.7
	s0.7,1.1,0.7,1.9v4.6h-1.7v-4.1c0-0.5-0.1-0.8-0.3-1.1c-0.2-0.2-0.5-0.4-0.9-0.4s-0.7,0.1-1,0.4c-0.2,0.2-0.4,0.6-0.4,1v4.3h-1.7
	V47.7z M349.5,44.9v-1.3c0-0.4-0.1-0.8-0.4-1.1s-0.6-0.4-1.1-0.4s-0.9,0.2-1.2,0.5c-0.3,0.4-0.4,0.9-0.4,1.6c0,0.7,0.1,1.2,0.4,1.6
	c0.3,0.4,0.7,0.5,1.2,0.5s0.8-0.1,1.1-0.4C349.4,45.6,349.5,45.3,349.5,44.9z M349.6,47.7V47l0,0c0,0.1-0.1,0.1-0.2,0.2
	c-0.1,0.1-0.3,0.2-0.6,0.4c-0.3,0.2-0.7,0.2-1,0.2c-0.9,0-1.7-0.3-2.2-1s-0.8-1.6-0.8-2.7c0-1.1,0.3-2,0.9-2.7s1.3-1,2.1-1
	c0.4,0,0.7,0.1,1,0.2c0.3,0.1,0.5,0.3,0.6,0.4l0.2,0.2l0,0v-3.3h1.7v9.6h-1.7V47.7z M357.6,45.3l1.2,1.1c-0.7,1-1.7,1.6-2.9,1.6
	c-1,0-1.8-0.3-2.4-1s-0.9-1.6-0.9-2.7c0-1.1,0.3-2,0.9-2.7s1.4-1,2.3-1s1.7,0.3,2.3,1c0.6,0.7,0.9,1.6,0.9,2.7v0.5h-4.7
	c0,0.5,0.2,0.9,0.4,1.2c0.3,0.3,0.6,0.4,1.1,0.4c0.4,0,0.7-0.1,1-0.3C357.1,45.9,357.4,45.6,357.6,45.3z M354.4,43.5h3
	c0-0.4-0.2-0.8-0.5-1c-0.3-0.3-0.6-0.4-1.1-0.4c-0.4,0-0.8,0.1-1,0.4C354.5,42.7,354.4,43.1,354.4,43.5z M360.4,47.7v-7h1.6v0.7l0,0
	c0.1-0.3,0.3-0.5,0.6-0.6c0.3-0.2,0.5-0.2,0.9-0.2c0.2,0,0.4,0,0.6,0.1l-0.3,1.7c-0.2-0.1-0.4-0.1-0.5-0.1c-0.8,0-1.2,0.5-1.2,1.6
	v3.8H360.4z M364.7,45.4l1.5-0.4c0.1,1,0.6,1.5,1.6,1.5c0.4,0,0.8-0.1,1-0.2c0.3-0.1,0.4-0.3,0.4-0.6c0-0.2-0.1-0.4-0.3-0.4
	c-0.2-0.1-0.6-0.2-1.2-0.4c-0.2,0-0.3-0.1-0.4-0.1c-0.8-0.2-1.4-0.5-1.8-0.8s-0.6-0.7-0.6-1.2c0-0.6,0.2-1.1,0.7-1.5
	s1.1-0.6,1.9-0.6c1.6,0,2.5,0.7,2.9,2.1l-1.4,0.4c-0.1-0.3-0.3-0.6-0.5-0.8s-0.5-0.3-1-0.3c-0.3,0-0.6,0.1-0.8,0.2
	c-0.2,0.1-0.3,0.3-0.3,0.4c0,0.2,0.1,0.3,0.3,0.5c0.2,0.1,0.8,0.3,1.7,0.6c0.8,0.2,1.4,0.5,1.7,0.8c0.3,0.3,0.4,0.8,0.4,1.3
	c0,0.6-0.2,1.1-0.7,1.5s-1.2,0.7-2.1,0.7c-1,0-1.7-0.2-2.2-0.7C365.1,46.7,364.8,46.1,364.7,45.4z"/>
</svg>
