<?xml version="1.0" encoding="utf-8"?>
<!-- Generator: Adobe Illustrator 22.1.0, SVG Export Plug-In . SVG Version: 6.00 Build 0)  -->
<svg version="1.1" id="Calque_1" xmlns="http://www.w3.org/2000/svg" xmlns:xlink="http://www.w3.org/1999/xlink" x="0px" y="0px"
	 viewBox="0 0 708 708" style="enable-background:new 0 0 708 708;" xml:space="preserve" width="800" height="800">
<style type="text/css">
	.st0{clip-path:url(#SVGID_2_);}
	.st1{fill:#202B43;}
	.st2{fill:#273552;}
	.st3{fill:#182338;}
	.st4{display:none;fill:#273552;}
	.st5{display:none;opacity:0.15;fill:url(#SVGID_3_);enable-background:new    ;}
	.st6{display:none;opacity:0.15;fill:url(#SVGID_4_);enable-background:new    ;}
	
		.st7{opacity:0.5;fill:#4D5F83;fill-opacity:0.15;stroke:#4D5F83;stroke-width:1.6433;stroke-miterlimit:16;enable-background:new    ;}
	.st8{display:none;opacity:0.15;}
	.st9{display:inline;}
	.st10{fill:#4D5F83;}
	.st11{display:none;fill:#E5EBEF;}
	.st12{display:none;fill:#FF5859;}
	.st13{display:none;fill:#7986A3;}
	.st14{display:none;fill:#24E8CC;}
	.st15{fill:none;stroke:#24E8AD;stroke-width:3;stroke-linecap:round;}
	.st16{fill:none;stroke:#FF5859;stroke-width:3;stroke-linecap:round;}
	.st17{fill:#182531;}
</style>
<g>
	<g>
		<defs>
			<rect id="SVGID_1_" width="708" height="708"/>
		</defs>
		<clipPath id="SVGID_2_">
			<use xlink:href="#SVGID_1_"  style="overflow:visible;"/>
		</clipPath>
		<g class="st0">
			<rect x="512" y="351" class="st1" width="30" height="24"/>
			<path class="st1" d="M313,34h58v122l-18,18v39h-40v-57V34z"/>
			<rect x="186" y="174" class="st1" width="127" height="29"/>
			<rect x="268" y="203" class="st1" width="21" height="52"/>
			<rect x="227" y="240" class="st1" width="41" height="15"/>
			<rect x="262" y="316" class="st1" width="40" height="48"/>
			<rect x="302" y="340" class="st1" width="6" height="24"/>
			<rect x="250" y="340" class="st1" width="12" height="24"/>
			<rect x="206" y="275" class="st1" width="44" height="115"/>
			<rect x="227" y="255" class="st1" width="23" height="20"/>
			<rect x="203" y="275" class="st1" width="3" height="40"/>
			<path class="st1" d="M11,165h45v43h122v67h25v66h-46v-15H11V165z M126,258H68v28h58V258z"/>
			<rect x="101" y="136" class="st1" width="62" height="35"/>
			<rect x="125" y="171" class="st1" width="20" height="37"/>
			<rect x="163" y="136" class="st1" width="23" height="23"/>
			<rect x="186" y="118" class="st1" width="31" height="56"/>
			<rect x="530" y="92" class="st1" width="88" height="41"/>
			<rect x="524" y="92" class="st1" width="6" height="25"/>
			<rect x="478" y="92" class="st1" width="46" height="64"/>
			<rect x="428" y="156" class="st1" width="18" height="13"/>
			<rect x="371" y="132" class="st1" width="107" height="24"/>
			<rect x="519" y="211" class="st1" width="3" height="18"/>
			<rect x="612" y="389" class="st1" width="28" height="35"/>
			<rect x="607" y="332" class="st1" width="33" height="57"/>
			<path class="st1" d="M542,331h47v25h18v33h-7l-24,24h-34V331z"/>
			<path class="st1" d="M448,281h57v22l-9,17v31h16v48h-46l-18-18V281z"/>
			<rect x="479" y="278" class="st1" width="14" height="3"/>
			<rect x="429" y="258" class="st1" width="64" height="20"/>
			<path class="st1" d="M428,169h91v73h-26v16h-39v-41h-26V169z"/>
			<path class="st1" d="M542,203h-20v26l9,19v54h34v29h24v-52h52l34,32h26v-23h-3v-88h3v-25h-43v-25H542V203z M642,168h-50v40h50
				V168z"/>
			<rect x="568" y="133" class="st1" width="19" height="6"/>
			<rect x="563" y="139" class="st1" width="28" height="11"/>
			<rect x="45" y="326" class="st1" width="23" height="45"/>
			<rect x="308" y="375" class="st1" width="33" height="26"/>
			<rect x="308" y="322" class="st1" width="58" height="53"/>
			<rect x="343" y="319" class="st1" width="15" height="3"/>
			<rect x="326" y="278" class="st1" width="64" height="41"/>
			<rect x="390" y="300" class="st1" width="12" height="19"/>
			<rect x="402" y="258" class="st1" width="27" height="61"/>
			<rect x="128" y="424" class="st1" width="23" height="13"/>
			<rect x="35" y="371" class="st1" width="120" height="53"/>
			<rect x="35" y="424" class="st1" width="52" height="24"/>
			<rect x="180" y="497" class="st1" width="12" height="21"/>
			<rect x="192" y="439" class="st1" width="35" height="79"/>
			<rect x="227" y="459" class="st1" width="22" height="24"/>
			<rect x="249" y="435" class="st1" width="40" height="73"/>
			<rect x="289" y="459" class="st1" width="5" height="24"/>
			<rect x="597" y="441" class="st1" width="3" height="14"/>
			<rect x="551" y="436" class="st1" width="46" height="24"/>
			<rect x="551" y="460" class="st1" width="23" height="10"/>
			<rect x="425" y="470" class="st1" width="149" height="24"/>
			<rect x="425" y="413" class="st1" width="18" height="57"/>
			<rect x="363" y="436" class="st1" width="62" height="23"/>
			<rect x="293" y="401" class="st1" width="70" height="100"/>
			<rect x="501" y="505" class="st1" width="140" height="37"/>
			<path class="st1" d="M641,464h-41v7h-11v34h52V464z"/>
			<rect x="600" y="424" class="st1" width="75" height="40"/>
			<rect x="273" y="570" class="st1" width="13" height="25"/>
			<path class="st1" d="M286,570h91v113h-30v-1h-19v-2h-29v-1h-16v-74h3V570z"/>
			<rect x="362" y="550" class="st1" width="15" height="20"/>
			<rect x="222" y="570" class="st1" width="51" height="31"/>
			<path class="st1" d="M110,536h107v29l5,5v31h-51v-19h-61V536z"/>
			<rect x="110" y="436" class="st1" width="70" height="100"/>
			<rect x="377" y="567" class="st1" width="69" height="31"/>
			<rect x="446" y="505" class="st1" width="55" height="93"/>
			<rect x="460" y="505" class="st2" width="24" height="13"/>
			<rect x="629" y="464" class="st2" width="12" height="20"/>
			<rect x="635" y="495" class="st2" width="6" height="28"/>
			<rect x="629" y="534" class="st2" width="12" height="8"/>
			<rect x="656" y="232" class="st2" width="12" height="24"/>
			<rect x="630" y="208" class="st2" width="12" height="12"/>
			<rect x="542" y="244" class="st2" width="12" height="12"/>
			<rect x="541" y="203" class="st3" width="1" height="99"/>
			<rect x="454" y="217" class="st2" width="12" height="12"/>
			<rect x="454" y="229" class="st2" width="11" height="6"/>
			<rect x="448" y="313" class="st2" width="7" height="6"/>
			<rect x="448" y="319" class="st2" width="15" height="12"/>
			<rect x="429" y="258" class="st3" width="1" height="21"/>
			<rect x="421" y="300" class="st2" width="8" height="6"/>
			<rect x="420" y="306" class="st2" width="9" height="13"/>
			<rect x="401" y="300" class="st3" width="1" height="19"/>
			<rect x="341" y="425" class="st2" width="22" height="11"/>
			<path class="st2" d="M304,489h-9v2h-1v8h1v2h9v-2h1v-8h-1V489z"/>
			<path class="st2" d="M310,494h-4v1h-1v5h1v1h4v-1h1v-5h-1V494z"/>
			<rect x="276" y="435" class="st2" width="13" height="13"/>
			<rect x="192" y="439" class="st2" width="6" height="58"/>
			<rect x="110" y="436" class="st2" width="19" height="42"/>
			<rect x="129" y="470" class="st2" width="5" height="8"/>
			<rect x="35" y="436" class="st2" width="12" height="12"/>
			<rect x="47" y="445" class="st2" width="16" height="3"/>
			<rect x="35" y="432" class="st2" width="4" height="4"/>
			<rect x="110" y="371" class="st2" width="13" height="13"/>
			<path class="st2" d="M128,371h-4v1h-1v5h1v1h4v-1h1v-5h-1V371z"/>
			<rect x="11" y="314" class="st2" width="24" height="12"/>
			<rect x="11" y="237" class="st2" width="31" height="13"/>
			<rect x="45" y="165" class="st2" width="12" height="12"/>
			<rect x="50" y="177" class="st2" width="7" height="6"/>
			<rect x="93" y="246" class="st2" width="11" height="12"/>
			<rect x="157" y="233" class="st2" width="11" height="10"/>
			<rect x="186" y="191" class="st2" width="12" height="11"/>
			<rect x="239" y="306" class="st2" width="11" height="13"/>
			<rect x="574" y="436" class="st3" width="1" height="23"/>
			<path class="st3" d="M168,208h1v88h10v-9h1h23h1v1v27h-1v-27h-23v8v1h-1h-1v29h-1h-21v-1h21v-28h-8h-1V208z"/>
			<path class="st3" d="M562,331h-1v17h-19v1h20V331z"/>
			<rect x="495" y="376" class="st3" width="17" height="1"/>
			<path class="st4" d="M110,570h22v1h5v1h6v1h6v1h6v-3h16v3v8h-61V570z"/>
			
				<linearGradient id="SVGID_3_" gradientUnits="userSpaceOnUse" x1="356" y1="-557.188" x2="356" y2="-306.385" gradientTransform="matrix(1 0 0 1 0 676)">
				<stop  offset="0.2833" style="stop-color:#24E8AD;stop-opacity:0"/>
				<stop  offset="1" style="stop-color:#24E8AD"/>
			</linearGradient>
			<path class="st5" d="M371,34h-58v122v18h-96v-56h-31v18h-23h-62v35h24v37H56v-43H11v161h34v7h23v-7h89v15h46v-26h3v75h44v-26h12
				h40h6v11h58v-53h-8v-3h32h12h27v-41h50v3h-31v39h48l9-17v-22h-12v-3v-20v-16h26v-13h3l9,19v54h34v29h24v-52h52l34,32h26v-23h-3
				v-88h3v-25h-43v-25h-67v-11h-4v-6h31V92h-88h-6h-46v40H371V34z M402,300v-42h27h25v-41h-26v-48v-13h-57l-18,18v39h-40v-10h-24v52
				h-21h-18v20v65h12v-24h40v24h6v-18h35v-3h-17v-41h64v22H402z M568,133h-38v-16h-6v39h-46h-32v13h73v42h3v-8h20v-53h21v-11h5V133z
				 M186,159v15v29h82v37h-41v15v20h-21h-3h-25v-67h-33v-37h18v-12H186z M126,258H68v28h58V258z"/>
			
				<linearGradient id="SVGID_4_" gradientUnits="userSpaceOnUse" x1="376.5" y1="-329.112" x2="376.5" y2="-81.068" gradientTransform="matrix(1 0 0 1 0 676)">
				<stop  offset="0" style="stop-color:#FF5859"/>
				<stop  offset="1" style="stop-color:#FF5859;stop-opacity:0"/>
			</linearGradient>
			<path class="st6" d="M443,413h-18v57v24h149v-24v-10h23v-5h3v9v7h-11v34h-88h-55v62h-69v-17h-15v20h-76h-13h-51l-5-5v-29h-37v-18
				h12h35v-35h12v-24h-12v-20h-35v58h-12v-18h-70v57v46h61v19h51h51v-6h13v10h-3v74h16v1h29v2h19v1h30v-85h69h55v-56h140v-37v-41h2
				l-32-40h-11v17h-3v-5h-46v24v10H443V413z"/>
			<path class="st7" d="M613,212.1c0-2.3,1.8-4.1,4.1-4.1h20.8c2.3,0,4.1-1.8,4.1-4.1v-24.8c0-2.3,1.8-4.1,4.1-4.1h50.8
				c2.3,0,4.1,1.8,4.1,4.1v19.4c0,0.8-0.7,1.5-1.5,1.5s-1.5,0.7-1.5,1.5v85c0,0.8,0.7,1.5,1.5,1.5s1.5,0.7,1.5,1.5v17.4
				c0,2.3-1.8,4.1-4.1,4.1h-20.3c-1,0-2.1-0.4-2.8-1.1l-31.6-29.8c-0.8-0.7-1.8-1.1-2.8-1.1h-22.3c-2.3,0-4.1-1.8-4.1-4.1V212.1z"/>
			<g class="st8">
				<g class="st9">
					
						<rect x="622.1" y="294.2" transform="matrix(0.7074 -0.7068 0.7068 0.7074 -0.7107 590.4014)" class="st10" width="181.3" height="3.7"/>
					
						<rect x="616.9" y="289" transform="matrix(0.7074 -0.7068 0.7068 0.7074 1.4473 585.2031)" class="st10" width="181.3" height="3.7"/>
					
						<rect x="611.7" y="283.8" transform="matrix(0.7074 -0.7068 0.7068 0.7074 3.6068 580.0049)" class="st10" width="181.3" height="3.7"/>
					
						<rect x="606.5" y="278.6" transform="matrix(0.7074 -0.7068 0.7068 0.7074 5.7655 574.8059)" class="st10" width="181.3" height="3.7"/>
					
						<rect x="601.2" y="273.5" transform="matrix(0.7074 -0.7068 0.7068 0.7074 7.8535 569.5784)" class="st10" width="181.3" height="3.7"/>
					
						<rect x="596" y="268.2" transform="matrix(0.7074 -0.7068 0.7068 0.7074 10.0122 564.3795)" class="st10" width="181.3" height="3.7"/>
					
						<rect x="590.8" y="263" transform="matrix(0.7074 -0.7068 0.7068 0.7074 12.1713 559.1808)" class="st10" width="181.3" height="3.7"/>
					
						<rect x="585.6" y="257.8" transform="matrix(0.7074 -0.7068 0.7068 0.7074 14.3296 553.9823)" class="st10" width="181.3" height="3.7"/>
					
						<rect x="580.4" y="252.6" transform="matrix(0.7074 -0.7068 0.7068 0.7074 16.4883 548.7834)" class="st10" width="181.3" height="3.7"/>
					
						<rect x="575.2" y="247.4" transform="matrix(0.7074 -0.7068 0.7068 0.7074 18.647 543.5851)" class="st10" width="181.3" height="3.7"/>
					
						<rect x="570" y="242.2" transform="matrix(0.7074 -0.7068 0.7068 0.7074 20.8061 538.3865)" class="st10" width="181.3" height="3.7"/>
					
						<rect x="564.8" y="237" transform="matrix(0.7074 -0.7068 0.7068 0.7074 22.9648 533.1876)" class="st10" width="181.3" height="3.7"/>
					
						<rect x="559.6" y="231.8" transform="matrix(0.7074 -0.7068 0.7068 0.7074 25.1238 527.9891)" class="st10" width="181.3" height="3.7"/>
					
						<rect x="554.4" y="226.6" transform="matrix(0.7074 -0.7068 0.7068 0.7074 27.2827 522.7906)" class="st10" width="181.3" height="3.7"/>
					
						<rect x="549.2" y="221.4" transform="matrix(0.7074 -0.7068 0.7068 0.7074 29.4414 517.5925)" class="st10" width="181.3" height="3.7"/>
					
						<rect x="544" y="216.1" transform="matrix(0.7074 -0.7068 0.7068 0.7074 31.63 512.3231)" class="st10" width="181.3" height="3.7"/>
					
						<rect x="538.8" y="210.9" transform="matrix(0.7074 -0.7068 0.7068 0.7074 33.7883 507.1245)" class="st10" width="181.3" height="3.7"/>
					
						<rect x="533.5" y="205.8" transform="matrix(0.7074 -0.7068 0.7068 0.7074 35.8763 501.8962)" class="st10" width="181.3" height="3.7"/>
					
						<rect x="528.3" y="200.6" transform="matrix(0.7074 -0.7068 0.7068 0.7074 38.035 496.6981)" class="st10" width="181.3" height="3.7"/>
					
						<rect x="523.1" y="195.4" transform="matrix(0.7074 -0.7068 0.7068 0.7074 40.1941 491.4995)" class="st10" width="181.3" height="3.7"/>
					
						<rect x="517.9" y="190.1" transform="matrix(0.7074 -0.7068 0.7068 0.7074 42.3532 486.3001)" class="st10" width="181.3" height="3.7"/>
				</g>
			</g>
			<path class="st11" d="M660.3,248l-0.7-1.9h-4.4l-0.7,1.9h-2.2l4.2-11.5h1.9l4.1,11.5H660.3z M657.5,239.8l-1.6,4.5h3.1
				L657.5,239.8L657.5,239.8z"/>
			<path class="st7" d="M86.1,208h77.8c2.3,0,4.1,1.8,4.1,4.1v41.8c0,2.3-1.8,4.1-4.1,4.1H86.1c-2.3,0-4.1-1.8-4.1-4.1v-41.8
				C82,209.8,83.8,208,86.1,208z"/>
			<g class="st8">
				<g class="st9">
					
						<rect x="89.1" y="303.4" transform="matrix(0.7074 -0.7068 0.7068 0.7074 -163.1281 216.3629)" class="st10" width="181.3" height="3.7"/>
					
						<rect x="83.9" y="298.2" transform="matrix(0.7074 -0.7068 0.7068 0.7074 -160.9695 211.1647)" class="st10" width="181.3" height="3.7"/>
					
						<rect x="78.6" y="292.9" transform="matrix(0.7074 -0.7068 0.7068 0.7074 -158.8518 205.8662)" class="st10" width="181.3" height="3.7"/>
					
						<rect x="73.4" y="287.7" transform="matrix(0.7074 -0.7068 0.7068 0.7074 -156.6933 200.6674)" class="st10" width="181.3" height="3.7"/>
					
						<rect x="68.2" y="282.5" transform="matrix(0.7074 -0.7068 0.7068 0.7074 -154.5344 195.469)" class="st10" width="181.3" height="3.7"/>
					
						<rect x="63" y="277.3" transform="matrix(0.7074 -0.7068 0.7068 0.7074 -152.3755 190.2706)" class="st10" width="181.3" height="3.7"/>
					
						<rect x="57.8" y="272.1" transform="matrix(0.7074 -0.7068 0.7068 0.7074 -150.2168 185.0717)" class="st10" width="181.3" height="3.7"/>
					
						<rect x="52.6" y="266.9" transform="matrix(0.7074 -0.7068 0.7068 0.7074 -148.058 179.8734)" class="st10" width="181.3" height="3.7"/>
					
						<rect x="47.4" y="261.7" transform="matrix(0.7074 -0.7068 0.7068 0.7074 -145.8994 174.6745)" class="st10" width="181.3" height="3.7"/>
					
						<rect x="42.2" y="256.5" transform="matrix(0.7074 -0.7068 0.7068 0.7074 -143.7405 169.4762)" class="st10" width="181.3" height="3.7"/>
					
						<rect x="37" y="251.3" transform="matrix(0.7074 -0.7068 0.7068 0.7074 -141.5814 164.2776)" class="st10" width="181.3" height="3.7"/>
					
						<rect x="31.8" y="246.1" transform="matrix(0.7074 -0.7068 0.7068 0.7074 -139.4229 159.0788)" class="st10" width="181.3" height="3.7"/>
					
						<rect x="26.6" y="240.9" transform="matrix(0.7074 -0.7068 0.7068 0.7074 -137.2638 153.8802)" class="st10" width="181.3" height="3.7"/>
					
						<rect x="21.4" y="235.7" transform="matrix(0.7074 -0.7068 0.7068 0.7074 -135.105 148.6818)" class="st10" width="181.3" height="3.7"/>
					
						<rect x="16.2" y="230.5" transform="matrix(0.7074 -0.7068 0.7068 0.7074 -132.9461 143.4835)" class="st10" width="181.3" height="3.7"/>
					
						<rect x="10.9" y="225.3" transform="matrix(0.7074 -0.7068 0.7068 0.7074 -130.858 138.2552)" class="st10" width="181.3" height="3.7"/>
					
						<rect x="5.7" y="220.1" transform="matrix(0.7074 -0.7068 0.7068 0.7074 -128.6993 133.0571)" class="st10" width="181.3" height="3.7"/>
					
						<rect x="0.5" y="214.9" transform="matrix(0.7074 -0.7068 0.7068 0.7074 -126.5404 127.8578)" class="st10" width="181.3" height="3.7"/>
					
						<rect x="-4.7" y="209.7" transform="matrix(0.7074 -0.7068 0.7068 0.7074 -124.3819 122.6599)" class="st10" width="181.3" height="3.7"/>
					
						<rect x="-9.9" y="204.5" transform="matrix(0.7074 -0.7068 0.7068 0.7074 -122.2228 117.4614)" class="st10" width="181.3" height="3.7"/>
					
						<rect x="-15.1" y="199.3" transform="matrix(0.7074 -0.7068 0.7068 0.7074 -120.064 112.2622)" class="st10" width="181.3" height="3.7"/>
				</g>
			</g>
			<path class="st11" d="M121.5,238v-11.5h4.9c1,0,1.8,0.3,2.4,0.9c0.6,0.6,0.9,1.3,0.9,2.2c0,1-0.4,1.7-1.2,2.2l0,0
				c0.5,0.2,0.9,0.5,1.2,1c0.3,0.4,0.5,1,0.5,1.6c0,1.1-0.3,2-1,2.6s-1.8,1-3.3,1H121.5z M123.7,235.9h2.7c1.1,0,1.6-0.5,1.6-1.5
				c0-0.5-0.1-0.8-0.4-1.1s-0.7-0.4-1.1-0.4h-2.7L123.7,235.9L123.7,235.9z M123.7,231.1h2.4c0.4,0,0.8-0.1,1.1-0.3
				c0.3-0.2,0.4-0.5,0.4-1c0-0.4-0.1-0.8-0.4-1s-0.6-0.3-1.1-0.3h-2.4V231.1z"/>
			<path class="st12" d="M308.4,637l-0.5-1.5h-3.5l-0.5,1.5h-1.7l3.3-9.1h1.5l3.3,9.1H308.4z M306.2,630.5L305,634h2.5L306.2,630.5
				L306.2,630.5z M311.3,634.5v-3h-1.1v-1.4h1.1v-1.7h1.6v1.7h1.7v1.4H313v2.8c0,0.4,0.1,0.6,0.2,0.8c0.1,0.1,0.4,0.2,0.7,0.2h0.6
				v1.6h-0.7c-0.9,0-1.6-0.2-1.9-0.6C311.5,636,311.3,635.4,311.3,634.5z M316.2,634.5v-3h-1.1v-1.4h1.1v-1.7h1.6v1.7h1.7v1.4h-1.7
				v2.8c0,0.4,0.1,0.6,0.2,0.8c0.1,0.1,0.4,0.2,0.7,0.2h0.6v1.6h-0.7c-0.9,0-1.6-0.2-1.9-0.6C316.4,636,316.2,635.4,316.2,634.5z
				 M324.7,637v-0.7l0,0c0,0,0,0.1-0.1,0.1c0,0-0.1,0.1-0.2,0.2c-0.1,0.1-0.2,0.2-0.4,0.3s-0.3,0.1-0.5,0.2
				c-0.2,0.1-0.5,0.1-0.7,0.1c-0.8,0-1.5-0.2-1.9-0.6c-0.4-0.4-0.6-0.9-0.6-1.5s0.2-1.1,0.5-1.4c0.4-0.3,1-0.6,1.8-0.8
				s1.3-0.3,1.5-0.5c0.2-0.1,0.3-0.3,0.3-0.5s-0.1-0.4-0.3-0.5c-0.2-0.1-0.5-0.2-0.9-0.2c-0.5,0-0.8,0.1-1,0.3s-0.4,0.5-0.5,0.8
				l-1.4-0.6c0.2-0.6,0.5-1.1,1-1.4c0.5-0.4,1.1-0.6,1.9-0.6s1.5,0.2,2.1,0.7c0.5,0.4,0.8,1.1,0.8,2.1v4.4h-1.4V637z M323,634.2
				c-0.4,0.1-0.7,0.2-0.9,0.4c-0.1,0.1-0.2,0.3-0.2,0.5c0,0.5,0.3,0.7,1,0.7c0.5,0,0.9-0.1,1.1-0.3c0.3-0.2,0.4-0.4,0.4-0.7v-1.2
				l0,0c0,0.1-0.1,0.1-0.1,0.2c0,0-0.2,0.1-0.4,0.2C323.7,634,323.4,634.1,323,634.2z M331.9,634.2l1.6,0.4c-0.2,0.8-0.5,1.5-1,1.9
				s-1.2,0.7-2,0.7c-0.9,0-1.7-0.3-2.3-1c-0.6-0.6-0.9-1.5-0.9-2.7c0-1.1,0.3-2,0.9-2.7s1.4-1,2.3-1c0.8,0,1.4,0.2,1.9,0.7
				s0.8,1.1,1,1.8l-1.6,0.3c-0.2-0.8-0.6-1.3-1.3-1.3c-0.5,0-0.9,0.2-1.1,0.5c-0.3,0.4-0.4,0.9-0.4,1.6s0.1,1.2,0.4,1.6
				c0.3,0.4,0.7,0.5,1.1,0.5C331.3,635.7,331.8,635.2,331.9,634.2z M334.8,637v-9.5h1.7v5.4l0,0l2.5-2.8h2.1l-2.5,2.8l2.7,4.1h-1.9
				l-2.1-3.1l0,0l-0.9,1v2.2h-1.6V637z M346.5,634.6l1.2,1c-0.7,1-1.7,1.5-2.8,1.5c-1,0-1.7-0.3-2.4-1c-0.6-0.7-0.9-1.6-0.9-2.7
				s0.3-2,0.9-2.6c0.6-0.7,1.4-1,2.3-1s1.7,0.3,2.3,1c0.6,0.7,0.9,1.5,0.9,2.6v0.5h-4.6c0,0.5,0.2,0.9,0.4,1.2
				c0.3,0.3,0.6,0.4,1.1,0.4c0.4,0,0.7-0.1,1-0.3C346.1,635.2,346.3,635,346.5,634.6z M343.3,632.8h3c0-0.4-0.2-0.8-0.5-1
				c-0.3-0.3-0.6-0.4-1.1-0.4c-0.4,0-0.8,0.1-1,0.4C343.5,632.1,343.3,632.4,343.3,632.8z M349.3,637v-6.9h1.6v0.7l0,0
				c0.1-0.3,0.3-0.5,0.6-0.6c0.3-0.2,0.5-0.2,0.8-0.2c0.2,0,0.4,0,0.6,0.1l-0.3,1.6c-0.2-0.1-0.4-0.1-0.5-0.1
				c-0.8,0-1.2,0.5-1.2,1.6v3.8L349.3,637L349.3,637z M353.6,634.7l1.5-0.4c0.1,1,0.6,1.4,1.5,1.4c0.4,0,0.7-0.1,1-0.2
				c0.3-0.1,0.4-0.3,0.4-0.6c0-0.2-0.1-0.3-0.3-0.4c-0.2-0.1-0.6-0.2-1.2-0.4c-0.2,0-0.3-0.1-0.4-0.1c-0.8-0.2-1.4-0.5-1.8-0.8
				s-0.6-0.7-0.6-1.2c0-0.6,0.2-1.1,0.7-1.5s1.1-0.6,1.9-0.6c1.5,0,2.5,0.7,2.9,2l-1.4,0.4c-0.1-0.3-0.3-0.6-0.5-0.8s-0.5-0.3-1-0.3
				c-0.3,0-0.6,0.1-0.8,0.2c-0.2,0.1-0.3,0.3-0.3,0.4c0,0.2,0.1,0.3,0.3,0.5c0.2,0.1,0.8,0.3,1.7,0.5c0.8,0.2,1.4,0.5,1.6,0.8
				c0.3,0.3,0.4,0.8,0.4,1.3c0,0.6-0.2,1.1-0.7,1.5s-1.2,0.7-2.1,0.7c-1,0-1.7-0.2-2.2-0.7C354,636,353.7,635.4,353.6,634.7z"/>
			<path class="st13" d="M124.5,528v-6.9h2.9c0.6,0,1.1,0.2,1.5,0.5c0.4,0.4,0.6,0.8,0.6,1.3c0,0.6-0.3,1-0.8,1.3l0,0
				c0.3,0.1,0.5,0.3,0.7,0.6s0.3,0.6,0.3,1c0,0.7-0.2,1.2-0.6,1.6c-0.4,0.4-1.1,0.6-2,0.6L124.5,528L124.5,528z M125.8,526.8h1.6
				c0.6,0,0.9-0.3,0.9-0.9c0-0.3-0.1-0.5-0.3-0.7s-0.4-0.2-0.7-0.2h-1.6L125.8,526.8L125.8,526.8z M125.8,523.9h1.4
				c0.3,0,0.5-0.1,0.6-0.2c0.2-0.1,0.2-0.3,0.2-0.6s-0.1-0.5-0.2-0.6c-0.2-0.1-0.4-0.2-0.6-0.2h-1.4V523.9z M133.4,528v-6.9h1.3v5.7
				h2.8v1.2H133.4z M139.6,526.6c0.2,0.3,0.5,0.4,0.9,0.4s0.7-0.1,0.9-0.4c0.2-0.3,0.3-0.7,0.3-1.2s-0.1-0.9-0.3-1.2
				s-0.5-0.4-0.9-0.4s-0.7,0.1-0.9,0.4c-0.2,0.3-0.3,0.7-0.3,1.2C139.3,525.9,139.4,526.3,139.6,526.6z M142.2,527.4
				c-0.5,0.5-1,0.7-1.8,0.7s-1.3-0.2-1.8-0.7s-0.7-1.2-0.7-2c0-0.9,0.2-1.5,0.7-2s1.1-0.7,1.7-0.7c0.7,0,1.3,0.2,1.7,0.7
				c0.5,0.5,0.7,1.2,0.7,2C142.9,526.3,142.7,526.9,142.2,527.4z M145.2,524.9v1c0,0.3,0.1,0.6,0.3,0.8s0.5,0.3,0.8,0.3
				c0.4,0,0.7-0.1,0.9-0.4c0.2-0.3,0.3-0.7,0.3-1.2s-0.1-0.9-0.3-1.2s-0.5-0.4-0.9-0.4c-0.3,0-0.6,0.1-0.8,0.3
				C145.3,524.3,145.2,524.6,145.2,524.9z M144,528v-7.2h1.3v2.5l0,0c0,0,0,0,0-0.1c0,0,0.1-0.1,0.1-0.2c0.1-0.1,0.2-0.1,0.3-0.2
				c0.1-0.1,0.2-0.1,0.4-0.2c0.2,0,0.3-0.1,0.5-0.1c0.6,0,1.2,0.3,1.6,0.8c0.4,0.5,0.6,1.2,0.6,2s-0.2,1.5-0.6,2
				c-0.4,0.5-1,0.7-1.6,0.7c-0.3,0-0.5-0.1-0.8-0.2c-0.2-0.1-0.4-0.2-0.5-0.3l-0.1-0.2l0,0v0.5H144V528z M151.1,524.9v1
				c0,0.3,0.1,0.6,0.3,0.8s0.5,0.3,0.8,0.3c0.4,0,0.7-0.1,0.9-0.4c0.2-0.3,0.3-0.7,0.3-1.2s-0.1-0.9-0.3-1.2s-0.5-0.4-0.9-0.4
				c-0.3,0-0.6,0.1-0.8,0.3C151.2,524.3,151.1,524.6,151.1,524.9z M149.9,528v-7.2h1.3v2.5l0,0c0,0,0,0,0.1-0.1c0,0,0.1-0.1,0.1-0.2
				c0.1-0.1,0.2-0.1,0.3-0.2c0.1-0.1,0.2-0.1,0.4-0.2c0.2,0,0.3-0.1,0.5-0.1c0.6,0,1.2,0.3,1.6,0.8c0.4,0.5,0.6,1.2,0.6,2
				s-0.2,1.5-0.6,2c-0.4,0.5-1,0.7-1.6,0.7c-0.3,0-0.5-0.1-0.8-0.2c-0.2-0.1-0.4-0.2-0.5-0.3l-0.1-0.2l0,0v0.5h-1.3V528z M156,530.2
				l1-2.5l-2.1-5h1.3l1.4,3.5l0,0l1.4-3.5h1.3l-3,7.4L156,530.2L156,530.2z"/>
			<path class="st13" d="M202.7,473v-6.9h2.9c0.6,0,1.1,0.2,1.5,0.5c0.4,0.4,0.6,0.8,0.6,1.3c0,0.6-0.2,1-0.7,1.3l0,0
				c0.3,0.1,0.5,0.3,0.7,0.6c0.2,0.3,0.3,0.6,0.3,1c0,0.7-0.2,1.2-0.6,1.6c-0.4,0.4-1.1,0.6-2,0.6H202.7z M204.1,471.8h1.6
				c0.6,0,0.9-0.3,0.9-0.9c0-0.3-0.1-0.5-0.3-0.7s-0.4-0.2-0.7-0.2H204v1.8H204.1z M204.1,468.9h1.4c0.3,0,0.5-0.1,0.6-0.2
				c0.2-0.1,0.2-0.3,0.2-0.6c0-0.3-0.1-0.5-0.2-0.6c-0.2-0.1-0.4-0.2-0.6-0.2h-1.4V468.9z M211.6,473v-6.9h1.3v5.7h2.8v1.2
				L211.6,473L211.6,473z M216.6,473v-5.2h1.3v5.2H216.6z M216.6,467v-1.2h1.3v1.2H216.6z M219.3,473v-5.2h1.2v0.5l0,0
				c0.1-0.2,0.3-0.3,0.6-0.5c0.2-0.1,0.5-0.2,0.8-0.2c0.6,0,1,0.2,1.4,0.5c0.3,0.3,0.5,0.8,0.5,1.4v3.4h-1.3v-3.1
				c0-0.4-0.1-0.6-0.2-0.8c-0.1-0.2-0.4-0.3-0.7-0.3s-0.6,0.1-0.7,0.3c-0.2,0.2-0.3,0.4-0.3,0.7v3.2h-1.3V473z M225.1,473v-7.2h1.3
				v4.1l0,0l1.9-2.2h1.6l-1.9,2.1l2.1,3.1h-1.4l-1.6-2.4l0,0l-0.7,0.7v1.6h-1.3V473z"/>
			<path class="st13" d="M303.3,473v-6.9h2.9c0.6,0,1.1,0.2,1.5,0.5c0.4,0.4,0.6,0.8,0.6,1.3c0,0.6-0.3,1-0.7,1.3l0,0
				c0.3,0.1,0.5,0.3,0.7,0.6c0.2,0.3,0.3,0.6,0.3,1c0,0.7-0.2,1.2-0.6,1.6s-1.1,0.6-2,0.6H303.3z M304.6,471.8h1.6
				c0.6,0,0.9-0.3,0.9-0.9c0-0.3-0.1-0.5-0.3-0.7c-0.2-0.2-0.4-0.2-0.7-0.2h-1.6v1.8H304.6z M304.6,468.9h1.4c0.3,0,0.5-0.1,0.6-0.2
				c0.2-0.1,0.2-0.3,0.2-0.6c0-0.3-0.1-0.5-0.2-0.6c-0.2-0.1-0.4-0.2-0.6-0.2h-1.4V468.9z M310.8,471.6c0.2,0.3,0.5,0.4,0.9,0.4
				s0.7-0.1,0.9-0.4c0.2-0.3,0.3-0.7,0.3-1.2s-0.1-0.9-0.3-1.2c-0.2-0.3-0.5-0.4-0.9-0.4s-0.7,0.1-0.9,0.4c-0.2,0.3-0.3,0.7-0.3,1.2
				S310.6,471.3,310.8,471.6z M313.4,472.4c-0.5,0.5-1,0.7-1.8,0.7s-1.3-0.2-1.8-0.7s-0.7-1.2-0.7-2c0-0.9,0.2-1.5,0.7-2
				s1.1-0.7,1.7-0.7c0.7,0,1.3,0.2,1.7,0.7c0.5,0.5,0.7,1.2,0.7,2C314.1,471.3,313.9,471.9,313.4,472.4z M315.4,471.1v-2.3h-0.8
				v-1.1h0.8v-1.3h1.2v1.3h1.3v1.1h-1.3v2.2c0,0.3,0,0.5,0.1,0.6s0.3,0.2,0.6,0.2h0.4v1.2h-0.5c-0.7,0-1.2-0.1-1.5-0.4
				C315.6,472.3,315.4,471.8,315.4,471.1z M319.2,471.1v-2.3h-0.8v-1.1h0.8v-1.3h1.2v1.3h1.3v1.1h-1.3v2.2c0,0.3,0,0.5,0.1,0.6
				s0.3,0.2,0.6,0.2h0.4v1.2H321c-0.7,0-1.2-0.1-1.4-0.4C319.3,472.3,319.2,471.8,319.2,471.1z M323.9,471.6
				c0.2,0.3,0.5,0.4,0.9,0.4s0.7-0.1,0.9-0.4c0.2-0.3,0.3-0.7,0.3-1.2s-0.1-0.9-0.3-1.2c-0.2-0.3-0.5-0.4-0.9-0.4s-0.7,0.1-0.9,0.4
				c-0.2,0.3-0.3,0.7-0.3,1.2S323.7,471.3,323.9,471.6z M326.6,472.4c-0.5,0.5-1,0.7-1.8,0.7c-0.7,0-1.3-0.2-1.8-0.7s-0.7-1.2-0.7-2
				c0-0.9,0.2-1.5,0.7-2s1.1-0.7,1.7-0.7c0.7,0,1.3,0.2,1.7,0.7c0.5,0.5,0.7,1.2,0.7,2C327.3,471.3,327,471.9,326.6,472.4z
				 M328.3,473v-5.2h1.2v0.5l0,0c0.1-0.2,0.3-0.3,0.5-0.5c0.2-0.1,0.5-0.2,0.7-0.2c0.3,0,0.5,0.1,0.8,0.2c0.2,0.1,0.4,0.3,0.6,0.5
				l0,0c0.1-0.2,0.3-0.4,0.6-0.5c0.2-0.1,0.5-0.2,0.8-0.2c0.6,0,1.1,0.2,1.5,0.5s0.6,0.8,0.6,1.3v3.6h-1.2v-3.3
				c0-0.3-0.1-0.5-0.2-0.6c-0.1-0.2-0.4-0.2-0.7-0.2c-0.3,0-0.5,0.1-0.7,0.2c-0.2,0.2-0.2,0.3-0.2,0.6v3.4h-1.2v-3.3
				c0-0.3-0.1-0.5-0.2-0.6c-0.2-0.2-0.4-0.3-0.7-0.3c-0.3,0-0.5,0.1-0.7,0.2c-0.2,0.2-0.2,0.3-0.2,0.6v3.4h-1.3V473z M339.4,473
				v-6.9h1.4l2,4.5l0,0l2-4.5h1.4v6.9h-1.3v-4.2l0,0l-2,4.2h-0.2l-2-4.2l0,0v4.2H339.4z M347.6,473v-5.2h1.3v5.2H347.6z M347.6,467
				v-1.2h1.3v1.2H347.6z M353.5,470.9v-1c0-0.3-0.1-0.6-0.3-0.8c-0.2-0.2-0.5-0.3-0.8-0.3c-0.4,0-0.7,0.1-0.9,0.4
				c-0.2,0.3-0.3,0.7-0.3,1.2s0.1,0.9,0.3,1.2c0.2,0.3,0.5,0.4,0.9,0.4c0.3,0,0.6-0.1,0.8-0.3C353.4,471.4,353.5,471.2,353.5,470.9z
				 M353.6,473v-0.5l0,0c0,0-0.1,0.1-0.1,0.2c-0.1,0.1-0.2,0.2-0.5,0.3c-0.2,0.1-0.5,0.2-0.8,0.2c-0.7,0-1.2-0.3-1.7-0.7
				c-0.4-0.5-0.6-1.2-0.6-2s0.2-1.5,0.7-2c0.4-0.5,1-0.8,1.6-0.8c0.3,0,0.5,0.1,0.7,0.2s0.4,0.2,0.5,0.3l0.1,0.2l0,0v-2.5h1.3v7.2
				h-1.2V473z"/>
			<path class="st13" d="M483.2,487l-0.4-1.1h-2.6l-0.4,1.1h-1.3l2.5-6.9h1.1l2.5,6.9H483.2z M481.5,482.1l-0.9,2.7h1.9L481.5,482.1
				L481.5,482.1z M487.5,484.7l1.4-0.3c0.1,0.5,0.2,0.9,0.4,1.2c0.2,0.2,0.5,0.4,1,0.4c0.4,0,0.7-0.1,0.9-0.2
				c0.2-0.1,0.3-0.3,0.3-0.6c0-0.3-0.1-0.5-0.3-0.6c-0.2-0.2-0.7-0.3-1.5-0.6c-0.7-0.2-1.2-0.5-1.5-0.8s-0.4-0.7-0.4-1.2
				s0.2-1,0.6-1.4s1-0.6,1.7-0.6s1.2,0.2,1.7,0.5s0.8,0.8,0.9,1.4l-1.3,0.3c-0.2-0.7-0.6-1-1.3-1c-0.3,0-0.6,0.1-0.8,0.2
				c-0.2,0.1-0.2,0.3-0.2,0.5s0.1,0.4,0.3,0.5c0.2,0.1,0.7,0.3,1.5,0.6c0.8,0.3,1.3,0.5,1.6,0.9c0.3,0.3,0.4,0.7,0.4,1.2
				c0,0.6-0.2,1.1-0.7,1.5s-1.1,0.6-1.8,0.6c-0.8,0-1.4-0.2-1.9-0.6C487.9,486.1,487.6,485.5,487.5,484.7z M497.1,485.2l0.9,0.8
				c-0.5,0.8-1.3,1.2-2.2,1.2c-0.7,0-1.3-0.3-1.8-0.7c-0.5-0.5-0.7-1.2-0.7-2s0.2-1.5,0.7-2s1-0.8,1.7-0.8s1.3,0.3,1.7,0.8
				c0.5,0.5,0.7,1.2,0.7,2v0.4h-3.5c0,0.4,0.1,0.7,0.3,0.9c0.2,0.2,0.5,0.3,0.8,0.3s0.5-0.1,0.7-0.2
				C496.8,485.6,496.9,485.4,497.1,485.2z M494.7,483.8h2.3c0-0.3-0.1-0.6-0.3-0.8c-0.2-0.2-0.5-0.3-0.8-0.3s-0.6,0.1-0.8,0.3
				C494.8,483.3,494.7,483.5,494.7,483.8z M500,487l-1.2-5.2h1.3l0.7,3.5l0,0l1.2-3.5h1.2l1.1,3.5l0,0l0.8-3.5h1.2L505,487h-1.3
				l-1.2-3.8l0,0l-1.3,3.8H500z M510.5,485.2l0.9,0.8c-0.5,0.8-1.3,1.2-2.2,1.2c-0.7,0-1.3-0.3-1.8-0.7c-0.5-0.5-0.7-1.2-0.7-2
				s0.2-1.5,0.7-2s1-0.8,1.7-0.8s1.3,0.3,1.7,0.8c0.5,0.5,0.7,1.2,0.7,2v0.4H508c0,0.4,0.1,0.7,0.3,0.9c0.2,0.2,0.5,0.3,0.8,0.3
				s0.5-0.1,0.7-0.2C510.2,485.6,510.3,485.4,510.5,485.2z M508.1,483.8h2.3c0-0.3-0.1-0.6-0.3-0.8c-0.2-0.2-0.5-0.3-0.8-0.3
				s-0.6,0.1-0.8,0.3C508.2,483.3,508.1,483.5,508.1,483.8z M512.6,487v-5.2h1.2v0.6l0,0c0.1-0.2,0.2-0.4,0.4-0.5s0.4-0.2,0.6-0.2
				c0.2,0,0.3,0,0.5,0.1l-0.2,1.2c-0.1-0.1-0.3-0.1-0.4-0.1c-0.6,0-0.9,0.4-0.9,1.2v2.9H512.6z"/>
			<path class="st13" d="M602.6,494l-0.4-1.1h-2.6l-0.4,1.1h-1.3l2.5-6.9h1.1l2.5,6.9H602.6z M600.9,489.1l-0.9,2.7h1.9L600.9,489.1
				L600.9,489.1z M607.3,494v-6.9h1.3v5.7h2.9v1.2L607.3,494L607.3,494z M613.5,492.6c0.2,0.3,0.5,0.4,0.9,0.4s0.7-0.1,0.9-0.4
				s0.3-0.7,0.3-1.2s-0.1-0.9-0.3-1.2c-0.2-0.3-0.5-0.4-0.9-0.4s-0.7,0.1-0.9,0.4s-0.3,0.7-0.3,1.2S613.3,492.3,613.5,492.6z
				 M616.1,493.4c-0.5,0.5-1,0.7-1.8,0.7c-0.7,0-1.3-0.2-1.8-0.7s-0.7-1.2-0.7-2c0-0.9,0.2-1.5,0.7-2s1.1-0.7,1.7-0.7
				c0.7,0,1.3,0.2,1.7,0.7c0.5,0.5,0.7,1.2,0.7,2C616.8,492.3,616.6,492.9,616.1,493.4z M619.1,490.9v1c0,0.3,0.1,0.6,0.3,0.8
				c0.2,0.2,0.5,0.3,0.8,0.3c0.4,0,0.7-0.1,0.9-0.4s0.3-0.7,0.3-1.2s-0.1-0.9-0.3-1.2c-0.2-0.3-0.5-0.4-0.9-0.4
				c-0.3,0-0.6,0.1-0.8,0.3C619.2,490.3,619.1,490.6,619.1,490.9z M617.9,494v-7.2h1.3v2.5l0,0c0,0,0,0,0-0.1c0,0,0.1-0.1,0.1-0.2
				c0.1-0.1,0.2-0.1,0.3-0.2s0.2-0.1,0.4-0.2c0.2,0,0.3-0.1,0.5-0.1c0.6,0,1.2,0.3,1.6,0.8c0.4,0.5,0.6,1.2,0.6,2s-0.2,1.5-0.6,2
				c-0.4,0.5-1,0.7-1.6,0.7c-0.3,0-0.5-0.1-0.8-0.2c-0.2-0.1-0.4-0.2-0.5-0.3l-0.1-0.2l0,0v0.5h-1.2V494z M625,490.9v1
				c0,0.3,0.1,0.6,0.3,0.8c0.2,0.2,0.5,0.3,0.8,0.3c0.4,0,0.7-0.1,0.9-0.4s0.3-0.7,0.3-1.2s-0.1-0.9-0.3-1.2
				c-0.2-0.3-0.5-0.4-0.9-0.4c-0.3,0-0.6,0.1-0.8,0.3C625.1,490.3,625,490.6,625,490.9z M623.8,494v-7.2h1.3v2.5l0,0c0,0,0,0,0-0.1
				c0,0,0.1-0.1,0.1-0.2c0.1-0.1,0.2-0.1,0.3-0.2s0.2-0.1,0.4-0.2c0.2,0,0.3-0.1,0.5-0.1c0.6,0,1.2,0.3,1.6,0.8
				c0.4,0.5,0.6,1.2,0.6,2s-0.2,1.5-0.6,2c-0.4,0.5-1,0.7-1.6,0.7c-0.3,0-0.5-0.1-0.8-0.2c-0.2-0.1-0.4-0.2-0.5-0.3l-0.1-0.2l0,0
				v0.5h-1.2V494z M629.9,496.2l1-2.5l-2.1-5h1.3l1.4,3.5l0,0l1.3-3.5h1.3l-3,7.4h-1.2V496.2z"/>
			<path class="st13" d="M553.4,371l-0.4-1.1h-2.6L550,371h-1.3l2.5-6.9h1.1l2.5,6.9H553.4z M551.7,366.1l-0.9,2.7h1.9L551.7,366.1
				L551.7,366.1z M558,371v-6.9h1.4l2,4.5l0,0l2-4.5h1.4v6.9h-1.3v-4.2l0,0l-2,4.2h-0.2l-2-4.2l0,0v4.2H558z M569.3,371v-0.5l0,0
				c0,0,0,0,0,0.1l-0.1,0.1c-0.1,0.1-0.2,0.1-0.3,0.2s-0.2,0.1-0.4,0.2c-0.2,0-0.4,0.1-0.6,0.1c-0.6,0-1.1-0.1-1.4-0.4
				c-0.3-0.3-0.5-0.7-0.5-1.1c0-0.5,0.1-0.8,0.4-1c0.3-0.2,0.7-0.4,1.4-0.6c0.6-0.1,1-0.3,1.1-0.3c0.2-0.1,0.2-0.2,0.2-0.4
				s-0.1-0.3-0.2-0.4c-0.1-0.1-0.4-0.2-0.7-0.2s-0.6,0.1-0.7,0.2c-0.2,0.2-0.3,0.4-0.4,0.6l-1.1-0.4c0.1-0.4,0.4-0.8,0.7-1.1
				c0.4-0.3,0.8-0.4,1.4-0.4c0.6,0,1.2,0.2,1.6,0.5c0.4,0.3,0.6,0.9,0.6,1.6v3.3h-1V371z M568,368.9c-0.3,0.1-0.5,0.2-0.7,0.3
				c-0.1,0.1-0.1,0.2-0.1,0.4c0,0.4,0.3,0.5,0.8,0.5c0.4,0,0.7-0.1,0.9-0.2c0.2-0.2,0.3-0.3,0.3-0.6v-0.9l0,0c0,0.1-0.1,0.1-0.1,0.1
				s-0.1,0.1-0.3,0.1C568.5,368.7,568.3,368.8,568,368.9z M571.6,371v-5.2h1.3v5.2H571.6z M571.6,365v-1.2h1.3v1.2H571.6z
				 M574.3,371v-5.2h1.2v0.5l0,0c0.1-0.2,0.3-0.3,0.6-0.5s0.5-0.2,0.8-0.2c0.6,0,1,0.2,1.4,0.5c0.3,0.3,0.5,0.8,0.5,1.4v3.4h-1.3
				v-3.1c0-0.4-0.1-0.6-0.2-0.8c-0.1-0.2-0.4-0.3-0.7-0.3s-0.6,0.1-0.7,0.3c-0.2,0.2-0.3,0.4-0.3,0.7v3.2h-1.3V371z"/>
			<path class="st13" d="M466.4,368l-0.4-1.1h-2.6L463,368h-1.3l2.5-6.9h1.1l2.5,6.9H466.4z M464.7,363.1l-0.9,2.7h1.9L464.7,363.1
				L464.7,363.1z M471.1,368v-6.9h2.8c0.7,0,1.3,0.2,1.7,0.6c0.4,0.4,0.7,0.9,0.7,1.6c0,0.5-0.1,0.9-0.4,1.3
				c-0.3,0.3-0.6,0.6-1.1,0.7l1.5,2.7h-1.4l-1.4-2.6h-1v2.6L471.1,368L471.1,368z M472.4,364.3h1.4c0.8,0,1.1-0.3,1.1-1
				s-0.4-1-1.1-1h-1.4V364.3z M480.2,368v-0.5l0,0c0,0,0,0,0,0.1l-0.1,0.1c-0.1,0.1-0.2,0.1-0.3,0.2c-0.1,0.1-0.2,0.1-0.4,0.2
				c-0.2,0-0.4,0.1-0.6,0.1c-0.6,0-1.1-0.1-1.4-0.4s-0.5-0.7-0.5-1.1c0-0.5,0.1-0.8,0.4-1s0.7-0.4,1.4-0.6c0.6-0.1,1-0.3,1.1-0.3
				c0.2-0.1,0.2-0.2,0.2-0.4s-0.1-0.3-0.2-0.4s-0.4-0.2-0.7-0.2c-0.3,0-0.6,0.1-0.7,0.2c-0.2,0.2-0.3,0.4-0.4,0.6l-1.1-0.4
				c0.1-0.4,0.4-0.8,0.7-1.1c0.4-0.3,0.8-0.4,1.4-0.4s1.2,0.2,1.6,0.5s0.6,0.9,0.6,1.6v3.3h-1V368z M478.9,365.9
				c-0.3,0.1-0.5,0.2-0.7,0.3c-0.1,0.1-0.1,0.2-0.1,0.4c0,0.4,0.3,0.5,0.8,0.5c0.4,0,0.7-0.1,0.9-0.2c0.2-0.2,0.3-0.3,0.3-0.6v-0.9
				l0,0c0,0.1-0.1,0.1-0.1,0.1s-0.1,0.1-0.3,0.1C479.5,365.7,479.2,365.8,478.9,365.9z M482.6,368v-5.2h1.2v0.5l0,0
				c0.1-0.2,0.3-0.3,0.5-0.5c0.2-0.1,0.5-0.2,0.8-0.2s0.5,0.1,0.8,0.2c0.2,0.1,0.4,0.3,0.6,0.5l0,0c0.1-0.2,0.3-0.4,0.6-0.5
				c0.2-0.1,0.5-0.2,0.8-0.2c0.6,0,1.1,0.2,1.5,0.5s0.6,0.8,0.6,1.3v3.6h-1.2v-3.3c0-0.3-0.1-0.5-0.2-0.6c-0.1-0.2-0.4-0.2-0.7-0.2
				c-0.3,0-0.5,0.1-0.7,0.2c-0.2,0.2-0.2,0.3-0.2,0.6v3.4h-1.2v-3.3c0-0.3-0.1-0.5-0.2-0.6c-0.2-0.2-0.4-0.3-0.7-0.3
				c-0.3,0-0.5,0.1-0.7,0.2s-0.2,0.3-0.2,0.6v3.4h-1.4V368z M492.4,364.8v1.1c0,0.3,0.1,0.6,0.3,0.8c0.2,0.2,0.5,0.3,0.8,0.3
				c0.4,0,0.7-0.1,0.9-0.4c0.2-0.3,0.4-0.7,0.4-1.2s-0.1-0.9-0.4-1.2c-0.2-0.3-0.5-0.4-0.9-0.4c-0.3,0-0.6,0.1-0.8,0.3
				C492.5,364.3,492.4,364.5,492.4,364.8z M491.1,370.2v-7.4h1.2v0.5l0,0c0,0,0,0,0-0.1c0,0,0.1-0.1,0.1-0.2
				c0.1-0.1,0.2-0.1,0.3-0.2c0.1-0.1,0.2-0.1,0.4-0.2c0.2,0,0.4-0.1,0.5-0.1c0.6,0,1.2,0.3,1.6,0.8c0.5,0.5,0.7,1.2,0.7,2
				c0,0.9-0.2,1.5-0.7,2c-0.4,0.5-1,0.7-1.6,0.7c-0.2,0-0.4,0-0.5-0.1c-0.2,0-0.3-0.1-0.4-0.2s-0.2-0.1-0.3-0.2
				c-0.1-0.1-0.1-0.1-0.2-0.2v-0.1l0,0v2.7h-1.1V370.2z"/>
			<path class="st13" d="M517.9,276l-0.4-1.1h-2.6l-0.4,1.1h-1.3l2.5-6.9h1.1l2.5,6.9H517.9z M516.2,271.1l-0.9,2.7h1.9L516.2,271.1
				L516.2,271.1z M522.6,276v-6.9h2.8c0.7,0,1.3,0.2,1.7,0.6s0.7,0.9,0.7,1.6c0,0.5-0.1,0.9-0.4,1.3c-0.3,0.3-0.6,0.6-1.1,0.7
				l1.5,2.7h-1.4l-1.4-2.6h-1v2.6L522.6,276L522.6,276z M523.9,272.3h1.4c0.8,0,1.1-0.3,1.1-1s-0.4-1-1.1-1h-1.4V272.3z M531.7,276
				v-0.5l0,0c0,0,0,0,0,0.1l-0.1,0.1c-0.1,0.1-0.2,0.1-0.3,0.2s-0.2,0.1-0.4,0.2c-0.2,0-0.4,0.1-0.6,0.1c-0.6,0-1.1-0.1-1.4-0.4
				c-0.3-0.3-0.5-0.7-0.5-1.1c0-0.5,0.1-0.8,0.4-1c0.3-0.2,0.7-0.4,1.4-0.6c0.6-0.1,1-0.3,1.1-0.3c0.2-0.1,0.2-0.2,0.2-0.4
				s-0.1-0.3-0.2-0.4c-0.1-0.1-0.4-0.2-0.7-0.2s-0.6,0.1-0.7,0.2c-0.2,0.2-0.3,0.4-0.4,0.6l-1.1-0.4c0.1-0.4,0.4-0.8,0.7-1.1
				c0.4-0.3,0.8-0.4,1.4-0.4c0.6,0,1.2,0.2,1.6,0.5c0.4,0.3,0.6,0.9,0.6,1.6v3.3h-1V276z M530.4,273.9c-0.3,0.1-0.5,0.2-0.7,0.3
				c-0.1,0.1-0.1,0.2-0.1,0.4c0,0.4,0.3,0.5,0.8,0.5c0.4,0,0.7-0.1,0.9-0.2c0.2-0.2,0.3-0.3,0.3-0.6v-0.9l0,0c0,0.1-0.1,0.1-0.1,0.1
				s-0.1,0.1-0.3,0.1C531,273.7,530.7,273.8,530.4,273.9z M534.3,276v-4.1h-0.8v-1.1h0.8V270c0-0.4,0.1-0.8,0.3-0.9
				c0.2-0.2,0.6-0.3,1-0.3h1v1.1H536c-0.2,0-0.3,0-0.3,0.1c-0.1,0.1-0.1,0.2-0.1,0.3v0.4h1.3v1.1h-1.3v4.1L534.3,276L534.3,276z
				 M537.8,274.1v-2.3H537v-1.1h0.8v-1.3h1.2v1.3h1.3v1.1H539v2.2c0,0.3,0,0.5,0.1,0.6s0.3,0.2,0.6,0.2h0.4v1.2h-0.5
				c-0.7,0-1.2-0.1-1.5-0.4C538,275.3,537.8,274.8,537.8,274.1z M544.8,274.2l0.9,0.8c-0.5,0.8-1.3,1.2-2.2,1.2
				c-0.7,0-1.3-0.3-1.8-0.7c-0.5-0.5-0.7-1.2-0.7-2s0.2-1.5,0.7-2s1-0.8,1.7-0.8s1.3,0.3,1.7,0.8c0.5,0.5,0.7,1.2,0.7,2v0.4h-3.5
				c0,0.4,0.1,0.7,0.3,0.9c0.2,0.2,0.5,0.3,0.8,0.3s0.5-0.1,0.7-0.2C544.4,274.6,544.6,274.4,544.8,274.2z M542.3,272.8h2.3
				c0-0.3-0.1-0.6-0.3-0.8c-0.2-0.2-0.5-0.3-0.8-0.3s-0.6,0.1-0.8,0.3C542.5,272.3,542.4,272.5,542.3,272.8z M546.9,276v-5.2h1.2
				v0.6l0,0c0.1-0.2,0.2-0.4,0.4-0.5s0.4-0.2,0.6-0.2c0.2,0,0.3,0,0.5,0.1l-0.2,1.2c-0.1-0.1-0.3-0.1-0.4-0.1
				c-0.6,0-0.9,0.4-0.9,1.2v2.9H546.9z M550.1,274.3l1.2-0.3c0.1,0.7,0.5,1.1,1.2,1.1c0.3,0,0.6,0,0.7-0.1c0.2-0.1,0.3-0.3,0.3-0.4
				c0-0.2-0.1-0.3-0.2-0.3c-0.1-0.1-0.4-0.2-0.9-0.3c-0.1,0-0.2-0.1-0.3-0.1c-0.6-0.2-1-0.4-1.3-0.6s-0.4-0.5-0.4-0.9
				s0.2-0.8,0.5-1.1c0.4-0.3,0.8-0.5,1.4-0.5c1.2,0,1.9,0.5,2.2,1.5l-1.1,0.3c-0.1-0.3-0.2-0.4-0.4-0.6c-0.2-0.1-0.4-0.2-0.7-0.2
				s-0.5,0-0.6,0.1s-0.2,0.2-0.2,0.3c0,0.1,0.1,0.3,0.3,0.3c0.2,0.1,0.6,0.2,1.3,0.4c0.6,0.2,1,0.4,1.2,0.6c0.2,0.3,0.3,0.6,0.3,1
				s-0.2,0.8-0.6,1.1c-0.4,0.3-0.9,0.5-1.6,0.5c-0.7,0-1.3-0.2-1.7-0.5C550.4,275.2,550.2,274.8,550.1,274.3z"/>
			<path class="st13" d="M460.8,198l-0.4-1.1h-2.6l-0.4,1.1H456l2.5-6.9h1.1l2.5,6.9H460.8z M459,193.1l-0.9,2.7h1.9L459,193.1
				L459,193.1z M466.8,198v-5.7h-2v-1.2h5.4v1.2h-2v5.7H466.8z M471.3,196.6c0.2,0.3,0.5,0.4,0.9,0.4s0.7-0.1,0.9-0.4
				c0.2-0.3,0.3-0.7,0.3-1.2s-0.1-0.9-0.3-1.2c-0.2-0.3-0.5-0.4-0.9-0.4s-0.7,0.1-0.9,0.4c-0.2,0.3-0.3,0.7-0.3,1.2
				C471,195.9,471.1,196.3,471.3,196.6z M474,197.4c-0.5,0.5-1,0.7-1.8,0.7c-0.7,0-1.3-0.2-1.8-0.7s-0.7-1.2-0.7-2
				c0-0.9,0.2-1.5,0.7-2s1.1-0.7,1.7-0.7c0.7,0,1.3,0.2,1.7,0.7s0.7,1.2,0.7,2C474.7,196.3,474.4,196.9,474,197.4z M476.5,198
				l-1.2-5.2h1.3l0.7,3.5l0,0l1.2-3.5h1.2l1.1,3.5l0,0l0.8-3.5h1.2l-1.3,5.2h-1.3l-1.2-3.8l0,0l-1.3,3.8H476.5z M487,196.2l0.9,0.8
				c-0.5,0.8-1.3,1.2-2.2,1.2c-0.7,0-1.3-0.3-1.8-0.7c-0.5-0.5-0.7-1.2-0.7-2s0.2-1.5,0.7-2s1-0.8,1.7-0.8s1.3,0.3,1.7,0.8
				c0.5,0.5,0.7,1.2,0.7,2v0.4h-3.5c0,0.4,0.1,0.7,0.3,0.9c0.2,0.2,0.5,0.3,0.8,0.3s0.5-0.1,0.7-0.2
				C486.6,196.6,486.8,196.4,487,196.2z M484.6,194.8h2.3c0-0.3-0.1-0.6-0.3-0.8c-0.2-0.2-0.5-0.3-0.8-0.3s-0.6,0.1-0.8,0.3
				C484.7,194.3,484.6,194.5,484.6,194.8z M489.1,198v-5.2h1.2v0.6l0,0c0.1-0.2,0.2-0.4,0.4-0.5c0.2-0.1,0.4-0.2,0.6-0.2
				s0.3,0,0.5,0.1l-0.2,1.2c-0.1-0.1-0.3-0.1-0.4-0.1c-0.6,0-0.9,0.4-0.9,1.2v2.9H489.1z"/>
			<path class="st13" d="M605.1,162v-6.9h2.9c0.6,0,1.1,0.2,1.5,0.5c0.4,0.4,0.6,0.8,0.6,1.3c0,0.6-0.3,1-0.7,1.3l0,0
				c0.3,0.1,0.5,0.3,0.7,0.6s0.3,0.6,0.3,1c0,0.7-0.2,1.2-0.6,1.6c-0.4,0.4-1.1,0.6-2,0.6L605.1,162L605.1,162z M606.4,160.8h1.6
				c0.6,0,0.9-0.3,0.9-0.9c0-0.3-0.1-0.5-0.3-0.7s-0.4-0.2-0.7-0.2h-1.6L606.4,160.8L606.4,160.8z M606.4,157.9h1.4
				c0.3,0,0.5-0.1,0.6-0.2c0.2-0.1,0.2-0.3,0.2-0.6s-0.1-0.5-0.2-0.6c-0.2-0.1-0.4-0.2-0.6-0.2h-1.4V157.9z M614.4,162v-0.5l0,0
				c0,0,0,0,0,0.1l-0.1,0.1c-0.1,0.1-0.2,0.1-0.3,0.2c-0.1,0.1-0.2,0.1-0.4,0.2c-0.2,0-0.4,0.1-0.6,0.1c-0.6,0-1.1-0.1-1.4-0.4
				c-0.3-0.3-0.5-0.7-0.5-1.1c0-0.5,0.1-0.8,0.4-1c0.3-0.2,0.7-0.4,1.4-0.6c0.6-0.1,1-0.3,1.1-0.3c0.2-0.1,0.2-0.2,0.2-0.4
				s-0.1-0.3-0.2-0.4c-0.1-0.1-0.4-0.2-0.7-0.2s-0.6,0.1-0.7,0.2c-0.2,0.2-0.3,0.4-0.4,0.6l-1.1-0.4c0.1-0.4,0.4-0.8,0.7-1.1
				c0.4-0.3,0.8-0.4,1.4-0.4c0.6,0,1.2,0.2,1.6,0.5c0.4,0.3,0.6,0.9,0.6,1.6v3.3h-1V162z M613.1,159.9c-0.3,0.1-0.5,0.2-0.7,0.3
				c-0.1,0.1-0.1,0.2-0.1,0.4c0,0.4,0.3,0.5,0.8,0.5c0.4,0,0.7-0.1,0.9-0.2c0.2-0.2,0.3-0.3,0.3-0.6v-0.9l0,0c0,0.1-0.1,0.1-0.1,0.1
				s-0.1,0.1-0.3,0.1C613.6,159.7,613.4,159.8,613.1,159.9z M619.9,159.9l1.2,0.3c-0.1,0.6-0.4,1.1-0.8,1.4
				c-0.4,0.3-0.9,0.5-1.5,0.5c-0.7,0-1.3-0.2-1.8-0.7s-0.7-1.2-0.7-2c0-0.9,0.2-1.5,0.7-2s1.1-0.7,1.7-0.7c0.6,0,1.1,0.2,1.5,0.5
				s0.6,0.8,0.7,1.4l-1.2,0.2c-0.1-0.6-0.5-1-1-1c-0.4,0-0.6,0.1-0.9,0.4c-0.2,0.3-0.3,0.7-0.3,1.2s0.1,0.9,0.3,1.2s0.5,0.4,0.9,0.4
				C619.4,161,619.7,160.6,619.9,159.9z M622.1,162v-7.2h1.3v4.1l0,0l1.9-2.2h1.6l-1.9,2.1l2.1,3.1h-1.4l-1.6-2.4l0,0l-0.7,0.7v1.6
				h-1.3V162z M634.3,162l-0.4-1.1h-2.6l-0.4,1.1h-1.3l2.5-6.9h1.1l2.5,6.9H634.3z M632.6,157.1l-0.9,2.7h1.9L632.6,157.1
				L632.6,157.1z"/>
			<path class="st13" d="M556,113.7l1.4-0.3c0.1,0.5,0.2,0.9,0.4,1.2c0.2,0.2,0.5,0.4,1,0.4c0.4,0,0.7-0.1,0.9-0.2s0.3-0.3,0.3-0.6
				c0-0.3-0.1-0.5-0.3-0.6c-0.2-0.2-0.7-0.3-1.5-0.6c-0.7-0.2-1.2-0.5-1.5-0.8s-0.4-0.7-0.4-1.2s0.2-1,0.6-1.4
				c0.4-0.4,1-0.6,1.7-0.6s1.2,0.2,1.7,0.5s0.8,0.8,0.9,1.4l-1.3,0.3c-0.2-0.7-0.6-1-1.3-1c-0.3,0-0.6,0.1-0.8,0.2s-0.2,0.3-0.2,0.5
				s0.1,0.4,0.3,0.5s0.7,0.3,1.5,0.6c0.8,0.3,1.3,0.5,1.6,0.9c0.3,0.3,0.4,0.7,0.4,1.2c0,0.6-0.2,1.1-0.7,1.5s-1.1,0.6-1.8,0.6
				c-0.8,0-1.4-0.2-1.9-0.6C556.4,115.1,556.1,114.5,556,113.7z M565.3,113.9l1.2,0.3c-0.1,0.6-0.4,1.1-0.8,1.4
				c-0.4,0.3-0.9,0.5-1.5,0.5c-0.7,0-1.3-0.2-1.8-0.7s-0.7-1.2-0.7-2c0-0.9,0.2-1.5,0.7-2s1.1-0.7,1.7-0.7c0.6,0,1.1,0.2,1.5,0.5
				s0.6,0.8,0.7,1.4l-1.2,0.2c-0.1-0.6-0.5-1-1-1c-0.4,0-0.7,0.1-0.9,0.4s-0.3,0.7-0.3,1.2s0.1,0.9,0.3,1.2c0.2,0.3,0.5,0.4,0.9,0.4
				C564.9,115,565.2,114.6,565.3,113.9z M567.5,116v-5.2h1.2v0.6l0,0c0.1-0.2,0.2-0.4,0.4-0.5s0.4-0.2,0.6-0.2c0.2,0,0.3,0,0.5,0.1
				L570,112c-0.1-0.1-0.3-0.1-0.4-0.1c-0.6,0-0.9,0.4-0.9,1.2v2.9H567.5z M574.6,114.2l0.9,0.8c-0.5,0.8-1.3,1.2-2.2,1.2
				c-0.7,0-1.3-0.3-1.8-0.7c-0.5-0.5-0.7-1.2-0.7-2s0.2-1.5,0.7-2s1-0.8,1.7-0.8s1.3,0.3,1.7,0.8c0.5,0.5,0.7,1.2,0.7,2v0.4h-3.5
				c0,0.4,0.1,0.7,0.3,0.9c0.2,0.2,0.5,0.3,0.8,0.3s0.5-0.1,0.7-0.2C574.2,114.6,574.4,114.4,574.6,114.2z M572.1,112.8h2.3
				c0-0.3-0.1-0.6-0.3-0.8c-0.2-0.2-0.5-0.3-0.8-0.3s-0.6,0.1-0.8,0.3C572.3,112.3,572.1,112.5,572.1,112.8z M580.1,114.2l0.9,0.8
				c-0.5,0.8-1.3,1.2-2.2,1.2c-0.7,0-1.3-0.3-1.8-0.7c-0.5-0.5-0.7-1.2-0.7-2s0.2-1.5,0.7-2s1-0.8,1.7-0.8s1.3,0.3,1.7,0.8
				c0.5,0.5,0.7,1.2,0.7,2v0.4h-3.5c0,0.4,0.1,0.7,0.3,0.9c0.2,0.2,0.5,0.3,0.8,0.3s0.5-0.1,0.7-0.2
				C579.7,114.6,579.9,114.4,580.1,114.2z M577.6,112.8h2.3c0-0.3-0.1-0.6-0.3-0.8c-0.2-0.2-0.5-0.3-0.8-0.3s-0.6,0.1-0.8,0.3
				C577.8,112.3,577.6,112.5,577.6,112.8z M582.2,116v-5.2h1.2v0.5l0,0c0.1-0.2,0.3-0.3,0.6-0.5s0.5-0.2,0.8-0.2
				c0.6,0,1,0.2,1.4,0.5c0.3,0.3,0.5,0.8,0.5,1.4v3.4h-1.3v-3.1c0-0.4-0.1-0.6-0.2-0.8c-0.1-0.2-0.4-0.3-0.7-0.3s-0.6,0.1-0.7,0.3
				c-0.2,0.2-0.3,0.4-0.3,0.7v3.2L582.2,116L582.2,116z M587.6,114.3l1.2-0.3c0.1,0.7,0.5,1.1,1.2,1.1c0.3,0,0.6,0,0.7-0.1
				c0.2-0.1,0.3-0.3,0.3-0.4c0-0.2-0.1-0.3-0.2-0.3c-0.1-0.1-0.4-0.2-0.9-0.3c-0.1,0-0.2-0.1-0.3-0.1c-0.6-0.2-1-0.4-1.3-0.6
				s-0.4-0.5-0.4-0.9s0.2-0.8,0.5-1.1c0.4-0.3,0.8-0.5,1.4-0.5c1.2,0,1.9,0.5,2.2,1.5l-1.1,0.3c-0.1-0.3-0.2-0.4-0.4-0.6
				c-0.2-0.1-0.4-0.2-0.7-0.2s-0.5,0.1-0.6,0.1c-0.1,0.1-0.2,0.2-0.2,0.3c0,0.1,0.1,0.3,0.3,0.3c0.2,0.1,0.6,0.2,1.3,0.4
				c0.6,0.2,1,0.4,1.2,0.6c0.2,0.3,0.3,0.6,0.3,1s-0.2,0.8-0.6,1.1c-0.4,0.3-0.9,0.5-1.6,0.5c-0.7,0-1.3-0.2-1.7-0.5
				C587.9,115.2,587.7,114.8,587.6,114.3z"/>
			<path class="st13" d="M372.6,313v-6.9h1.4l2,4.5l0,0l2-4.5h1.4v6.9h-1.3v-4.2l0,0l-2,4.2h-0.2l-2-4.2l0,0v4.2H372.6z M380.9,313
				v-5.2h1.3v5.2H380.9z M380.9,307v-1.2h1.3v1.2H380.9z M386.8,310.9v-1c0-0.3-0.1-0.6-0.3-0.8c-0.2-0.2-0.5-0.3-0.8-0.3
				c-0.4,0-0.7,0.1-0.9,0.4c-0.2,0.3-0.3,0.7-0.3,1.2s0.1,0.9,0.3,1.2c0.2,0.3,0.5,0.4,0.9,0.4c0.3,0,0.6-0.1,0.8-0.3
				C386.7,311.4,386.8,311.2,386.8,310.9z M386.9,313v-0.5l0,0c0,0-0.1,0.1-0.1,0.2c-0.1,0.1-0.2,0.2-0.5,0.3
				c-0.2,0.1-0.5,0.2-0.8,0.2c-0.7,0-1.2-0.3-1.7-0.7c-0.4-0.5-0.6-1.2-0.6-2s0.2-1.5,0.7-2c0.4-0.5,1-0.8,1.6-0.8
				c0.3,0,0.5,0.1,0.7,0.2s0.4,0.2,0.5,0.3l0.1,0.2l0,0v-2.5h1.3v7.2h-1.2V313z M393.8,313l-2.5-6.9h1.4l1.7,4.9l0,0l1.7-4.9h1.4
				L395,313H393.8z M401.1,311.2l0.9,0.8c-0.5,0.8-1.3,1.2-2.2,1.2c-0.7,0-1.3-0.3-1.8-0.7c-0.5-0.5-0.7-1.2-0.7-2s0.2-1.5,0.7-2
				s1-0.8,1.7-0.8s1.3,0.3,1.7,0.8c0.5,0.5,0.7,1.2,0.7,2v0.4h-3.5c0,0.4,0.1,0.7,0.3,0.9c0.2,0.2,0.5,0.3,0.8,0.3s0.5-0.1,0.7-0.2
				C400.8,311.6,400.9,311.4,401.1,311.2z M398.7,309.8h2.3c0-0.3-0.1-0.6-0.3-0.8c-0.2-0.2-0.5-0.3-0.8-0.3s-0.6,0.1-0.8,0.3
				C398.8,309.3,398.7,309.5,398.7,309.8z M403.2,313v-5.2h1.2v0.5l0,0c0.1-0.2,0.3-0.3,0.6-0.5s0.5-0.2,0.8-0.2
				c0.6,0,1,0.2,1.4,0.5c0.3,0.3,0.5,0.8,0.5,1.4v3.4h-1.3v-3.1c0-0.4-0.1-0.6-0.2-0.8c-0.1-0.2-0.4-0.3-0.7-0.3
				c-0.3,0-0.6,0.1-0.7,0.3c-0.2,0.2-0.3,0.4-0.3,0.7v3.2h-1.3V313z M409.3,311.1v-2.3h-0.8v-1.1h0.8v-1.3h1.2v1.3h1.3v1.1h-1.3v2.2
				c0,0.3,0,0.5,0.1,0.6s0.3,0.2,0.6,0.2h0.4v1.2h-0.5c-0.7,0-1.2-0.1-1.4-0.4C409.4,312.3,409.3,311.8,409.3,311.1z"/>
			<path class="st13" d="M319.2,355v-5.7h-2v-1.2h5.4v1.2h-2v5.7H319.2z M323.8,353.6c0.2,0.3,0.5,0.4,0.9,0.4s0.7-0.1,0.9-0.4
				c0.2-0.3,0.3-0.7,0.3-1.2s-0.1-0.9-0.3-1.2c-0.2-0.3-0.5-0.4-0.9-0.4s-0.7,0.1-0.9,0.4c-0.2,0.3-0.3,0.7-0.3,1.2
				S323.6,353.3,323.8,353.6z M326.5,354.4c-0.5,0.5-1,0.7-1.8,0.7c-0.7,0-1.3-0.2-1.8-0.7s-0.7-1.2-0.7-2c0-0.9,0.2-1.5,0.7-2
				s1.1-0.7,1.7-0.7c0.7,0,1.3,0.2,1.7,0.7c0.5,0.5,0.7,1.2,0.7,2C327.1,353.3,326.9,353.9,326.5,354.4z M329.5,351.8v1.1
				c0,0.3,0.1,0.6,0.3,0.8c0.2,0.2,0.5,0.3,0.8,0.3c0.4,0,0.7-0.1,0.9-0.4c0.2-0.3,0.4-0.7,0.4-1.2s-0.1-0.9-0.4-1.2
				c-0.2-0.3-0.5-0.4-0.9-0.4c-0.3,0-0.6,0.1-0.8,0.3C329.6,351.3,329.5,351.5,329.5,351.8z M328.2,357.2v-7.4h1.2v0.5l0,0
				c0,0,0,0,0-0.1c0,0,0.1-0.1,0.1-0.2c0.1-0.1,0.2-0.1,0.3-0.2c0.1-0.1,0.2-0.1,0.4-0.2c0.2,0,0.4-0.1,0.5-0.1
				c0.6,0,1.2,0.3,1.6,0.8c0.5,0.5,0.7,1.2,0.7,2c0,0.9-0.2,1.5-0.7,2c-0.4,0.5-1,0.7-1.6,0.7c-0.2,0-0.4,0-0.5-0.1
				c-0.2,0-0.3-0.1-0.4-0.2s-0.2-0.1-0.3-0.2c-0.1-0.1-0.1-0.1-0.2-0.2v-0.1l0,0v2.7h-1.1V357.2z M336.8,355v-6.9h1.4l2,4.5l0,0
				l2-4.5h1.4v6.9h-1.3v-4.2l0,0l-2,4.2H340l-2-4.2l0,0v4.2H336.8z M345,355v-5.2h1.3v5.2H345z M345,349v-1.2h1.3v1.2H345z
				 M350.9,352.9v-1c0-0.3-0.1-0.6-0.3-0.8c-0.2-0.2-0.5-0.3-0.8-0.3c-0.4,0-0.7,0.1-0.9,0.4c-0.2,0.3-0.3,0.7-0.3,1.2
				s0.1,0.9,0.3,1.2c0.2,0.3,0.5,0.4,0.9,0.4c0.3,0,0.6-0.1,0.8-0.3C350.8,353.4,350.9,353.2,350.9,352.9z M351,355v-0.5l0,0
				c0,0-0.1,0.1-0.1,0.2c-0.1,0.1-0.2,0.2-0.5,0.3c-0.2,0.1-0.5,0.2-0.8,0.2c-0.7,0-1.2-0.3-1.7-0.7c-0.4-0.5-0.6-1.2-0.6-2
				s0.2-1.5,0.7-2c0.4-0.5,1-0.8,1.6-0.8c0.3,0,0.5,0.1,0.7,0.2s0.4,0.2,0.5,0.3l0.1,0.2l0,0v-2.5h1.3v7.2H351V355z"/>
			<path class="st13" d="M242.6,355v-6.9h1.4l2,4.5l0,0l2-4.5h1.4v6.9H248v-4.2l0,0l-2,4.2h-0.2l-2-4.2l0,0v4.2H242.6z M250.8,355
				v-5.2h1.3v5.2H250.8z M250.8,349v-1.2h1.3v1.2H250.8z M256.7,352.9v-1c0-0.3-0.1-0.6-0.3-0.8c-0.2-0.2-0.5-0.3-0.8-0.3
				c-0.4,0-0.7,0.1-0.9,0.4s-0.3,0.7-0.3,1.2s0.1,0.9,0.3,1.2c0.2,0.3,0.5,0.4,0.9,0.4c0.3,0,0.6-0.1,0.8-0.3
				C256.6,353.4,256.7,353.2,256.7,352.9z M256.8,355v-0.5l0,0c0,0-0.1,0.1-0.1,0.2c-0.1,0.1-0.2,0.2-0.5,0.3
				c-0.2,0.1-0.5,0.2-0.8,0.2c-0.7,0-1.2-0.3-1.7-0.7c-0.4-0.5-0.6-1.2-0.6-2s0.2-1.5,0.7-2c0.4-0.5,1-0.8,1.6-0.8
				c0.3,0,0.5,0.1,0.7,0.2c0.2,0.1,0.4,0.2,0.5,0.3l0.1,0.2l0,0v-2.5h1.3v7.2h-1.2V355z M261.9,355v-6.9h1.4l2,4.5l0,0l2-4.5h1.4
				v6.9h-1.3v-4.2l0,0l-2,4.2h-0.2l-2-4.2l0,0v4.2H261.9z M273.2,355v-0.5l0,0c0,0,0,0,0,0.1l-0.1,0.1c-0.1,0.1-0.2,0.1-0.3,0.2
				c-0.1,0.1-0.2,0.1-0.4,0.2c-0.2,0-0.4,0.1-0.6,0.1c-0.6,0-1.1-0.1-1.4-0.4s-0.5-0.7-0.5-1.1c0-0.5,0.1-0.8,0.4-1s0.7-0.4,1.4-0.6
				c0.6-0.1,1-0.3,1.1-0.3c0.2-0.1,0.2-0.2,0.2-0.4s-0.1-0.3-0.2-0.4s-0.4-0.2-0.7-0.2c-0.3,0-0.6,0.1-0.7,0.2
				c-0.2,0.2-0.3,0.4-0.4,0.6l-1.1-0.4c0.1-0.4,0.4-0.8,0.7-1.1c0.4-0.3,0.8-0.4,1.4-0.4s1.2,0.2,1.6,0.5s0.6,0.9,0.6,1.6v3.3h-1
				V355z M271.9,352.9c-0.3,0.1-0.5,0.2-0.6,0.3c-0.1,0.1-0.1,0.2-0.1,0.4c0,0.4,0.3,0.5,0.8,0.5c0.4,0,0.7-0.1,0.9-0.2
				c0.2-0.2,0.3-0.3,0.3-0.6v-0.9l0,0c0,0.1-0.1,0.1-0.1,0.1s-0.1,0.1-0.3,0.1C272.4,352.7,272.2,352.8,271.9,352.9z M275.5,355
				v-5.2h1.3v5.2H275.5z M275.5,349v-1.2h1.3v1.2H275.5z M278.2,355v-7.2h1.3v7.2H278.2z"/>
			<path class="st13" d="M208.7,301v-6.9h2.9c0.6,0,1.1,0.2,1.5,0.5c0.4,0.4,0.6,0.8,0.6,1.3c0,0.6-0.3,1-0.7,1.3l0,0
				c0.3,0.1,0.5,0.3,0.7,0.6c0.2,0.3,0.3,0.6,0.3,1c0,0.7-0.2,1.2-0.6,1.6c-0.4,0.4-1.1,0.6-2,0.6H208.7z M210,299.8h1.6
				c0.6,0,0.9-0.3,0.9-0.9c0-0.3-0.1-0.5-0.3-0.7s-0.4-0.2-0.7-0.2H210V299.8z M210,296.9h1.4c0.3,0,0.5-0.1,0.6-0.2
				c0.2-0.1,0.2-0.3,0.2-0.6c0-0.3-0.1-0.5-0.2-0.6c-0.2-0.1-0.4-0.2-0.6-0.2H210V296.9z M218.9,301v-5.7h-2v-1.2h5.4v1.2h-2v5.7
				H218.9z M223.4,299.6c0.2,0.3,0.5,0.4,0.9,0.4s0.7-0.1,0.9-0.4s0.3-0.7,0.3-1.2s-0.1-0.9-0.3-1.2c-0.2-0.3-0.5-0.4-0.9-0.4
				s-0.7,0.1-0.9,0.4s-0.3,0.7-0.3,1.2C223.1,298.9,223.2,299.3,223.4,299.6z M226.1,300.4c-0.5,0.5-1,0.7-1.8,0.7
				c-0.7,0-1.3-0.2-1.8-0.7s-0.7-1.2-0.7-2c0-0.9,0.2-1.5,0.7-2s1.1-0.7,1.7-0.7c0.7,0,1.3,0.2,1.7,0.7c0.5,0.5,0.7,1.2,0.7,2
				C226.8,299.3,226.5,299.9,226.1,300.4z M228.6,301l-1.2-5.2h1.3l0.7,3.5l0,0l1.2-3.5h1.2l1.1,3.5l0,0l0.8-3.5h1.2l-1.3,5.2h-1.3
				l-1.2-3.8l0,0l-1.3,3.8H228.6z M239.1,299.2l0.9,0.8c-0.5,0.8-1.3,1.2-2.2,1.2c-0.7,0-1.3-0.3-1.8-0.7c-0.5-0.5-0.7-1.2-0.7-2
				s0.2-1.5,0.7-2s1-0.8,1.7-0.8s1.3,0.3,1.7,0.8c0.5,0.5,0.7,1.2,0.7,2v0.4h-3.5c0,0.4,0.1,0.7,0.3,0.9c0.2,0.2,0.5,0.3,0.8,0.3
				s0.5-0.1,0.7-0.2C238.7,299.6,238.9,299.4,239.1,299.2z M236.7,297.8h2.3c0-0.3-0.1-0.6-0.3-0.8c-0.2-0.2-0.5-0.3-0.8-0.3
				s-0.6,0.1-0.8,0.3C236.8,297.3,236.7,297.5,236.7,297.8z M241.2,301v-5.2h1.2v0.6l0,0c0.1-0.2,0.2-0.4,0.4-0.5s0.4-0.2,0.6-0.2
				c0.2,0,0.3,0,0.5,0.1l-0.2,1.2c-0.1-0.1-0.3-0.1-0.4-0.1c-0.6,0-0.9,0.4-0.9,1.2v2.9H241.2z"/>
			<path class="st13" d="M259.2,229v-6.9h2.9c0.6,0,1.1,0.2,1.5,0.5c0.4,0.4,0.6,0.8,0.6,1.3c0,0.6-0.2,1-0.7,1.3l0,0
				c0.3,0.1,0.5,0.3,0.7,0.6s0.3,0.6,0.3,1c0,0.7-0.2,1.2-0.6,1.6c-0.4,0.4-1.1,0.6-2,0.6L259.2,229L259.2,229z M260.5,227.8h1.6
				c0.6,0,0.9-0.3,0.9-0.9c0-0.3-0.1-0.5-0.3-0.7c-0.2-0.2-0.4-0.2-0.7-0.2h-1.6v1.8H260.5z M260.5,224.9h1.4c0.3,0,0.5-0.1,0.6-0.2
				c0.2-0.1,0.2-0.3,0.2-0.6s-0.1-0.5-0.2-0.6c-0.2-0.1-0.4-0.2-0.6-0.2h-1.4V224.9z M267.6,226.7l1.4-0.3c0.1,0.5,0.2,0.9,0.4,1.2
				c0.2,0.2,0.5,0.4,1,0.4c0.4,0,0.7-0.1,0.9-0.2c0.2-0.1,0.3-0.3,0.3-0.6s-0.1-0.5-0.3-0.6c-0.2-0.2-0.7-0.3-1.5-0.6
				c-0.7-0.2-1.2-0.5-1.5-0.8s-0.4-0.7-0.4-1.2s0.2-1,0.6-1.4s1-0.6,1.7-0.6s1.2,0.2,1.7,0.5s0.8,0.8,0.9,1.4l-1.3,0.3
				c-0.2-0.7-0.6-1-1.3-1c-0.3,0-0.6,0.1-0.8,0.2c-0.2,0.1-0.2,0.3-0.2,0.5s0.1,0.4,0.3,0.5c0.2,0.1,0.7,0.3,1.5,0.6
				s1.3,0.5,1.6,0.9c0.3,0.3,0.4,0.7,0.4,1.2c0,0.6-0.2,1.1-0.7,1.5s-1.1,0.6-1.8,0.6c-0.8,0-1.4-0.2-1.9-0.6
				C268,228.1,267.7,227.5,267.6,226.7z M274.1,227.1v-2.3h-0.8v-1.1h0.8v-1.3h1.2v1.3h1.3v1.1h-1.3v2.2c0,0.3,0,0.5,0.1,0.6
				s0.3,0.2,0.6,0.2h0.4v1.2H276c-0.7,0-1.2-0.1-1.4-0.4C274.3,228.3,274.1,227.8,274.1,227.1z M280.6,229v-0.5l0,0c0,0,0,0,0,0.1
				l-0.1,0.1c-0.1,0.1-0.2,0.1-0.3,0.2c-0.1,0.1-0.2,0.1-0.4,0.2c-0.2,0-0.4,0.1-0.6,0.1c-0.6,0-1.1-0.1-1.4-0.4
				c-0.3-0.3-0.5-0.7-0.5-1.1c0-0.5,0.1-0.8,0.4-1s0.7-0.4,1.4-0.6c0.6-0.1,1-0.3,1.1-0.3c0.2-0.1,0.2-0.2,0.2-0.4s-0.1-0.3-0.2-0.4
				c-0.1-0.1-0.4-0.2-0.7-0.2c-0.3,0-0.6,0.1-0.7,0.2c-0.2,0.2-0.3,0.4-0.4,0.6l-1.1-0.4c0.1-0.4,0.4-0.8,0.7-1.1
				c0.4-0.3,0.8-0.4,1.4-0.4s1.2,0.2,1.6,0.5s0.6,0.9,0.6,1.6v3.3h-1V229z M279.3,226.9c-0.3,0.1-0.5,0.2-0.7,0.3
				c-0.1,0.1-0.1,0.2-0.1,0.4c0,0.4,0.3,0.5,0.8,0.5c0.4,0,0.7-0.1,0.9-0.2c0.2-0.2,0.3-0.3,0.3-0.6v-0.9l0,0c0,0.1-0.1,0.1-0.1,0.1
				s-0.1,0.1-0.3,0.1C279.8,226.7,279.6,226.8,279.3,226.9z M282.9,229v-5.2h1.3v5.2H282.9z M282.9,223v-1.2h1.3v1.2H282.9z
				 M285.6,229v-5.2h1.2v0.6l0,0c0.1-0.2,0.2-0.4,0.4-0.5c0.2-0.1,0.4-0.2,0.6-0.2s0.3,0,0.5,0.1l-0.2,1.2c-0.1-0.1-0.3-0.1-0.4-0.1
				c-0.6,0-0.9,0.4-0.9,1.2v2.9H285.6z M288.8,227.3l1.2-0.3c0.1,0.7,0.5,1.1,1.2,1.1c0.3,0,0.6,0,0.7-0.1c0.2-0.1,0.3-0.3,0.3-0.4
				c0-0.2-0.1-0.3-0.2-0.3c-0.1-0.1-0.4-0.2-0.9-0.3c-0.1,0-0.2-0.1-0.3-0.1c-0.6-0.2-1-0.4-1.3-0.6c-0.3-0.2-0.4-0.5-0.4-0.9
				s0.2-0.8,0.5-1.1c0.4-0.3,0.8-0.5,1.4-0.5c1.2,0,1.9,0.5,2.2,1.5l-1.1,0.3c-0.1-0.3-0.2-0.4-0.4-0.6c-0.2-0.1-0.4-0.2-0.7-0.2
				c-0.3,0-0.4,0.1-0.6,0.1c-0.1,0.1-0.2,0.2-0.2,0.3s0.1,0.3,0.3,0.3c0.2,0.1,0.6,0.2,1.3,0.4c0.6,0.2,1,0.4,1.2,0.6
				c0.2,0.3,0.3,0.6,0.3,1s-0.2,0.8-0.6,1.1s-0.9,0.5-1.6,0.5s-1.3-0.2-1.7-0.5C289.1,228.2,288.9,227.8,288.8,227.3z"/>
			<path class="st13" d="M120.2,156v-6.9h2.9c0.6,0,1.1,0.2,1.5,0.5c0.4,0.4,0.6,0.8,0.6,1.3c0,0.6-0.2,1-0.7,1.3l0,0
				c0.3,0.1,0.5,0.3,0.7,0.6s0.3,0.6,0.3,1c0,0.7-0.2,1.2-0.6,1.6c-0.4,0.4-1.1,0.6-2,0.6L120.2,156L120.2,156z M121.5,154.8h1.6
				c0.6,0,0.9-0.3,0.9-0.9c0-0.3-0.1-0.5-0.3-0.7c-0.2-0.2-0.4-0.2-0.7-0.2h-1.6L121.5,154.8L121.5,154.8z M121.5,151.9h1.4
				c0.3,0,0.5-0.1,0.6-0.2c0.2-0.1,0.2-0.3,0.2-0.6s-0.1-0.5-0.2-0.6c-0.2-0.1-0.4-0.2-0.6-0.2h-1.4V151.9z M133,156l-0.4-1.1H130
				l-0.4,1.1h-1.3l2.5-6.9h1.1l2.5,6.9H133z M131.3,151.1l-0.9,2.7h1.9L131.3,151.1L131.3,151.1z M135.2,156v-7.2h1.3v7.2H135.2z
				 M137.9,156v-7.2h1.3v7.2H137.9z M144,154.2l0.9,0.8c-0.5,0.8-1.3,1.2-2.2,1.2c-0.7,0-1.3-0.3-1.8-0.7c-0.5-0.5-0.7-1.2-0.7-2
				s0.2-1.5,0.7-2s1-0.8,1.7-0.8s1.3,0.3,1.7,0.8c0.5,0.5,0.7,1.2,0.7,2v0.4h-3.5c0,0.4,0.1,0.7,0.3,0.9s0.5,0.3,0.8,0.3
				s0.5-0.1,0.7-0.2C143.6,154.6,143.8,154.4,144,154.2z M141.5,152.8h2.3c0-0.3-0.1-0.6-0.3-0.8s-0.5-0.3-0.8-0.3s-0.6,0.1-0.8,0.3
				C141.7,152.3,141.6,152.5,141.5,152.8z M146.3,158.2l1-2.5l-2.1-5h1.3l1.4,3.5l0,0l1.4-3.5h1.3l-3,7.4h-1.3V158.2z"/>
			<path class="st13" d="M18,192v-6.9h2.9c0.6,0,1.1,0.2,1.5,0.5c0.4,0.4,0.6,0.8,0.6,1.3c0,0.6-0.2,1-0.7,1.3l0,0
				c0.3,0.1,0.5,0.3,0.7,0.6s0.3,0.6,0.3,1c0,0.7-0.2,1.2-0.6,1.6c-0.4,0.4-1.1,0.6-2,0.6L18,192L18,192z M19.3,190.8h1.6
				c0.6,0,0.9-0.3,0.9-0.9c0-0.3-0.1-0.5-0.3-0.7c-0.2-0.2-0.4-0.2-0.7-0.2h-1.6v1.8H19.3z M19.3,187.9h1.4c0.3,0,0.5-0.1,0.6-0.2
				c0.2-0.1,0.2-0.3,0.2-0.6s-0.1-0.5-0.2-0.6c-0.2-0.1-0.4-0.2-0.6-0.2h-1.4V187.9z M27.3,192v-0.5l0,0c0,0,0,0,0,0.1l-0.1,0.1
				c-0.1,0.1-0.2,0.1-0.3,0.2c-0.1,0.1-0.2,0.1-0.4,0.2c-0.2,0-0.4,0.1-0.6,0.1c-0.6,0-1.1-0.1-1.4-0.4c-0.3-0.3-0.5-0.7-0.5-1.1
				c0-0.5,0.1-0.8,0.4-1s0.7-0.4,1.4-0.6c0.6-0.1,1-0.3,1.1-0.3c0.2-0.1,0.2-0.2,0.2-0.4s-0.1-0.3-0.2-0.4c-0.1-0.1-0.4-0.2-0.7-0.2
				c-0.3,0-0.6,0.1-0.7,0.2c-0.2,0.2-0.3,0.4-0.4,0.6l-1.1-0.4c0.1-0.4,0.4-0.8,0.7-1.1c0.4-0.3,0.8-0.4,1.4-0.4s1.2,0.2,1.6,0.5
				s0.6,0.9,0.6,1.6v3.3h-1V192z M26,189.9c-0.3,0.1-0.5,0.2-0.7,0.3c-0.1,0.1-0.1,0.2-0.1,0.4c0,0.4,0.3,0.5,0.8,0.5
				c0.4,0,0.7-0.1,0.9-0.2c0.2-0.2,0.3-0.3,0.3-0.6v-0.9l0,0c0,0.1-0.1,0.1-0.1,0.1s-0.1,0.1-0.3,0.1
				C26.5,189.7,26.3,189.8,26,189.9z M32.8,189.9l1.2,0.3c-0.1,0.6-0.4,1.1-0.8,1.4c-0.4,0.3-0.9,0.5-1.5,0.5
				c-0.7,0-1.3-0.2-1.8-0.7s-0.7-1.2-0.7-2c0-0.9,0.2-1.5,0.7-2s1.1-0.7,1.7-0.7c0.6,0,1.1,0.2,1.5,0.5s0.6,0.8,0.7,1.4l-1.2,0.2
				c-0.1-0.6-0.5-1-1-1c-0.4,0-0.7,0.1-0.9,0.4c-0.2,0.3-0.3,0.7-0.3,1.2s0.1,0.9,0.3,1.2c0.2,0.3,0.5,0.4,0.9,0.4
				C32.3,191,32.6,190.6,32.8,189.9z M35,192v-7.2h1.3v4.1l0,0l1.9-2.2h1.6l-1.9,2.1l2.1,3.1h-1.4l-1.6-2.4l0,0l-0.7,0.7v1.6H35V192
				z M43.2,192v-6.9h2.9c0.6,0,1.1,0.2,1.5,0.5c0.4,0.4,0.6,0.8,0.6,1.3c0,0.6-0.2,1-0.7,1.3l0,0c0.3,0.1,0.5,0.3,0.7,0.6
				s0.3,0.6,0.3,1c0,0.7-0.2,1.2-0.6,1.6c-0.4,0.4-1.1,0.6-2,0.6L43.2,192L43.2,192z M44.5,190.8h1.6c0.6,0,0.9-0.3,0.9-0.9
				c0-0.3-0.1-0.5-0.3-0.7S46.3,189,46,189h-1.6L44.5,190.8L44.5,190.8z M44.5,187.9H46c0.3,0,0.5-0.1,0.6-0.2
				c0.2-0.1,0.2-0.3,0.2-0.6s-0.1-0.5-0.2-0.6c-0.2-0.1-0.4-0.2-0.6-0.2h-1.4L44.5,187.9L44.5,187.9z"/>
			<path class="st13" d="M152.8,257v-6.9h2.9c0.6,0,1.1,0.2,1.5,0.5c0.4,0.4,0.6,0.8,0.6,1.3c0,0.6-0.3,1-0.7,1.3l0,0
				c0.3,0.1,0.5,0.3,0.7,0.6s0.3,0.6,0.3,1c0,0.7-0.2,1.2-0.6,1.6c-0.4,0.4-1.1,0.6-2,0.6L152.8,257L152.8,257z M154.1,255.8h1.6
				c0.6,0,0.9-0.3,0.9-0.9c0-0.3-0.1-0.5-0.3-0.7s-0.4-0.2-0.7-0.2H154v1.8H154.1z M154.1,252.9h1.4c0.3,0,0.5-0.1,0.6-0.2
				c0.2-0.1,0.2-0.3,0.2-0.6s-0.1-0.5-0.2-0.6c-0.2-0.1-0.4-0.2-0.6-0.2h-1.4V252.9z M161.6,257v-6.9h2.8c0.7,0,1.3,0.2,1.7,0.6
				c0.4,0.4,0.7,0.9,0.7,1.6c0,0.5-0.1,0.9-0.4,1.3c-0.3,0.3-0.6,0.6-1.1,0.7l1.5,2.7h-1.4l-1.4-2.6h-1v2.6L161.6,257L161.6,257z
				 M163,253.3h1.4c0.8,0,1.1-0.3,1.1-1s-0.4-1-1.1-1H163V253.3z M170.8,257v-0.5l0,0c0,0,0,0,0,0.1l-0.1,0.1
				c-0.1,0.1-0.2,0.1-0.3,0.2s-0.2,0.1-0.4,0.2c-0.2,0-0.4,0.1-0.6,0.1c-0.6,0-1.1-0.1-1.4-0.4c-0.3-0.3-0.5-0.7-0.5-1.1
				c0-0.5,0.1-0.8,0.4-1c0.3-0.2,0.7-0.4,1.4-0.6c0.6-0.1,1-0.3,1.1-0.3c0.2-0.1,0.2-0.2,0.2-0.4s-0.1-0.3-0.2-0.4
				c-0.1-0.1-0.4-0.2-0.7-0.2s-0.6,0.1-0.8,0.2c-0.2,0.2-0.3,0.4-0.4,0.6l-1.1-0.4c0.1-0.4,0.4-0.8,0.7-1.1c0.4-0.3,0.8-0.4,1.4-0.4
				c0.6,0,1.2,0.2,1.6,0.5c0.4,0.3,0.6,0.9,0.6,1.6v3.3h-0.9V257z M169.5,254.9c-0.3,0.1-0.5,0.2-0.7,0.3c-0.1,0.1-0.1,0.2-0.1,0.4
				c0,0.4,0.3,0.5,0.8,0.5c0.4,0,0.7-0.1,0.9-0.2c0.2-0.2,0.3-0.3,0.3-0.6v-0.9l0,0c0,0.1-0.1,0.1-0.1,0.1s-0.1,0.1-0.3,0.1
				C170.1,254.7,169.8,254.8,169.5,254.9z M173.4,257v-4.1h-0.8v-1.1h0.8V251c0-0.4,0.1-0.8,0.3-0.9c0.2-0.2,0.6-0.3,1-0.3h1v1.1
				h-0.8c-0.2,0-0.3,0-0.3,0.1c-0.1,0.1-0.1,0.2-0.1,0.3v0.4h1.3v1.1h-1.3v4.1L173.4,257L173.4,257z M176.9,255.1v-2.3h-0.8v-1.1
				h0.8v-1.3h1.2v1.3h1.3v1.1h-1.3v2.2c0,0.3,0,0.5,0.1,0.6s0.3,0.2,0.6,0.2h0.4v1.2h-0.5c-0.7,0-1.2-0.1-1.4-0.4
				C177.1,256.3,176.9,255.8,176.9,255.1z M183.9,255.2l0.9,0.8c-0.5,0.8-1.3,1.2-2.2,1.2c-0.7,0-1.3-0.3-1.8-0.7
				c-0.5-0.5-0.7-1.2-0.7-2s0.2-1.5,0.7-2s1-0.8,1.7-0.8s1.3,0.3,1.7,0.8c0.5,0.5,0.7,1.2,0.7,2v0.4h-3.5c0,0.4,0.1,0.7,0.3,0.9
				s0.5,0.3,0.8,0.3s0.5-0.1,0.7-0.2C183.5,255.6,183.7,255.4,183.9,255.2z M181.4,253.8h2.3c0-0.3-0.1-0.6-0.3-0.8
				s-0.5-0.3-0.8-0.3s-0.6,0.1-0.8,0.3C181.6,253.3,181.5,253.5,181.4,253.8z M186,257v-5.2h1.2v0.6l0,0c0.1-0.2,0.2-0.4,0.4-0.5
				s0.4-0.2,0.6-0.2c0.2,0,0.3,0,0.5,0.1l-0.2,1.2c-0.1-0.1-0.3-0.1-0.4-0.1c-0.6,0-0.9,0.4-0.9,1.2v2.9H186z M189.2,255.3l1.2-0.3
				c0.1,0.7,0.5,1.1,1.2,1.1c0.3,0,0.6,0,0.8-0.1s0.3-0.3,0.3-0.4c0-0.2-0.1-0.3-0.2-0.3c-0.1-0.1-0.4-0.2-0.9-0.3
				c-0.1,0-0.2-0.1-0.3-0.1c-0.6-0.2-1-0.4-1.3-0.6c-0.3-0.2-0.4-0.5-0.4-0.9s0.2-0.8,0.5-1.1c0.4-0.3,0.8-0.5,1.4-0.5
				c1.2,0,1.9,0.5,2.2,1.5l-1.1,0.3c-0.1-0.3-0.2-0.4-0.4-0.6c-0.2-0.1-0.4-0.2-0.7-0.2c-0.2,0-0.5,0.1-0.6,0.1
				c-0.1,0.1-0.2,0.2-0.2,0.3s0.1,0.3,0.3,0.3c0.2,0.1,0.6,0.2,1.3,0.4c0.6,0.2,1,0.4,1.2,0.6c0.2,0.3,0.3,0.6,0.3,1
				s-0.2,0.8-0.6,1.1c-0.4,0.3-0.9,0.5-1.6,0.5c-0.7,0-1.3-0.2-1.7-0.5C189.5,256.2,189.3,255.8,189.2,255.3z"/>
			<path class="st13" d="M61.3,406v-6.9h2.9c0.6,0,1.1,0.2,1.5,0.5c0.4,0.4,0.6,0.8,0.6,1.3c0,0.6-0.2,1-0.7,1.3l0,0
				c0.3,0.1,0.5,0.3,0.7,0.6c0.2,0.3,0.3,0.6,0.3,1c0,0.7-0.2,1.2-0.6,1.6s-1.1,0.6-2,0.6H61.3z M62.6,404.8h1.6
				c0.6,0,0.9-0.3,0.9-0.9c0-0.3-0.1-0.5-0.3-0.7c-0.2-0.2-0.4-0.2-0.7-0.2h-1.6L62.6,404.8L62.6,404.8z M62.6,401.9H64
				c0.3,0,0.5-0.1,0.6-0.2c0.2-0.1,0.2-0.3,0.2-0.6c0-0.3-0.1-0.5-0.2-0.6c-0.2-0.1-0.4-0.2-0.6-0.2h-1.4V401.9z M70.1,406v-6.9h1.4
				l2,4.5l0,0l2-4.5h1.4v6.9h-1.3v-4.2l0,0l-2,4.2h-0.2l-2-4.2l0,0v4.2H70.1z M81.4,406v-0.5l0,0c0,0,0,0,0,0.1l-0.1,0.1
				c-0.1,0.1-0.2,0.1-0.3,0.2c-0.1,0.1-0.2,0.1-0.4,0.2c-0.2,0-0.4,0.1-0.6,0.1c-0.6,0-1.1-0.1-1.4-0.4s-0.5-0.7-0.5-1.1
				c0-0.5,0.1-0.8,0.4-1s0.7-0.4,1.4-0.6c0.6-0.1,1-0.3,1.1-0.3c0.2-0.1,0.2-0.2,0.2-0.4s-0.1-0.3-0.2-0.4s-0.4-0.2-0.7-0.2
				c-0.3,0-0.6,0.1-0.7,0.2c-0.2,0.2-0.3,0.4-0.4,0.6l-1.1-0.4c0.1-0.4,0.4-0.8,0.7-1.1c0.4-0.3,0.8-0.4,1.4-0.4s1.2,0.2,1.6,0.5
				s0.6,0.9,0.6,1.6v3.3h-1V406z M80.1,403.9c-0.3,0.1-0.5,0.2-0.7,0.3c-0.1,0.1-0.1,0.2-0.1,0.4c0,0.4,0.3,0.5,0.8,0.5
				c0.4,0,0.7-0.1,0.9-0.2c0.2-0.2,0.3-0.3,0.3-0.6v-0.9l0,0c0,0.1-0.1,0.1-0.1,0.1s-0.1,0.1-0.3,0.1
				C80.6,403.7,80.4,403.8,80.1,403.9z M83.7,406v-5.2H85v5.2H83.7z M83.7,400v-1.2H85v1.2H83.7z M86.4,406v-5.2h1.2v0.5l0,0
				c0.1-0.2,0.3-0.3,0.6-0.5s0.5-0.2,0.8-0.2c0.6,0,1,0.2,1.4,0.5c0.3,0.3,0.5,0.8,0.5,1.4v3.4h-1.3v-3.1c0-0.4-0.1-0.6-0.2-0.8
				c-0.1-0.2-0.4-0.3-0.7-0.3c-0.3,0-0.6,0.1-0.7,0.3c-0.2,0.2-0.3,0.4-0.3,0.7v3.2h-1.3V406z"/>
			<path class="st14" d="M314.9,89.4h1.2c0.3,0,0.6,0,0.8-0.1c0.2-0.1,0.5-0.2,0.7-0.4c0.2-0.2,0.4-0.5,0.5-0.9s0.2-0.9,0.2-1.5
				c0-1-0.2-1.8-0.6-2.2c-0.4-0.5-0.9-0.7-1.5-0.7h-1.3L314.9,89.4L314.9,89.4z M313.1,91v-9.1h3c0.5,0,1,0.1,1.5,0.3
				c0.5,0.2,0.9,0.5,1.2,0.8c0.4,0.4,0.7,0.8,0.9,1.4c0.2,0.6,0.3,1.3,0.3,2c0,0.8-0.1,1.6-0.3,2.2c-0.2,0.6-0.5,1.1-0.9,1.4
				s-0.8,0.6-1.3,0.7c-0.5,0.2-0.9,0.2-1.5,0.2L313.1,91L313.1,91z M326,88.6l1.2,1c-0.7,1-1.7,1.5-2.8,1.5c-1,0-1.7-0.3-2.4-1
				c-0.6-0.7-0.9-1.6-0.9-2.7s0.3-2,0.9-2.6c0.6-0.7,1.4-1,2.3-1s1.7,0.3,2.3,1c0.6,0.7,0.9,1.5,0.9,2.6v0.5h-4.6
				c0,0.5,0.2,0.9,0.4,1.2c0.3,0.3,0.6,0.4,1.1,0.4c0.4,0,0.7-0.1,1-0.3C325.5,89.2,325.7,89,326,88.6z M322.7,86.8h3
				c0-0.4-0.2-0.8-0.5-1c-0.3-0.3-0.6-0.4-1.1-0.4c-0.4,0-0.8,0.1-1,0.4C322.9,86.1,322.8,86.4,322.7,86.8z M329.1,91v-5.5H328v-1.4
				h1.1v-1c0-0.6,0.2-1,0.5-1.2c0.3-0.3,0.8-0.4,1.4-0.4h1.4V83h-1c-0.2,0-0.4,0-0.4,0.1c-0.1,0.1-0.1,0.2-0.1,0.4v0.6h1.7v1.4h-1.7
				V91H329.1z M337.9,88.6l1.2,1c-0.7,1-1.7,1.5-2.8,1.5c-1,0-1.7-0.3-2.4-1c-0.6-0.7-0.9-1.6-0.9-2.7s0.3-2,0.9-2.6
				c0.6-0.7,1.4-1,2.3-1s1.7,0.3,2.3,1c0.6,0.7,0.9,1.5,0.9,2.6v0.5h-4.6c0,0.5,0.2,0.9,0.4,1.2c0.3,0.3,0.6,0.4,1.1,0.4
				c0.4,0,0.7-0.1,1-0.3C337.4,89.2,337.6,89,337.9,88.6z M334.6,86.8h3c0-0.4-0.2-0.8-0.5-1c-0.3-0.3-0.6-0.4-1.1-0.4
				c-0.4,0-0.8,0.1-1,0.4C334.8,86.1,334.7,86.4,334.6,86.8z M340.6,91v-6.9h1.6v0.7l0,0c0.2-0.2,0.5-0.4,0.8-0.6s0.7-0.2,1-0.2
				c0.8,0,1.4,0.2,1.8,0.7s0.6,1.1,0.6,1.9V91h-1.7v-4.1c0-0.5-0.1-0.8-0.3-1.1c-0.2-0.2-0.5-0.4-0.9-0.4s-0.7,0.1-1,0.4
				c-0.2,0.2-0.4,0.6-0.4,0.9V91H340.6z M352.6,88.2v-1.3c0-0.4-0.1-0.8-0.4-1.1c-0.3-0.3-0.6-0.4-1.1-0.4s-0.9,0.2-1.2,0.5
				c-0.3,0.4-0.4,0.9-0.4,1.6s0.1,1.2,0.4,1.6s0.7,0.5,1.2,0.5s0.8-0.1,1.1-0.4C352.4,89,352.6,88.6,352.6,88.2z M352.7,91v-0.7l0,0
				c0,0.1-0.1,0.1-0.2,0.2s-0.3,0.2-0.6,0.4c-0.3,0.2-0.7,0.2-1,0.2c-0.9,0-1.6-0.3-2.2-1c-0.5-0.7-0.8-1.5-0.8-2.7
				c0-1.1,0.3-2,0.9-2.7s1.3-1,2.1-1c0.4,0,0.7,0.1,1,0.2s0.5,0.3,0.6,0.4l0.2,0.2l0,0v-3.3h1.7V91H352.7z M360.5,88.6l1.2,1
				c-0.7,1-1.7,1.5-2.8,1.5c-1,0-1.7-0.3-2.4-1c-0.6-0.7-0.9-1.6-0.9-2.7s0.3-2,0.9-2.6c0.6-0.7,1.4-1,2.3-1s1.7,0.3,2.3,1
				c0.6,0.7,0.9,1.5,0.9,2.6v0.5h-4.6c0,0.5,0.2,0.9,0.4,1.2c0.3,0.3,0.6,0.4,1.1,0.4c0.4,0,0.7-0.1,1-0.3
				C360.1,89.2,360.3,89,360.5,88.6z M357.3,86.8h3c0-0.4-0.2-0.8-0.5-1c-0.3-0.3-0.6-0.4-1.1-0.4c-0.4,0-0.8,0.1-1,0.4
				C357.5,86.1,357.4,86.4,357.3,86.8z M363.3,91v-6.9h1.6v0.7l0,0c0.1-0.3,0.3-0.5,0.6-0.6c0.3-0.2,0.5-0.2,0.8-0.2
				c0.2,0,0.4,0,0.6,0.1l-0.3,1.6c-0.2-0.1-0.4-0.1-0.5-0.1c-0.8,0-1.2,0.5-1.2,1.6V91H363.3z M367.6,88.7l1.5-0.4
				c0.1,1,0.6,1.4,1.5,1.4c0.4,0,0.7-0.1,1-0.2s0.4-0.3,0.4-0.6c0-0.2-0.1-0.3-0.3-0.4c-0.2-0.1-0.6-0.2-1.2-0.4
				c-0.2,0-0.3-0.1-0.4-0.1c-0.8-0.2-1.4-0.5-1.8-0.8s-0.6-0.7-0.6-1.2c0-0.6,0.2-1.1,0.7-1.5s1.1-0.6,1.9-0.6c1.5,0,2.5,0.7,2.9,2
				l-1.4,0.4c-0.1-0.3-0.3-0.6-0.5-0.8c-0.2-0.2-0.5-0.3-1-0.3c-0.3,0-0.6,0.1-0.8,0.2c-0.2,0.1-0.3,0.3-0.3,0.4
				c0,0.2,0.1,0.3,0.3,0.5c0.2,0.1,0.8,0.3,1.7,0.5c0.8,0.2,1.4,0.5,1.6,0.8c0.3,0.3,0.4,0.8,0.4,1.3c0,0.6-0.2,1.1-0.7,1.5
				s-1.2,0.7-2.1,0.7c-1,0-1.7-0.2-2.2-0.7C368,90,367.7,89.4,367.6,88.7z"/>
			<path class="st15" d="M44,333h25"/>
			<path class="st15" d="M307,377h35"/>
			<path class="st15" d="M447,319h51"/>
			<path class="st15" d="M564,304h26"/>
			<path class="st16" d="M239,458v26"/>
			<path class="st16" d="M423,435v25"/>
			<path class="st16" d="M610,422.5l34.5,43"/>
			<path class="st16" d="M109,479h72"/>
		</g>
	</g>
</g>
<rect x="592" y="168" class="st17" width="48.4" height="39.1"/>
</svg>
