<?xml version="1.0" encoding="utf-8"?>
<!-- Generator: Adobe Illustrator 22.1.0, SVG Export Plug-In . SVG Version: 6.00 Build 0)  -->
<svg version="1.1" xmlns="http://www.w3.org/2000/svg" xmlns:xlink="http://www.w3.org/1999/xlink" x="0px" y="0px"
	 viewBox="0 0 224 72" style="enable-background:new 0 0 224 72;" xml:space="preserve">
<style type="text/css">
	.st0{fill:#FFFFFF;}
	.st1{fill:#EF4958;}
</style>
<g id="New_Layer">
</g>
<g id="MasterLayer_1">
	<g>
		<path class="st0" d="M126.3,22.7c0.2,0.2,0.3,0.5,0.5,0.7c3.2,4,6.4,8,9.6,12.1c0.2,0.3,0.6,0.5,0.4,0.9c-0.2,0.3-0.6,0.2-0.9,0.2
			c-1.7,0-3.3,0-5,0c-0.7,0-1.3-0.3-1.8-0.8c-3.2-4.1-6.5-8.1-9.8-12.2c-0.5-0.7-0.5-0.8,0-1.4c2.6-3.3,5.3-6.6,7.9-9.9
			c0.2-0.2,0.4-0.5,0.6-0.7c-0.5-0.2-12-0.2-13.1-0.1c0,0.3,0,0.6,0,0.8c0,7.7,0,15.4,0,23.1c0,1.2-0.1,1.3-1.3,1.3
			c-1.2,0-2.4,0-3.6,0c-0.7,0-0.9-0.2-0.9-0.9c0-2.6,0-5.2,0-7.9c0-7,0-13.9,0-20.9c0-1.2,0.1-1.2,1.2-1.2c7.5,0,14.9,0,22.4,0
			c1.2,0,1.3,0.1,1.3,1.3c0,1.8,0,3.5,0,5.3c0,0.7-0.2,1.2-0.6,1.7c-2.2,2.7-4.3,5.4-6.5,8.1C126.7,22.3,126.5,22.5,126.3,22.7z"/>
		<path class="st0" d="M188.2,27c0-0.3,0-0.5,0-0.8c0-6.5,0-12.9,0-19.4c0-1.1,0.1-1.2,1.1-1.2c1.2,0,2.4,0,3.6,0c0.9,0,1,0.1,1,1
			c0,9.6,0,19.3,0,28.9c0,0.8-0.2,1-1,1c-1.2,0-2.4,0-3.6,0c-0.9,0-1.5-0.3-2.1-1c-2.9-3.7-5.9-7.4-8.8-11c-2.4-3-4.7-5.9-7.1-8.9
			c-0.1-0.2-0.3-0.3-0.6-0.7c0,0.4,0,0.7,0,0.9c0,3.6,0,7.2,0,10.8c0,0.3,0.1,0.7-0.3,0.8c-0.4,0.2-0.5-0.2-0.7-0.5
			c-1.4-1.8-2.9-3.6-4.3-5.4c-0.4-0.5-0.5-0.9-0.5-1.5c0-4.5,0-9,0-13.5c0-0.1,0-0.2,0-0.4c0-0.5,0.2-0.6,0.7-0.7c0.4,0,0.8,0,1.2,0
			c0.9,0,1.8,0,2.7,0c0.9,0,1.5,0.3,2.1,1c5.1,6.4,10.1,12.7,15.2,19c0.4,0.5,0.7,0.9,1.1,1.4C188,27,188.1,27,188.2,27z"/>
		<path class="st0" d="M25.9,25.8c-0.4,0.5-0.7,0.9-1.1,1.3c-2.3,2.8-4.6,5.7-6.8,8.5c-0.5,0.7-1.1,0.9-1.9,0.9c-1.6,0-3.3,0-4.9,0
			c-0.2,0-0.3,0-0.5,0c-0.4-0.1-0.5-0.3-0.3-0.6c0.1-0.2,0.2-0.3,0.4-0.5C18.2,26,25.8,16.5,33.3,7.1c0.8-0.9,1.7-1.4,2.9-1.4
			c1,0,2,0,3.1,0c1,0,1.1,0.1,1.1,1.1c0,8,0,16,0,23.9c0,1.6,0,3.2,0,4.9c0,0.8-0.2,1-1,1c-1.3,0-2.5,0-3.8,0
			c-0.8,0-1.3-0.3-1.8-0.9c-2.5-3.1-5-6.2-7.4-9.3C26.2,26.2,26.1,26,25.9,25.8z M34.4,27.6c0,0,0.1-0.1,0.1-0.1c0-4.3,0-8.7,0-13
			c0,0-0.1,0-0.1-0.1c-1.7,2.2-3.5,4.4-5.3,6.6C30.9,23.3,32.6,25.5,34.4,27.6z"/>
		<path class="st0" d="M154.6,25.8c-1.1,1.3-2,2.5-3,3.8c-1.6,2-3.2,4-4.8,6c-0.5,0.7-1.1,1-2,1c-1.2,0-2.5,0-3.7,0
			c-0.8,0-0.9-0.1-0.9-0.9c0-2.6,0-5.2,0-7.8c0-7,0-13.9,0-20.9c0-1.2,0-1.3,1.3-1.3c1.2,0,2.4,0,3.6,0c0.7,0,1.3,0.3,1.7,0.9
			c7.7,9.7,15.4,19.3,23.1,29c0.2,0.2,0.5,0.4,0.3,0.8c-0.2,0.4-0.6,0.2-0.8,0.2c-1.7,0-3.3,0-5,0c-0.8,0-1.3-0.3-1.8-0.9
			c-2.4-3-4.8-6.1-7.3-9.1C155,26.3,154.8,26.1,154.6,25.8z M146.1,27.7c1.8-2.2,3.5-4.4,5.3-6.6c-1.8-2.2-3.5-4.4-5.3-6.6
			C145.9,15.3,145.9,27,146.1,27.7z"/>
		<path class="st0" d="M7.1,27c1-1.2,2-2.5,3-3.7c4.5-5.6,8.9-11.2,13.4-16.8c0.5-0.7,1.1-0.9,1.9-0.9c1.6,0,3.3,0,4.9,0
			c0.2,0,0.4,0,0.6,0c0.3,0.1,0.4,0.3,0.2,0.6c-0.1,0.1-0.2,0.2-0.3,0.3c-10,12.6-16.9,21.2-23.2,29c-0.5,0.6-1,0.9-1.8,0.9
			c-1.3,0-2.5,0-3.8,0c-0.8,0-1-0.1-1-1c0-4.9,0-9.8,0-14.8c0-4.6,0-9.1,0-13.7c0-0.2,0-0.3,0-0.5c0-0.8,0.1-0.9,1-1
			c0.7,0,1.5,0,2.2,0c0.6,0,1.2,0,1.8,0c0.6,0,0.8,0.2,0.8,0.8c0,0.8,0,1.6,0,2.3c0,5.8,0,11.6,0,17.4c0,0.3,0,0.5,0,0.8
			C7,27,7,27,7.1,27z"/>
		<path class="st0" d="M212.4,11.2c0,1.4,0,2.7,0,4c0,5.1,0,10.2,0,15.3c0,1.6,0,3.3,0,4.9c0,0.8-0.2,1-1,1c-1.3,0-2.5,0-3.8,0
			c-0.9,0-1.1-0.1-1.1-1c0-4.7,0-9.3,0-14c0-3.2,0-6.4,0-9.5c0-0.2,0-0.5,0-0.8c-0.4,0-0.6,0-0.9,0c-2.2,0-4.4,0-6.6,0
			c-0.2,0-0.4,0-0.6,0c-0.3-0.1-0.6-0.3-0.6-0.6c0-1.4,0-2.9,0-4.3c0-0.4,0.2-0.6,0.6-0.6c0.2,0,0.4,0,0.6,0c6.2,0,12.3,0,18.5,0
			c0.9,0,1.6,0.3,2.1,1c0.9,1.2,1.9,2.4,2.8,3.5c0.1,0.1,0.2,0.2,0.3,0.3c0.2,0.3,0.1,0.6-0.3,0.7c-0.2,0-0.4,0-0.6,0
			c-2.9,0-5.7,0-8.6,0C213.1,11.2,212.8,11.2,212.4,11.2z"/>
		<path class="st0" d="M52.7,31c0.4,0,0.6,0,0.9,0c3.7,0,7.4,0,11.1,0c0.2,0,0.3,0,0.5,0c0.3,0,0.7-0.1,0.7,0.2
			c0,0.2-0.1,0.5-0.3,0.7c-1,1.3-2,2.5-3,3.8c-0.4,0.5-0.9,0.8-1.6,0.8c-4.4,0-8.7,0-13.1,0c-0.8,0-1-0.1-1-1c0-9.6,0-19.3,0-28.9
			c0-0.8,0.1-1,1-1c1.3,0,2.6,0,3.9,0c0.9,0,1,0.1,1,1c0,7.8,0,15.6,0,23.3C52.7,30.3,52.7,30.6,52.7,31z"/>
	</g>
	<g>
		<path class="st1" d="M175.5,55.2c0-2.4,0-4.9,0-7.3c0-2.9,1.3-4.1,4.2-4.2c1,0,2.1,0,3.1,0c2.7,0.1,3.8,1.2,4,3.9
			c0.1,1.5,0,2.9,0,4.4c0,3.4,0,6.9,0,10.3c0,3.4-1.2,4.5-4.5,4.6c-0.9,0-1.7,0-2.6,0c-2.9-0.1-4.2-1.3-4.2-4.2
			C175.5,60.1,175.5,57.6,175.5,55.2z M182.4,55.3c0-2.1,0-4.2,0-6.4c0-0.9-0.2-1.5-1.2-1.5c-1.1,0-1.2,0.6-1.2,1.5
			c0,4.2,0,8.4,0,12.6c0,0.8,0.1,1.5,1.2,1.5c1,0,1.2-0.6,1.2-1.5C182.4,59.4,182.4,57.3,182.4,55.3z"/>
		<path class="st1" d="M195.3,43.8c1.6,0,2.9,0,4.4,0c0,0.5,0.1,1.1,0.1,1.6c0,5.7,0,11.3,0,17c0,3.2-1.2,4.3-4.3,4.4
			c-0.8,0-1.6,0-2.5,0c-3.1-0.1-4.3-1.2-4.4-4.4c0-3.5,0-7,0-10.5c0-2.7,0-5.3,0-8.1c1.5,0,2.8,0,4.3,0c0,0.6,0.1,1.1,0.1,1.7
			c0,5,0,9.9,0,14.9c0,0.4-0.1,0.8,0,1.1c0.3,0.5,0.7,1.3,1.1,1.4c1,0.2,1.1-0.6,1.1-1.4c0-5.2,0-10.5,0-15.7
			C195.3,45.2,195.3,44.6,195.3,43.8z"/>
		<path class="st1" d="M212,57.9c1.5,0,2.8,0,4.4,0c0,1.3-0.1,2.6,0,3.8c0.1,0.5,0.6,0.9,1,1.3c0.4-0.4,1-0.8,1.1-1.3
			c0.3-2.1-0.2-3.6-2.1-5c-4.7-3.2-4.9-3.9-4.3-9.7c0.2-2.2,1.3-3.4,3.5-3.5c1.4-0.1,2.7-0.1,4.1,0c1.8,0.1,2.9,1.1,3,2.9
			c0.2,1.7,0,3.4,0,5.3c-1.4,0-2.7,0-4.2,0c0-1,0.1-2.1,0-3.2c-0.1-0.5-0.6-0.9-1-1.3c-0.4,0.4-0.9,0.8-1,1.3
			c-0.3,1.7,0.2,2.9,1.8,4c5.4,3.9,4.7,2.6,4.7,9.5c0,3.5-1.1,4.6-4.6,4.6c-5.6,0.1-6.3-0.6-6.3-6.2C212,59.7,212,58.8,212,57.9z"/>
		<path class="st1" d="M143.4,53.1c-1.6,0-2.8,0-4.4,0c0-1.5,0.1-2.9-0.1-4.3c-0.1-0.5-0.6-1.3-1.1-1.4c-0.9-0.2-1.1,0.5-1.1,1.3
			c0,4.3,0,8.5,0,12.8c0,0.8,0.1,1.4,1.1,1.5c1,0,1.3-0.6,1.3-1.5c0-1.6,0-3.2,0-4.9c1.5,0,2.8,0,4.1,0c0,2.6,0.1,5.2-0.1,7.7
			c-0.1,1.3-1.2,2.2-2.6,2.3c-1.8,0.1-3.6,0.2-5.4,0c-1.7-0.1-2.8-1.5-2.9-3.4c-0.1-5.3-0.1-10.7,0-16c0-2.2,1.3-3.4,3.5-3.5
			c1.4-0.1,2.7-0.1,4.1,0c2.1,0.1,3.2,1.2,3.4,3.3c0.1,1.4,0.1,2.8,0.1,4.2C143.4,51.7,143.4,52.3,143.4,53.1z"/>
		<path class="st1" d="M156.4,66.5c-1.6,0-2.9,0-4.3,0c-0.2-1.1-0.3-2.1-0.5-3.2c-1,0-1.9,0-2.9,0c-0.2,1-0.3,2.1-0.5,3.1
			c-1.2,0-2.5,0-3.9,0c1-7.6,2-15.1,3-22.7c2,0,4,0,6.1,0C154.4,51.3,155.4,58.9,156.4,66.5z M149.1,59.4c0.9,0,1.5-0.1,2.2-0.1
			c-0.3-3.1-0.6-6-0.9-8.9c-0.1,0-0.2,0-0.3,0C149.7,53.3,149.4,56.3,149.1,59.4z"/>
		<path class="st1" d="M208.2,66.5c-1.5,0-2.9,0-4.4,0c0-6.2,0-12.3,0-18.6c-1-0.1-1.8-0.2-2.7-0.2c0-1.3,0-2.5,0-3.8
			c3.2,0,6.4,0,9.8,0c0,1.3,0,2.5,0,3.8c-0.8,0.1-1.6,0.2-2.6,0.3C208.2,54.1,208.2,60.3,208.2,66.5z"/>
		<path class="st1" d="M157.6,66.5c0-7.5,0-15,0-22.6c1.4,0,2.8,0,4.3,0c0,6.1,0,12.3,0,18.6c1.2,0.1,2.2,0.1,3.3,0.2
			c0,1.3,0,2.5,0,3.8C162.7,66.5,160.2,66.5,157.6,66.5z"/>
		<path class="st1" d="M171.1,62.5c1.2,0.1,2.2,0.1,3.3,0.2c0,1.3,0,2.6,0,3.9c-2.6,0-5,0-7.6,0c0-7.6,0-15.1,0-22.7
			c1.4,0,2.8,0,4.4,0C171.1,50,171.1,56.2,171.1,62.5z"/>
	</g>
	<g>
		<g>
			<path class="st1" d="M86.5,3.7c-10.8,0-19.6,8.8-19.6,19.6c0,3.7,1.2,6.4,2.9,10.3l15.6,32.4c0.3,0.5,0.8,0.8,1.4,0.8
				c0,0,0,0,0,0c0.6,0,1.1-0.3,1.4-0.8l15.2-32.7c1.4-3.4,2.8-6.5,2.8-10.1C106.1,12.5,97.3,3.7,86.5,3.7z M99.6,31.7L86.5,58.3
				L73.6,31.5c-1.1-2.7-2.2-5.9-2.2-8.3c-0.1-9.6,8.3-15,15.1-15c8,0,15.1,6.8,15.1,15.1C101.5,26.3,100.6,28.9,99.6,31.7z"/>
		</g>
	</g>
	<g>
		<g>
			<path class="st0" d="M86.5,13.4c-5.4,0-9.8,4.4-9.8,9.8c0,5.4,4.3,9.8,9.8,9.8c5.5,0,9.8-4.5,9.8-9.8
				C96.3,17.8,91.9,13.4,86.5,13.4z M86.5,29.8c-3.6,0-6.6-2.9-6.6-6.6c0-3.6,3-6.6,6.6-6.6s6.6,3,6.6,6.6
				C93,26.8,90.2,29.8,86.5,29.8z"/>
		</g>
	</g>
</g>
</svg>
